%TF.GenerationSoftware,KiCad,Pcbnew,(5.1.10)-1*%
%TF.CreationDate,2022-01-31T11:01:00+08:00*%
%TF.ProjectId,VL160,564c3136-302e-46b6-9963-61645f706362,rev?*%
%TF.SameCoordinates,Original*%
%TF.FileFunction,Copper,L3,Inr*%
%TF.FilePolarity,Positive*%
%FSLAX46Y46*%
G04 Gerber Fmt 4.6, Leading zero omitted, Abs format (unit mm)*
G04 Created by KiCad (PCBNEW (5.1.10)-1) date 2022-01-31 11:01:00*
%MOMM*%
%LPD*%
G01*
G04 APERTURE LIST*
%TA.AperFunction,ComponentPad*%
%ADD10C,0.650000*%
%TD*%
%TA.AperFunction,ComponentPad*%
%ADD11O,1.400000X0.800000*%
%TD*%
%TA.AperFunction,ComponentPad*%
%ADD12O,3.200400X1.300480*%
%TD*%
%TA.AperFunction,ViaPad*%
%ADD13C,0.450000*%
%TD*%
%TA.AperFunction,ViaPad*%
%ADD14C,0.600000*%
%TD*%
%TA.AperFunction,Conductor*%
%ADD15C,0.117602*%
%TD*%
%TA.AperFunction,Conductor*%
%ADD16C,0.114300*%
%TD*%
%TA.AperFunction,Conductor*%
%ADD17C,0.100000*%
%TD*%
G04 APERTURE END LIST*
D10*
%TO.N,/RX1+*%
%TO.C,J1*%
X133820000Y-94755000D03*
%TO.N,/RX1-*%
X133820000Y-95555000D03*
%TO.N,N/C*%
X133820000Y-96355000D03*
%TO.N,/CC2*%
X133820000Y-97955000D03*
%TO.N,/TX2-*%
X133820000Y-98755000D03*
%TO.N,/TX2+*%
X133820000Y-99555000D03*
%TO.N,GND*%
X134520000Y-94355000D03*
%TO.N,VBUS*%
X134520000Y-95955000D03*
%TO.N,/D-*%
X134520000Y-96755000D03*
%TO.N,/D+*%
X134520000Y-97555000D03*
%TO.N,VBUS*%
X134520000Y-98355000D03*
%TO.N,GND*%
X134520000Y-99955000D03*
D11*
X127970000Y-92665000D03*
X127970000Y-101645000D03*
X133920000Y-101285000D03*
X133920000Y-93025000D03*
%TD*%
D12*
%TO.N,GND*%
%TO.C,J2*%
X148546820Y-90596720D03*
X148546820Y-103398320D03*
%TD*%
D13*
%TO.N,GND*%
X137287000Y-92870500D03*
X137287000Y-91821000D03*
X137287000Y-92329000D03*
X155702000Y-93345000D03*
X155702000Y-94361000D03*
X155702000Y-93853000D03*
X155702000Y-94869000D03*
X155702000Y-95885000D03*
X155702000Y-95377000D03*
X141097000Y-97536000D03*
X141605000Y-97536000D03*
X142113000Y-97536000D03*
X142113000Y-98171000D03*
X141605000Y-98171000D03*
X141097000Y-98171000D03*
X141097000Y-98806000D03*
X141605000Y-98806000D03*
X142113000Y-98806000D03*
X142113000Y-99441000D03*
X141605000Y-99441000D03*
X141097000Y-99441000D03*
D14*
%TO.N,VBUS*%
X149225000Y-94200500D03*
X149225000Y-93502000D03*
D13*
X137414000Y-94107000D03*
X137795000Y-93726000D03*
%TO.N,/CC1*%
X136421093Y-96405001D03*
X139827000Y-96266000D03*
%TO.N,/D+*%
X148949200Y-96520000D03*
%TO.N,/D-*%
X136406557Y-97395419D03*
X149500800Y-96520000D03*
%TO.N,/TX2+*%
X138863952Y-98330750D03*
%TO.N,/TX2-*%
X138863952Y-97779150D03*
%TO.N,/CC2*%
X137287000Y-100711000D03*
X140598341Y-96351402D03*
%TO.N,/RX1-*%
X137117990Y-97769790D03*
%TO.N,/RX1+*%
X137669590Y-97769790D03*
%TO.N,/TX+*%
X145473979Y-93784979D03*
%TO.N,/TX-*%
X145864021Y-94175021D03*
%TO.N,/RX+*%
X145669000Y-99673200D03*
%TO.N,/RX-*%
X145669000Y-100224800D03*
%TD*%
D15*
%TO.N,/D+*%
X134810399Y-97264601D02*
X135173399Y-97264601D01*
X134520000Y-97555000D02*
X134810399Y-97264601D01*
X135173399Y-97264601D02*
X135872601Y-96565399D01*
X135872601Y-96565399D02*
X135872601Y-95930399D01*
X135872601Y-95930399D02*
X136316399Y-95486601D01*
X136316399Y-95486601D02*
X148671601Y-95486601D01*
X149115399Y-96353801D02*
X148949200Y-96520000D01*
X148671601Y-95486601D02*
X149115399Y-95930399D01*
X149115399Y-95930399D02*
X149115399Y-96353801D01*
%TO.N,/D-*%
X134810399Y-97045399D02*
X135082601Y-97045399D01*
X134520000Y-96755000D02*
X134810399Y-97045399D01*
X135082601Y-97045399D02*
X135653399Y-96474601D01*
X135653399Y-96474601D02*
X135653399Y-95839601D01*
X135653399Y-95839601D02*
X136225601Y-95267399D01*
X136225601Y-95267399D02*
X148762399Y-95267399D01*
X148762399Y-95267399D02*
X149334601Y-95839601D01*
X149334601Y-95839601D02*
X149334601Y-96353801D01*
X149334601Y-96353801D02*
X149500800Y-96520000D01*
%TD*%
D16*
%TO.N,GND*%
X146752780Y-90263727D02*
X146777060Y-90399870D01*
X148349970Y-90399870D01*
X148349970Y-90221450D01*
X148743670Y-90221450D01*
X148743670Y-90399870D01*
X150316580Y-90399870D01*
X150340860Y-90263727D01*
X150325074Y-90221450D01*
X156778551Y-90221450D01*
X156778550Y-103778550D01*
X150323222Y-103778550D01*
X150340860Y-103731313D01*
X150316580Y-103595170D01*
X148743670Y-103595170D01*
X148743670Y-103778550D01*
X148349970Y-103778550D01*
X148349970Y-103595170D01*
X146777060Y-103595170D01*
X146752780Y-103731313D01*
X146770418Y-103778550D01*
X130846296Y-103778550D01*
X130950644Y-103735328D01*
X131087102Y-103644150D01*
X131203150Y-103528102D01*
X131294328Y-103391644D01*
X131357132Y-103240021D01*
X131389150Y-103079058D01*
X131389150Y-103065327D01*
X146752780Y-103065327D01*
X146777060Y-103201470D01*
X148349970Y-103201470D01*
X148349970Y-102490930D01*
X148743670Y-102490930D01*
X148743670Y-103201470D01*
X150316580Y-103201470D01*
X150340860Y-103065327D01*
X150277596Y-102895893D01*
X150164574Y-102753217D01*
X150025889Y-102635332D01*
X149866871Y-102546769D01*
X149693630Y-102490930D01*
X148743670Y-102490930D01*
X148349970Y-102490930D01*
X147400010Y-102490930D01*
X147226769Y-102546769D01*
X147067751Y-102635332D01*
X146929066Y-102753217D01*
X146816044Y-102895893D01*
X146752780Y-103065327D01*
X131389150Y-103065327D01*
X131389150Y-102914942D01*
X131357132Y-102753979D01*
X131294328Y-102602356D01*
X131203150Y-102465898D01*
X131087102Y-102349850D01*
X130950644Y-102258672D01*
X130799021Y-102195868D01*
X130638058Y-102163850D01*
X130473942Y-102163850D01*
X130312979Y-102195868D01*
X130161356Y-102258672D01*
X130024898Y-102349850D01*
X129908850Y-102465898D01*
X129817672Y-102602356D01*
X129754868Y-102753979D01*
X129722850Y-102914942D01*
X129722850Y-103079058D01*
X129754868Y-103240021D01*
X129817672Y-103391644D01*
X129908850Y-103528102D01*
X130024898Y-103644150D01*
X130161356Y-103735328D01*
X130265704Y-103778550D01*
X127221450Y-103778550D01*
X127221450Y-102152540D01*
X127289310Y-102208786D01*
X127406614Y-102272222D01*
X127534040Y-102311554D01*
X127666691Y-102325271D01*
X127773150Y-102253126D01*
X127773150Y-101841850D01*
X128166850Y-101841850D01*
X128166850Y-102253126D01*
X128273309Y-102325271D01*
X128405960Y-102311554D01*
X128533386Y-102272222D01*
X128650690Y-102208786D01*
X128753364Y-102123684D01*
X128837463Y-102020187D01*
X128858461Y-101937507D01*
X128829229Y-101841850D01*
X128166850Y-101841850D01*
X127773150Y-101841850D01*
X127753150Y-101841850D01*
X127753150Y-101577507D01*
X133031539Y-101577507D01*
X133052537Y-101660187D01*
X133136636Y-101763684D01*
X133239310Y-101848786D01*
X133356614Y-101912222D01*
X133484040Y-101951554D01*
X133616691Y-101965271D01*
X133723150Y-101893126D01*
X133723150Y-101481850D01*
X133060771Y-101481850D01*
X133031539Y-101577507D01*
X127753150Y-101577507D01*
X127753150Y-101448150D01*
X127773150Y-101448150D01*
X127773150Y-101036874D01*
X128166850Y-101036874D01*
X128166850Y-101448150D01*
X128829229Y-101448150D01*
X128858461Y-101352493D01*
X128837463Y-101269813D01*
X128753364Y-101166316D01*
X128650690Y-101081214D01*
X128533386Y-101017778D01*
X128451469Y-100992493D01*
X133031539Y-100992493D01*
X133060771Y-101088150D01*
X133723150Y-101088150D01*
X133723150Y-100676874D01*
X134116850Y-100676874D01*
X134116850Y-101088150D01*
X134136850Y-101088150D01*
X134136850Y-101481850D01*
X134116850Y-101481850D01*
X134116850Y-101893126D01*
X134223309Y-101965271D01*
X134355960Y-101951554D01*
X134483386Y-101912222D01*
X134600690Y-101848786D01*
X134703364Y-101763684D01*
X134787463Y-101660187D01*
X134808461Y-101577507D01*
X134779230Y-101481852D01*
X134877150Y-101481852D01*
X134877150Y-101408560D01*
X134946143Y-101445438D01*
X135055879Y-101478726D01*
X135170000Y-101489966D01*
X135284120Y-101478726D01*
X135393856Y-101445438D01*
X135494989Y-101391381D01*
X135583633Y-101318633D01*
X135656381Y-101229990D01*
X135710438Y-101128857D01*
X135743726Y-101019121D01*
X135752150Y-100933591D01*
X135752150Y-100663512D01*
X136804850Y-100663512D01*
X136804850Y-100758488D01*
X136823379Y-100851638D01*
X136859724Y-100939384D01*
X136912490Y-101018353D01*
X136979647Y-101085510D01*
X137058616Y-101138276D01*
X137146362Y-101174621D01*
X137239512Y-101193150D01*
X137334488Y-101193150D01*
X137427638Y-101174621D01*
X137515384Y-101138276D01*
X137594353Y-101085510D01*
X137661510Y-101018353D01*
X137714276Y-100939384D01*
X137750621Y-100851638D01*
X137769150Y-100758488D01*
X137769150Y-100663512D01*
X137750621Y-100570362D01*
X137714276Y-100482616D01*
X137661510Y-100403647D01*
X137594353Y-100336490D01*
X137515384Y-100283724D01*
X137427638Y-100247379D01*
X137334488Y-100228850D01*
X137239512Y-100228850D01*
X137146362Y-100247379D01*
X137058616Y-100283724D01*
X136979647Y-100336490D01*
X136912490Y-100403647D01*
X136859724Y-100482616D01*
X136823379Y-100570362D01*
X136804850Y-100663512D01*
X135752150Y-100663512D01*
X135752150Y-100576410D01*
X135743726Y-100490880D01*
X135710438Y-100381144D01*
X135656381Y-100280010D01*
X135583633Y-100191367D01*
X135494990Y-100118619D01*
X135393857Y-100064562D01*
X135284121Y-100031274D01*
X135170000Y-100020034D01*
X135098845Y-100027042D01*
X135102664Y-100006851D01*
X135101584Y-99892182D01*
X135081354Y-99790473D01*
X135000044Y-99753344D01*
X134798388Y-99955000D01*
X134812530Y-99969142D01*
X134534142Y-100247530D01*
X134520000Y-100233388D01*
X134318344Y-100435044D01*
X134355473Y-100516354D01*
X134468149Y-100537664D01*
X134582818Y-100536584D01*
X134591951Y-100534767D01*
X134587850Y-100576409D01*
X134587850Y-100714270D01*
X134483386Y-100657778D01*
X134355960Y-100618446D01*
X134223309Y-100604729D01*
X134116850Y-100676874D01*
X133723150Y-100676874D01*
X133616691Y-100604729D01*
X133484040Y-100618446D01*
X133356614Y-100657778D01*
X133239310Y-100721214D01*
X133136636Y-100806316D01*
X133052537Y-100909813D01*
X133031539Y-100992493D01*
X128451469Y-100992493D01*
X128405960Y-100978446D01*
X128273309Y-100964729D01*
X128166850Y-101036874D01*
X127773150Y-101036874D01*
X127666691Y-100964729D01*
X127534040Y-100978446D01*
X127406614Y-101017778D01*
X127289310Y-101081214D01*
X127221450Y-101137460D01*
X127221450Y-94697663D01*
X133237850Y-94697663D01*
X133237850Y-94812337D01*
X133260221Y-94924807D01*
X133304105Y-95030752D01*
X133367814Y-95126099D01*
X133396715Y-95155000D01*
X133367814Y-95183901D01*
X133304105Y-95279248D01*
X133260221Y-95385193D01*
X133237850Y-95497663D01*
X133237850Y-95612337D01*
X133260221Y-95724807D01*
X133304105Y-95830752D01*
X133367814Y-95926099D01*
X133396715Y-95955000D01*
X133367814Y-95983901D01*
X133304105Y-96079248D01*
X133260221Y-96185193D01*
X133237850Y-96297663D01*
X133237850Y-96412337D01*
X133260221Y-96524807D01*
X133304105Y-96630752D01*
X133367814Y-96726099D01*
X133448901Y-96807186D01*
X133544248Y-96870895D01*
X133650193Y-96914779D01*
X133762663Y-96937150D01*
X133877337Y-96937150D01*
X133959428Y-96920822D01*
X133960221Y-96924807D01*
X134004105Y-97030752D01*
X134067814Y-97126099D01*
X134096715Y-97155000D01*
X134067814Y-97183901D01*
X134004105Y-97279248D01*
X133960221Y-97385193D01*
X133959428Y-97389178D01*
X133877337Y-97372850D01*
X133762663Y-97372850D01*
X133650193Y-97395221D01*
X133544248Y-97439105D01*
X133448901Y-97502814D01*
X133367814Y-97583901D01*
X133304105Y-97679248D01*
X133260221Y-97785193D01*
X133237850Y-97897663D01*
X133237850Y-98012337D01*
X133260221Y-98124807D01*
X133304105Y-98230752D01*
X133367814Y-98326099D01*
X133396715Y-98355000D01*
X133367814Y-98383901D01*
X133304105Y-98479248D01*
X133260221Y-98585193D01*
X133237850Y-98697663D01*
X133237850Y-98812337D01*
X133260221Y-98924807D01*
X133304105Y-99030752D01*
X133367814Y-99126099D01*
X133396715Y-99155000D01*
X133367814Y-99183901D01*
X133304105Y-99279248D01*
X133260221Y-99385193D01*
X133237850Y-99497663D01*
X133237850Y-99612337D01*
X133260221Y-99724807D01*
X133304105Y-99830752D01*
X133367814Y-99926099D01*
X133448901Y-100007186D01*
X133544248Y-100070895D01*
X133650193Y-100114779D01*
X133762663Y-100137150D01*
X133877337Y-100137150D01*
X133960858Y-100120537D01*
X134039956Y-100156656D01*
X134186057Y-100010555D01*
X134191099Y-100007186D01*
X134272186Y-99926099D01*
X134332510Y-99835818D01*
X134505858Y-99662470D01*
X134520000Y-99676612D01*
X134570900Y-99625712D01*
X145186850Y-99625712D01*
X145186850Y-99720688D01*
X145205379Y-99813838D01*
X145241724Y-99901584D01*
X145273407Y-99949000D01*
X145241724Y-99996416D01*
X145205379Y-100084162D01*
X145186850Y-100177312D01*
X145186850Y-100272288D01*
X145205379Y-100365438D01*
X145241724Y-100453184D01*
X145294490Y-100532153D01*
X145361647Y-100599310D01*
X145440616Y-100652076D01*
X145528362Y-100688421D01*
X145621512Y-100706950D01*
X145716488Y-100706950D01*
X145809638Y-100688421D01*
X145897384Y-100652076D01*
X145976353Y-100599310D01*
X146043510Y-100532153D01*
X146096276Y-100453184D01*
X146132621Y-100365438D01*
X146151150Y-100272288D01*
X146151150Y-100177312D01*
X146132621Y-100084162D01*
X146096276Y-99996416D01*
X146064593Y-99949000D01*
X146096276Y-99901584D01*
X146132621Y-99813838D01*
X146147320Y-99739942D01*
X154487850Y-99739942D01*
X154487850Y-99904058D01*
X154519868Y-100065021D01*
X154582672Y-100216644D01*
X154673850Y-100353102D01*
X154789898Y-100469150D01*
X154926356Y-100560328D01*
X155077979Y-100623132D01*
X155238942Y-100655150D01*
X155403058Y-100655150D01*
X155564021Y-100623132D01*
X155715644Y-100560328D01*
X155852102Y-100469150D01*
X155968150Y-100353102D01*
X156059328Y-100216644D01*
X156122132Y-100065021D01*
X156154150Y-99904058D01*
X156154150Y-99739942D01*
X156122132Y-99578979D01*
X156059328Y-99427356D01*
X155968150Y-99290898D01*
X155852102Y-99174850D01*
X155715644Y-99083672D01*
X155564021Y-99020868D01*
X155403058Y-98988850D01*
X155238942Y-98988850D01*
X155077979Y-99020868D01*
X154926356Y-99083672D01*
X154789898Y-99174850D01*
X154673850Y-99290898D01*
X154582672Y-99427356D01*
X154519868Y-99578979D01*
X154487850Y-99739942D01*
X146147320Y-99739942D01*
X146151150Y-99720688D01*
X146151150Y-99625712D01*
X146132621Y-99532562D01*
X146096276Y-99444816D01*
X146043510Y-99365847D01*
X145976353Y-99298690D01*
X145897384Y-99245924D01*
X145809638Y-99209579D01*
X145716488Y-99191050D01*
X145621512Y-99191050D01*
X145528362Y-99209579D01*
X145440616Y-99245924D01*
X145361647Y-99298690D01*
X145294490Y-99365847D01*
X145241724Y-99444816D01*
X145205379Y-99532562D01*
X145186850Y-99625712D01*
X134570900Y-99625712D01*
X134721656Y-99474956D01*
X134684527Y-99393646D01*
X134571851Y-99372336D01*
X134457182Y-99373416D01*
X134380471Y-99388674D01*
X134379779Y-99385193D01*
X134335895Y-99279248D01*
X134272186Y-99183901D01*
X134243285Y-99155000D01*
X134272186Y-99126099D01*
X134335895Y-99030752D01*
X134379779Y-98924807D01*
X134380572Y-98920822D01*
X134462663Y-98937150D01*
X134577337Y-98937150D01*
X134689807Y-98914779D01*
X134795752Y-98870895D01*
X134891099Y-98807186D01*
X134972186Y-98726099D01*
X135035895Y-98630752D01*
X135079779Y-98524807D01*
X135102150Y-98412337D01*
X135102150Y-98297663D01*
X135079779Y-98185193D01*
X135035895Y-98079248D01*
X134972186Y-97983901D01*
X134943285Y-97955000D01*
X134972186Y-97926099D01*
X135035895Y-97830752D01*
X135079779Y-97724807D01*
X135102150Y-97612337D01*
X135102150Y-97580552D01*
X135157887Y-97580552D01*
X135173399Y-97582080D01*
X135188911Y-97580552D01*
X135188914Y-97580552D01*
X135235336Y-97575980D01*
X135294893Y-97557913D01*
X135349781Y-97528575D01*
X135397891Y-97489093D01*
X135407789Y-97477032D01*
X135536890Y-97347931D01*
X135924407Y-97347931D01*
X135924407Y-97442907D01*
X135942936Y-97536057D01*
X135979281Y-97623803D01*
X136032047Y-97702772D01*
X136099204Y-97769929D01*
X136178173Y-97822695D01*
X136265919Y-97859040D01*
X136359069Y-97877569D01*
X136454045Y-97877569D01*
X136547195Y-97859040D01*
X136634941Y-97822695D01*
X136636686Y-97821529D01*
X136654369Y-97910428D01*
X136690714Y-97998174D01*
X136743480Y-98077143D01*
X136810637Y-98144300D01*
X136889606Y-98197066D01*
X136977352Y-98233411D01*
X137070502Y-98251940D01*
X137165478Y-98251940D01*
X137258628Y-98233411D01*
X137346374Y-98197066D01*
X137393790Y-98165383D01*
X137441206Y-98197066D01*
X137528952Y-98233411D01*
X137622102Y-98251940D01*
X137717078Y-98251940D01*
X137810228Y-98233411D01*
X137897974Y-98197066D01*
X137976943Y-98144300D01*
X138044100Y-98077143D01*
X138096866Y-97998174D01*
X138133211Y-97910428D01*
X138151740Y-97817278D01*
X138151740Y-97731662D01*
X138381802Y-97731662D01*
X138381802Y-97826638D01*
X138400331Y-97919788D01*
X138436676Y-98007534D01*
X138468359Y-98054950D01*
X138436676Y-98102366D01*
X138400331Y-98190112D01*
X138381802Y-98283262D01*
X138381802Y-98378238D01*
X138400331Y-98471388D01*
X138436676Y-98559134D01*
X138489442Y-98638103D01*
X138556599Y-98705260D01*
X138635568Y-98758026D01*
X138723314Y-98794371D01*
X138816464Y-98812900D01*
X138911440Y-98812900D01*
X139004590Y-98794371D01*
X139092336Y-98758026D01*
X139171305Y-98705260D01*
X139238462Y-98638103D01*
X139291228Y-98559134D01*
X139327573Y-98471388D01*
X139346102Y-98378238D01*
X139346102Y-98283262D01*
X139327573Y-98190112D01*
X139291228Y-98102366D01*
X139259545Y-98054950D01*
X139291228Y-98007534D01*
X139327573Y-97919788D01*
X139346102Y-97826638D01*
X139346102Y-97731662D01*
X139327573Y-97638512D01*
X139291228Y-97550766D01*
X139238462Y-97471797D01*
X139171305Y-97404640D01*
X139092336Y-97351874D01*
X139004590Y-97315529D01*
X138911440Y-97297000D01*
X138816464Y-97297000D01*
X138723314Y-97315529D01*
X138635568Y-97351874D01*
X138556599Y-97404640D01*
X138489442Y-97471797D01*
X138436676Y-97550766D01*
X138400331Y-97638512D01*
X138381802Y-97731662D01*
X138151740Y-97731662D01*
X138151740Y-97722302D01*
X138133211Y-97629152D01*
X138096866Y-97541406D01*
X138044100Y-97462437D01*
X137976943Y-97395280D01*
X137897974Y-97342514D01*
X137810228Y-97306169D01*
X137717078Y-97287640D01*
X137622102Y-97287640D01*
X137528952Y-97306169D01*
X137441206Y-97342514D01*
X137393790Y-97374197D01*
X137346374Y-97342514D01*
X137258628Y-97306169D01*
X137165478Y-97287640D01*
X137070502Y-97287640D01*
X136977352Y-97306169D01*
X136889606Y-97342514D01*
X136887861Y-97343680D01*
X136870178Y-97254781D01*
X136833833Y-97167035D01*
X136781067Y-97088066D01*
X136713910Y-97020909D01*
X136634941Y-96968143D01*
X136547195Y-96931798D01*
X136454045Y-96913269D01*
X136359069Y-96913269D01*
X136265919Y-96931798D01*
X136178173Y-96968143D01*
X136099204Y-97020909D01*
X136032047Y-97088066D01*
X135979281Y-97167035D01*
X135942936Y-97254781D01*
X135924407Y-97347931D01*
X135536890Y-97347931D01*
X136085039Y-96799783D01*
X136097093Y-96789891D01*
X136109275Y-96775046D01*
X136113740Y-96779511D01*
X136192709Y-96832277D01*
X136280455Y-96868622D01*
X136373605Y-96887151D01*
X136468581Y-96887151D01*
X136561731Y-96868622D01*
X136649477Y-96832277D01*
X136728446Y-96779511D01*
X136795603Y-96712354D01*
X136848369Y-96633385D01*
X136884714Y-96545639D01*
X136903243Y-96452489D01*
X136903243Y-96357513D01*
X136884714Y-96264363D01*
X136848369Y-96176617D01*
X136795603Y-96097648D01*
X136728446Y-96030491D01*
X136649477Y-95977725D01*
X136561731Y-95941380D01*
X136468581Y-95922851D01*
X136373605Y-95922851D01*
X136315391Y-95934431D01*
X136447270Y-95802552D01*
X139685944Y-95802552D01*
X139598616Y-95838724D01*
X139519647Y-95891490D01*
X139452490Y-95958647D01*
X139399724Y-96037616D01*
X139363379Y-96125362D01*
X139344850Y-96218512D01*
X139344850Y-96313488D01*
X139363379Y-96406638D01*
X139399724Y-96494384D01*
X139452490Y-96573353D01*
X139519647Y-96640510D01*
X139598616Y-96693276D01*
X139686362Y-96729621D01*
X139779512Y-96748150D01*
X139874488Y-96748150D01*
X139967638Y-96729621D01*
X140055384Y-96693276D01*
X140134353Y-96640510D01*
X140180683Y-96594180D01*
X140223831Y-96658755D01*
X140290988Y-96725912D01*
X140369957Y-96778678D01*
X140457703Y-96815023D01*
X140550853Y-96833552D01*
X140645829Y-96833552D01*
X140738979Y-96815023D01*
X140826725Y-96778678D01*
X140905694Y-96725912D01*
X140972851Y-96658755D01*
X141025617Y-96579786D01*
X141061962Y-96492040D01*
X141080491Y-96398890D01*
X141080491Y-96303914D01*
X141061962Y-96210764D01*
X141025617Y-96123018D01*
X140972851Y-96044049D01*
X140905694Y-95976892D01*
X140826725Y-95924126D01*
X140738979Y-95887781D01*
X140645829Y-95869252D01*
X140550853Y-95869252D01*
X140457703Y-95887781D01*
X140369957Y-95924126D01*
X140290988Y-95976892D01*
X140244658Y-96023222D01*
X140201510Y-95958647D01*
X140134353Y-95891490D01*
X140055384Y-95838724D01*
X139968056Y-95802552D01*
X148540731Y-95802552D01*
X148798659Y-96060481D01*
X148720816Y-96092724D01*
X148641847Y-96145490D01*
X148574690Y-96212647D01*
X148521924Y-96291616D01*
X148485579Y-96379362D01*
X148467050Y-96472512D01*
X148467050Y-96567488D01*
X148485579Y-96660638D01*
X148521924Y-96748384D01*
X148574690Y-96827353D01*
X148641847Y-96894510D01*
X148720816Y-96947276D01*
X148808562Y-96983621D01*
X148901712Y-97002150D01*
X148996688Y-97002150D01*
X149089838Y-96983621D01*
X149177584Y-96947276D01*
X149225000Y-96915593D01*
X149272416Y-96947276D01*
X149360162Y-96983621D01*
X149453312Y-97002150D01*
X149548288Y-97002150D01*
X149641438Y-96983621D01*
X149729184Y-96947276D01*
X149808153Y-96894510D01*
X149875310Y-96827353D01*
X149928076Y-96748384D01*
X149964421Y-96660638D01*
X149982950Y-96567488D01*
X149982950Y-96472512D01*
X149964421Y-96379362D01*
X149928076Y-96291616D01*
X149875310Y-96212647D01*
X149808153Y-96145490D01*
X149729184Y-96092724D01*
X149650552Y-96060154D01*
X149650552Y-95855113D01*
X149652080Y-95839601D01*
X149650552Y-95824086D01*
X149645980Y-95777664D01*
X149627913Y-95718107D01*
X149598576Y-95663220D01*
X149598575Y-95663218D01*
X149577129Y-95637087D01*
X149559093Y-95615109D01*
X149547039Y-95605217D01*
X148996789Y-95054968D01*
X148986891Y-95042907D01*
X148938781Y-95003425D01*
X148883893Y-94974087D01*
X148824336Y-94956020D01*
X148777914Y-94951448D01*
X148777911Y-94951448D01*
X148762399Y-94949920D01*
X148746887Y-94951448D01*
X136241113Y-94951448D01*
X136225601Y-94949920D01*
X136210089Y-94951448D01*
X136210086Y-94951448D01*
X136163664Y-94956020D01*
X136108185Y-94972850D01*
X136104107Y-94974087D01*
X136049218Y-95003425D01*
X136030795Y-95018545D01*
X136001109Y-95042907D01*
X135991215Y-95054963D01*
X135440963Y-95605216D01*
X135428908Y-95615109D01*
X135410872Y-95637087D01*
X135389425Y-95663219D01*
X135360087Y-95718108D01*
X135349195Y-95754016D01*
X135343482Y-95772850D01*
X135342021Y-95777665D01*
X135335920Y-95839601D01*
X135337449Y-95855123D01*
X135337448Y-96343730D01*
X135082468Y-96598711D01*
X135079779Y-96585193D01*
X135035895Y-96479248D01*
X134972186Y-96383901D01*
X134943285Y-96355000D01*
X134972186Y-96326099D01*
X135035895Y-96230752D01*
X135079779Y-96124807D01*
X135102150Y-96012337D01*
X135102150Y-95897663D01*
X135079779Y-95785193D01*
X135035895Y-95679248D01*
X134972186Y-95583901D01*
X134891099Y-95502814D01*
X134795752Y-95439105D01*
X134689807Y-95395221D01*
X134577337Y-95372850D01*
X134462663Y-95372850D01*
X134380572Y-95389178D01*
X134379779Y-95385193D01*
X134335895Y-95279248D01*
X134272186Y-95183901D01*
X134243285Y-95155000D01*
X134272186Y-95126099D01*
X134335895Y-95030752D01*
X134379779Y-94924807D01*
X134380518Y-94921091D01*
X134468149Y-94937664D01*
X134582818Y-94936584D01*
X134684527Y-94916354D01*
X134721656Y-94835044D01*
X134520000Y-94633388D01*
X134505858Y-94647530D01*
X134332510Y-94474182D01*
X134272186Y-94383901D01*
X134191099Y-94302814D01*
X134186057Y-94299445D01*
X134039956Y-94153344D01*
X133960858Y-94189463D01*
X133877337Y-94172850D01*
X133762663Y-94172850D01*
X133650193Y-94195221D01*
X133544248Y-94239105D01*
X133448901Y-94302814D01*
X133367814Y-94383901D01*
X133304105Y-94479248D01*
X133260221Y-94585193D01*
X133237850Y-94697663D01*
X127221450Y-94697663D01*
X127221450Y-93172540D01*
X127289310Y-93228786D01*
X127406614Y-93292222D01*
X127534040Y-93331554D01*
X127666691Y-93345271D01*
X127773150Y-93273126D01*
X127773150Y-92861850D01*
X128166850Y-92861850D01*
X128166850Y-93273126D01*
X128273309Y-93345271D01*
X128405960Y-93331554D01*
X128451468Y-93317507D01*
X133031539Y-93317507D01*
X133052537Y-93400187D01*
X133136636Y-93503684D01*
X133239310Y-93588786D01*
X133356614Y-93652222D01*
X133484040Y-93691554D01*
X133616691Y-93705271D01*
X133723150Y-93633126D01*
X133723150Y-93221850D01*
X134116850Y-93221850D01*
X134116850Y-93633126D01*
X134223309Y-93705271D01*
X134355960Y-93691554D01*
X134483386Y-93652222D01*
X134587850Y-93595730D01*
X134587850Y-93612337D01*
X134610221Y-93724807D01*
X134634843Y-93784249D01*
X134571851Y-93772336D01*
X134457182Y-93773416D01*
X134355473Y-93793646D01*
X134318344Y-93874956D01*
X134520000Y-94076612D01*
X134534142Y-94062470D01*
X134812530Y-94340858D01*
X134798388Y-94355000D01*
X135000044Y-94556656D01*
X135081354Y-94519527D01*
X135102664Y-94406851D01*
X135101584Y-94292182D01*
X135081354Y-94190473D01*
X135000046Y-94153345D01*
X135032238Y-94121153D01*
X135112663Y-94137150D01*
X135227337Y-94137150D01*
X135339807Y-94114779D01*
X135445752Y-94070895D01*
X135462787Y-94059512D01*
X136931850Y-94059512D01*
X136931850Y-94154488D01*
X136950379Y-94247638D01*
X136986724Y-94335384D01*
X137039490Y-94414353D01*
X137106647Y-94481510D01*
X137185616Y-94534276D01*
X137273362Y-94570621D01*
X137366512Y-94589150D01*
X137461488Y-94589150D01*
X137554638Y-94570621D01*
X137642384Y-94534276D01*
X137721353Y-94481510D01*
X137788510Y-94414353D01*
X137841276Y-94335384D01*
X137877621Y-94247638D01*
X137887247Y-94199247D01*
X137935638Y-94189621D01*
X138023384Y-94153276D01*
X138102353Y-94100510D01*
X138169510Y-94033353D01*
X138222276Y-93954384D01*
X138258621Y-93866638D01*
X138277150Y-93773488D01*
X138277150Y-93737491D01*
X144991829Y-93737491D01*
X144991829Y-93832467D01*
X145010358Y-93925617D01*
X145046703Y-94013363D01*
X145099469Y-94092332D01*
X145166626Y-94159489D01*
X145245595Y-94212255D01*
X145333341Y-94248600D01*
X145389274Y-94259726D01*
X145400400Y-94315659D01*
X145436745Y-94403405D01*
X145489511Y-94482374D01*
X145556668Y-94549531D01*
X145635637Y-94602297D01*
X145723383Y-94638642D01*
X145816533Y-94657171D01*
X145911509Y-94657171D01*
X146004659Y-94638642D01*
X146092405Y-94602297D01*
X146171374Y-94549531D01*
X146238531Y-94482374D01*
X146291297Y-94403405D01*
X146327642Y-94315659D01*
X146346171Y-94222509D01*
X146346171Y-94127533D01*
X146327642Y-94034383D01*
X146291297Y-93946637D01*
X146238531Y-93867668D01*
X146171374Y-93800511D01*
X146092405Y-93747745D01*
X146004659Y-93711400D01*
X145948726Y-93700274D01*
X145937600Y-93644341D01*
X145901255Y-93556595D01*
X145848489Y-93477626D01*
X145817988Y-93447125D01*
X148667850Y-93447125D01*
X148667850Y-93556875D01*
X148689261Y-93664515D01*
X148731260Y-93765910D01*
X148788282Y-93851250D01*
X148731260Y-93936590D01*
X148689261Y-94037985D01*
X148667850Y-94145625D01*
X148667850Y-94255375D01*
X148689261Y-94363015D01*
X148731260Y-94464410D01*
X148792233Y-94555663D01*
X148869837Y-94633267D01*
X148961090Y-94694240D01*
X149062485Y-94736239D01*
X149170125Y-94757650D01*
X149279875Y-94757650D01*
X149387515Y-94736239D01*
X149488910Y-94694240D01*
X149580163Y-94633267D01*
X149657767Y-94555663D01*
X149718740Y-94464410D01*
X149760739Y-94363015D01*
X149782150Y-94255375D01*
X149782150Y-94145625D01*
X149760739Y-94037985D01*
X149718740Y-93936590D01*
X149661718Y-93851250D01*
X149718740Y-93765910D01*
X149760739Y-93664515D01*
X149782150Y-93556875D01*
X149782150Y-93447125D01*
X149760739Y-93339485D01*
X149718740Y-93238090D01*
X149657767Y-93146837D01*
X149580163Y-93069233D01*
X149488910Y-93008260D01*
X149387515Y-92966261D01*
X149279875Y-92944850D01*
X149170125Y-92944850D01*
X149062485Y-92966261D01*
X148961090Y-93008260D01*
X148869837Y-93069233D01*
X148792233Y-93146837D01*
X148731260Y-93238090D01*
X148689261Y-93339485D01*
X148667850Y-93447125D01*
X145817988Y-93447125D01*
X145781332Y-93410469D01*
X145702363Y-93357703D01*
X145614617Y-93321358D01*
X145521467Y-93302829D01*
X145426491Y-93302829D01*
X145333341Y-93321358D01*
X145245595Y-93357703D01*
X145166626Y-93410469D01*
X145099469Y-93477626D01*
X145046703Y-93556595D01*
X145010358Y-93644341D01*
X144991829Y-93737491D01*
X138277150Y-93737491D01*
X138277150Y-93678512D01*
X138258621Y-93585362D01*
X138222276Y-93497616D01*
X138169510Y-93418647D01*
X138102353Y-93351490D01*
X138023384Y-93298724D01*
X137935638Y-93262379D01*
X137842488Y-93243850D01*
X137747512Y-93243850D01*
X137654362Y-93262379D01*
X137566616Y-93298724D01*
X137487647Y-93351490D01*
X137420490Y-93418647D01*
X137367724Y-93497616D01*
X137331379Y-93585362D01*
X137321753Y-93633753D01*
X137273362Y-93643379D01*
X137185616Y-93679724D01*
X137106647Y-93732490D01*
X137039490Y-93799647D01*
X136986724Y-93878616D01*
X136950379Y-93966362D01*
X136931850Y-94059512D01*
X135462787Y-94059512D01*
X135541099Y-94007186D01*
X135622186Y-93926099D01*
X135685895Y-93830752D01*
X135729779Y-93724807D01*
X135752150Y-93612337D01*
X135752150Y-93497663D01*
X135729779Y-93385193D01*
X135685895Y-93279248D01*
X135622186Y-93183901D01*
X135541099Y-93102814D01*
X135445752Y-93039105D01*
X135339807Y-92995221D01*
X135227337Y-92972850D01*
X135112663Y-92972850D01*
X135000193Y-92995221D01*
X134894248Y-93039105D01*
X134798901Y-93102814D01*
X134717814Y-93183901D01*
X134692457Y-93221850D01*
X134116850Y-93221850D01*
X133723150Y-93221850D01*
X133060771Y-93221850D01*
X133031539Y-93317507D01*
X128451468Y-93317507D01*
X128533386Y-93292222D01*
X128650690Y-93228786D01*
X128753364Y-93143684D01*
X128837463Y-93040187D01*
X128858461Y-92957507D01*
X128829229Y-92861850D01*
X128166850Y-92861850D01*
X127773150Y-92861850D01*
X127753150Y-92861850D01*
X127753150Y-92732493D01*
X133031539Y-92732493D01*
X133060771Y-92828150D01*
X133723150Y-92828150D01*
X133723150Y-92416874D01*
X134116850Y-92416874D01*
X134116850Y-92828150D01*
X134779229Y-92828150D01*
X134808461Y-92732493D01*
X134787463Y-92649813D01*
X134703364Y-92546316D01*
X134600690Y-92461214D01*
X134483386Y-92397778D01*
X134355960Y-92358446D01*
X134223309Y-92344729D01*
X134116850Y-92416874D01*
X133723150Y-92416874D01*
X133616691Y-92344729D01*
X133484040Y-92358446D01*
X133356614Y-92397778D01*
X133239310Y-92461214D01*
X133136636Y-92546316D01*
X133052537Y-92649813D01*
X133031539Y-92732493D01*
X127753150Y-92732493D01*
X127753150Y-92468150D01*
X127773150Y-92468150D01*
X127773150Y-92056874D01*
X128166850Y-92056874D01*
X128166850Y-92468150D01*
X128829229Y-92468150D01*
X128858461Y-92372493D01*
X128837463Y-92289813D01*
X128753364Y-92186316D01*
X128650690Y-92101214D01*
X128533386Y-92037778D01*
X128405960Y-91998446D01*
X128273309Y-91984729D01*
X128166850Y-92056874D01*
X127773150Y-92056874D01*
X127666691Y-91984729D01*
X127534040Y-91998446D01*
X127406614Y-92037778D01*
X127289310Y-92101214D01*
X127221450Y-92157460D01*
X127221450Y-90976942D01*
X144454850Y-90976942D01*
X144454850Y-91141058D01*
X144486868Y-91302021D01*
X144549672Y-91453644D01*
X144640850Y-91590102D01*
X144756898Y-91706150D01*
X144893356Y-91797328D01*
X145044979Y-91860132D01*
X145205942Y-91892150D01*
X145370058Y-91892150D01*
X145531021Y-91860132D01*
X145682644Y-91797328D01*
X145819102Y-91706150D01*
X145935150Y-91590102D01*
X146026328Y-91453644D01*
X146089132Y-91302021D01*
X146121150Y-91141058D01*
X146121150Y-90976942D01*
X146111756Y-90929713D01*
X146752780Y-90929713D01*
X146816044Y-91099147D01*
X146929066Y-91241823D01*
X147067751Y-91359708D01*
X147226769Y-91448271D01*
X147400010Y-91504110D01*
X148349970Y-91504110D01*
X148349970Y-90793570D01*
X148743670Y-90793570D01*
X148743670Y-91504110D01*
X149693630Y-91504110D01*
X149866871Y-91448271D01*
X150025889Y-91359708D01*
X150164574Y-91241823D01*
X150277596Y-91099147D01*
X150340860Y-90929713D01*
X150316580Y-90793570D01*
X148743670Y-90793570D01*
X148349970Y-90793570D01*
X146777060Y-90793570D01*
X146752780Y-90929713D01*
X146111756Y-90929713D01*
X146089132Y-90815979D01*
X146026328Y-90664356D01*
X145935150Y-90527898D01*
X145819102Y-90411850D01*
X145682644Y-90320672D01*
X145531021Y-90257868D01*
X145370058Y-90225850D01*
X145205942Y-90225850D01*
X145044979Y-90257868D01*
X144893356Y-90320672D01*
X144756898Y-90411850D01*
X144640850Y-90527898D01*
X144549672Y-90664356D01*
X144486868Y-90815979D01*
X144454850Y-90976942D01*
X127221450Y-90976942D01*
X127221450Y-90221450D01*
X146768566Y-90221450D01*
X146752780Y-90263727D01*
%TA.AperFunction,Conductor*%
D17*
G36*
X146752780Y-90263727D02*
G01*
X146777060Y-90399870D01*
X148349970Y-90399870D01*
X148349970Y-90221450D01*
X148743670Y-90221450D01*
X148743670Y-90399870D01*
X150316580Y-90399870D01*
X150340860Y-90263727D01*
X150325074Y-90221450D01*
X156778551Y-90221450D01*
X156778550Y-103778550D01*
X150323222Y-103778550D01*
X150340860Y-103731313D01*
X150316580Y-103595170D01*
X148743670Y-103595170D01*
X148743670Y-103778550D01*
X148349970Y-103778550D01*
X148349970Y-103595170D01*
X146777060Y-103595170D01*
X146752780Y-103731313D01*
X146770418Y-103778550D01*
X130846296Y-103778550D01*
X130950644Y-103735328D01*
X131087102Y-103644150D01*
X131203150Y-103528102D01*
X131294328Y-103391644D01*
X131357132Y-103240021D01*
X131389150Y-103079058D01*
X131389150Y-103065327D01*
X146752780Y-103065327D01*
X146777060Y-103201470D01*
X148349970Y-103201470D01*
X148349970Y-102490930D01*
X148743670Y-102490930D01*
X148743670Y-103201470D01*
X150316580Y-103201470D01*
X150340860Y-103065327D01*
X150277596Y-102895893D01*
X150164574Y-102753217D01*
X150025889Y-102635332D01*
X149866871Y-102546769D01*
X149693630Y-102490930D01*
X148743670Y-102490930D01*
X148349970Y-102490930D01*
X147400010Y-102490930D01*
X147226769Y-102546769D01*
X147067751Y-102635332D01*
X146929066Y-102753217D01*
X146816044Y-102895893D01*
X146752780Y-103065327D01*
X131389150Y-103065327D01*
X131389150Y-102914942D01*
X131357132Y-102753979D01*
X131294328Y-102602356D01*
X131203150Y-102465898D01*
X131087102Y-102349850D01*
X130950644Y-102258672D01*
X130799021Y-102195868D01*
X130638058Y-102163850D01*
X130473942Y-102163850D01*
X130312979Y-102195868D01*
X130161356Y-102258672D01*
X130024898Y-102349850D01*
X129908850Y-102465898D01*
X129817672Y-102602356D01*
X129754868Y-102753979D01*
X129722850Y-102914942D01*
X129722850Y-103079058D01*
X129754868Y-103240021D01*
X129817672Y-103391644D01*
X129908850Y-103528102D01*
X130024898Y-103644150D01*
X130161356Y-103735328D01*
X130265704Y-103778550D01*
X127221450Y-103778550D01*
X127221450Y-102152540D01*
X127289310Y-102208786D01*
X127406614Y-102272222D01*
X127534040Y-102311554D01*
X127666691Y-102325271D01*
X127773150Y-102253126D01*
X127773150Y-101841850D01*
X128166850Y-101841850D01*
X128166850Y-102253126D01*
X128273309Y-102325271D01*
X128405960Y-102311554D01*
X128533386Y-102272222D01*
X128650690Y-102208786D01*
X128753364Y-102123684D01*
X128837463Y-102020187D01*
X128858461Y-101937507D01*
X128829229Y-101841850D01*
X128166850Y-101841850D01*
X127773150Y-101841850D01*
X127753150Y-101841850D01*
X127753150Y-101577507D01*
X133031539Y-101577507D01*
X133052537Y-101660187D01*
X133136636Y-101763684D01*
X133239310Y-101848786D01*
X133356614Y-101912222D01*
X133484040Y-101951554D01*
X133616691Y-101965271D01*
X133723150Y-101893126D01*
X133723150Y-101481850D01*
X133060771Y-101481850D01*
X133031539Y-101577507D01*
X127753150Y-101577507D01*
X127753150Y-101448150D01*
X127773150Y-101448150D01*
X127773150Y-101036874D01*
X128166850Y-101036874D01*
X128166850Y-101448150D01*
X128829229Y-101448150D01*
X128858461Y-101352493D01*
X128837463Y-101269813D01*
X128753364Y-101166316D01*
X128650690Y-101081214D01*
X128533386Y-101017778D01*
X128451469Y-100992493D01*
X133031539Y-100992493D01*
X133060771Y-101088150D01*
X133723150Y-101088150D01*
X133723150Y-100676874D01*
X134116850Y-100676874D01*
X134116850Y-101088150D01*
X134136850Y-101088150D01*
X134136850Y-101481850D01*
X134116850Y-101481850D01*
X134116850Y-101893126D01*
X134223309Y-101965271D01*
X134355960Y-101951554D01*
X134483386Y-101912222D01*
X134600690Y-101848786D01*
X134703364Y-101763684D01*
X134787463Y-101660187D01*
X134808461Y-101577507D01*
X134779230Y-101481852D01*
X134877150Y-101481852D01*
X134877150Y-101408560D01*
X134946143Y-101445438D01*
X135055879Y-101478726D01*
X135170000Y-101489966D01*
X135284120Y-101478726D01*
X135393856Y-101445438D01*
X135494989Y-101391381D01*
X135583633Y-101318633D01*
X135656381Y-101229990D01*
X135710438Y-101128857D01*
X135743726Y-101019121D01*
X135752150Y-100933591D01*
X135752150Y-100663512D01*
X136804850Y-100663512D01*
X136804850Y-100758488D01*
X136823379Y-100851638D01*
X136859724Y-100939384D01*
X136912490Y-101018353D01*
X136979647Y-101085510D01*
X137058616Y-101138276D01*
X137146362Y-101174621D01*
X137239512Y-101193150D01*
X137334488Y-101193150D01*
X137427638Y-101174621D01*
X137515384Y-101138276D01*
X137594353Y-101085510D01*
X137661510Y-101018353D01*
X137714276Y-100939384D01*
X137750621Y-100851638D01*
X137769150Y-100758488D01*
X137769150Y-100663512D01*
X137750621Y-100570362D01*
X137714276Y-100482616D01*
X137661510Y-100403647D01*
X137594353Y-100336490D01*
X137515384Y-100283724D01*
X137427638Y-100247379D01*
X137334488Y-100228850D01*
X137239512Y-100228850D01*
X137146362Y-100247379D01*
X137058616Y-100283724D01*
X136979647Y-100336490D01*
X136912490Y-100403647D01*
X136859724Y-100482616D01*
X136823379Y-100570362D01*
X136804850Y-100663512D01*
X135752150Y-100663512D01*
X135752150Y-100576410D01*
X135743726Y-100490880D01*
X135710438Y-100381144D01*
X135656381Y-100280010D01*
X135583633Y-100191367D01*
X135494990Y-100118619D01*
X135393857Y-100064562D01*
X135284121Y-100031274D01*
X135170000Y-100020034D01*
X135098845Y-100027042D01*
X135102664Y-100006851D01*
X135101584Y-99892182D01*
X135081354Y-99790473D01*
X135000044Y-99753344D01*
X134798388Y-99955000D01*
X134812530Y-99969142D01*
X134534142Y-100247530D01*
X134520000Y-100233388D01*
X134318344Y-100435044D01*
X134355473Y-100516354D01*
X134468149Y-100537664D01*
X134582818Y-100536584D01*
X134591951Y-100534767D01*
X134587850Y-100576409D01*
X134587850Y-100714270D01*
X134483386Y-100657778D01*
X134355960Y-100618446D01*
X134223309Y-100604729D01*
X134116850Y-100676874D01*
X133723150Y-100676874D01*
X133616691Y-100604729D01*
X133484040Y-100618446D01*
X133356614Y-100657778D01*
X133239310Y-100721214D01*
X133136636Y-100806316D01*
X133052537Y-100909813D01*
X133031539Y-100992493D01*
X128451469Y-100992493D01*
X128405960Y-100978446D01*
X128273309Y-100964729D01*
X128166850Y-101036874D01*
X127773150Y-101036874D01*
X127666691Y-100964729D01*
X127534040Y-100978446D01*
X127406614Y-101017778D01*
X127289310Y-101081214D01*
X127221450Y-101137460D01*
X127221450Y-94697663D01*
X133237850Y-94697663D01*
X133237850Y-94812337D01*
X133260221Y-94924807D01*
X133304105Y-95030752D01*
X133367814Y-95126099D01*
X133396715Y-95155000D01*
X133367814Y-95183901D01*
X133304105Y-95279248D01*
X133260221Y-95385193D01*
X133237850Y-95497663D01*
X133237850Y-95612337D01*
X133260221Y-95724807D01*
X133304105Y-95830752D01*
X133367814Y-95926099D01*
X133396715Y-95955000D01*
X133367814Y-95983901D01*
X133304105Y-96079248D01*
X133260221Y-96185193D01*
X133237850Y-96297663D01*
X133237850Y-96412337D01*
X133260221Y-96524807D01*
X133304105Y-96630752D01*
X133367814Y-96726099D01*
X133448901Y-96807186D01*
X133544248Y-96870895D01*
X133650193Y-96914779D01*
X133762663Y-96937150D01*
X133877337Y-96937150D01*
X133959428Y-96920822D01*
X133960221Y-96924807D01*
X134004105Y-97030752D01*
X134067814Y-97126099D01*
X134096715Y-97155000D01*
X134067814Y-97183901D01*
X134004105Y-97279248D01*
X133960221Y-97385193D01*
X133959428Y-97389178D01*
X133877337Y-97372850D01*
X133762663Y-97372850D01*
X133650193Y-97395221D01*
X133544248Y-97439105D01*
X133448901Y-97502814D01*
X133367814Y-97583901D01*
X133304105Y-97679248D01*
X133260221Y-97785193D01*
X133237850Y-97897663D01*
X133237850Y-98012337D01*
X133260221Y-98124807D01*
X133304105Y-98230752D01*
X133367814Y-98326099D01*
X133396715Y-98355000D01*
X133367814Y-98383901D01*
X133304105Y-98479248D01*
X133260221Y-98585193D01*
X133237850Y-98697663D01*
X133237850Y-98812337D01*
X133260221Y-98924807D01*
X133304105Y-99030752D01*
X133367814Y-99126099D01*
X133396715Y-99155000D01*
X133367814Y-99183901D01*
X133304105Y-99279248D01*
X133260221Y-99385193D01*
X133237850Y-99497663D01*
X133237850Y-99612337D01*
X133260221Y-99724807D01*
X133304105Y-99830752D01*
X133367814Y-99926099D01*
X133448901Y-100007186D01*
X133544248Y-100070895D01*
X133650193Y-100114779D01*
X133762663Y-100137150D01*
X133877337Y-100137150D01*
X133960858Y-100120537D01*
X134039956Y-100156656D01*
X134186057Y-100010555D01*
X134191099Y-100007186D01*
X134272186Y-99926099D01*
X134332510Y-99835818D01*
X134505858Y-99662470D01*
X134520000Y-99676612D01*
X134570900Y-99625712D01*
X145186850Y-99625712D01*
X145186850Y-99720688D01*
X145205379Y-99813838D01*
X145241724Y-99901584D01*
X145273407Y-99949000D01*
X145241724Y-99996416D01*
X145205379Y-100084162D01*
X145186850Y-100177312D01*
X145186850Y-100272288D01*
X145205379Y-100365438D01*
X145241724Y-100453184D01*
X145294490Y-100532153D01*
X145361647Y-100599310D01*
X145440616Y-100652076D01*
X145528362Y-100688421D01*
X145621512Y-100706950D01*
X145716488Y-100706950D01*
X145809638Y-100688421D01*
X145897384Y-100652076D01*
X145976353Y-100599310D01*
X146043510Y-100532153D01*
X146096276Y-100453184D01*
X146132621Y-100365438D01*
X146151150Y-100272288D01*
X146151150Y-100177312D01*
X146132621Y-100084162D01*
X146096276Y-99996416D01*
X146064593Y-99949000D01*
X146096276Y-99901584D01*
X146132621Y-99813838D01*
X146147320Y-99739942D01*
X154487850Y-99739942D01*
X154487850Y-99904058D01*
X154519868Y-100065021D01*
X154582672Y-100216644D01*
X154673850Y-100353102D01*
X154789898Y-100469150D01*
X154926356Y-100560328D01*
X155077979Y-100623132D01*
X155238942Y-100655150D01*
X155403058Y-100655150D01*
X155564021Y-100623132D01*
X155715644Y-100560328D01*
X155852102Y-100469150D01*
X155968150Y-100353102D01*
X156059328Y-100216644D01*
X156122132Y-100065021D01*
X156154150Y-99904058D01*
X156154150Y-99739942D01*
X156122132Y-99578979D01*
X156059328Y-99427356D01*
X155968150Y-99290898D01*
X155852102Y-99174850D01*
X155715644Y-99083672D01*
X155564021Y-99020868D01*
X155403058Y-98988850D01*
X155238942Y-98988850D01*
X155077979Y-99020868D01*
X154926356Y-99083672D01*
X154789898Y-99174850D01*
X154673850Y-99290898D01*
X154582672Y-99427356D01*
X154519868Y-99578979D01*
X154487850Y-99739942D01*
X146147320Y-99739942D01*
X146151150Y-99720688D01*
X146151150Y-99625712D01*
X146132621Y-99532562D01*
X146096276Y-99444816D01*
X146043510Y-99365847D01*
X145976353Y-99298690D01*
X145897384Y-99245924D01*
X145809638Y-99209579D01*
X145716488Y-99191050D01*
X145621512Y-99191050D01*
X145528362Y-99209579D01*
X145440616Y-99245924D01*
X145361647Y-99298690D01*
X145294490Y-99365847D01*
X145241724Y-99444816D01*
X145205379Y-99532562D01*
X145186850Y-99625712D01*
X134570900Y-99625712D01*
X134721656Y-99474956D01*
X134684527Y-99393646D01*
X134571851Y-99372336D01*
X134457182Y-99373416D01*
X134380471Y-99388674D01*
X134379779Y-99385193D01*
X134335895Y-99279248D01*
X134272186Y-99183901D01*
X134243285Y-99155000D01*
X134272186Y-99126099D01*
X134335895Y-99030752D01*
X134379779Y-98924807D01*
X134380572Y-98920822D01*
X134462663Y-98937150D01*
X134577337Y-98937150D01*
X134689807Y-98914779D01*
X134795752Y-98870895D01*
X134891099Y-98807186D01*
X134972186Y-98726099D01*
X135035895Y-98630752D01*
X135079779Y-98524807D01*
X135102150Y-98412337D01*
X135102150Y-98297663D01*
X135079779Y-98185193D01*
X135035895Y-98079248D01*
X134972186Y-97983901D01*
X134943285Y-97955000D01*
X134972186Y-97926099D01*
X135035895Y-97830752D01*
X135079779Y-97724807D01*
X135102150Y-97612337D01*
X135102150Y-97580552D01*
X135157887Y-97580552D01*
X135173399Y-97582080D01*
X135188911Y-97580552D01*
X135188914Y-97580552D01*
X135235336Y-97575980D01*
X135294893Y-97557913D01*
X135349781Y-97528575D01*
X135397891Y-97489093D01*
X135407789Y-97477032D01*
X135536890Y-97347931D01*
X135924407Y-97347931D01*
X135924407Y-97442907D01*
X135942936Y-97536057D01*
X135979281Y-97623803D01*
X136032047Y-97702772D01*
X136099204Y-97769929D01*
X136178173Y-97822695D01*
X136265919Y-97859040D01*
X136359069Y-97877569D01*
X136454045Y-97877569D01*
X136547195Y-97859040D01*
X136634941Y-97822695D01*
X136636686Y-97821529D01*
X136654369Y-97910428D01*
X136690714Y-97998174D01*
X136743480Y-98077143D01*
X136810637Y-98144300D01*
X136889606Y-98197066D01*
X136977352Y-98233411D01*
X137070502Y-98251940D01*
X137165478Y-98251940D01*
X137258628Y-98233411D01*
X137346374Y-98197066D01*
X137393790Y-98165383D01*
X137441206Y-98197066D01*
X137528952Y-98233411D01*
X137622102Y-98251940D01*
X137717078Y-98251940D01*
X137810228Y-98233411D01*
X137897974Y-98197066D01*
X137976943Y-98144300D01*
X138044100Y-98077143D01*
X138096866Y-97998174D01*
X138133211Y-97910428D01*
X138151740Y-97817278D01*
X138151740Y-97731662D01*
X138381802Y-97731662D01*
X138381802Y-97826638D01*
X138400331Y-97919788D01*
X138436676Y-98007534D01*
X138468359Y-98054950D01*
X138436676Y-98102366D01*
X138400331Y-98190112D01*
X138381802Y-98283262D01*
X138381802Y-98378238D01*
X138400331Y-98471388D01*
X138436676Y-98559134D01*
X138489442Y-98638103D01*
X138556599Y-98705260D01*
X138635568Y-98758026D01*
X138723314Y-98794371D01*
X138816464Y-98812900D01*
X138911440Y-98812900D01*
X139004590Y-98794371D01*
X139092336Y-98758026D01*
X139171305Y-98705260D01*
X139238462Y-98638103D01*
X139291228Y-98559134D01*
X139327573Y-98471388D01*
X139346102Y-98378238D01*
X139346102Y-98283262D01*
X139327573Y-98190112D01*
X139291228Y-98102366D01*
X139259545Y-98054950D01*
X139291228Y-98007534D01*
X139327573Y-97919788D01*
X139346102Y-97826638D01*
X139346102Y-97731662D01*
X139327573Y-97638512D01*
X139291228Y-97550766D01*
X139238462Y-97471797D01*
X139171305Y-97404640D01*
X139092336Y-97351874D01*
X139004590Y-97315529D01*
X138911440Y-97297000D01*
X138816464Y-97297000D01*
X138723314Y-97315529D01*
X138635568Y-97351874D01*
X138556599Y-97404640D01*
X138489442Y-97471797D01*
X138436676Y-97550766D01*
X138400331Y-97638512D01*
X138381802Y-97731662D01*
X138151740Y-97731662D01*
X138151740Y-97722302D01*
X138133211Y-97629152D01*
X138096866Y-97541406D01*
X138044100Y-97462437D01*
X137976943Y-97395280D01*
X137897974Y-97342514D01*
X137810228Y-97306169D01*
X137717078Y-97287640D01*
X137622102Y-97287640D01*
X137528952Y-97306169D01*
X137441206Y-97342514D01*
X137393790Y-97374197D01*
X137346374Y-97342514D01*
X137258628Y-97306169D01*
X137165478Y-97287640D01*
X137070502Y-97287640D01*
X136977352Y-97306169D01*
X136889606Y-97342514D01*
X136887861Y-97343680D01*
X136870178Y-97254781D01*
X136833833Y-97167035D01*
X136781067Y-97088066D01*
X136713910Y-97020909D01*
X136634941Y-96968143D01*
X136547195Y-96931798D01*
X136454045Y-96913269D01*
X136359069Y-96913269D01*
X136265919Y-96931798D01*
X136178173Y-96968143D01*
X136099204Y-97020909D01*
X136032047Y-97088066D01*
X135979281Y-97167035D01*
X135942936Y-97254781D01*
X135924407Y-97347931D01*
X135536890Y-97347931D01*
X136085039Y-96799783D01*
X136097093Y-96789891D01*
X136109275Y-96775046D01*
X136113740Y-96779511D01*
X136192709Y-96832277D01*
X136280455Y-96868622D01*
X136373605Y-96887151D01*
X136468581Y-96887151D01*
X136561731Y-96868622D01*
X136649477Y-96832277D01*
X136728446Y-96779511D01*
X136795603Y-96712354D01*
X136848369Y-96633385D01*
X136884714Y-96545639D01*
X136903243Y-96452489D01*
X136903243Y-96357513D01*
X136884714Y-96264363D01*
X136848369Y-96176617D01*
X136795603Y-96097648D01*
X136728446Y-96030491D01*
X136649477Y-95977725D01*
X136561731Y-95941380D01*
X136468581Y-95922851D01*
X136373605Y-95922851D01*
X136315391Y-95934431D01*
X136447270Y-95802552D01*
X139685944Y-95802552D01*
X139598616Y-95838724D01*
X139519647Y-95891490D01*
X139452490Y-95958647D01*
X139399724Y-96037616D01*
X139363379Y-96125362D01*
X139344850Y-96218512D01*
X139344850Y-96313488D01*
X139363379Y-96406638D01*
X139399724Y-96494384D01*
X139452490Y-96573353D01*
X139519647Y-96640510D01*
X139598616Y-96693276D01*
X139686362Y-96729621D01*
X139779512Y-96748150D01*
X139874488Y-96748150D01*
X139967638Y-96729621D01*
X140055384Y-96693276D01*
X140134353Y-96640510D01*
X140180683Y-96594180D01*
X140223831Y-96658755D01*
X140290988Y-96725912D01*
X140369957Y-96778678D01*
X140457703Y-96815023D01*
X140550853Y-96833552D01*
X140645829Y-96833552D01*
X140738979Y-96815023D01*
X140826725Y-96778678D01*
X140905694Y-96725912D01*
X140972851Y-96658755D01*
X141025617Y-96579786D01*
X141061962Y-96492040D01*
X141080491Y-96398890D01*
X141080491Y-96303914D01*
X141061962Y-96210764D01*
X141025617Y-96123018D01*
X140972851Y-96044049D01*
X140905694Y-95976892D01*
X140826725Y-95924126D01*
X140738979Y-95887781D01*
X140645829Y-95869252D01*
X140550853Y-95869252D01*
X140457703Y-95887781D01*
X140369957Y-95924126D01*
X140290988Y-95976892D01*
X140244658Y-96023222D01*
X140201510Y-95958647D01*
X140134353Y-95891490D01*
X140055384Y-95838724D01*
X139968056Y-95802552D01*
X148540731Y-95802552D01*
X148798659Y-96060481D01*
X148720816Y-96092724D01*
X148641847Y-96145490D01*
X148574690Y-96212647D01*
X148521924Y-96291616D01*
X148485579Y-96379362D01*
X148467050Y-96472512D01*
X148467050Y-96567488D01*
X148485579Y-96660638D01*
X148521924Y-96748384D01*
X148574690Y-96827353D01*
X148641847Y-96894510D01*
X148720816Y-96947276D01*
X148808562Y-96983621D01*
X148901712Y-97002150D01*
X148996688Y-97002150D01*
X149089838Y-96983621D01*
X149177584Y-96947276D01*
X149225000Y-96915593D01*
X149272416Y-96947276D01*
X149360162Y-96983621D01*
X149453312Y-97002150D01*
X149548288Y-97002150D01*
X149641438Y-96983621D01*
X149729184Y-96947276D01*
X149808153Y-96894510D01*
X149875310Y-96827353D01*
X149928076Y-96748384D01*
X149964421Y-96660638D01*
X149982950Y-96567488D01*
X149982950Y-96472512D01*
X149964421Y-96379362D01*
X149928076Y-96291616D01*
X149875310Y-96212647D01*
X149808153Y-96145490D01*
X149729184Y-96092724D01*
X149650552Y-96060154D01*
X149650552Y-95855113D01*
X149652080Y-95839601D01*
X149650552Y-95824086D01*
X149645980Y-95777664D01*
X149627913Y-95718107D01*
X149598576Y-95663220D01*
X149598575Y-95663218D01*
X149577129Y-95637087D01*
X149559093Y-95615109D01*
X149547039Y-95605217D01*
X148996789Y-95054968D01*
X148986891Y-95042907D01*
X148938781Y-95003425D01*
X148883893Y-94974087D01*
X148824336Y-94956020D01*
X148777914Y-94951448D01*
X148777911Y-94951448D01*
X148762399Y-94949920D01*
X148746887Y-94951448D01*
X136241113Y-94951448D01*
X136225601Y-94949920D01*
X136210089Y-94951448D01*
X136210086Y-94951448D01*
X136163664Y-94956020D01*
X136108185Y-94972850D01*
X136104107Y-94974087D01*
X136049218Y-95003425D01*
X136030795Y-95018545D01*
X136001109Y-95042907D01*
X135991215Y-95054963D01*
X135440963Y-95605216D01*
X135428908Y-95615109D01*
X135410872Y-95637087D01*
X135389425Y-95663219D01*
X135360087Y-95718108D01*
X135349195Y-95754016D01*
X135343482Y-95772850D01*
X135342021Y-95777665D01*
X135335920Y-95839601D01*
X135337449Y-95855123D01*
X135337448Y-96343730D01*
X135082468Y-96598711D01*
X135079779Y-96585193D01*
X135035895Y-96479248D01*
X134972186Y-96383901D01*
X134943285Y-96355000D01*
X134972186Y-96326099D01*
X135035895Y-96230752D01*
X135079779Y-96124807D01*
X135102150Y-96012337D01*
X135102150Y-95897663D01*
X135079779Y-95785193D01*
X135035895Y-95679248D01*
X134972186Y-95583901D01*
X134891099Y-95502814D01*
X134795752Y-95439105D01*
X134689807Y-95395221D01*
X134577337Y-95372850D01*
X134462663Y-95372850D01*
X134380572Y-95389178D01*
X134379779Y-95385193D01*
X134335895Y-95279248D01*
X134272186Y-95183901D01*
X134243285Y-95155000D01*
X134272186Y-95126099D01*
X134335895Y-95030752D01*
X134379779Y-94924807D01*
X134380518Y-94921091D01*
X134468149Y-94937664D01*
X134582818Y-94936584D01*
X134684527Y-94916354D01*
X134721656Y-94835044D01*
X134520000Y-94633388D01*
X134505858Y-94647530D01*
X134332510Y-94474182D01*
X134272186Y-94383901D01*
X134191099Y-94302814D01*
X134186057Y-94299445D01*
X134039956Y-94153344D01*
X133960858Y-94189463D01*
X133877337Y-94172850D01*
X133762663Y-94172850D01*
X133650193Y-94195221D01*
X133544248Y-94239105D01*
X133448901Y-94302814D01*
X133367814Y-94383901D01*
X133304105Y-94479248D01*
X133260221Y-94585193D01*
X133237850Y-94697663D01*
X127221450Y-94697663D01*
X127221450Y-93172540D01*
X127289310Y-93228786D01*
X127406614Y-93292222D01*
X127534040Y-93331554D01*
X127666691Y-93345271D01*
X127773150Y-93273126D01*
X127773150Y-92861850D01*
X128166850Y-92861850D01*
X128166850Y-93273126D01*
X128273309Y-93345271D01*
X128405960Y-93331554D01*
X128451468Y-93317507D01*
X133031539Y-93317507D01*
X133052537Y-93400187D01*
X133136636Y-93503684D01*
X133239310Y-93588786D01*
X133356614Y-93652222D01*
X133484040Y-93691554D01*
X133616691Y-93705271D01*
X133723150Y-93633126D01*
X133723150Y-93221850D01*
X134116850Y-93221850D01*
X134116850Y-93633126D01*
X134223309Y-93705271D01*
X134355960Y-93691554D01*
X134483386Y-93652222D01*
X134587850Y-93595730D01*
X134587850Y-93612337D01*
X134610221Y-93724807D01*
X134634843Y-93784249D01*
X134571851Y-93772336D01*
X134457182Y-93773416D01*
X134355473Y-93793646D01*
X134318344Y-93874956D01*
X134520000Y-94076612D01*
X134534142Y-94062470D01*
X134812530Y-94340858D01*
X134798388Y-94355000D01*
X135000044Y-94556656D01*
X135081354Y-94519527D01*
X135102664Y-94406851D01*
X135101584Y-94292182D01*
X135081354Y-94190473D01*
X135000046Y-94153345D01*
X135032238Y-94121153D01*
X135112663Y-94137150D01*
X135227337Y-94137150D01*
X135339807Y-94114779D01*
X135445752Y-94070895D01*
X135462787Y-94059512D01*
X136931850Y-94059512D01*
X136931850Y-94154488D01*
X136950379Y-94247638D01*
X136986724Y-94335384D01*
X137039490Y-94414353D01*
X137106647Y-94481510D01*
X137185616Y-94534276D01*
X137273362Y-94570621D01*
X137366512Y-94589150D01*
X137461488Y-94589150D01*
X137554638Y-94570621D01*
X137642384Y-94534276D01*
X137721353Y-94481510D01*
X137788510Y-94414353D01*
X137841276Y-94335384D01*
X137877621Y-94247638D01*
X137887247Y-94199247D01*
X137935638Y-94189621D01*
X138023384Y-94153276D01*
X138102353Y-94100510D01*
X138169510Y-94033353D01*
X138222276Y-93954384D01*
X138258621Y-93866638D01*
X138277150Y-93773488D01*
X138277150Y-93737491D01*
X144991829Y-93737491D01*
X144991829Y-93832467D01*
X145010358Y-93925617D01*
X145046703Y-94013363D01*
X145099469Y-94092332D01*
X145166626Y-94159489D01*
X145245595Y-94212255D01*
X145333341Y-94248600D01*
X145389274Y-94259726D01*
X145400400Y-94315659D01*
X145436745Y-94403405D01*
X145489511Y-94482374D01*
X145556668Y-94549531D01*
X145635637Y-94602297D01*
X145723383Y-94638642D01*
X145816533Y-94657171D01*
X145911509Y-94657171D01*
X146004659Y-94638642D01*
X146092405Y-94602297D01*
X146171374Y-94549531D01*
X146238531Y-94482374D01*
X146291297Y-94403405D01*
X146327642Y-94315659D01*
X146346171Y-94222509D01*
X146346171Y-94127533D01*
X146327642Y-94034383D01*
X146291297Y-93946637D01*
X146238531Y-93867668D01*
X146171374Y-93800511D01*
X146092405Y-93747745D01*
X146004659Y-93711400D01*
X145948726Y-93700274D01*
X145937600Y-93644341D01*
X145901255Y-93556595D01*
X145848489Y-93477626D01*
X145817988Y-93447125D01*
X148667850Y-93447125D01*
X148667850Y-93556875D01*
X148689261Y-93664515D01*
X148731260Y-93765910D01*
X148788282Y-93851250D01*
X148731260Y-93936590D01*
X148689261Y-94037985D01*
X148667850Y-94145625D01*
X148667850Y-94255375D01*
X148689261Y-94363015D01*
X148731260Y-94464410D01*
X148792233Y-94555663D01*
X148869837Y-94633267D01*
X148961090Y-94694240D01*
X149062485Y-94736239D01*
X149170125Y-94757650D01*
X149279875Y-94757650D01*
X149387515Y-94736239D01*
X149488910Y-94694240D01*
X149580163Y-94633267D01*
X149657767Y-94555663D01*
X149718740Y-94464410D01*
X149760739Y-94363015D01*
X149782150Y-94255375D01*
X149782150Y-94145625D01*
X149760739Y-94037985D01*
X149718740Y-93936590D01*
X149661718Y-93851250D01*
X149718740Y-93765910D01*
X149760739Y-93664515D01*
X149782150Y-93556875D01*
X149782150Y-93447125D01*
X149760739Y-93339485D01*
X149718740Y-93238090D01*
X149657767Y-93146837D01*
X149580163Y-93069233D01*
X149488910Y-93008260D01*
X149387515Y-92966261D01*
X149279875Y-92944850D01*
X149170125Y-92944850D01*
X149062485Y-92966261D01*
X148961090Y-93008260D01*
X148869837Y-93069233D01*
X148792233Y-93146837D01*
X148731260Y-93238090D01*
X148689261Y-93339485D01*
X148667850Y-93447125D01*
X145817988Y-93447125D01*
X145781332Y-93410469D01*
X145702363Y-93357703D01*
X145614617Y-93321358D01*
X145521467Y-93302829D01*
X145426491Y-93302829D01*
X145333341Y-93321358D01*
X145245595Y-93357703D01*
X145166626Y-93410469D01*
X145099469Y-93477626D01*
X145046703Y-93556595D01*
X145010358Y-93644341D01*
X144991829Y-93737491D01*
X138277150Y-93737491D01*
X138277150Y-93678512D01*
X138258621Y-93585362D01*
X138222276Y-93497616D01*
X138169510Y-93418647D01*
X138102353Y-93351490D01*
X138023384Y-93298724D01*
X137935638Y-93262379D01*
X137842488Y-93243850D01*
X137747512Y-93243850D01*
X137654362Y-93262379D01*
X137566616Y-93298724D01*
X137487647Y-93351490D01*
X137420490Y-93418647D01*
X137367724Y-93497616D01*
X137331379Y-93585362D01*
X137321753Y-93633753D01*
X137273362Y-93643379D01*
X137185616Y-93679724D01*
X137106647Y-93732490D01*
X137039490Y-93799647D01*
X136986724Y-93878616D01*
X136950379Y-93966362D01*
X136931850Y-94059512D01*
X135462787Y-94059512D01*
X135541099Y-94007186D01*
X135622186Y-93926099D01*
X135685895Y-93830752D01*
X135729779Y-93724807D01*
X135752150Y-93612337D01*
X135752150Y-93497663D01*
X135729779Y-93385193D01*
X135685895Y-93279248D01*
X135622186Y-93183901D01*
X135541099Y-93102814D01*
X135445752Y-93039105D01*
X135339807Y-92995221D01*
X135227337Y-92972850D01*
X135112663Y-92972850D01*
X135000193Y-92995221D01*
X134894248Y-93039105D01*
X134798901Y-93102814D01*
X134717814Y-93183901D01*
X134692457Y-93221850D01*
X134116850Y-93221850D01*
X133723150Y-93221850D01*
X133060771Y-93221850D01*
X133031539Y-93317507D01*
X128451468Y-93317507D01*
X128533386Y-93292222D01*
X128650690Y-93228786D01*
X128753364Y-93143684D01*
X128837463Y-93040187D01*
X128858461Y-92957507D01*
X128829229Y-92861850D01*
X128166850Y-92861850D01*
X127773150Y-92861850D01*
X127753150Y-92861850D01*
X127753150Y-92732493D01*
X133031539Y-92732493D01*
X133060771Y-92828150D01*
X133723150Y-92828150D01*
X133723150Y-92416874D01*
X134116850Y-92416874D01*
X134116850Y-92828150D01*
X134779229Y-92828150D01*
X134808461Y-92732493D01*
X134787463Y-92649813D01*
X134703364Y-92546316D01*
X134600690Y-92461214D01*
X134483386Y-92397778D01*
X134355960Y-92358446D01*
X134223309Y-92344729D01*
X134116850Y-92416874D01*
X133723150Y-92416874D01*
X133616691Y-92344729D01*
X133484040Y-92358446D01*
X133356614Y-92397778D01*
X133239310Y-92461214D01*
X133136636Y-92546316D01*
X133052537Y-92649813D01*
X133031539Y-92732493D01*
X127753150Y-92732493D01*
X127753150Y-92468150D01*
X127773150Y-92468150D01*
X127773150Y-92056874D01*
X128166850Y-92056874D01*
X128166850Y-92468150D01*
X128829229Y-92468150D01*
X128858461Y-92372493D01*
X128837463Y-92289813D01*
X128753364Y-92186316D01*
X128650690Y-92101214D01*
X128533386Y-92037778D01*
X128405960Y-91998446D01*
X128273309Y-91984729D01*
X128166850Y-92056874D01*
X127773150Y-92056874D01*
X127666691Y-91984729D01*
X127534040Y-91998446D01*
X127406614Y-92037778D01*
X127289310Y-92101214D01*
X127221450Y-92157460D01*
X127221450Y-90976942D01*
X144454850Y-90976942D01*
X144454850Y-91141058D01*
X144486868Y-91302021D01*
X144549672Y-91453644D01*
X144640850Y-91590102D01*
X144756898Y-91706150D01*
X144893356Y-91797328D01*
X145044979Y-91860132D01*
X145205942Y-91892150D01*
X145370058Y-91892150D01*
X145531021Y-91860132D01*
X145682644Y-91797328D01*
X145819102Y-91706150D01*
X145935150Y-91590102D01*
X146026328Y-91453644D01*
X146089132Y-91302021D01*
X146121150Y-91141058D01*
X146121150Y-90976942D01*
X146111756Y-90929713D01*
X146752780Y-90929713D01*
X146816044Y-91099147D01*
X146929066Y-91241823D01*
X147067751Y-91359708D01*
X147226769Y-91448271D01*
X147400010Y-91504110D01*
X148349970Y-91504110D01*
X148349970Y-90793570D01*
X148743670Y-90793570D01*
X148743670Y-91504110D01*
X149693630Y-91504110D01*
X149866871Y-91448271D01*
X150025889Y-91359708D01*
X150164574Y-91241823D01*
X150277596Y-91099147D01*
X150340860Y-90929713D01*
X150316580Y-90793570D01*
X148743670Y-90793570D01*
X148349970Y-90793570D01*
X146777060Y-90793570D01*
X146752780Y-90929713D01*
X146111756Y-90929713D01*
X146089132Y-90815979D01*
X146026328Y-90664356D01*
X145935150Y-90527898D01*
X145819102Y-90411850D01*
X145682644Y-90320672D01*
X145531021Y-90257868D01*
X145370058Y-90225850D01*
X145205942Y-90225850D01*
X145044979Y-90257868D01*
X144893356Y-90320672D01*
X144756898Y-90411850D01*
X144640850Y-90527898D01*
X144549672Y-90664356D01*
X144486868Y-90815979D01*
X144454850Y-90976942D01*
X127221450Y-90976942D01*
X127221450Y-90221450D01*
X146768566Y-90221450D01*
X146752780Y-90263727D01*
G37*
%TD.AperFunction*%
%TD*%
M02*
