%TF.GenerationSoftware,KiCad,Pcbnew,(5.1.10)-1*%
%TF.CreationDate,2022-01-11T16:22:32+08:00*%
%TF.ProjectId,VL160,564c3136-302e-46b6-9963-61645f706362,rev?*%
%TF.SameCoordinates,Original*%
%TF.FileFunction,Soldermask,Bot*%
%TF.FilePolarity,Negative*%
%FSLAX46Y46*%
G04 Gerber Fmt 4.6, Leading zero omitted, Abs format (unit mm)*
G04 Created by KiCad (PCBNEW (5.1.10)-1) date 2022-01-11 16:22:32*
%MOMM*%
%LPD*%
G01*
G04 APERTURE LIST*
%ADD10C,0.100000*%
%ADD11R,1.600200X0.248920*%
%ADD12R,2.600960X0.449580*%
%ADD13C,1.152000*%
%ADD14R,1.600200X0.701040*%
%ADD15O,3.200400X1.300480*%
G04 APERTURE END LIST*
D10*
G36*
X156083000Y-103759000D02*
G01*
X153289000Y-103759000D01*
X153289000Y-103124000D01*
X156083000Y-103124000D01*
X156083000Y-103759000D01*
G37*
X156083000Y-103759000D02*
X153289000Y-103759000D01*
X153289000Y-103124000D01*
X156083000Y-103124000D01*
X156083000Y-103759000D01*
G36*
X156083000Y-90932000D02*
G01*
X153289000Y-90932000D01*
X153289000Y-90297000D01*
X156083000Y-90297000D01*
X156083000Y-90932000D01*
G37*
X156083000Y-90932000D02*
X153289000Y-90932000D01*
X153289000Y-90297000D01*
X156083000Y-90297000D01*
X156083000Y-90932000D01*
D11*
%TO.C,J1*%
X134744460Y-94238280D03*
X134744460Y-94738660D03*
X134744460Y-95239040D03*
X134744460Y-95739420D03*
X134744460Y-96239800D03*
X134744460Y-96740180D03*
X134744460Y-97238020D03*
X134744460Y-97738400D03*
X134744460Y-98238780D03*
X134744460Y-98739160D03*
X134744460Y-99239540D03*
X134744460Y-99739920D03*
D12*
X135242300Y-93664240D03*
%TD*%
D13*
%TO.C,H3*%
X145288000Y-91059000D03*
%TD*%
%TO.C,H2*%
X155321000Y-99822000D03*
%TD*%
%TO.C,H1*%
X137414000Y-102616000D03*
%TD*%
D14*
%TO.C,J2*%
X147398740Y-92997020D03*
X147398740Y-93997780D03*
X147398740Y-94998540D03*
X147398740Y-95996760D03*
X147398740Y-96997520D03*
X147398740Y-97998280D03*
X147398740Y-98996500D03*
X147398740Y-99997260D03*
X147398740Y-100998020D03*
D15*
X148546820Y-90596720D03*
X148546820Y-103398320D03*
%TD*%
M02*
