%TF.GenerationSoftware,KiCad,Pcbnew,(5.1.10)-1*%
%TF.CreationDate,2022-01-31T11:01:00+08:00*%
%TF.ProjectId,VL160,564c3136-302e-46b6-9963-61645f706362,rev?*%
%TF.SameCoordinates,Original*%
%TF.FileFunction,Legend,Top*%
%TF.FilePolarity,Positive*%
%FSLAX46Y46*%
G04 Gerber Fmt 4.6, Leading zero omitted, Abs format (unit mm)*
G04 Created by KiCad (PCBNEW (5.1.10)-1) date 2022-01-31 11:01:00*
%MOMM*%
%LPD*%
G01*
G04 APERTURE LIST*
%ADD10C,0.120000*%
%ADD11C,0.203200*%
%ADD12C,0.149860*%
G04 APERTURE END LIST*
D10*
%TO.C,J1*%
X136180000Y-92405000D02*
X136180000Y-93905000D01*
X136180000Y-92405000D02*
X128920000Y-92405000D01*
X136180000Y-101905000D02*
X128920000Y-101905000D01*
X136180000Y-100405000D02*
X136180000Y-101905000D01*
%TO.C,C1*%
X134506580Y-91696000D02*
X134225420Y-91696000D01*
X134506580Y-90676000D02*
X134225420Y-90676000D01*
%TO.C,C2*%
X140221580Y-93631000D02*
X139940420Y-93631000D01*
X140221580Y-92611000D02*
X139940420Y-92611000D01*
%TO.C,C3*%
X140221580Y-95028000D02*
X139940420Y-95028000D01*
X140221580Y-94008000D02*
X139940420Y-94008000D01*
%TO.C,R1*%
X138825500Y-102124742D02*
X138825500Y-102599258D01*
X137780500Y-102124742D02*
X137780500Y-102599258D01*
%TO.C,R2*%
X140222500Y-102124742D02*
X140222500Y-102599258D01*
X139177500Y-102124742D02*
X139177500Y-102599258D01*
%TO.C,R3*%
X142637742Y-93932000D02*
X143112258Y-93932000D01*
X142637742Y-94977000D02*
X143112258Y-94977000D01*
%TO.C,R4*%
X142637742Y-92598500D02*
X143112258Y-92598500D01*
X142637742Y-93643500D02*
X143112258Y-93643500D01*
%TO.C,R5*%
X142637742Y-91265000D02*
X143112258Y-91265000D01*
X142637742Y-92310000D02*
X143112258Y-92310000D01*
D11*
%TO.C,U1*%
X139477396Y-96118200D02*
G75*
G03*
X139477396Y-96118200I-56796J0D01*
G01*
D12*
X143355060Y-96209640D02*
X143355060Y-96433160D01*
X139857480Y-96209640D02*
X139857480Y-96433160D01*
X139857480Y-100710520D02*
X139857480Y-100487000D01*
X143355060Y-100710520D02*
X143355060Y-100487000D01*
X143355060Y-100710520D02*
X139857480Y-100710520D01*
X139857480Y-96209640D02*
X143355060Y-96209640D01*
D10*
%TO.C,U2*%
X136527000Y-90114000D02*
X136527000Y-91044000D01*
X136527000Y-93274000D02*
X136527000Y-92344000D01*
X136527000Y-93274000D02*
X138687000Y-93274000D01*
X136527000Y-90114000D02*
X137987000Y-90114000D01*
%TO.C,J1*%
X136677142Y-97455000D02*
X137320000Y-97455000D01*
X137448571Y-97497857D01*
X137534285Y-97583571D01*
X137577142Y-97712142D01*
X137577142Y-97797857D01*
X137577142Y-96555000D02*
X137577142Y-97069285D01*
X137577142Y-96812142D02*
X136677142Y-96812142D01*
X136805714Y-96897857D01*
X136891428Y-96983571D01*
X136934285Y-97069285D01*
%TO.C,C1*%
X131930000Y-91507428D02*
X131887142Y-91550285D01*
X131758571Y-91593142D01*
X131672857Y-91593142D01*
X131544285Y-91550285D01*
X131458571Y-91464571D01*
X131415714Y-91378857D01*
X131372857Y-91207428D01*
X131372857Y-91078857D01*
X131415714Y-90907428D01*
X131458571Y-90821714D01*
X131544285Y-90736000D01*
X131672857Y-90693142D01*
X131758571Y-90693142D01*
X131887142Y-90736000D01*
X131930000Y-90778857D01*
X132787142Y-91593142D02*
X132272857Y-91593142D01*
X132530000Y-91593142D02*
X132530000Y-90693142D01*
X132444285Y-90821714D01*
X132358571Y-90907428D01*
X132272857Y-90950285D01*
%TO.C,C2*%
X139931000Y-92269428D02*
X139888142Y-92312285D01*
X139759571Y-92355142D01*
X139673857Y-92355142D01*
X139545285Y-92312285D01*
X139459571Y-92226571D01*
X139416714Y-92140857D01*
X139373857Y-91969428D01*
X139373857Y-91840857D01*
X139416714Y-91669428D01*
X139459571Y-91583714D01*
X139545285Y-91498000D01*
X139673857Y-91455142D01*
X139759571Y-91455142D01*
X139888142Y-91498000D01*
X139931000Y-91540857D01*
X140273857Y-91540857D02*
X140316714Y-91498000D01*
X140402428Y-91455142D01*
X140616714Y-91455142D01*
X140702428Y-91498000D01*
X140745285Y-91540857D01*
X140788142Y-91626571D01*
X140788142Y-91712285D01*
X140745285Y-91840857D01*
X140231000Y-92355142D01*
X140788142Y-92355142D01*
%TO.C,C3*%
X137772000Y-95825428D02*
X137729142Y-95868285D01*
X137600571Y-95911142D01*
X137514857Y-95911142D01*
X137386285Y-95868285D01*
X137300571Y-95782571D01*
X137257714Y-95696857D01*
X137214857Y-95525428D01*
X137214857Y-95396857D01*
X137257714Y-95225428D01*
X137300571Y-95139714D01*
X137386285Y-95054000D01*
X137514857Y-95011142D01*
X137600571Y-95011142D01*
X137729142Y-95054000D01*
X137772000Y-95096857D01*
X138072000Y-95011142D02*
X138629142Y-95011142D01*
X138329142Y-95354000D01*
X138457714Y-95354000D01*
X138543428Y-95396857D01*
X138586285Y-95439714D01*
X138629142Y-95525428D01*
X138629142Y-95739714D01*
X138586285Y-95825428D01*
X138543428Y-95868285D01*
X138457714Y-95911142D01*
X138200571Y-95911142D01*
X138114857Y-95868285D01*
X138072000Y-95825428D01*
%TO.C,R1*%
X136756000Y-103658142D02*
X136456000Y-103229571D01*
X136241714Y-103658142D02*
X136241714Y-102758142D01*
X136584571Y-102758142D01*
X136670285Y-102801000D01*
X136713142Y-102843857D01*
X136756000Y-102929571D01*
X136756000Y-103058142D01*
X136713142Y-103143857D01*
X136670285Y-103186714D01*
X136584571Y-103229571D01*
X136241714Y-103229571D01*
X137613142Y-103658142D02*
X137098857Y-103658142D01*
X137356000Y-103658142D02*
X137356000Y-102758142D01*
X137270285Y-102886714D01*
X137184571Y-102972428D01*
X137098857Y-103015285D01*
%TO.C,R2*%
X135105000Y-103658142D02*
X134805000Y-103229571D01*
X134590714Y-103658142D02*
X134590714Y-102758142D01*
X134933571Y-102758142D01*
X135019285Y-102801000D01*
X135062142Y-102843857D01*
X135105000Y-102929571D01*
X135105000Y-103058142D01*
X135062142Y-103143857D01*
X135019285Y-103186714D01*
X134933571Y-103229571D01*
X134590714Y-103229571D01*
X135447857Y-102843857D02*
X135490714Y-102801000D01*
X135576428Y-102758142D01*
X135790714Y-102758142D01*
X135876428Y-102801000D01*
X135919285Y-102843857D01*
X135962142Y-102929571D01*
X135962142Y-103015285D01*
X135919285Y-103143857D01*
X135405000Y-103658142D01*
X135962142Y-103658142D01*
%TO.C,R3*%
X145011000Y-94895142D02*
X144711000Y-94466571D01*
X144496714Y-94895142D02*
X144496714Y-93995142D01*
X144839571Y-93995142D01*
X144925285Y-94038000D01*
X144968142Y-94080857D01*
X145011000Y-94166571D01*
X145011000Y-94295142D01*
X144968142Y-94380857D01*
X144925285Y-94423714D01*
X144839571Y-94466571D01*
X144496714Y-94466571D01*
X145311000Y-93995142D02*
X145868142Y-93995142D01*
X145568142Y-94338000D01*
X145696714Y-94338000D01*
X145782428Y-94380857D01*
X145825285Y-94423714D01*
X145868142Y-94509428D01*
X145868142Y-94723714D01*
X145825285Y-94809428D01*
X145782428Y-94852285D01*
X145696714Y-94895142D01*
X145439571Y-94895142D01*
X145353857Y-94852285D01*
X145311000Y-94809428D01*
%TO.C,R4*%
X145011000Y-93498142D02*
X144711000Y-93069571D01*
X144496714Y-93498142D02*
X144496714Y-92598142D01*
X144839571Y-92598142D01*
X144925285Y-92641000D01*
X144968142Y-92683857D01*
X145011000Y-92769571D01*
X145011000Y-92898142D01*
X144968142Y-92983857D01*
X144925285Y-93026714D01*
X144839571Y-93069571D01*
X144496714Y-93069571D01*
X145782428Y-92898142D02*
X145782428Y-93498142D01*
X145568142Y-92555285D02*
X145353857Y-93198142D01*
X145911000Y-93198142D01*
%TO.C,R5*%
X142725000Y-91085142D02*
X142425000Y-90656571D01*
X142210714Y-91085142D02*
X142210714Y-90185142D01*
X142553571Y-90185142D01*
X142639285Y-90228000D01*
X142682142Y-90270857D01*
X142725000Y-90356571D01*
X142725000Y-90485142D01*
X142682142Y-90570857D01*
X142639285Y-90613714D01*
X142553571Y-90656571D01*
X142210714Y-90656571D01*
X143539285Y-90185142D02*
X143110714Y-90185142D01*
X143067857Y-90613714D01*
X143110714Y-90570857D01*
X143196428Y-90528000D01*
X143410714Y-90528000D01*
X143496428Y-90570857D01*
X143539285Y-90613714D01*
X143582142Y-90699428D01*
X143582142Y-90913714D01*
X143539285Y-90999428D01*
X143496428Y-91042285D01*
X143410714Y-91085142D01*
X143196428Y-91085142D01*
X143110714Y-91042285D01*
X143067857Y-90999428D01*
%TO.C,U1*%
X143601525Y-95384522D02*
X143601525Y-96113094D01*
X143644382Y-96198808D01*
X143687240Y-96241665D01*
X143772954Y-96284522D01*
X143944382Y-96284522D01*
X144030097Y-96241665D01*
X144072954Y-96198808D01*
X144115811Y-96113094D01*
X144115811Y-95384522D01*
X145015811Y-96284522D02*
X144501525Y-96284522D01*
X144758668Y-96284522D02*
X144758668Y-95384522D01*
X144672954Y-95513094D01*
X144587240Y-95598808D01*
X144501525Y-95641665D01*
%TO.C,U2*%
X139141285Y-90312142D02*
X139141285Y-91040714D01*
X139184142Y-91126428D01*
X139227000Y-91169285D01*
X139312714Y-91212142D01*
X139484142Y-91212142D01*
X139569857Y-91169285D01*
X139612714Y-91126428D01*
X139655571Y-91040714D01*
X139655571Y-90312142D01*
X140041285Y-90397857D02*
X140084142Y-90355000D01*
X140169857Y-90312142D01*
X140384142Y-90312142D01*
X140469857Y-90355000D01*
X140512714Y-90397857D01*
X140555571Y-90483571D01*
X140555571Y-90569285D01*
X140512714Y-90697857D01*
X139998428Y-91212142D01*
X140555571Y-91212142D01*
%TD*%
M02*
