%TF.GenerationSoftware,KiCad,Pcbnew,(5.1.10)-1*%
%TF.CreationDate,2022-01-31T11:01:00+08:00*%
%TF.ProjectId,VL160,564c3136-302e-46b6-9963-61645f706362,rev?*%
%TF.SameCoordinates,Original*%
%TF.FileFunction,Copper,L4,Bot*%
%TF.FilePolarity,Positive*%
%FSLAX46Y46*%
G04 Gerber Fmt 4.6, Leading zero omitted, Abs format (unit mm)*
G04 Created by KiCad (PCBNEW (5.1.10)-1) date 2022-01-31 11:01:00*
%MOMM*%
%LPD*%
G01*
G04 APERTURE LIST*
%TA.AperFunction,ComponentPad*%
%ADD10C,0.650000*%
%TD*%
%TA.AperFunction,ComponentPad*%
%ADD11O,1.400000X0.800000*%
%TD*%
%TA.AperFunction,SMDPad,CuDef*%
%ADD12R,1.600200X0.701040*%
%TD*%
%TA.AperFunction,ComponentPad*%
%ADD13O,3.200400X1.300480*%
%TD*%
%TA.AperFunction,ViaPad*%
%ADD14C,0.450000*%
%TD*%
%TA.AperFunction,ViaPad*%
%ADD15C,0.600000*%
%TD*%
%TA.AperFunction,Conductor*%
%ADD16C,0.635000*%
%TD*%
%TA.AperFunction,Conductor*%
%ADD17C,0.152400*%
%TD*%
%TA.AperFunction,Conductor*%
%ADD18C,0.175006*%
%TD*%
%TA.AperFunction,Conductor*%
%ADD19C,0.114300*%
%TD*%
%TA.AperFunction,Conductor*%
%ADD20C,0.100000*%
%TD*%
G04 APERTURE END LIST*
D10*
%TO.P,J1,B11*%
%TO.N,/RX1+*%
X133820000Y-94755000D03*
%TO.P,J1,B10*%
%TO.N,/RX1-*%
X133820000Y-95555000D03*
%TO.P,J1,B8*%
%TO.N,N/C*%
X133820000Y-96355000D03*
%TO.P,J1,B5*%
%TO.N,/CC2*%
X133820000Y-97955000D03*
%TO.P,J1,B3*%
%TO.N,/TX2-*%
X133820000Y-98755000D03*
%TO.P,J1,B2*%
%TO.N,/TX2+*%
X133820000Y-99555000D03*
%TO.P,J1,B12*%
%TO.N,GND*%
X134520000Y-94355000D03*
%TO.P,J1,B9*%
%TO.N,VBUS*%
X134520000Y-95955000D03*
%TO.P,J1,B7*%
%TO.N,/D-*%
X134520000Y-96755000D03*
%TO.P,J1,B6*%
%TO.N,/D+*%
X134520000Y-97555000D03*
%TO.P,J1,B4*%
%TO.N,VBUS*%
X134520000Y-98355000D03*
%TO.P,J1,B1*%
%TO.N,GND*%
X134520000Y-99955000D03*
D11*
%TO.P,J1,S1*%
X127970000Y-92665000D03*
X127970000Y-101645000D03*
X133920000Y-101285000D03*
X133920000Y-93025000D03*
%TD*%
D12*
%TO.P,J2,9*%
%TO.N,/TX+*%
X147398740Y-92997020D03*
%TO.P,J2,1*%
%TO.N,VBUS*%
X147398740Y-93997780D03*
%TO.P,J2,8*%
%TO.N,/TX-*%
X147398740Y-94998540D03*
%TO.P,J2,2*%
%TO.N,/D-*%
X147398740Y-95996760D03*
%TO.P,J2,7*%
%TO.N,GND*%
X147398740Y-96997520D03*
%TO.P,J2,3*%
%TO.N,/D+*%
X147398740Y-97998280D03*
%TO.P,J2,6*%
%TO.N,/RX+*%
X147398740Y-98996500D03*
%TO.P,J2,4*%
%TO.N,GND*%
X147398740Y-99997260D03*
%TO.P,J2,5*%
%TO.N,/RX-*%
X147398740Y-100998020D03*
D13*
%TO.P,J2,10*%
%TO.N,GND*%
X148546820Y-90596720D03*
X148546820Y-103398320D03*
%TD*%
D14*
%TO.N,GND*%
X137287000Y-92870500D03*
X137287000Y-91821000D03*
X137287000Y-92329000D03*
X155702000Y-93345000D03*
X155702000Y-94361000D03*
X155702000Y-93853000D03*
X155702000Y-94869000D03*
X155702000Y-95885000D03*
X155702000Y-95377000D03*
X141097000Y-97536000D03*
X141605000Y-97536000D03*
X142113000Y-97536000D03*
X142113000Y-98171000D03*
X141605000Y-98171000D03*
X141097000Y-98171000D03*
X141097000Y-98806000D03*
X141605000Y-98806000D03*
X142113000Y-98806000D03*
X142113000Y-99441000D03*
X141605000Y-99441000D03*
X141097000Y-99441000D03*
D15*
%TO.N,VBUS*%
X149225000Y-94200500D03*
X149225000Y-93502000D03*
D14*
X137414000Y-94107000D03*
X137795000Y-93726000D03*
%TO.N,/CC1*%
X136421093Y-96405001D03*
X139827000Y-96266000D03*
%TO.N,/D+*%
X148949200Y-96520000D03*
%TO.N,/D-*%
X136406557Y-97395419D03*
X149500800Y-96520000D03*
%TO.N,/TX2+*%
X138863952Y-98330750D03*
%TO.N,/TX2-*%
X138863952Y-97779150D03*
%TO.N,/CC2*%
X137287000Y-100711000D03*
X140598341Y-96351402D03*
%TO.N,/RX1-*%
X137117990Y-97769790D03*
%TO.N,/RX1+*%
X137669590Y-97769790D03*
%TO.N,/TX+*%
X145473979Y-93784979D03*
%TO.N,/TX-*%
X145864021Y-94175021D03*
%TO.N,/RX+*%
X145669000Y-99673200D03*
%TO.N,/RX-*%
X145669000Y-100224800D03*
%TD*%
D16*
%TO.N,VBUS*%
X149024760Y-94000260D02*
X149225000Y-94200500D01*
X147425960Y-94000260D02*
X149024760Y-94000260D01*
X149225000Y-93502000D02*
X149225000Y-94200500D01*
D17*
%TO.N,/D+*%
X148351240Y-97998280D02*
X147398740Y-97998280D01*
X148949200Y-97400320D02*
X148351240Y-97998280D01*
X148949200Y-96520000D02*
X148949200Y-97400320D01*
D18*
%TO.N,/D-*%
X135766138Y-96755000D02*
X134520000Y-96755000D01*
X136406557Y-97395419D02*
X135766138Y-96755000D01*
D17*
X149500800Y-96201802D02*
X149500800Y-96520000D01*
X149295758Y-95996760D02*
X149500800Y-96201802D01*
X147398740Y-95996760D02*
X149295758Y-95996760D01*
D18*
%TO.N,/TX2+*%
X134081697Y-99293303D02*
X137376287Y-99293303D01*
X133820000Y-99555000D02*
X134081697Y-99293303D01*
X138726455Y-98193253D02*
X138476337Y-98193253D01*
X138476337Y-98193253D02*
X137376287Y-99293303D01*
X138863952Y-98330750D02*
X138726455Y-98193253D01*
%TO.N,/TX2-*%
X134081697Y-99016697D02*
X137261713Y-99016697D01*
X133820000Y-98755000D02*
X134081697Y-99016697D01*
X138361763Y-97916647D02*
X137261713Y-99016697D01*
X138726455Y-97916647D02*
X138361763Y-97916647D01*
X138863952Y-97779150D02*
X138726455Y-97916647D01*
D17*
%TO.N,/CC2*%
X137287000Y-100711000D02*
X137795000Y-100711000D01*
X137795000Y-100711000D02*
X140081000Y-98425000D01*
X140081000Y-96868743D02*
X140598341Y-96351402D01*
X140081000Y-98425000D02*
X140081000Y-96868743D01*
D18*
%TO.N,/RX1-*%
X134081697Y-95293303D02*
X137007713Y-95293303D01*
X133820000Y-95555000D02*
X134081697Y-95293303D01*
X137255487Y-97632293D02*
X137117990Y-97769790D01*
X137255487Y-95541077D02*
X137255487Y-97632293D01*
X137007713Y-95293303D02*
X137255487Y-95541077D01*
%TO.N,/RX1+*%
X134081697Y-95016697D02*
X137122287Y-95016697D01*
X133820000Y-94755000D02*
X134081697Y-95016697D01*
X137532093Y-97632293D02*
X137669590Y-97769790D01*
X137532093Y-95426503D02*
X137532093Y-97632293D01*
X137122287Y-95016697D02*
X137532093Y-95426503D01*
%TO.N,/TX+*%
X146261938Y-92997020D02*
X147398740Y-92997020D01*
X145473979Y-93784979D02*
X146261938Y-92997020D01*
%TO.N,/TX-*%
X146687540Y-94998540D02*
X147398740Y-94998540D01*
X145864021Y-94175021D02*
X146687540Y-94998540D01*
%TO.N,/RX+*%
X146345700Y-98996500D02*
X147398740Y-98996500D01*
X145669000Y-99673200D02*
X146345700Y-98996500D01*
%TO.N,/RX-*%
X146442220Y-100998020D02*
X147398740Y-100998020D01*
X145669000Y-100224800D02*
X146442220Y-100998020D01*
%TD*%
D19*
%TO.N,GND*%
X146752780Y-90263727D02*
X146777060Y-90399870D01*
X148349970Y-90399870D01*
X148349970Y-90221450D01*
X148743670Y-90221450D01*
X148743670Y-90399870D01*
X150316580Y-90399870D01*
X150340860Y-90263727D01*
X150325074Y-90221450D01*
X156778551Y-90221450D01*
X156778550Y-103778550D01*
X150323222Y-103778550D01*
X150340860Y-103731313D01*
X150316580Y-103595170D01*
X148743670Y-103595170D01*
X148743670Y-103778550D01*
X148349970Y-103778550D01*
X148349970Y-103595170D01*
X146777060Y-103595170D01*
X146752780Y-103731313D01*
X146770418Y-103778550D01*
X130846296Y-103778550D01*
X130950644Y-103735328D01*
X131087102Y-103644150D01*
X131203150Y-103528102D01*
X131294328Y-103391644D01*
X131357132Y-103240021D01*
X131389150Y-103079058D01*
X131389150Y-103065327D01*
X146752780Y-103065327D01*
X146777060Y-103201470D01*
X148349970Y-103201470D01*
X148349970Y-102490930D01*
X148743670Y-102490930D01*
X148743670Y-103201470D01*
X150316580Y-103201470D01*
X150340860Y-103065327D01*
X150277596Y-102895893D01*
X150164574Y-102753217D01*
X150025889Y-102635332D01*
X149866871Y-102546769D01*
X149693630Y-102490930D01*
X148743670Y-102490930D01*
X148349970Y-102490930D01*
X147400010Y-102490930D01*
X147226769Y-102546769D01*
X147067751Y-102635332D01*
X146929066Y-102753217D01*
X146816044Y-102895893D01*
X146752780Y-103065327D01*
X131389150Y-103065327D01*
X131389150Y-102914942D01*
X131357132Y-102753979D01*
X131294328Y-102602356D01*
X131203150Y-102465898D01*
X131087102Y-102349850D01*
X130950644Y-102258672D01*
X130799021Y-102195868D01*
X130638058Y-102163850D01*
X130473942Y-102163850D01*
X130312979Y-102195868D01*
X130161356Y-102258672D01*
X130024898Y-102349850D01*
X129908850Y-102465898D01*
X129817672Y-102602356D01*
X129754868Y-102753979D01*
X129722850Y-102914942D01*
X129722850Y-103079058D01*
X129754868Y-103240021D01*
X129817672Y-103391644D01*
X129908850Y-103528102D01*
X130024898Y-103644150D01*
X130161356Y-103735328D01*
X130265704Y-103778550D01*
X127221450Y-103778550D01*
X127221450Y-102152540D01*
X127289310Y-102208786D01*
X127406614Y-102272222D01*
X127534040Y-102311554D01*
X127666691Y-102325271D01*
X127773150Y-102253126D01*
X127773150Y-101841850D01*
X128166850Y-101841850D01*
X128166850Y-102253126D01*
X128273309Y-102325271D01*
X128405960Y-102311554D01*
X128533386Y-102272222D01*
X128650690Y-102208786D01*
X128753364Y-102123684D01*
X128837463Y-102020187D01*
X128858461Y-101937507D01*
X128829229Y-101841850D01*
X128166850Y-101841850D01*
X127773150Y-101841850D01*
X127753150Y-101841850D01*
X127753150Y-101577507D01*
X133031539Y-101577507D01*
X133052537Y-101660187D01*
X133136636Y-101763684D01*
X133239310Y-101848786D01*
X133356614Y-101912222D01*
X133484040Y-101951554D01*
X133616691Y-101965271D01*
X133723150Y-101893126D01*
X133723150Y-101481850D01*
X133060771Y-101481850D01*
X133031539Y-101577507D01*
X127753150Y-101577507D01*
X127753150Y-101448150D01*
X127773150Y-101448150D01*
X127773150Y-101036874D01*
X128166850Y-101036874D01*
X128166850Y-101448150D01*
X128829229Y-101448150D01*
X128858461Y-101352493D01*
X128837463Y-101269813D01*
X128753364Y-101166316D01*
X128650690Y-101081214D01*
X128533386Y-101017778D01*
X128451469Y-100992493D01*
X133031539Y-100992493D01*
X133060771Y-101088150D01*
X133723150Y-101088150D01*
X133723150Y-100676874D01*
X133616691Y-100604729D01*
X133484040Y-100618446D01*
X133356614Y-100657778D01*
X133239310Y-100721214D01*
X133136636Y-100806316D01*
X133052537Y-100909813D01*
X133031539Y-100992493D01*
X128451469Y-100992493D01*
X128405960Y-100978446D01*
X128273309Y-100964729D01*
X128166850Y-101036874D01*
X127773150Y-101036874D01*
X127666691Y-100964729D01*
X127534040Y-100978446D01*
X127406614Y-101017778D01*
X127289310Y-101081214D01*
X127221450Y-101137460D01*
X127221450Y-94697663D01*
X133237850Y-94697663D01*
X133237850Y-94812337D01*
X133260221Y-94924807D01*
X133304105Y-95030752D01*
X133367814Y-95126099D01*
X133396715Y-95155000D01*
X133367814Y-95183901D01*
X133304105Y-95279248D01*
X133260221Y-95385193D01*
X133237850Y-95497663D01*
X133237850Y-95612337D01*
X133260221Y-95724807D01*
X133304105Y-95830752D01*
X133367814Y-95926099D01*
X133396715Y-95955000D01*
X133367814Y-95983901D01*
X133304105Y-96079248D01*
X133260221Y-96185193D01*
X133237850Y-96297663D01*
X133237850Y-96412337D01*
X133260221Y-96524807D01*
X133304105Y-96630752D01*
X133367814Y-96726099D01*
X133448901Y-96807186D01*
X133544248Y-96870895D01*
X133650193Y-96914779D01*
X133762663Y-96937150D01*
X133877337Y-96937150D01*
X133959428Y-96920822D01*
X133960221Y-96924807D01*
X134004105Y-97030752D01*
X134067814Y-97126099D01*
X134096715Y-97155000D01*
X134067814Y-97183901D01*
X134004105Y-97279248D01*
X133960221Y-97385193D01*
X133959428Y-97389178D01*
X133877337Y-97372850D01*
X133762663Y-97372850D01*
X133650193Y-97395221D01*
X133544248Y-97439105D01*
X133448901Y-97502814D01*
X133367814Y-97583901D01*
X133304105Y-97679248D01*
X133260221Y-97785193D01*
X133237850Y-97897663D01*
X133237850Y-98012337D01*
X133260221Y-98124807D01*
X133304105Y-98230752D01*
X133367814Y-98326099D01*
X133396715Y-98355000D01*
X133367814Y-98383901D01*
X133304105Y-98479248D01*
X133260221Y-98585193D01*
X133237850Y-98697663D01*
X133237850Y-98812337D01*
X133260221Y-98924807D01*
X133304105Y-99030752D01*
X133367814Y-99126099D01*
X133396715Y-99155000D01*
X133367814Y-99183901D01*
X133304105Y-99279248D01*
X133260221Y-99385193D01*
X133237850Y-99497663D01*
X133237850Y-99612337D01*
X133260221Y-99724807D01*
X133304105Y-99830752D01*
X133367814Y-99926099D01*
X133448901Y-100007186D01*
X133544248Y-100070895D01*
X133650193Y-100114779D01*
X133762663Y-100137150D01*
X133877337Y-100137150D01*
X133960858Y-100120537D01*
X134039956Y-100156656D01*
X134186057Y-100010555D01*
X134191099Y-100007186D01*
X134272186Y-99926099D01*
X134332510Y-99835818D01*
X134505858Y-99662470D01*
X134520000Y-99676612D01*
X134534142Y-99662470D01*
X134812530Y-99940858D01*
X134798388Y-99955000D01*
X134812530Y-99969142D01*
X134534142Y-100247530D01*
X134520000Y-100233388D01*
X134318344Y-100435044D01*
X134355473Y-100516354D01*
X134468149Y-100537664D01*
X134582818Y-100536584D01*
X134591951Y-100534767D01*
X134587850Y-100576409D01*
X134587850Y-100714270D01*
X134483386Y-100657778D01*
X134355960Y-100618446D01*
X134223309Y-100604729D01*
X134116850Y-100676874D01*
X134116850Y-101088150D01*
X134136850Y-101088150D01*
X134136850Y-101481850D01*
X134116850Y-101481850D01*
X134116850Y-101893126D01*
X134223309Y-101965271D01*
X134355960Y-101951554D01*
X134483386Y-101912222D01*
X134600690Y-101848786D01*
X134703364Y-101763684D01*
X134787463Y-101660187D01*
X134808461Y-101577507D01*
X134779230Y-101481852D01*
X134877150Y-101481852D01*
X134877150Y-101408560D01*
X134946143Y-101445438D01*
X135055879Y-101478726D01*
X135170000Y-101489966D01*
X135284120Y-101478726D01*
X135393856Y-101445438D01*
X135494989Y-101391381D01*
X135583633Y-101318633D01*
X135656381Y-101229990D01*
X135710438Y-101128857D01*
X135743726Y-101019121D01*
X135752150Y-100933591D01*
X135752150Y-100663512D01*
X136804850Y-100663512D01*
X136804850Y-100758488D01*
X136823379Y-100851638D01*
X136859724Y-100939384D01*
X136912490Y-101018353D01*
X136979647Y-101085510D01*
X137058616Y-101138276D01*
X137146362Y-101174621D01*
X137239512Y-101193150D01*
X137334488Y-101193150D01*
X137427638Y-101174621D01*
X137515384Y-101138276D01*
X137594353Y-101085510D01*
X137635513Y-101044350D01*
X137778633Y-101044350D01*
X137795000Y-101045962D01*
X137811367Y-101044350D01*
X137860348Y-101039526D01*
X137923184Y-101020465D01*
X137981095Y-100989511D01*
X138031854Y-100947854D01*
X138042293Y-100935134D01*
X140305140Y-98672288D01*
X140317854Y-98661854D01*
X140359511Y-98611095D01*
X140390465Y-98553184D01*
X140409526Y-98490348D01*
X140414350Y-98441367D01*
X140414350Y-98441358D01*
X140415961Y-98425001D01*
X140414350Y-98408644D01*
X140414350Y-97006820D01*
X140587619Y-96833552D01*
X140645829Y-96833552D01*
X140738979Y-96815023D01*
X140826725Y-96778678D01*
X140905694Y-96725912D01*
X140972851Y-96658755D01*
X141025617Y-96579786D01*
X141061962Y-96492040D01*
X141080491Y-96398890D01*
X141080491Y-96303914D01*
X141061962Y-96210764D01*
X141025617Y-96123018D01*
X140972851Y-96044049D01*
X140905694Y-95976892D01*
X140826725Y-95924126D01*
X140738979Y-95887781D01*
X140645829Y-95869252D01*
X140550853Y-95869252D01*
X140457703Y-95887781D01*
X140369957Y-95924126D01*
X140290988Y-95976892D01*
X140244658Y-96023222D01*
X140201510Y-95958647D01*
X140134353Y-95891490D01*
X140055384Y-95838724D01*
X139967638Y-95802379D01*
X139874488Y-95783850D01*
X139779512Y-95783850D01*
X139686362Y-95802379D01*
X139598616Y-95838724D01*
X139519647Y-95891490D01*
X139452490Y-95958647D01*
X139399724Y-96037616D01*
X139363379Y-96125362D01*
X139344850Y-96218512D01*
X139344850Y-96313488D01*
X139363379Y-96406638D01*
X139399724Y-96494384D01*
X139452490Y-96573353D01*
X139519647Y-96640510D01*
X139598616Y-96693276D01*
X139686362Y-96729621D01*
X139769818Y-96746222D01*
X139752474Y-96803396D01*
X139746038Y-96868743D01*
X139747651Y-96885120D01*
X139747650Y-98286922D01*
X137656923Y-100377650D01*
X137635513Y-100377650D01*
X137594353Y-100336490D01*
X137515384Y-100283724D01*
X137427638Y-100247379D01*
X137334488Y-100228850D01*
X137239512Y-100228850D01*
X137146362Y-100247379D01*
X137058616Y-100283724D01*
X136979647Y-100336490D01*
X136912490Y-100403647D01*
X136859724Y-100482616D01*
X136823379Y-100570362D01*
X136804850Y-100663512D01*
X135752150Y-100663512D01*
X135752150Y-100576410D01*
X135743726Y-100490880D01*
X135710438Y-100381144D01*
X135656381Y-100280010D01*
X135583633Y-100191367D01*
X135494990Y-100118619D01*
X135393857Y-100064562D01*
X135284121Y-100031274D01*
X135170000Y-100020034D01*
X135098845Y-100027042D01*
X135102664Y-100006851D01*
X135101584Y-99892182D01*
X135081354Y-99790473D01*
X135000046Y-99753345D01*
X135072634Y-99680757D01*
X135029833Y-99637956D01*
X137359371Y-99637956D01*
X137376287Y-99639622D01*
X137393203Y-99637956D01*
X137393214Y-99637956D01*
X137443851Y-99632969D01*
X137508818Y-99613261D01*
X137568692Y-99581258D01*
X137621172Y-99538188D01*
X137631965Y-99525037D01*
X138504171Y-98652832D01*
X138556599Y-98705260D01*
X138635568Y-98758026D01*
X138723314Y-98794371D01*
X138816464Y-98812900D01*
X138911440Y-98812900D01*
X139004590Y-98794371D01*
X139092336Y-98758026D01*
X139171305Y-98705260D01*
X139238462Y-98638103D01*
X139291228Y-98559134D01*
X139327573Y-98471388D01*
X139346102Y-98378238D01*
X139346102Y-98283262D01*
X139327573Y-98190112D01*
X139291228Y-98102366D01*
X139259545Y-98054950D01*
X139291228Y-98007534D01*
X139327573Y-97919788D01*
X139346102Y-97826638D01*
X139346102Y-97731662D01*
X139327573Y-97638512D01*
X139291228Y-97550766D01*
X139238462Y-97471797D01*
X139171305Y-97404640D01*
X139092336Y-97351874D01*
X139004590Y-97315529D01*
X138911440Y-97297000D01*
X138816464Y-97297000D01*
X138723314Y-97315529D01*
X138635568Y-97351874D01*
X138556599Y-97404640D01*
X138489442Y-97471797D01*
X138436676Y-97550766D01*
X138427883Y-97571994D01*
X138378682Y-97571994D01*
X138361763Y-97570328D01*
X138344844Y-97571994D01*
X138344836Y-97571994D01*
X138294199Y-97576981D01*
X138229232Y-97596689D01*
X138169358Y-97628692D01*
X138142062Y-97651094D01*
X138138205Y-97654259D01*
X138133211Y-97629152D01*
X138096866Y-97541406D01*
X138044100Y-97462437D01*
X137976943Y-97395280D01*
X137897974Y-97342514D01*
X137876746Y-97333721D01*
X137876746Y-95443418D01*
X137878412Y-95426502D01*
X137876746Y-95409586D01*
X137876746Y-95409576D01*
X137871759Y-95358939D01*
X137852051Y-95293972D01*
X137820048Y-95234098D01*
X137815490Y-95228545D01*
X137787768Y-95194765D01*
X137787760Y-95194757D01*
X137776977Y-95181618D01*
X137763837Y-95170834D01*
X137377964Y-94784962D01*
X137367172Y-94771812D01*
X137314692Y-94728742D01*
X137254818Y-94696739D01*
X137189851Y-94677031D01*
X137139214Y-94672044D01*
X137139203Y-94672044D01*
X137122287Y-94670378D01*
X137105371Y-94672044D01*
X135029833Y-94672044D01*
X135072634Y-94629243D01*
X135000046Y-94556655D01*
X135081354Y-94519527D01*
X135102664Y-94406851D01*
X135101584Y-94292182D01*
X135081354Y-94190473D01*
X135000046Y-94153345D01*
X135032238Y-94121153D01*
X135112663Y-94137150D01*
X135227337Y-94137150D01*
X135339807Y-94114779D01*
X135445752Y-94070895D01*
X135462787Y-94059512D01*
X136931850Y-94059512D01*
X136931850Y-94154488D01*
X136950379Y-94247638D01*
X136986724Y-94335384D01*
X137039490Y-94414353D01*
X137106647Y-94481510D01*
X137185616Y-94534276D01*
X137273362Y-94570621D01*
X137366512Y-94589150D01*
X137461488Y-94589150D01*
X137554638Y-94570621D01*
X137642384Y-94534276D01*
X137721353Y-94481510D01*
X137788510Y-94414353D01*
X137841276Y-94335384D01*
X137877621Y-94247638D01*
X137887247Y-94199247D01*
X137935638Y-94189621D01*
X138023384Y-94153276D01*
X138102353Y-94100510D01*
X138169510Y-94033353D01*
X138222276Y-93954384D01*
X138258621Y-93866638D01*
X138277150Y-93773488D01*
X138277150Y-93737491D01*
X144991829Y-93737491D01*
X144991829Y-93832467D01*
X145010358Y-93925617D01*
X145046703Y-94013363D01*
X145099469Y-94092332D01*
X145166626Y-94159489D01*
X145245595Y-94212255D01*
X145333341Y-94248600D01*
X145389274Y-94259726D01*
X145400400Y-94315659D01*
X145436745Y-94403405D01*
X145489511Y-94482374D01*
X145556668Y-94549531D01*
X145635637Y-94602297D01*
X145723383Y-94638642D01*
X145816533Y-94657171D01*
X145858759Y-94657171D01*
X146340246Y-95138659D01*
X146340246Y-95349060D01*
X146345211Y-95399470D01*
X146359915Y-95447943D01*
X146383793Y-95492616D01*
X146387924Y-95497650D01*
X146383793Y-95502684D01*
X146359915Y-95547357D01*
X146345211Y-95595830D01*
X146340246Y-95646240D01*
X146340246Y-96347280D01*
X146345211Y-96397690D01*
X146359915Y-96446163D01*
X146383793Y-96490836D01*
X146415928Y-96529992D01*
X146455084Y-96562127D01*
X146499757Y-96586005D01*
X146548230Y-96600709D01*
X146598640Y-96605674D01*
X148198840Y-96605674D01*
X148249250Y-96600709D01*
X148297723Y-96586005D01*
X148342396Y-96562127D01*
X148381552Y-96529992D01*
X148413687Y-96490836D01*
X148437565Y-96446163D01*
X148452269Y-96397690D01*
X148457234Y-96347280D01*
X148457234Y-96330110D01*
X148505980Y-96330110D01*
X148485579Y-96379362D01*
X148467050Y-96472512D01*
X148467050Y-96567488D01*
X148485579Y-96660638D01*
X148521924Y-96748384D01*
X148574690Y-96827353D01*
X148615850Y-96868513D01*
X148615851Y-97262241D01*
X148395748Y-97482345D01*
X148381552Y-97465048D01*
X148342396Y-97432913D01*
X148297723Y-97409035D01*
X148249250Y-97394331D01*
X148198840Y-97389366D01*
X146598640Y-97389366D01*
X146548230Y-97394331D01*
X146499757Y-97409035D01*
X146455084Y-97432913D01*
X146415928Y-97465048D01*
X146383793Y-97504204D01*
X146359915Y-97548877D01*
X146345211Y-97597350D01*
X146340246Y-97647760D01*
X146340246Y-98348800D01*
X146345211Y-98399210D01*
X146359915Y-98447683D01*
X146383793Y-98492356D01*
X146387924Y-98497390D01*
X146383793Y-98502424D01*
X146359915Y-98547097D01*
X146345211Y-98595570D01*
X146340246Y-98645980D01*
X146340246Y-98650718D01*
X146328783Y-98651847D01*
X146328773Y-98651847D01*
X146278136Y-98656834D01*
X146213169Y-98676542D01*
X146153295Y-98708545D01*
X146100815Y-98751615D01*
X146090027Y-98764760D01*
X145663738Y-99191050D01*
X145621512Y-99191050D01*
X145528362Y-99209579D01*
X145440616Y-99245924D01*
X145361647Y-99298690D01*
X145294490Y-99365847D01*
X145241724Y-99444816D01*
X145205379Y-99532562D01*
X145186850Y-99625712D01*
X145186850Y-99720688D01*
X145205379Y-99813838D01*
X145241724Y-99901584D01*
X145273407Y-99949000D01*
X145241724Y-99996416D01*
X145205379Y-100084162D01*
X145186850Y-100177312D01*
X145186850Y-100272288D01*
X145205379Y-100365438D01*
X145241724Y-100453184D01*
X145294490Y-100532153D01*
X145361647Y-100599310D01*
X145440616Y-100652076D01*
X145528362Y-100688421D01*
X145621512Y-100706950D01*
X145663738Y-100706950D01*
X146186547Y-101229760D01*
X146197335Y-101242905D01*
X146249815Y-101285975D01*
X146309689Y-101317978D01*
X146340246Y-101327248D01*
X146340246Y-101348540D01*
X146345211Y-101398950D01*
X146359915Y-101447423D01*
X146383793Y-101492096D01*
X146415928Y-101531252D01*
X146455084Y-101563387D01*
X146499757Y-101587265D01*
X146548230Y-101601969D01*
X146598640Y-101606934D01*
X148198840Y-101606934D01*
X148249250Y-101601969D01*
X148297723Y-101587265D01*
X148342396Y-101563387D01*
X148381552Y-101531252D01*
X148413687Y-101492096D01*
X148437565Y-101447423D01*
X148452269Y-101398950D01*
X148457234Y-101348540D01*
X148457234Y-100647500D01*
X148452269Y-100597090D01*
X148437565Y-100548617D01*
X148413687Y-100503944D01*
X148381552Y-100464788D01*
X148342396Y-100432653D01*
X148297723Y-100408775D01*
X148249250Y-100394071D01*
X148198840Y-100389106D01*
X146598640Y-100389106D01*
X146548230Y-100394071D01*
X146499757Y-100408775D01*
X146455084Y-100432653D01*
X146415928Y-100464788D01*
X146407126Y-100475513D01*
X146151150Y-100219538D01*
X146151150Y-100177312D01*
X146132621Y-100084162D01*
X146096276Y-99996416D01*
X146064593Y-99949000D01*
X146096276Y-99901584D01*
X146132621Y-99813838D01*
X146147320Y-99739942D01*
X154487850Y-99739942D01*
X154487850Y-99904058D01*
X154519868Y-100065021D01*
X154582672Y-100216644D01*
X154673850Y-100353102D01*
X154789898Y-100469150D01*
X154926356Y-100560328D01*
X155077979Y-100623132D01*
X155238942Y-100655150D01*
X155403058Y-100655150D01*
X155564021Y-100623132D01*
X155715644Y-100560328D01*
X155852102Y-100469150D01*
X155968150Y-100353102D01*
X156059328Y-100216644D01*
X156122132Y-100065021D01*
X156154150Y-99904058D01*
X156154150Y-99739942D01*
X156122132Y-99578979D01*
X156059328Y-99427356D01*
X155968150Y-99290898D01*
X155852102Y-99174850D01*
X155715644Y-99083672D01*
X155564021Y-99020868D01*
X155403058Y-98988850D01*
X155238942Y-98988850D01*
X155077979Y-99020868D01*
X154926356Y-99083672D01*
X154789898Y-99174850D01*
X154673850Y-99290898D01*
X154582672Y-99427356D01*
X154519868Y-99578979D01*
X154487850Y-99739942D01*
X146147320Y-99739942D01*
X146151150Y-99720688D01*
X146151150Y-99678462D01*
X146368203Y-99461409D01*
X146383793Y-99490576D01*
X146415928Y-99529732D01*
X146455084Y-99561867D01*
X146499757Y-99585745D01*
X146548230Y-99600449D01*
X146598640Y-99605414D01*
X148198840Y-99605414D01*
X148249250Y-99600449D01*
X148297723Y-99585745D01*
X148342396Y-99561867D01*
X148381552Y-99529732D01*
X148413687Y-99490576D01*
X148437565Y-99445903D01*
X148452269Y-99397430D01*
X148457234Y-99347020D01*
X148457234Y-98645980D01*
X148452269Y-98595570D01*
X148437565Y-98547097D01*
X148413687Y-98502424D01*
X148409556Y-98497390D01*
X148413687Y-98492356D01*
X148437565Y-98447683D01*
X148452269Y-98399210D01*
X148457234Y-98348800D01*
X148457234Y-98314476D01*
X148479424Y-98307745D01*
X148537335Y-98276791D01*
X148588094Y-98235134D01*
X148598533Y-98222414D01*
X149173339Y-97647609D01*
X149186054Y-97637174D01*
X149227711Y-97586415D01*
X149258665Y-97528504D01*
X149277726Y-97465668D01*
X149282550Y-97416687D01*
X149282550Y-97416686D01*
X149284162Y-97400321D01*
X149282550Y-97383956D01*
X149282550Y-96951474D01*
X149360162Y-96983621D01*
X149453312Y-97002150D01*
X149548288Y-97002150D01*
X149641438Y-96983621D01*
X149729184Y-96947276D01*
X149808153Y-96894510D01*
X149875310Y-96827353D01*
X149928076Y-96748384D01*
X149964421Y-96660638D01*
X149982950Y-96567488D01*
X149982950Y-96472512D01*
X149964421Y-96379362D01*
X149928076Y-96291616D01*
X149875310Y-96212647D01*
X149832626Y-96169963D01*
X149829326Y-96136454D01*
X149810265Y-96073618D01*
X149779311Y-96015707D01*
X149737654Y-95964948D01*
X149724935Y-95954510D01*
X149543051Y-95772626D01*
X149532612Y-95759906D01*
X149481853Y-95718249D01*
X149423942Y-95687295D01*
X149361106Y-95668234D01*
X149312125Y-95663410D01*
X149295758Y-95661798D01*
X149279391Y-95663410D01*
X148457234Y-95663410D01*
X148457234Y-95646240D01*
X148452269Y-95595830D01*
X148437565Y-95547357D01*
X148413687Y-95502684D01*
X148409556Y-95497650D01*
X148413687Y-95492616D01*
X148437565Y-95447943D01*
X148452269Y-95399470D01*
X148457234Y-95349060D01*
X148457234Y-94648020D01*
X148452269Y-94597610D01*
X148445383Y-94574910D01*
X148786733Y-94574910D01*
X148798702Y-94586879D01*
X148816696Y-94608805D01*
X148846651Y-94633388D01*
X148904197Y-94680615D01*
X148929688Y-94694240D01*
X149004028Y-94733976D01*
X149112350Y-94766835D01*
X149213904Y-94776837D01*
X149224999Y-94777930D01*
X149225000Y-94777930D01*
X149337651Y-94766835D01*
X149445973Y-94733976D01*
X149545803Y-94680615D01*
X149633305Y-94608805D01*
X149705115Y-94521303D01*
X149758476Y-94421473D01*
X149791335Y-94313151D01*
X149799650Y-94228726D01*
X149799650Y-94228723D01*
X149802430Y-94200499D01*
X149799650Y-94172276D01*
X149799650Y-93473774D01*
X149791335Y-93389349D01*
X149758476Y-93281027D01*
X149705115Y-93181197D01*
X149633305Y-93093695D01*
X149545802Y-93021885D01*
X149445972Y-92968524D01*
X149337650Y-92935665D01*
X149225000Y-92924570D01*
X149112349Y-92935665D01*
X149004027Y-92968524D01*
X148904197Y-93021885D01*
X148816695Y-93093695D01*
X148744885Y-93181198D01*
X148691524Y-93281028D01*
X148658665Y-93389350D01*
X148655094Y-93425610D01*
X148443879Y-93425610D01*
X148452269Y-93397950D01*
X148457234Y-93347540D01*
X148457234Y-92646500D01*
X148452269Y-92596090D01*
X148437565Y-92547617D01*
X148413687Y-92502944D01*
X148381552Y-92463788D01*
X148342396Y-92431653D01*
X148297723Y-92407775D01*
X148249250Y-92393071D01*
X148198840Y-92388106D01*
X146598640Y-92388106D01*
X146548230Y-92393071D01*
X146499757Y-92407775D01*
X146455084Y-92431653D01*
X146415928Y-92463788D01*
X146383793Y-92502944D01*
X146359915Y-92547617D01*
X146345211Y-92596090D01*
X146340246Y-92646500D01*
X146340246Y-92652367D01*
X146278853Y-92652367D01*
X146261937Y-92650701D01*
X146245021Y-92652367D01*
X146245011Y-92652367D01*
X146194374Y-92657354D01*
X146129407Y-92677062D01*
X146069533Y-92709065D01*
X146017053Y-92752135D01*
X146006265Y-92765280D01*
X145468717Y-93302829D01*
X145426491Y-93302829D01*
X145333341Y-93321358D01*
X145245595Y-93357703D01*
X145166626Y-93410469D01*
X145099469Y-93477626D01*
X145046703Y-93556595D01*
X145010358Y-93644341D01*
X144991829Y-93737491D01*
X138277150Y-93737491D01*
X138277150Y-93678512D01*
X138258621Y-93585362D01*
X138222276Y-93497616D01*
X138169510Y-93418647D01*
X138102353Y-93351490D01*
X138023384Y-93298724D01*
X137935638Y-93262379D01*
X137842488Y-93243850D01*
X137747512Y-93243850D01*
X137654362Y-93262379D01*
X137566616Y-93298724D01*
X137487647Y-93351490D01*
X137420490Y-93418647D01*
X137367724Y-93497616D01*
X137331379Y-93585362D01*
X137321753Y-93633753D01*
X137273362Y-93643379D01*
X137185616Y-93679724D01*
X137106647Y-93732490D01*
X137039490Y-93799647D01*
X136986724Y-93878616D01*
X136950379Y-93966362D01*
X136931850Y-94059512D01*
X135462787Y-94059512D01*
X135541099Y-94007186D01*
X135622186Y-93926099D01*
X135685895Y-93830752D01*
X135729779Y-93724807D01*
X135752150Y-93612337D01*
X135752150Y-93497663D01*
X135729779Y-93385193D01*
X135685895Y-93279248D01*
X135622186Y-93183901D01*
X135541099Y-93102814D01*
X135445752Y-93039105D01*
X135339807Y-92995221D01*
X135227337Y-92972850D01*
X135112663Y-92972850D01*
X135000193Y-92995221D01*
X134894248Y-93039105D01*
X134798901Y-93102814D01*
X134717814Y-93183901D01*
X134692457Y-93221850D01*
X134116850Y-93221850D01*
X134116850Y-93633126D01*
X134223309Y-93705271D01*
X134355960Y-93691554D01*
X134483386Y-93652222D01*
X134587850Y-93595730D01*
X134587850Y-93612337D01*
X134610221Y-93724807D01*
X134634843Y-93784249D01*
X134571851Y-93772336D01*
X134457182Y-93773416D01*
X134355473Y-93793646D01*
X134318344Y-93874956D01*
X134520000Y-94076612D01*
X134534142Y-94062470D01*
X134812530Y-94340858D01*
X134798388Y-94355000D01*
X134812530Y-94369142D01*
X134534142Y-94647530D01*
X134520000Y-94633388D01*
X134505858Y-94647530D01*
X134332510Y-94474182D01*
X134272186Y-94383901D01*
X134191099Y-94302814D01*
X134186057Y-94299445D01*
X134039956Y-94153344D01*
X133960858Y-94189463D01*
X133877337Y-94172850D01*
X133762663Y-94172850D01*
X133650193Y-94195221D01*
X133544248Y-94239105D01*
X133448901Y-94302814D01*
X133367814Y-94383901D01*
X133304105Y-94479248D01*
X133260221Y-94585193D01*
X133237850Y-94697663D01*
X127221450Y-94697663D01*
X127221450Y-93172540D01*
X127289310Y-93228786D01*
X127406614Y-93292222D01*
X127534040Y-93331554D01*
X127666691Y-93345271D01*
X127773150Y-93273126D01*
X127773150Y-92861850D01*
X128166850Y-92861850D01*
X128166850Y-93273126D01*
X128273309Y-93345271D01*
X128405960Y-93331554D01*
X128451468Y-93317507D01*
X133031539Y-93317507D01*
X133052537Y-93400187D01*
X133136636Y-93503684D01*
X133239310Y-93588786D01*
X133356614Y-93652222D01*
X133484040Y-93691554D01*
X133616691Y-93705271D01*
X133723150Y-93633126D01*
X133723150Y-93221850D01*
X133060771Y-93221850D01*
X133031539Y-93317507D01*
X128451468Y-93317507D01*
X128533386Y-93292222D01*
X128650690Y-93228786D01*
X128753364Y-93143684D01*
X128837463Y-93040187D01*
X128858461Y-92957507D01*
X128829229Y-92861850D01*
X128166850Y-92861850D01*
X127773150Y-92861850D01*
X127753150Y-92861850D01*
X127753150Y-92732493D01*
X133031539Y-92732493D01*
X133060771Y-92828150D01*
X133723150Y-92828150D01*
X133723150Y-92416874D01*
X134116850Y-92416874D01*
X134116850Y-92828150D01*
X134779229Y-92828150D01*
X134808461Y-92732493D01*
X134787463Y-92649813D01*
X134703364Y-92546316D01*
X134600690Y-92461214D01*
X134483386Y-92397778D01*
X134355960Y-92358446D01*
X134223309Y-92344729D01*
X134116850Y-92416874D01*
X133723150Y-92416874D01*
X133616691Y-92344729D01*
X133484040Y-92358446D01*
X133356614Y-92397778D01*
X133239310Y-92461214D01*
X133136636Y-92546316D01*
X133052537Y-92649813D01*
X133031539Y-92732493D01*
X127753150Y-92732493D01*
X127753150Y-92468150D01*
X127773150Y-92468150D01*
X127773150Y-92056874D01*
X128166850Y-92056874D01*
X128166850Y-92468150D01*
X128829229Y-92468150D01*
X128858461Y-92372493D01*
X128837463Y-92289813D01*
X128753364Y-92186316D01*
X128650690Y-92101214D01*
X128533386Y-92037778D01*
X128405960Y-91998446D01*
X128273309Y-91984729D01*
X128166850Y-92056874D01*
X127773150Y-92056874D01*
X127666691Y-91984729D01*
X127534040Y-91998446D01*
X127406614Y-92037778D01*
X127289310Y-92101214D01*
X127221450Y-92157460D01*
X127221450Y-90976942D01*
X144454850Y-90976942D01*
X144454850Y-91141058D01*
X144486868Y-91302021D01*
X144549672Y-91453644D01*
X144640850Y-91590102D01*
X144756898Y-91706150D01*
X144893356Y-91797328D01*
X145044979Y-91860132D01*
X145205942Y-91892150D01*
X145370058Y-91892150D01*
X145531021Y-91860132D01*
X145682644Y-91797328D01*
X145819102Y-91706150D01*
X145935150Y-91590102D01*
X146026328Y-91453644D01*
X146089132Y-91302021D01*
X146121150Y-91141058D01*
X146121150Y-90976942D01*
X146111756Y-90929713D01*
X146752780Y-90929713D01*
X146816044Y-91099147D01*
X146929066Y-91241823D01*
X147067751Y-91359708D01*
X147226769Y-91448271D01*
X147400010Y-91504110D01*
X148349970Y-91504110D01*
X148349970Y-90793570D01*
X148743670Y-90793570D01*
X148743670Y-91504110D01*
X149693630Y-91504110D01*
X149866871Y-91448271D01*
X150025889Y-91359708D01*
X150164574Y-91241823D01*
X150277596Y-91099147D01*
X150340860Y-90929713D01*
X150316580Y-90793570D01*
X148743670Y-90793570D01*
X148349970Y-90793570D01*
X146777060Y-90793570D01*
X146752780Y-90929713D01*
X146111756Y-90929713D01*
X146089132Y-90815979D01*
X146026328Y-90664356D01*
X145935150Y-90527898D01*
X145819102Y-90411850D01*
X145682644Y-90320672D01*
X145531021Y-90257868D01*
X145370058Y-90225850D01*
X145205942Y-90225850D01*
X145044979Y-90257868D01*
X144893356Y-90320672D01*
X144756898Y-90411850D01*
X144640850Y-90527898D01*
X144549672Y-90664356D01*
X144486868Y-90815979D01*
X144454850Y-90976942D01*
X127221450Y-90976942D01*
X127221450Y-90221450D01*
X146768566Y-90221450D01*
X146752780Y-90263727D01*
%TA.AperFunction,Conductor*%
D20*
G36*
X146752780Y-90263727D02*
G01*
X146777060Y-90399870D01*
X148349970Y-90399870D01*
X148349970Y-90221450D01*
X148743670Y-90221450D01*
X148743670Y-90399870D01*
X150316580Y-90399870D01*
X150340860Y-90263727D01*
X150325074Y-90221450D01*
X156778551Y-90221450D01*
X156778550Y-103778550D01*
X150323222Y-103778550D01*
X150340860Y-103731313D01*
X150316580Y-103595170D01*
X148743670Y-103595170D01*
X148743670Y-103778550D01*
X148349970Y-103778550D01*
X148349970Y-103595170D01*
X146777060Y-103595170D01*
X146752780Y-103731313D01*
X146770418Y-103778550D01*
X130846296Y-103778550D01*
X130950644Y-103735328D01*
X131087102Y-103644150D01*
X131203150Y-103528102D01*
X131294328Y-103391644D01*
X131357132Y-103240021D01*
X131389150Y-103079058D01*
X131389150Y-103065327D01*
X146752780Y-103065327D01*
X146777060Y-103201470D01*
X148349970Y-103201470D01*
X148349970Y-102490930D01*
X148743670Y-102490930D01*
X148743670Y-103201470D01*
X150316580Y-103201470D01*
X150340860Y-103065327D01*
X150277596Y-102895893D01*
X150164574Y-102753217D01*
X150025889Y-102635332D01*
X149866871Y-102546769D01*
X149693630Y-102490930D01*
X148743670Y-102490930D01*
X148349970Y-102490930D01*
X147400010Y-102490930D01*
X147226769Y-102546769D01*
X147067751Y-102635332D01*
X146929066Y-102753217D01*
X146816044Y-102895893D01*
X146752780Y-103065327D01*
X131389150Y-103065327D01*
X131389150Y-102914942D01*
X131357132Y-102753979D01*
X131294328Y-102602356D01*
X131203150Y-102465898D01*
X131087102Y-102349850D01*
X130950644Y-102258672D01*
X130799021Y-102195868D01*
X130638058Y-102163850D01*
X130473942Y-102163850D01*
X130312979Y-102195868D01*
X130161356Y-102258672D01*
X130024898Y-102349850D01*
X129908850Y-102465898D01*
X129817672Y-102602356D01*
X129754868Y-102753979D01*
X129722850Y-102914942D01*
X129722850Y-103079058D01*
X129754868Y-103240021D01*
X129817672Y-103391644D01*
X129908850Y-103528102D01*
X130024898Y-103644150D01*
X130161356Y-103735328D01*
X130265704Y-103778550D01*
X127221450Y-103778550D01*
X127221450Y-102152540D01*
X127289310Y-102208786D01*
X127406614Y-102272222D01*
X127534040Y-102311554D01*
X127666691Y-102325271D01*
X127773150Y-102253126D01*
X127773150Y-101841850D01*
X128166850Y-101841850D01*
X128166850Y-102253126D01*
X128273309Y-102325271D01*
X128405960Y-102311554D01*
X128533386Y-102272222D01*
X128650690Y-102208786D01*
X128753364Y-102123684D01*
X128837463Y-102020187D01*
X128858461Y-101937507D01*
X128829229Y-101841850D01*
X128166850Y-101841850D01*
X127773150Y-101841850D01*
X127753150Y-101841850D01*
X127753150Y-101577507D01*
X133031539Y-101577507D01*
X133052537Y-101660187D01*
X133136636Y-101763684D01*
X133239310Y-101848786D01*
X133356614Y-101912222D01*
X133484040Y-101951554D01*
X133616691Y-101965271D01*
X133723150Y-101893126D01*
X133723150Y-101481850D01*
X133060771Y-101481850D01*
X133031539Y-101577507D01*
X127753150Y-101577507D01*
X127753150Y-101448150D01*
X127773150Y-101448150D01*
X127773150Y-101036874D01*
X128166850Y-101036874D01*
X128166850Y-101448150D01*
X128829229Y-101448150D01*
X128858461Y-101352493D01*
X128837463Y-101269813D01*
X128753364Y-101166316D01*
X128650690Y-101081214D01*
X128533386Y-101017778D01*
X128451469Y-100992493D01*
X133031539Y-100992493D01*
X133060771Y-101088150D01*
X133723150Y-101088150D01*
X133723150Y-100676874D01*
X133616691Y-100604729D01*
X133484040Y-100618446D01*
X133356614Y-100657778D01*
X133239310Y-100721214D01*
X133136636Y-100806316D01*
X133052537Y-100909813D01*
X133031539Y-100992493D01*
X128451469Y-100992493D01*
X128405960Y-100978446D01*
X128273309Y-100964729D01*
X128166850Y-101036874D01*
X127773150Y-101036874D01*
X127666691Y-100964729D01*
X127534040Y-100978446D01*
X127406614Y-101017778D01*
X127289310Y-101081214D01*
X127221450Y-101137460D01*
X127221450Y-94697663D01*
X133237850Y-94697663D01*
X133237850Y-94812337D01*
X133260221Y-94924807D01*
X133304105Y-95030752D01*
X133367814Y-95126099D01*
X133396715Y-95155000D01*
X133367814Y-95183901D01*
X133304105Y-95279248D01*
X133260221Y-95385193D01*
X133237850Y-95497663D01*
X133237850Y-95612337D01*
X133260221Y-95724807D01*
X133304105Y-95830752D01*
X133367814Y-95926099D01*
X133396715Y-95955000D01*
X133367814Y-95983901D01*
X133304105Y-96079248D01*
X133260221Y-96185193D01*
X133237850Y-96297663D01*
X133237850Y-96412337D01*
X133260221Y-96524807D01*
X133304105Y-96630752D01*
X133367814Y-96726099D01*
X133448901Y-96807186D01*
X133544248Y-96870895D01*
X133650193Y-96914779D01*
X133762663Y-96937150D01*
X133877337Y-96937150D01*
X133959428Y-96920822D01*
X133960221Y-96924807D01*
X134004105Y-97030752D01*
X134067814Y-97126099D01*
X134096715Y-97155000D01*
X134067814Y-97183901D01*
X134004105Y-97279248D01*
X133960221Y-97385193D01*
X133959428Y-97389178D01*
X133877337Y-97372850D01*
X133762663Y-97372850D01*
X133650193Y-97395221D01*
X133544248Y-97439105D01*
X133448901Y-97502814D01*
X133367814Y-97583901D01*
X133304105Y-97679248D01*
X133260221Y-97785193D01*
X133237850Y-97897663D01*
X133237850Y-98012337D01*
X133260221Y-98124807D01*
X133304105Y-98230752D01*
X133367814Y-98326099D01*
X133396715Y-98355000D01*
X133367814Y-98383901D01*
X133304105Y-98479248D01*
X133260221Y-98585193D01*
X133237850Y-98697663D01*
X133237850Y-98812337D01*
X133260221Y-98924807D01*
X133304105Y-99030752D01*
X133367814Y-99126099D01*
X133396715Y-99155000D01*
X133367814Y-99183901D01*
X133304105Y-99279248D01*
X133260221Y-99385193D01*
X133237850Y-99497663D01*
X133237850Y-99612337D01*
X133260221Y-99724807D01*
X133304105Y-99830752D01*
X133367814Y-99926099D01*
X133448901Y-100007186D01*
X133544248Y-100070895D01*
X133650193Y-100114779D01*
X133762663Y-100137150D01*
X133877337Y-100137150D01*
X133960858Y-100120537D01*
X134039956Y-100156656D01*
X134186057Y-100010555D01*
X134191099Y-100007186D01*
X134272186Y-99926099D01*
X134332510Y-99835818D01*
X134505858Y-99662470D01*
X134520000Y-99676612D01*
X134534142Y-99662470D01*
X134812530Y-99940858D01*
X134798388Y-99955000D01*
X134812530Y-99969142D01*
X134534142Y-100247530D01*
X134520000Y-100233388D01*
X134318344Y-100435044D01*
X134355473Y-100516354D01*
X134468149Y-100537664D01*
X134582818Y-100536584D01*
X134591951Y-100534767D01*
X134587850Y-100576409D01*
X134587850Y-100714270D01*
X134483386Y-100657778D01*
X134355960Y-100618446D01*
X134223309Y-100604729D01*
X134116850Y-100676874D01*
X134116850Y-101088150D01*
X134136850Y-101088150D01*
X134136850Y-101481850D01*
X134116850Y-101481850D01*
X134116850Y-101893126D01*
X134223309Y-101965271D01*
X134355960Y-101951554D01*
X134483386Y-101912222D01*
X134600690Y-101848786D01*
X134703364Y-101763684D01*
X134787463Y-101660187D01*
X134808461Y-101577507D01*
X134779230Y-101481852D01*
X134877150Y-101481852D01*
X134877150Y-101408560D01*
X134946143Y-101445438D01*
X135055879Y-101478726D01*
X135170000Y-101489966D01*
X135284120Y-101478726D01*
X135393856Y-101445438D01*
X135494989Y-101391381D01*
X135583633Y-101318633D01*
X135656381Y-101229990D01*
X135710438Y-101128857D01*
X135743726Y-101019121D01*
X135752150Y-100933591D01*
X135752150Y-100663512D01*
X136804850Y-100663512D01*
X136804850Y-100758488D01*
X136823379Y-100851638D01*
X136859724Y-100939384D01*
X136912490Y-101018353D01*
X136979647Y-101085510D01*
X137058616Y-101138276D01*
X137146362Y-101174621D01*
X137239512Y-101193150D01*
X137334488Y-101193150D01*
X137427638Y-101174621D01*
X137515384Y-101138276D01*
X137594353Y-101085510D01*
X137635513Y-101044350D01*
X137778633Y-101044350D01*
X137795000Y-101045962D01*
X137811367Y-101044350D01*
X137860348Y-101039526D01*
X137923184Y-101020465D01*
X137981095Y-100989511D01*
X138031854Y-100947854D01*
X138042293Y-100935134D01*
X140305140Y-98672288D01*
X140317854Y-98661854D01*
X140359511Y-98611095D01*
X140390465Y-98553184D01*
X140409526Y-98490348D01*
X140414350Y-98441367D01*
X140414350Y-98441358D01*
X140415961Y-98425001D01*
X140414350Y-98408644D01*
X140414350Y-97006820D01*
X140587619Y-96833552D01*
X140645829Y-96833552D01*
X140738979Y-96815023D01*
X140826725Y-96778678D01*
X140905694Y-96725912D01*
X140972851Y-96658755D01*
X141025617Y-96579786D01*
X141061962Y-96492040D01*
X141080491Y-96398890D01*
X141080491Y-96303914D01*
X141061962Y-96210764D01*
X141025617Y-96123018D01*
X140972851Y-96044049D01*
X140905694Y-95976892D01*
X140826725Y-95924126D01*
X140738979Y-95887781D01*
X140645829Y-95869252D01*
X140550853Y-95869252D01*
X140457703Y-95887781D01*
X140369957Y-95924126D01*
X140290988Y-95976892D01*
X140244658Y-96023222D01*
X140201510Y-95958647D01*
X140134353Y-95891490D01*
X140055384Y-95838724D01*
X139967638Y-95802379D01*
X139874488Y-95783850D01*
X139779512Y-95783850D01*
X139686362Y-95802379D01*
X139598616Y-95838724D01*
X139519647Y-95891490D01*
X139452490Y-95958647D01*
X139399724Y-96037616D01*
X139363379Y-96125362D01*
X139344850Y-96218512D01*
X139344850Y-96313488D01*
X139363379Y-96406638D01*
X139399724Y-96494384D01*
X139452490Y-96573353D01*
X139519647Y-96640510D01*
X139598616Y-96693276D01*
X139686362Y-96729621D01*
X139769818Y-96746222D01*
X139752474Y-96803396D01*
X139746038Y-96868743D01*
X139747651Y-96885120D01*
X139747650Y-98286922D01*
X137656923Y-100377650D01*
X137635513Y-100377650D01*
X137594353Y-100336490D01*
X137515384Y-100283724D01*
X137427638Y-100247379D01*
X137334488Y-100228850D01*
X137239512Y-100228850D01*
X137146362Y-100247379D01*
X137058616Y-100283724D01*
X136979647Y-100336490D01*
X136912490Y-100403647D01*
X136859724Y-100482616D01*
X136823379Y-100570362D01*
X136804850Y-100663512D01*
X135752150Y-100663512D01*
X135752150Y-100576410D01*
X135743726Y-100490880D01*
X135710438Y-100381144D01*
X135656381Y-100280010D01*
X135583633Y-100191367D01*
X135494990Y-100118619D01*
X135393857Y-100064562D01*
X135284121Y-100031274D01*
X135170000Y-100020034D01*
X135098845Y-100027042D01*
X135102664Y-100006851D01*
X135101584Y-99892182D01*
X135081354Y-99790473D01*
X135000046Y-99753345D01*
X135072634Y-99680757D01*
X135029833Y-99637956D01*
X137359371Y-99637956D01*
X137376287Y-99639622D01*
X137393203Y-99637956D01*
X137393214Y-99637956D01*
X137443851Y-99632969D01*
X137508818Y-99613261D01*
X137568692Y-99581258D01*
X137621172Y-99538188D01*
X137631965Y-99525037D01*
X138504171Y-98652832D01*
X138556599Y-98705260D01*
X138635568Y-98758026D01*
X138723314Y-98794371D01*
X138816464Y-98812900D01*
X138911440Y-98812900D01*
X139004590Y-98794371D01*
X139092336Y-98758026D01*
X139171305Y-98705260D01*
X139238462Y-98638103D01*
X139291228Y-98559134D01*
X139327573Y-98471388D01*
X139346102Y-98378238D01*
X139346102Y-98283262D01*
X139327573Y-98190112D01*
X139291228Y-98102366D01*
X139259545Y-98054950D01*
X139291228Y-98007534D01*
X139327573Y-97919788D01*
X139346102Y-97826638D01*
X139346102Y-97731662D01*
X139327573Y-97638512D01*
X139291228Y-97550766D01*
X139238462Y-97471797D01*
X139171305Y-97404640D01*
X139092336Y-97351874D01*
X139004590Y-97315529D01*
X138911440Y-97297000D01*
X138816464Y-97297000D01*
X138723314Y-97315529D01*
X138635568Y-97351874D01*
X138556599Y-97404640D01*
X138489442Y-97471797D01*
X138436676Y-97550766D01*
X138427883Y-97571994D01*
X138378682Y-97571994D01*
X138361763Y-97570328D01*
X138344844Y-97571994D01*
X138344836Y-97571994D01*
X138294199Y-97576981D01*
X138229232Y-97596689D01*
X138169358Y-97628692D01*
X138142062Y-97651094D01*
X138138205Y-97654259D01*
X138133211Y-97629152D01*
X138096866Y-97541406D01*
X138044100Y-97462437D01*
X137976943Y-97395280D01*
X137897974Y-97342514D01*
X137876746Y-97333721D01*
X137876746Y-95443418D01*
X137878412Y-95426502D01*
X137876746Y-95409586D01*
X137876746Y-95409576D01*
X137871759Y-95358939D01*
X137852051Y-95293972D01*
X137820048Y-95234098D01*
X137815490Y-95228545D01*
X137787768Y-95194765D01*
X137787760Y-95194757D01*
X137776977Y-95181618D01*
X137763837Y-95170834D01*
X137377964Y-94784962D01*
X137367172Y-94771812D01*
X137314692Y-94728742D01*
X137254818Y-94696739D01*
X137189851Y-94677031D01*
X137139214Y-94672044D01*
X137139203Y-94672044D01*
X137122287Y-94670378D01*
X137105371Y-94672044D01*
X135029833Y-94672044D01*
X135072634Y-94629243D01*
X135000046Y-94556655D01*
X135081354Y-94519527D01*
X135102664Y-94406851D01*
X135101584Y-94292182D01*
X135081354Y-94190473D01*
X135000046Y-94153345D01*
X135032238Y-94121153D01*
X135112663Y-94137150D01*
X135227337Y-94137150D01*
X135339807Y-94114779D01*
X135445752Y-94070895D01*
X135462787Y-94059512D01*
X136931850Y-94059512D01*
X136931850Y-94154488D01*
X136950379Y-94247638D01*
X136986724Y-94335384D01*
X137039490Y-94414353D01*
X137106647Y-94481510D01*
X137185616Y-94534276D01*
X137273362Y-94570621D01*
X137366512Y-94589150D01*
X137461488Y-94589150D01*
X137554638Y-94570621D01*
X137642384Y-94534276D01*
X137721353Y-94481510D01*
X137788510Y-94414353D01*
X137841276Y-94335384D01*
X137877621Y-94247638D01*
X137887247Y-94199247D01*
X137935638Y-94189621D01*
X138023384Y-94153276D01*
X138102353Y-94100510D01*
X138169510Y-94033353D01*
X138222276Y-93954384D01*
X138258621Y-93866638D01*
X138277150Y-93773488D01*
X138277150Y-93737491D01*
X144991829Y-93737491D01*
X144991829Y-93832467D01*
X145010358Y-93925617D01*
X145046703Y-94013363D01*
X145099469Y-94092332D01*
X145166626Y-94159489D01*
X145245595Y-94212255D01*
X145333341Y-94248600D01*
X145389274Y-94259726D01*
X145400400Y-94315659D01*
X145436745Y-94403405D01*
X145489511Y-94482374D01*
X145556668Y-94549531D01*
X145635637Y-94602297D01*
X145723383Y-94638642D01*
X145816533Y-94657171D01*
X145858759Y-94657171D01*
X146340246Y-95138659D01*
X146340246Y-95349060D01*
X146345211Y-95399470D01*
X146359915Y-95447943D01*
X146383793Y-95492616D01*
X146387924Y-95497650D01*
X146383793Y-95502684D01*
X146359915Y-95547357D01*
X146345211Y-95595830D01*
X146340246Y-95646240D01*
X146340246Y-96347280D01*
X146345211Y-96397690D01*
X146359915Y-96446163D01*
X146383793Y-96490836D01*
X146415928Y-96529992D01*
X146455084Y-96562127D01*
X146499757Y-96586005D01*
X146548230Y-96600709D01*
X146598640Y-96605674D01*
X148198840Y-96605674D01*
X148249250Y-96600709D01*
X148297723Y-96586005D01*
X148342396Y-96562127D01*
X148381552Y-96529992D01*
X148413687Y-96490836D01*
X148437565Y-96446163D01*
X148452269Y-96397690D01*
X148457234Y-96347280D01*
X148457234Y-96330110D01*
X148505980Y-96330110D01*
X148485579Y-96379362D01*
X148467050Y-96472512D01*
X148467050Y-96567488D01*
X148485579Y-96660638D01*
X148521924Y-96748384D01*
X148574690Y-96827353D01*
X148615850Y-96868513D01*
X148615851Y-97262241D01*
X148395748Y-97482345D01*
X148381552Y-97465048D01*
X148342396Y-97432913D01*
X148297723Y-97409035D01*
X148249250Y-97394331D01*
X148198840Y-97389366D01*
X146598640Y-97389366D01*
X146548230Y-97394331D01*
X146499757Y-97409035D01*
X146455084Y-97432913D01*
X146415928Y-97465048D01*
X146383793Y-97504204D01*
X146359915Y-97548877D01*
X146345211Y-97597350D01*
X146340246Y-97647760D01*
X146340246Y-98348800D01*
X146345211Y-98399210D01*
X146359915Y-98447683D01*
X146383793Y-98492356D01*
X146387924Y-98497390D01*
X146383793Y-98502424D01*
X146359915Y-98547097D01*
X146345211Y-98595570D01*
X146340246Y-98645980D01*
X146340246Y-98650718D01*
X146328783Y-98651847D01*
X146328773Y-98651847D01*
X146278136Y-98656834D01*
X146213169Y-98676542D01*
X146153295Y-98708545D01*
X146100815Y-98751615D01*
X146090027Y-98764760D01*
X145663738Y-99191050D01*
X145621512Y-99191050D01*
X145528362Y-99209579D01*
X145440616Y-99245924D01*
X145361647Y-99298690D01*
X145294490Y-99365847D01*
X145241724Y-99444816D01*
X145205379Y-99532562D01*
X145186850Y-99625712D01*
X145186850Y-99720688D01*
X145205379Y-99813838D01*
X145241724Y-99901584D01*
X145273407Y-99949000D01*
X145241724Y-99996416D01*
X145205379Y-100084162D01*
X145186850Y-100177312D01*
X145186850Y-100272288D01*
X145205379Y-100365438D01*
X145241724Y-100453184D01*
X145294490Y-100532153D01*
X145361647Y-100599310D01*
X145440616Y-100652076D01*
X145528362Y-100688421D01*
X145621512Y-100706950D01*
X145663738Y-100706950D01*
X146186547Y-101229760D01*
X146197335Y-101242905D01*
X146249815Y-101285975D01*
X146309689Y-101317978D01*
X146340246Y-101327248D01*
X146340246Y-101348540D01*
X146345211Y-101398950D01*
X146359915Y-101447423D01*
X146383793Y-101492096D01*
X146415928Y-101531252D01*
X146455084Y-101563387D01*
X146499757Y-101587265D01*
X146548230Y-101601969D01*
X146598640Y-101606934D01*
X148198840Y-101606934D01*
X148249250Y-101601969D01*
X148297723Y-101587265D01*
X148342396Y-101563387D01*
X148381552Y-101531252D01*
X148413687Y-101492096D01*
X148437565Y-101447423D01*
X148452269Y-101398950D01*
X148457234Y-101348540D01*
X148457234Y-100647500D01*
X148452269Y-100597090D01*
X148437565Y-100548617D01*
X148413687Y-100503944D01*
X148381552Y-100464788D01*
X148342396Y-100432653D01*
X148297723Y-100408775D01*
X148249250Y-100394071D01*
X148198840Y-100389106D01*
X146598640Y-100389106D01*
X146548230Y-100394071D01*
X146499757Y-100408775D01*
X146455084Y-100432653D01*
X146415928Y-100464788D01*
X146407126Y-100475513D01*
X146151150Y-100219538D01*
X146151150Y-100177312D01*
X146132621Y-100084162D01*
X146096276Y-99996416D01*
X146064593Y-99949000D01*
X146096276Y-99901584D01*
X146132621Y-99813838D01*
X146147320Y-99739942D01*
X154487850Y-99739942D01*
X154487850Y-99904058D01*
X154519868Y-100065021D01*
X154582672Y-100216644D01*
X154673850Y-100353102D01*
X154789898Y-100469150D01*
X154926356Y-100560328D01*
X155077979Y-100623132D01*
X155238942Y-100655150D01*
X155403058Y-100655150D01*
X155564021Y-100623132D01*
X155715644Y-100560328D01*
X155852102Y-100469150D01*
X155968150Y-100353102D01*
X156059328Y-100216644D01*
X156122132Y-100065021D01*
X156154150Y-99904058D01*
X156154150Y-99739942D01*
X156122132Y-99578979D01*
X156059328Y-99427356D01*
X155968150Y-99290898D01*
X155852102Y-99174850D01*
X155715644Y-99083672D01*
X155564021Y-99020868D01*
X155403058Y-98988850D01*
X155238942Y-98988850D01*
X155077979Y-99020868D01*
X154926356Y-99083672D01*
X154789898Y-99174850D01*
X154673850Y-99290898D01*
X154582672Y-99427356D01*
X154519868Y-99578979D01*
X154487850Y-99739942D01*
X146147320Y-99739942D01*
X146151150Y-99720688D01*
X146151150Y-99678462D01*
X146368203Y-99461409D01*
X146383793Y-99490576D01*
X146415928Y-99529732D01*
X146455084Y-99561867D01*
X146499757Y-99585745D01*
X146548230Y-99600449D01*
X146598640Y-99605414D01*
X148198840Y-99605414D01*
X148249250Y-99600449D01*
X148297723Y-99585745D01*
X148342396Y-99561867D01*
X148381552Y-99529732D01*
X148413687Y-99490576D01*
X148437565Y-99445903D01*
X148452269Y-99397430D01*
X148457234Y-99347020D01*
X148457234Y-98645980D01*
X148452269Y-98595570D01*
X148437565Y-98547097D01*
X148413687Y-98502424D01*
X148409556Y-98497390D01*
X148413687Y-98492356D01*
X148437565Y-98447683D01*
X148452269Y-98399210D01*
X148457234Y-98348800D01*
X148457234Y-98314476D01*
X148479424Y-98307745D01*
X148537335Y-98276791D01*
X148588094Y-98235134D01*
X148598533Y-98222414D01*
X149173339Y-97647609D01*
X149186054Y-97637174D01*
X149227711Y-97586415D01*
X149258665Y-97528504D01*
X149277726Y-97465668D01*
X149282550Y-97416687D01*
X149282550Y-97416686D01*
X149284162Y-97400321D01*
X149282550Y-97383956D01*
X149282550Y-96951474D01*
X149360162Y-96983621D01*
X149453312Y-97002150D01*
X149548288Y-97002150D01*
X149641438Y-96983621D01*
X149729184Y-96947276D01*
X149808153Y-96894510D01*
X149875310Y-96827353D01*
X149928076Y-96748384D01*
X149964421Y-96660638D01*
X149982950Y-96567488D01*
X149982950Y-96472512D01*
X149964421Y-96379362D01*
X149928076Y-96291616D01*
X149875310Y-96212647D01*
X149832626Y-96169963D01*
X149829326Y-96136454D01*
X149810265Y-96073618D01*
X149779311Y-96015707D01*
X149737654Y-95964948D01*
X149724935Y-95954510D01*
X149543051Y-95772626D01*
X149532612Y-95759906D01*
X149481853Y-95718249D01*
X149423942Y-95687295D01*
X149361106Y-95668234D01*
X149312125Y-95663410D01*
X149295758Y-95661798D01*
X149279391Y-95663410D01*
X148457234Y-95663410D01*
X148457234Y-95646240D01*
X148452269Y-95595830D01*
X148437565Y-95547357D01*
X148413687Y-95502684D01*
X148409556Y-95497650D01*
X148413687Y-95492616D01*
X148437565Y-95447943D01*
X148452269Y-95399470D01*
X148457234Y-95349060D01*
X148457234Y-94648020D01*
X148452269Y-94597610D01*
X148445383Y-94574910D01*
X148786733Y-94574910D01*
X148798702Y-94586879D01*
X148816696Y-94608805D01*
X148846651Y-94633388D01*
X148904197Y-94680615D01*
X148929688Y-94694240D01*
X149004028Y-94733976D01*
X149112350Y-94766835D01*
X149213904Y-94776837D01*
X149224999Y-94777930D01*
X149225000Y-94777930D01*
X149337651Y-94766835D01*
X149445973Y-94733976D01*
X149545803Y-94680615D01*
X149633305Y-94608805D01*
X149705115Y-94521303D01*
X149758476Y-94421473D01*
X149791335Y-94313151D01*
X149799650Y-94228726D01*
X149799650Y-94228723D01*
X149802430Y-94200499D01*
X149799650Y-94172276D01*
X149799650Y-93473774D01*
X149791335Y-93389349D01*
X149758476Y-93281027D01*
X149705115Y-93181197D01*
X149633305Y-93093695D01*
X149545802Y-93021885D01*
X149445972Y-92968524D01*
X149337650Y-92935665D01*
X149225000Y-92924570D01*
X149112349Y-92935665D01*
X149004027Y-92968524D01*
X148904197Y-93021885D01*
X148816695Y-93093695D01*
X148744885Y-93181198D01*
X148691524Y-93281028D01*
X148658665Y-93389350D01*
X148655094Y-93425610D01*
X148443879Y-93425610D01*
X148452269Y-93397950D01*
X148457234Y-93347540D01*
X148457234Y-92646500D01*
X148452269Y-92596090D01*
X148437565Y-92547617D01*
X148413687Y-92502944D01*
X148381552Y-92463788D01*
X148342396Y-92431653D01*
X148297723Y-92407775D01*
X148249250Y-92393071D01*
X148198840Y-92388106D01*
X146598640Y-92388106D01*
X146548230Y-92393071D01*
X146499757Y-92407775D01*
X146455084Y-92431653D01*
X146415928Y-92463788D01*
X146383793Y-92502944D01*
X146359915Y-92547617D01*
X146345211Y-92596090D01*
X146340246Y-92646500D01*
X146340246Y-92652367D01*
X146278853Y-92652367D01*
X146261937Y-92650701D01*
X146245021Y-92652367D01*
X146245011Y-92652367D01*
X146194374Y-92657354D01*
X146129407Y-92677062D01*
X146069533Y-92709065D01*
X146017053Y-92752135D01*
X146006265Y-92765280D01*
X145468717Y-93302829D01*
X145426491Y-93302829D01*
X145333341Y-93321358D01*
X145245595Y-93357703D01*
X145166626Y-93410469D01*
X145099469Y-93477626D01*
X145046703Y-93556595D01*
X145010358Y-93644341D01*
X144991829Y-93737491D01*
X138277150Y-93737491D01*
X138277150Y-93678512D01*
X138258621Y-93585362D01*
X138222276Y-93497616D01*
X138169510Y-93418647D01*
X138102353Y-93351490D01*
X138023384Y-93298724D01*
X137935638Y-93262379D01*
X137842488Y-93243850D01*
X137747512Y-93243850D01*
X137654362Y-93262379D01*
X137566616Y-93298724D01*
X137487647Y-93351490D01*
X137420490Y-93418647D01*
X137367724Y-93497616D01*
X137331379Y-93585362D01*
X137321753Y-93633753D01*
X137273362Y-93643379D01*
X137185616Y-93679724D01*
X137106647Y-93732490D01*
X137039490Y-93799647D01*
X136986724Y-93878616D01*
X136950379Y-93966362D01*
X136931850Y-94059512D01*
X135462787Y-94059512D01*
X135541099Y-94007186D01*
X135622186Y-93926099D01*
X135685895Y-93830752D01*
X135729779Y-93724807D01*
X135752150Y-93612337D01*
X135752150Y-93497663D01*
X135729779Y-93385193D01*
X135685895Y-93279248D01*
X135622186Y-93183901D01*
X135541099Y-93102814D01*
X135445752Y-93039105D01*
X135339807Y-92995221D01*
X135227337Y-92972850D01*
X135112663Y-92972850D01*
X135000193Y-92995221D01*
X134894248Y-93039105D01*
X134798901Y-93102814D01*
X134717814Y-93183901D01*
X134692457Y-93221850D01*
X134116850Y-93221850D01*
X134116850Y-93633126D01*
X134223309Y-93705271D01*
X134355960Y-93691554D01*
X134483386Y-93652222D01*
X134587850Y-93595730D01*
X134587850Y-93612337D01*
X134610221Y-93724807D01*
X134634843Y-93784249D01*
X134571851Y-93772336D01*
X134457182Y-93773416D01*
X134355473Y-93793646D01*
X134318344Y-93874956D01*
X134520000Y-94076612D01*
X134534142Y-94062470D01*
X134812530Y-94340858D01*
X134798388Y-94355000D01*
X134812530Y-94369142D01*
X134534142Y-94647530D01*
X134520000Y-94633388D01*
X134505858Y-94647530D01*
X134332510Y-94474182D01*
X134272186Y-94383901D01*
X134191099Y-94302814D01*
X134186057Y-94299445D01*
X134039956Y-94153344D01*
X133960858Y-94189463D01*
X133877337Y-94172850D01*
X133762663Y-94172850D01*
X133650193Y-94195221D01*
X133544248Y-94239105D01*
X133448901Y-94302814D01*
X133367814Y-94383901D01*
X133304105Y-94479248D01*
X133260221Y-94585193D01*
X133237850Y-94697663D01*
X127221450Y-94697663D01*
X127221450Y-93172540D01*
X127289310Y-93228786D01*
X127406614Y-93292222D01*
X127534040Y-93331554D01*
X127666691Y-93345271D01*
X127773150Y-93273126D01*
X127773150Y-92861850D01*
X128166850Y-92861850D01*
X128166850Y-93273126D01*
X128273309Y-93345271D01*
X128405960Y-93331554D01*
X128451468Y-93317507D01*
X133031539Y-93317507D01*
X133052537Y-93400187D01*
X133136636Y-93503684D01*
X133239310Y-93588786D01*
X133356614Y-93652222D01*
X133484040Y-93691554D01*
X133616691Y-93705271D01*
X133723150Y-93633126D01*
X133723150Y-93221850D01*
X133060771Y-93221850D01*
X133031539Y-93317507D01*
X128451468Y-93317507D01*
X128533386Y-93292222D01*
X128650690Y-93228786D01*
X128753364Y-93143684D01*
X128837463Y-93040187D01*
X128858461Y-92957507D01*
X128829229Y-92861850D01*
X128166850Y-92861850D01*
X127773150Y-92861850D01*
X127753150Y-92861850D01*
X127753150Y-92732493D01*
X133031539Y-92732493D01*
X133060771Y-92828150D01*
X133723150Y-92828150D01*
X133723150Y-92416874D01*
X134116850Y-92416874D01*
X134116850Y-92828150D01*
X134779229Y-92828150D01*
X134808461Y-92732493D01*
X134787463Y-92649813D01*
X134703364Y-92546316D01*
X134600690Y-92461214D01*
X134483386Y-92397778D01*
X134355960Y-92358446D01*
X134223309Y-92344729D01*
X134116850Y-92416874D01*
X133723150Y-92416874D01*
X133616691Y-92344729D01*
X133484040Y-92358446D01*
X133356614Y-92397778D01*
X133239310Y-92461214D01*
X133136636Y-92546316D01*
X133052537Y-92649813D01*
X133031539Y-92732493D01*
X127753150Y-92732493D01*
X127753150Y-92468150D01*
X127773150Y-92468150D01*
X127773150Y-92056874D01*
X128166850Y-92056874D01*
X128166850Y-92468150D01*
X128829229Y-92468150D01*
X128858461Y-92372493D01*
X128837463Y-92289813D01*
X128753364Y-92186316D01*
X128650690Y-92101214D01*
X128533386Y-92037778D01*
X128405960Y-91998446D01*
X128273309Y-91984729D01*
X128166850Y-92056874D01*
X127773150Y-92056874D01*
X127666691Y-91984729D01*
X127534040Y-91998446D01*
X127406614Y-92037778D01*
X127289310Y-92101214D01*
X127221450Y-92157460D01*
X127221450Y-90976942D01*
X144454850Y-90976942D01*
X144454850Y-91141058D01*
X144486868Y-91302021D01*
X144549672Y-91453644D01*
X144640850Y-91590102D01*
X144756898Y-91706150D01*
X144893356Y-91797328D01*
X145044979Y-91860132D01*
X145205942Y-91892150D01*
X145370058Y-91892150D01*
X145531021Y-91860132D01*
X145682644Y-91797328D01*
X145819102Y-91706150D01*
X145935150Y-91590102D01*
X146026328Y-91453644D01*
X146089132Y-91302021D01*
X146121150Y-91141058D01*
X146121150Y-90976942D01*
X146111756Y-90929713D01*
X146752780Y-90929713D01*
X146816044Y-91099147D01*
X146929066Y-91241823D01*
X147067751Y-91359708D01*
X147226769Y-91448271D01*
X147400010Y-91504110D01*
X148349970Y-91504110D01*
X148349970Y-90793570D01*
X148743670Y-90793570D01*
X148743670Y-91504110D01*
X149693630Y-91504110D01*
X149866871Y-91448271D01*
X150025889Y-91359708D01*
X150164574Y-91241823D01*
X150277596Y-91099147D01*
X150340860Y-90929713D01*
X150316580Y-90793570D01*
X148743670Y-90793570D01*
X148349970Y-90793570D01*
X146777060Y-90793570D01*
X146752780Y-90929713D01*
X146111756Y-90929713D01*
X146089132Y-90815979D01*
X146026328Y-90664356D01*
X145935150Y-90527898D01*
X145819102Y-90411850D01*
X145682644Y-90320672D01*
X145531021Y-90257868D01*
X145370058Y-90225850D01*
X145205942Y-90225850D01*
X145044979Y-90257868D01*
X144893356Y-90320672D01*
X144756898Y-90411850D01*
X144640850Y-90527898D01*
X144549672Y-90664356D01*
X144486868Y-90815979D01*
X144454850Y-90976942D01*
X127221450Y-90976942D01*
X127221450Y-90221450D01*
X146768566Y-90221450D01*
X146752780Y-90263727D01*
G37*
%TD.AperFunction*%
%TD*%
M02*
