%TF.GenerationSoftware,KiCad,Pcbnew,(5.1.10)-1*%
%TF.CreationDate,2022-01-11T16:22:32+08:00*%
%TF.ProjectId,VL160,564c3136-302e-46b6-9963-61645f706362,rev?*%
%TF.SameCoordinates,Original*%
%TF.FileFunction,Copper,L3,Inr*%
%TF.FilePolarity,Positive*%
%FSLAX46Y46*%
G04 Gerber Fmt 4.6, Leading zero omitted, Abs format (unit mm)*
G04 Created by KiCad (PCBNEW (5.1.10)-1) date 2022-01-11 16:22:32*
%MOMM*%
%LPD*%
G01*
G04 APERTURE LIST*
%TA.AperFunction,ComponentPad*%
%ADD10O,3.200400X1.300480*%
%TD*%
%TA.AperFunction,ViaPad*%
%ADD11C,0.450000*%
%TD*%
%TA.AperFunction,ViaPad*%
%ADD12C,0.600000*%
%TD*%
%TA.AperFunction,Conductor*%
%ADD13C,0.114300*%
%TD*%
%TA.AperFunction,Conductor*%
%ADD14C,0.100000*%
%TD*%
G04 APERTURE END LIST*
D10*
%TO.N,GND*%
%TO.C,J2*%
X148546820Y-90596720D03*
X148546820Y-103398320D03*
%TD*%
D11*
%TO.N,GND*%
X137160000Y-93124500D03*
X137160000Y-92075000D03*
X137160000Y-92583000D03*
X135509000Y-102743000D03*
X136017000Y-102743000D03*
X134967500Y-102743000D03*
X155702000Y-93345000D03*
X155702000Y-94361000D03*
X155702000Y-93853000D03*
X155702000Y-94869000D03*
X155702000Y-95885000D03*
X155702000Y-95377000D03*
X141097000Y-97536000D03*
X141605000Y-97536000D03*
X142113000Y-97536000D03*
X142113000Y-98171000D03*
X141605000Y-98171000D03*
X141097000Y-98171000D03*
X141097000Y-98806000D03*
X141605000Y-98806000D03*
X142113000Y-98806000D03*
X142113000Y-99441000D03*
X141605000Y-99441000D03*
X141097000Y-99441000D03*
D12*
%TO.N,VBUS*%
X149225000Y-94200500D03*
X149225000Y-93502000D03*
D11*
X133567510Y-98261510D03*
X133596557Y-95731943D03*
X135997626Y-95755292D03*
%TO.N,/TX1+*%
X138739582Y-95910937D03*
%TO.N,/TX1-*%
X138349540Y-96300979D03*
%TO.N,/CC1*%
X139416051Y-95677251D03*
%TO.N,/D+*%
X136360394Y-96752200D03*
X149729400Y-96774000D03*
%TO.N,/D-*%
X136360394Y-97303800D03*
X149177800Y-96774000D03*
%TO.N,/RX2-*%
X137439412Y-99379350D03*
%TO.N,/RX2+*%
X137439412Y-99930950D03*
%TO.N,/TX2+*%
X138213606Y-98204244D03*
X136581474Y-98844821D03*
%TO.N,/TX2-*%
X138213606Y-97652644D03*
X136191432Y-98454779D03*
%TO.N,/CC2*%
X135988858Y-97837151D03*
X140589000Y-96266000D03*
%TO.N,/TX+*%
X145473979Y-93784979D03*
%TO.N,/TX-*%
X145864021Y-94175021D03*
%TO.N,/RX+*%
X145669000Y-99673200D03*
%TO.N,/RX-*%
X145669000Y-100224800D03*
%TD*%
D13*
%TO.N,GND*%
X146752780Y-90263727D02*
X146777060Y-90399870D01*
X148349970Y-90399870D01*
X148349970Y-90221450D01*
X148743670Y-90221450D01*
X148743670Y-90399870D01*
X150316580Y-90399870D01*
X150340860Y-90263727D01*
X150325074Y-90221450D01*
X156778551Y-90221450D01*
X156778550Y-103778550D01*
X150323222Y-103778550D01*
X150340860Y-103731313D01*
X150316580Y-103595170D01*
X148743670Y-103595170D01*
X148743670Y-103778550D01*
X148349970Y-103778550D01*
X148349970Y-103595170D01*
X146777060Y-103595170D01*
X146752780Y-103731313D01*
X146770418Y-103778550D01*
X133221450Y-103778550D01*
X133221450Y-102533942D01*
X136580850Y-102533942D01*
X136580850Y-102698058D01*
X136612868Y-102859021D01*
X136675672Y-103010644D01*
X136766850Y-103147102D01*
X136882898Y-103263150D01*
X137019356Y-103354328D01*
X137170979Y-103417132D01*
X137331942Y-103449150D01*
X137496058Y-103449150D01*
X137657021Y-103417132D01*
X137808644Y-103354328D01*
X137945102Y-103263150D01*
X138061150Y-103147102D01*
X138115790Y-103065327D01*
X146752780Y-103065327D01*
X146777060Y-103201470D01*
X148349970Y-103201470D01*
X148349970Y-102490930D01*
X148743670Y-102490930D01*
X148743670Y-103201470D01*
X150316580Y-103201470D01*
X150340860Y-103065327D01*
X150277596Y-102895893D01*
X150164574Y-102753217D01*
X150025889Y-102635332D01*
X149866871Y-102546769D01*
X149693630Y-102490930D01*
X148743670Y-102490930D01*
X148349970Y-102490930D01*
X147400010Y-102490930D01*
X147226769Y-102546769D01*
X147067751Y-102635332D01*
X146929066Y-102753217D01*
X146816044Y-102895893D01*
X146752780Y-103065327D01*
X138115790Y-103065327D01*
X138152328Y-103010644D01*
X138215132Y-102859021D01*
X138247150Y-102698058D01*
X138247150Y-102533942D01*
X138215132Y-102372979D01*
X138152328Y-102221356D01*
X138061150Y-102084898D01*
X137945102Y-101968850D01*
X137808644Y-101877672D01*
X137657021Y-101814868D01*
X137496058Y-101782850D01*
X137331942Y-101782850D01*
X137170979Y-101814868D01*
X137019356Y-101877672D01*
X136882898Y-101968850D01*
X136766850Y-102084898D01*
X136675672Y-102221356D01*
X136612868Y-102372979D01*
X136580850Y-102533942D01*
X133221450Y-102533942D01*
X133221450Y-99331862D01*
X136957262Y-99331862D01*
X136957262Y-99426838D01*
X136975791Y-99519988D01*
X137012136Y-99607734D01*
X137043819Y-99655150D01*
X137012136Y-99702566D01*
X136975791Y-99790312D01*
X136957262Y-99883462D01*
X136957262Y-99978438D01*
X136975791Y-100071588D01*
X137012136Y-100159334D01*
X137064902Y-100238303D01*
X137132059Y-100305460D01*
X137211028Y-100358226D01*
X137298774Y-100394571D01*
X137391924Y-100413100D01*
X137486900Y-100413100D01*
X137580050Y-100394571D01*
X137667796Y-100358226D01*
X137746765Y-100305460D01*
X137813922Y-100238303D01*
X137866688Y-100159334D01*
X137903033Y-100071588D01*
X137921562Y-99978438D01*
X137921562Y-99883462D01*
X137903033Y-99790312D01*
X137866688Y-99702566D01*
X137835005Y-99655150D01*
X137854675Y-99625712D01*
X145186850Y-99625712D01*
X145186850Y-99720688D01*
X145205379Y-99813838D01*
X145241724Y-99901584D01*
X145273407Y-99949000D01*
X145241724Y-99996416D01*
X145205379Y-100084162D01*
X145186850Y-100177312D01*
X145186850Y-100272288D01*
X145205379Y-100365438D01*
X145241724Y-100453184D01*
X145294490Y-100532153D01*
X145361647Y-100599310D01*
X145440616Y-100652076D01*
X145528362Y-100688421D01*
X145621512Y-100706950D01*
X145716488Y-100706950D01*
X145809638Y-100688421D01*
X145897384Y-100652076D01*
X145976353Y-100599310D01*
X146043510Y-100532153D01*
X146096276Y-100453184D01*
X146132621Y-100365438D01*
X146151150Y-100272288D01*
X146151150Y-100177312D01*
X146132621Y-100084162D01*
X146096276Y-99996416D01*
X146064593Y-99949000D01*
X146096276Y-99901584D01*
X146132621Y-99813838D01*
X146147320Y-99739942D01*
X154487850Y-99739942D01*
X154487850Y-99904058D01*
X154519868Y-100065021D01*
X154582672Y-100216644D01*
X154673850Y-100353102D01*
X154789898Y-100469150D01*
X154926356Y-100560328D01*
X155077979Y-100623132D01*
X155238942Y-100655150D01*
X155403058Y-100655150D01*
X155564021Y-100623132D01*
X155715644Y-100560328D01*
X155852102Y-100469150D01*
X155968150Y-100353102D01*
X156059328Y-100216644D01*
X156122132Y-100065021D01*
X156154150Y-99904058D01*
X156154150Y-99739942D01*
X156122132Y-99578979D01*
X156059328Y-99427356D01*
X155968150Y-99290898D01*
X155852102Y-99174850D01*
X155715644Y-99083672D01*
X155564021Y-99020868D01*
X155403058Y-98988850D01*
X155238942Y-98988850D01*
X155077979Y-99020868D01*
X154926356Y-99083672D01*
X154789898Y-99174850D01*
X154673850Y-99290898D01*
X154582672Y-99427356D01*
X154519868Y-99578979D01*
X154487850Y-99739942D01*
X146147320Y-99739942D01*
X146151150Y-99720688D01*
X146151150Y-99625712D01*
X146132621Y-99532562D01*
X146096276Y-99444816D01*
X146043510Y-99365847D01*
X145976353Y-99298690D01*
X145897384Y-99245924D01*
X145809638Y-99209579D01*
X145716488Y-99191050D01*
X145621512Y-99191050D01*
X145528362Y-99209579D01*
X145440616Y-99245924D01*
X145361647Y-99298690D01*
X145294490Y-99365847D01*
X145241724Y-99444816D01*
X145205379Y-99532562D01*
X145186850Y-99625712D01*
X137854675Y-99625712D01*
X137866688Y-99607734D01*
X137903033Y-99519988D01*
X137921562Y-99426838D01*
X137921562Y-99331862D01*
X137903033Y-99238712D01*
X137866688Y-99150966D01*
X137813922Y-99071997D01*
X137746765Y-99004840D01*
X137667796Y-98952074D01*
X137580050Y-98915729D01*
X137486900Y-98897200D01*
X137391924Y-98897200D01*
X137298774Y-98915729D01*
X137211028Y-98952074D01*
X137132059Y-99004840D01*
X137064902Y-99071997D01*
X137012136Y-99150966D01*
X136975791Y-99238712D01*
X136957262Y-99331862D01*
X133221450Y-99331862D01*
X133221450Y-98597313D01*
X133260157Y-98636020D01*
X133339126Y-98688786D01*
X133426872Y-98725131D01*
X133520022Y-98743660D01*
X133614998Y-98743660D01*
X133708148Y-98725131D01*
X133795894Y-98688786D01*
X133874863Y-98636020D01*
X133942020Y-98568863D01*
X133994786Y-98489894D01*
X134031131Y-98402148D01*
X134049660Y-98308998D01*
X134049660Y-98214022D01*
X134031131Y-98120872D01*
X133994786Y-98033126D01*
X133942020Y-97954157D01*
X133874863Y-97887000D01*
X133795894Y-97834234D01*
X133708148Y-97797889D01*
X133666794Y-97789663D01*
X135506708Y-97789663D01*
X135506708Y-97884639D01*
X135525237Y-97977789D01*
X135561582Y-98065535D01*
X135614348Y-98144504D01*
X135681505Y-98211661D01*
X135751020Y-98258110D01*
X135727811Y-98314141D01*
X135709282Y-98407291D01*
X135709282Y-98502267D01*
X135727811Y-98595417D01*
X135764156Y-98683163D01*
X135816922Y-98762132D01*
X135884079Y-98829289D01*
X135963048Y-98882055D01*
X136050794Y-98918400D01*
X136106727Y-98929526D01*
X136117853Y-98985459D01*
X136154198Y-99073205D01*
X136206964Y-99152174D01*
X136274121Y-99219331D01*
X136353090Y-99272097D01*
X136440836Y-99308442D01*
X136533986Y-99326971D01*
X136628962Y-99326971D01*
X136722112Y-99308442D01*
X136809858Y-99272097D01*
X136888827Y-99219331D01*
X136955984Y-99152174D01*
X137008750Y-99073205D01*
X137045095Y-98985459D01*
X137063624Y-98892309D01*
X137063624Y-98797333D01*
X137045095Y-98704183D01*
X137008750Y-98616437D01*
X136955984Y-98537468D01*
X136888827Y-98470311D01*
X136809858Y-98417545D01*
X136722112Y-98381200D01*
X136666179Y-98370074D01*
X136655053Y-98314141D01*
X136618708Y-98226395D01*
X136565942Y-98147426D01*
X136498785Y-98080269D01*
X136429270Y-98033820D01*
X136452479Y-97977789D01*
X136471008Y-97884639D01*
X136471008Y-97789663D01*
X136467895Y-97774012D01*
X136501032Y-97767421D01*
X136588778Y-97731076D01*
X136667747Y-97678310D01*
X136734904Y-97611153D01*
X136738911Y-97605156D01*
X137731456Y-97605156D01*
X137731456Y-97700132D01*
X137749985Y-97793282D01*
X137786330Y-97881028D01*
X137818013Y-97928444D01*
X137786330Y-97975860D01*
X137749985Y-98063606D01*
X137731456Y-98156756D01*
X137731456Y-98251732D01*
X137749985Y-98344882D01*
X137786330Y-98432628D01*
X137839096Y-98511597D01*
X137906253Y-98578754D01*
X137985222Y-98631520D01*
X138072968Y-98667865D01*
X138166118Y-98686394D01*
X138261094Y-98686394D01*
X138354244Y-98667865D01*
X138441990Y-98631520D01*
X138520959Y-98578754D01*
X138588116Y-98511597D01*
X138640882Y-98432628D01*
X138677227Y-98344882D01*
X138695756Y-98251732D01*
X138695756Y-98156756D01*
X138677227Y-98063606D01*
X138640882Y-97975860D01*
X138609199Y-97928444D01*
X138640882Y-97881028D01*
X138677227Y-97793282D01*
X138695756Y-97700132D01*
X138695756Y-97605156D01*
X138677227Y-97512006D01*
X138640882Y-97424260D01*
X138588116Y-97345291D01*
X138520959Y-97278134D01*
X138441990Y-97225368D01*
X138354244Y-97189023D01*
X138261094Y-97170494D01*
X138166118Y-97170494D01*
X138072968Y-97189023D01*
X137985222Y-97225368D01*
X137906253Y-97278134D01*
X137839096Y-97345291D01*
X137786330Y-97424260D01*
X137749985Y-97512006D01*
X137731456Y-97605156D01*
X136738911Y-97605156D01*
X136787670Y-97532184D01*
X136824015Y-97444438D01*
X136842544Y-97351288D01*
X136842544Y-97256312D01*
X136824015Y-97163162D01*
X136787670Y-97075416D01*
X136755987Y-97028000D01*
X136787670Y-96980584D01*
X136824015Y-96892838D01*
X136842544Y-96799688D01*
X136842544Y-96704712D01*
X136824015Y-96611562D01*
X136787670Y-96523816D01*
X136734904Y-96444847D01*
X136667747Y-96377690D01*
X136588778Y-96324924D01*
X136501032Y-96288579D01*
X136407882Y-96270050D01*
X136312906Y-96270050D01*
X136219756Y-96288579D01*
X136132010Y-96324924D01*
X136053041Y-96377690D01*
X135985884Y-96444847D01*
X135933118Y-96523816D01*
X135896773Y-96611562D01*
X135878244Y-96704712D01*
X135878244Y-96799688D01*
X135896773Y-96892838D01*
X135933118Y-96980584D01*
X135964801Y-97028000D01*
X135933118Y-97075416D01*
X135896773Y-97163162D01*
X135878244Y-97256312D01*
X135878244Y-97351288D01*
X135881357Y-97366939D01*
X135848220Y-97373530D01*
X135760474Y-97409875D01*
X135681505Y-97462641D01*
X135614348Y-97529798D01*
X135561582Y-97608767D01*
X135525237Y-97696513D01*
X135506708Y-97789663D01*
X133666794Y-97789663D01*
X133614998Y-97779360D01*
X133520022Y-97779360D01*
X133426872Y-97797889D01*
X133339126Y-97834234D01*
X133260157Y-97887000D01*
X133221450Y-97925707D01*
X133221450Y-96253491D01*
X137867390Y-96253491D01*
X137867390Y-96348467D01*
X137885919Y-96441617D01*
X137922264Y-96529363D01*
X137975030Y-96608332D01*
X138042187Y-96675489D01*
X138121156Y-96728255D01*
X138208902Y-96764600D01*
X138302052Y-96783129D01*
X138397028Y-96783129D01*
X138490178Y-96764600D01*
X138577924Y-96728255D01*
X138656893Y-96675489D01*
X138724050Y-96608332D01*
X138776816Y-96529363D01*
X138813161Y-96441617D01*
X138824287Y-96385684D01*
X138880220Y-96374558D01*
X138967966Y-96338213D01*
X139046935Y-96285447D01*
X139113870Y-96218512D01*
X140106850Y-96218512D01*
X140106850Y-96313488D01*
X140125379Y-96406638D01*
X140161724Y-96494384D01*
X140214490Y-96573353D01*
X140281647Y-96640510D01*
X140360616Y-96693276D01*
X140448362Y-96729621D01*
X140541512Y-96748150D01*
X140636488Y-96748150D01*
X140729638Y-96729621D01*
X140737143Y-96726512D01*
X148695650Y-96726512D01*
X148695650Y-96821488D01*
X148714179Y-96914638D01*
X148750524Y-97002384D01*
X148803290Y-97081353D01*
X148870447Y-97148510D01*
X148949416Y-97201276D01*
X149037162Y-97237621D01*
X149130312Y-97256150D01*
X149225288Y-97256150D01*
X149318438Y-97237621D01*
X149406184Y-97201276D01*
X149453600Y-97169593D01*
X149501016Y-97201276D01*
X149588762Y-97237621D01*
X149681912Y-97256150D01*
X149776888Y-97256150D01*
X149870038Y-97237621D01*
X149957784Y-97201276D01*
X150036753Y-97148510D01*
X150103910Y-97081353D01*
X150156676Y-97002384D01*
X150193021Y-96914638D01*
X150211550Y-96821488D01*
X150211550Y-96726512D01*
X150193021Y-96633362D01*
X150156676Y-96545616D01*
X150103910Y-96466647D01*
X150036753Y-96399490D01*
X149957784Y-96346724D01*
X149870038Y-96310379D01*
X149776888Y-96291850D01*
X149681912Y-96291850D01*
X149588762Y-96310379D01*
X149501016Y-96346724D01*
X149453600Y-96378407D01*
X149406184Y-96346724D01*
X149318438Y-96310379D01*
X149225288Y-96291850D01*
X149130312Y-96291850D01*
X149037162Y-96310379D01*
X148949416Y-96346724D01*
X148870447Y-96399490D01*
X148803290Y-96466647D01*
X148750524Y-96545616D01*
X148714179Y-96633362D01*
X148695650Y-96726512D01*
X140737143Y-96726512D01*
X140817384Y-96693276D01*
X140896353Y-96640510D01*
X140963510Y-96573353D01*
X141016276Y-96494384D01*
X141052621Y-96406638D01*
X141071150Y-96313488D01*
X141071150Y-96218512D01*
X141052621Y-96125362D01*
X141016276Y-96037616D01*
X140963510Y-95958647D01*
X140896353Y-95891490D01*
X140817384Y-95838724D01*
X140729638Y-95802379D01*
X140636488Y-95783850D01*
X140541512Y-95783850D01*
X140448362Y-95802379D01*
X140360616Y-95838724D01*
X140281647Y-95891490D01*
X140214490Y-95958647D01*
X140161724Y-96037616D01*
X140125379Y-96125362D01*
X140106850Y-96218512D01*
X139113870Y-96218512D01*
X139114092Y-96218290D01*
X139166858Y-96139321D01*
X139182657Y-96101179D01*
X139187667Y-96104527D01*
X139275413Y-96140872D01*
X139368563Y-96159401D01*
X139463539Y-96159401D01*
X139556689Y-96140872D01*
X139644435Y-96104527D01*
X139723404Y-96051761D01*
X139790561Y-95984604D01*
X139843327Y-95905635D01*
X139879672Y-95817889D01*
X139898201Y-95724739D01*
X139898201Y-95629763D01*
X139879672Y-95536613D01*
X139843327Y-95448867D01*
X139790561Y-95369898D01*
X139723404Y-95302741D01*
X139644435Y-95249975D01*
X139556689Y-95213630D01*
X139463539Y-95195101D01*
X139368563Y-95195101D01*
X139275413Y-95213630D01*
X139187667Y-95249975D01*
X139108698Y-95302741D01*
X139041541Y-95369898D01*
X138988775Y-95448867D01*
X138972976Y-95487009D01*
X138967966Y-95483661D01*
X138880220Y-95447316D01*
X138787070Y-95428787D01*
X138692094Y-95428787D01*
X138598944Y-95447316D01*
X138511198Y-95483661D01*
X138432229Y-95536427D01*
X138365072Y-95603584D01*
X138312306Y-95682553D01*
X138275961Y-95770299D01*
X138264835Y-95826232D01*
X138208902Y-95837358D01*
X138121156Y-95873703D01*
X138042187Y-95926469D01*
X137975030Y-95993626D01*
X137922264Y-96072595D01*
X137885919Y-96160341D01*
X137867390Y-96253491D01*
X133221450Y-96253491D01*
X133221450Y-96038403D01*
X133222047Y-96039296D01*
X133289204Y-96106453D01*
X133368173Y-96159219D01*
X133455919Y-96195564D01*
X133549069Y-96214093D01*
X133644045Y-96214093D01*
X133737195Y-96195564D01*
X133824941Y-96159219D01*
X133903910Y-96106453D01*
X133971067Y-96039296D01*
X134023833Y-95960327D01*
X134060178Y-95872581D01*
X134078707Y-95779431D01*
X134078707Y-95707804D01*
X135515476Y-95707804D01*
X135515476Y-95802780D01*
X135534005Y-95895930D01*
X135570350Y-95983676D01*
X135623116Y-96062645D01*
X135690273Y-96129802D01*
X135769242Y-96182568D01*
X135856988Y-96218913D01*
X135950138Y-96237442D01*
X136045114Y-96237442D01*
X136138264Y-96218913D01*
X136226010Y-96182568D01*
X136304979Y-96129802D01*
X136372136Y-96062645D01*
X136424902Y-95983676D01*
X136461247Y-95895930D01*
X136479776Y-95802780D01*
X136479776Y-95707804D01*
X136461247Y-95614654D01*
X136424902Y-95526908D01*
X136372136Y-95447939D01*
X136304979Y-95380782D01*
X136226010Y-95328016D01*
X136138264Y-95291671D01*
X136045114Y-95273142D01*
X135950138Y-95273142D01*
X135856988Y-95291671D01*
X135769242Y-95328016D01*
X135690273Y-95380782D01*
X135623116Y-95447939D01*
X135570350Y-95526908D01*
X135534005Y-95614654D01*
X135515476Y-95707804D01*
X134078707Y-95707804D01*
X134078707Y-95684455D01*
X134060178Y-95591305D01*
X134023833Y-95503559D01*
X133971067Y-95424590D01*
X133903910Y-95357433D01*
X133824941Y-95304667D01*
X133737195Y-95268322D01*
X133644045Y-95249793D01*
X133549069Y-95249793D01*
X133455919Y-95268322D01*
X133368173Y-95304667D01*
X133289204Y-95357433D01*
X133222047Y-95424590D01*
X133221450Y-95425483D01*
X133221450Y-93737491D01*
X144991829Y-93737491D01*
X144991829Y-93832467D01*
X145010358Y-93925617D01*
X145046703Y-94013363D01*
X145099469Y-94092332D01*
X145166626Y-94159489D01*
X145245595Y-94212255D01*
X145333341Y-94248600D01*
X145389274Y-94259726D01*
X145400400Y-94315659D01*
X145436745Y-94403405D01*
X145489511Y-94482374D01*
X145556668Y-94549531D01*
X145635637Y-94602297D01*
X145723383Y-94638642D01*
X145816533Y-94657171D01*
X145911509Y-94657171D01*
X146004659Y-94638642D01*
X146092405Y-94602297D01*
X146171374Y-94549531D01*
X146238531Y-94482374D01*
X146291297Y-94403405D01*
X146327642Y-94315659D01*
X146346171Y-94222509D01*
X146346171Y-94127533D01*
X146327642Y-94034383D01*
X146291297Y-93946637D01*
X146238531Y-93867668D01*
X146171374Y-93800511D01*
X146092405Y-93747745D01*
X146004659Y-93711400D01*
X145948726Y-93700274D01*
X145937600Y-93644341D01*
X145901255Y-93556595D01*
X145848489Y-93477626D01*
X145817988Y-93447125D01*
X148667850Y-93447125D01*
X148667850Y-93556875D01*
X148689261Y-93664515D01*
X148731260Y-93765910D01*
X148788282Y-93851250D01*
X148731260Y-93936590D01*
X148689261Y-94037985D01*
X148667850Y-94145625D01*
X148667850Y-94255375D01*
X148689261Y-94363015D01*
X148731260Y-94464410D01*
X148792233Y-94555663D01*
X148869837Y-94633267D01*
X148961090Y-94694240D01*
X149062485Y-94736239D01*
X149170125Y-94757650D01*
X149279875Y-94757650D01*
X149387515Y-94736239D01*
X149488910Y-94694240D01*
X149580163Y-94633267D01*
X149657767Y-94555663D01*
X149718740Y-94464410D01*
X149760739Y-94363015D01*
X149782150Y-94255375D01*
X149782150Y-94145625D01*
X149760739Y-94037985D01*
X149718740Y-93936590D01*
X149661718Y-93851250D01*
X149718740Y-93765910D01*
X149760739Y-93664515D01*
X149782150Y-93556875D01*
X149782150Y-93447125D01*
X149760739Y-93339485D01*
X149718740Y-93238090D01*
X149657767Y-93146837D01*
X149580163Y-93069233D01*
X149488910Y-93008260D01*
X149387515Y-92966261D01*
X149279875Y-92944850D01*
X149170125Y-92944850D01*
X149062485Y-92966261D01*
X148961090Y-93008260D01*
X148869837Y-93069233D01*
X148792233Y-93146837D01*
X148731260Y-93238090D01*
X148689261Y-93339485D01*
X148667850Y-93447125D01*
X145817988Y-93447125D01*
X145781332Y-93410469D01*
X145702363Y-93357703D01*
X145614617Y-93321358D01*
X145521467Y-93302829D01*
X145426491Y-93302829D01*
X145333341Y-93321358D01*
X145245595Y-93357703D01*
X145166626Y-93410469D01*
X145099469Y-93477626D01*
X145046703Y-93556595D01*
X145010358Y-93644341D01*
X144991829Y-93737491D01*
X133221450Y-93737491D01*
X133221450Y-90976942D01*
X144454850Y-90976942D01*
X144454850Y-91141058D01*
X144486868Y-91302021D01*
X144549672Y-91453644D01*
X144640850Y-91590102D01*
X144756898Y-91706150D01*
X144893356Y-91797328D01*
X145044979Y-91860132D01*
X145205942Y-91892150D01*
X145370058Y-91892150D01*
X145531021Y-91860132D01*
X145682644Y-91797328D01*
X145819102Y-91706150D01*
X145935150Y-91590102D01*
X146026328Y-91453644D01*
X146089132Y-91302021D01*
X146121150Y-91141058D01*
X146121150Y-90976942D01*
X146111756Y-90929713D01*
X146752780Y-90929713D01*
X146816044Y-91099147D01*
X146929066Y-91241823D01*
X147067751Y-91359708D01*
X147226769Y-91448271D01*
X147400010Y-91504110D01*
X148349970Y-91504110D01*
X148349970Y-90793570D01*
X148743670Y-90793570D01*
X148743670Y-91504110D01*
X149693630Y-91504110D01*
X149866871Y-91448271D01*
X150025889Y-91359708D01*
X150164574Y-91241823D01*
X150277596Y-91099147D01*
X150340860Y-90929713D01*
X150316580Y-90793570D01*
X148743670Y-90793570D01*
X148349970Y-90793570D01*
X146777060Y-90793570D01*
X146752780Y-90929713D01*
X146111756Y-90929713D01*
X146089132Y-90815979D01*
X146026328Y-90664356D01*
X145935150Y-90527898D01*
X145819102Y-90411850D01*
X145682644Y-90320672D01*
X145531021Y-90257868D01*
X145370058Y-90225850D01*
X145205942Y-90225850D01*
X145044979Y-90257868D01*
X144893356Y-90320672D01*
X144756898Y-90411850D01*
X144640850Y-90527898D01*
X144549672Y-90664356D01*
X144486868Y-90815979D01*
X144454850Y-90976942D01*
X133221450Y-90976942D01*
X133221450Y-90221450D01*
X146768566Y-90221450D01*
X146752780Y-90263727D01*
%TA.AperFunction,Conductor*%
D14*
G36*
X146752780Y-90263727D02*
G01*
X146777060Y-90399870D01*
X148349970Y-90399870D01*
X148349970Y-90221450D01*
X148743670Y-90221450D01*
X148743670Y-90399870D01*
X150316580Y-90399870D01*
X150340860Y-90263727D01*
X150325074Y-90221450D01*
X156778551Y-90221450D01*
X156778550Y-103778550D01*
X150323222Y-103778550D01*
X150340860Y-103731313D01*
X150316580Y-103595170D01*
X148743670Y-103595170D01*
X148743670Y-103778550D01*
X148349970Y-103778550D01*
X148349970Y-103595170D01*
X146777060Y-103595170D01*
X146752780Y-103731313D01*
X146770418Y-103778550D01*
X133221450Y-103778550D01*
X133221450Y-102533942D01*
X136580850Y-102533942D01*
X136580850Y-102698058D01*
X136612868Y-102859021D01*
X136675672Y-103010644D01*
X136766850Y-103147102D01*
X136882898Y-103263150D01*
X137019356Y-103354328D01*
X137170979Y-103417132D01*
X137331942Y-103449150D01*
X137496058Y-103449150D01*
X137657021Y-103417132D01*
X137808644Y-103354328D01*
X137945102Y-103263150D01*
X138061150Y-103147102D01*
X138115790Y-103065327D01*
X146752780Y-103065327D01*
X146777060Y-103201470D01*
X148349970Y-103201470D01*
X148349970Y-102490930D01*
X148743670Y-102490930D01*
X148743670Y-103201470D01*
X150316580Y-103201470D01*
X150340860Y-103065327D01*
X150277596Y-102895893D01*
X150164574Y-102753217D01*
X150025889Y-102635332D01*
X149866871Y-102546769D01*
X149693630Y-102490930D01*
X148743670Y-102490930D01*
X148349970Y-102490930D01*
X147400010Y-102490930D01*
X147226769Y-102546769D01*
X147067751Y-102635332D01*
X146929066Y-102753217D01*
X146816044Y-102895893D01*
X146752780Y-103065327D01*
X138115790Y-103065327D01*
X138152328Y-103010644D01*
X138215132Y-102859021D01*
X138247150Y-102698058D01*
X138247150Y-102533942D01*
X138215132Y-102372979D01*
X138152328Y-102221356D01*
X138061150Y-102084898D01*
X137945102Y-101968850D01*
X137808644Y-101877672D01*
X137657021Y-101814868D01*
X137496058Y-101782850D01*
X137331942Y-101782850D01*
X137170979Y-101814868D01*
X137019356Y-101877672D01*
X136882898Y-101968850D01*
X136766850Y-102084898D01*
X136675672Y-102221356D01*
X136612868Y-102372979D01*
X136580850Y-102533942D01*
X133221450Y-102533942D01*
X133221450Y-99331862D01*
X136957262Y-99331862D01*
X136957262Y-99426838D01*
X136975791Y-99519988D01*
X137012136Y-99607734D01*
X137043819Y-99655150D01*
X137012136Y-99702566D01*
X136975791Y-99790312D01*
X136957262Y-99883462D01*
X136957262Y-99978438D01*
X136975791Y-100071588D01*
X137012136Y-100159334D01*
X137064902Y-100238303D01*
X137132059Y-100305460D01*
X137211028Y-100358226D01*
X137298774Y-100394571D01*
X137391924Y-100413100D01*
X137486900Y-100413100D01*
X137580050Y-100394571D01*
X137667796Y-100358226D01*
X137746765Y-100305460D01*
X137813922Y-100238303D01*
X137866688Y-100159334D01*
X137903033Y-100071588D01*
X137921562Y-99978438D01*
X137921562Y-99883462D01*
X137903033Y-99790312D01*
X137866688Y-99702566D01*
X137835005Y-99655150D01*
X137854675Y-99625712D01*
X145186850Y-99625712D01*
X145186850Y-99720688D01*
X145205379Y-99813838D01*
X145241724Y-99901584D01*
X145273407Y-99949000D01*
X145241724Y-99996416D01*
X145205379Y-100084162D01*
X145186850Y-100177312D01*
X145186850Y-100272288D01*
X145205379Y-100365438D01*
X145241724Y-100453184D01*
X145294490Y-100532153D01*
X145361647Y-100599310D01*
X145440616Y-100652076D01*
X145528362Y-100688421D01*
X145621512Y-100706950D01*
X145716488Y-100706950D01*
X145809638Y-100688421D01*
X145897384Y-100652076D01*
X145976353Y-100599310D01*
X146043510Y-100532153D01*
X146096276Y-100453184D01*
X146132621Y-100365438D01*
X146151150Y-100272288D01*
X146151150Y-100177312D01*
X146132621Y-100084162D01*
X146096276Y-99996416D01*
X146064593Y-99949000D01*
X146096276Y-99901584D01*
X146132621Y-99813838D01*
X146147320Y-99739942D01*
X154487850Y-99739942D01*
X154487850Y-99904058D01*
X154519868Y-100065021D01*
X154582672Y-100216644D01*
X154673850Y-100353102D01*
X154789898Y-100469150D01*
X154926356Y-100560328D01*
X155077979Y-100623132D01*
X155238942Y-100655150D01*
X155403058Y-100655150D01*
X155564021Y-100623132D01*
X155715644Y-100560328D01*
X155852102Y-100469150D01*
X155968150Y-100353102D01*
X156059328Y-100216644D01*
X156122132Y-100065021D01*
X156154150Y-99904058D01*
X156154150Y-99739942D01*
X156122132Y-99578979D01*
X156059328Y-99427356D01*
X155968150Y-99290898D01*
X155852102Y-99174850D01*
X155715644Y-99083672D01*
X155564021Y-99020868D01*
X155403058Y-98988850D01*
X155238942Y-98988850D01*
X155077979Y-99020868D01*
X154926356Y-99083672D01*
X154789898Y-99174850D01*
X154673850Y-99290898D01*
X154582672Y-99427356D01*
X154519868Y-99578979D01*
X154487850Y-99739942D01*
X146147320Y-99739942D01*
X146151150Y-99720688D01*
X146151150Y-99625712D01*
X146132621Y-99532562D01*
X146096276Y-99444816D01*
X146043510Y-99365847D01*
X145976353Y-99298690D01*
X145897384Y-99245924D01*
X145809638Y-99209579D01*
X145716488Y-99191050D01*
X145621512Y-99191050D01*
X145528362Y-99209579D01*
X145440616Y-99245924D01*
X145361647Y-99298690D01*
X145294490Y-99365847D01*
X145241724Y-99444816D01*
X145205379Y-99532562D01*
X145186850Y-99625712D01*
X137854675Y-99625712D01*
X137866688Y-99607734D01*
X137903033Y-99519988D01*
X137921562Y-99426838D01*
X137921562Y-99331862D01*
X137903033Y-99238712D01*
X137866688Y-99150966D01*
X137813922Y-99071997D01*
X137746765Y-99004840D01*
X137667796Y-98952074D01*
X137580050Y-98915729D01*
X137486900Y-98897200D01*
X137391924Y-98897200D01*
X137298774Y-98915729D01*
X137211028Y-98952074D01*
X137132059Y-99004840D01*
X137064902Y-99071997D01*
X137012136Y-99150966D01*
X136975791Y-99238712D01*
X136957262Y-99331862D01*
X133221450Y-99331862D01*
X133221450Y-98597313D01*
X133260157Y-98636020D01*
X133339126Y-98688786D01*
X133426872Y-98725131D01*
X133520022Y-98743660D01*
X133614998Y-98743660D01*
X133708148Y-98725131D01*
X133795894Y-98688786D01*
X133874863Y-98636020D01*
X133942020Y-98568863D01*
X133994786Y-98489894D01*
X134031131Y-98402148D01*
X134049660Y-98308998D01*
X134049660Y-98214022D01*
X134031131Y-98120872D01*
X133994786Y-98033126D01*
X133942020Y-97954157D01*
X133874863Y-97887000D01*
X133795894Y-97834234D01*
X133708148Y-97797889D01*
X133666794Y-97789663D01*
X135506708Y-97789663D01*
X135506708Y-97884639D01*
X135525237Y-97977789D01*
X135561582Y-98065535D01*
X135614348Y-98144504D01*
X135681505Y-98211661D01*
X135751020Y-98258110D01*
X135727811Y-98314141D01*
X135709282Y-98407291D01*
X135709282Y-98502267D01*
X135727811Y-98595417D01*
X135764156Y-98683163D01*
X135816922Y-98762132D01*
X135884079Y-98829289D01*
X135963048Y-98882055D01*
X136050794Y-98918400D01*
X136106727Y-98929526D01*
X136117853Y-98985459D01*
X136154198Y-99073205D01*
X136206964Y-99152174D01*
X136274121Y-99219331D01*
X136353090Y-99272097D01*
X136440836Y-99308442D01*
X136533986Y-99326971D01*
X136628962Y-99326971D01*
X136722112Y-99308442D01*
X136809858Y-99272097D01*
X136888827Y-99219331D01*
X136955984Y-99152174D01*
X137008750Y-99073205D01*
X137045095Y-98985459D01*
X137063624Y-98892309D01*
X137063624Y-98797333D01*
X137045095Y-98704183D01*
X137008750Y-98616437D01*
X136955984Y-98537468D01*
X136888827Y-98470311D01*
X136809858Y-98417545D01*
X136722112Y-98381200D01*
X136666179Y-98370074D01*
X136655053Y-98314141D01*
X136618708Y-98226395D01*
X136565942Y-98147426D01*
X136498785Y-98080269D01*
X136429270Y-98033820D01*
X136452479Y-97977789D01*
X136471008Y-97884639D01*
X136471008Y-97789663D01*
X136467895Y-97774012D01*
X136501032Y-97767421D01*
X136588778Y-97731076D01*
X136667747Y-97678310D01*
X136734904Y-97611153D01*
X136738911Y-97605156D01*
X137731456Y-97605156D01*
X137731456Y-97700132D01*
X137749985Y-97793282D01*
X137786330Y-97881028D01*
X137818013Y-97928444D01*
X137786330Y-97975860D01*
X137749985Y-98063606D01*
X137731456Y-98156756D01*
X137731456Y-98251732D01*
X137749985Y-98344882D01*
X137786330Y-98432628D01*
X137839096Y-98511597D01*
X137906253Y-98578754D01*
X137985222Y-98631520D01*
X138072968Y-98667865D01*
X138166118Y-98686394D01*
X138261094Y-98686394D01*
X138354244Y-98667865D01*
X138441990Y-98631520D01*
X138520959Y-98578754D01*
X138588116Y-98511597D01*
X138640882Y-98432628D01*
X138677227Y-98344882D01*
X138695756Y-98251732D01*
X138695756Y-98156756D01*
X138677227Y-98063606D01*
X138640882Y-97975860D01*
X138609199Y-97928444D01*
X138640882Y-97881028D01*
X138677227Y-97793282D01*
X138695756Y-97700132D01*
X138695756Y-97605156D01*
X138677227Y-97512006D01*
X138640882Y-97424260D01*
X138588116Y-97345291D01*
X138520959Y-97278134D01*
X138441990Y-97225368D01*
X138354244Y-97189023D01*
X138261094Y-97170494D01*
X138166118Y-97170494D01*
X138072968Y-97189023D01*
X137985222Y-97225368D01*
X137906253Y-97278134D01*
X137839096Y-97345291D01*
X137786330Y-97424260D01*
X137749985Y-97512006D01*
X137731456Y-97605156D01*
X136738911Y-97605156D01*
X136787670Y-97532184D01*
X136824015Y-97444438D01*
X136842544Y-97351288D01*
X136842544Y-97256312D01*
X136824015Y-97163162D01*
X136787670Y-97075416D01*
X136755987Y-97028000D01*
X136787670Y-96980584D01*
X136824015Y-96892838D01*
X136842544Y-96799688D01*
X136842544Y-96704712D01*
X136824015Y-96611562D01*
X136787670Y-96523816D01*
X136734904Y-96444847D01*
X136667747Y-96377690D01*
X136588778Y-96324924D01*
X136501032Y-96288579D01*
X136407882Y-96270050D01*
X136312906Y-96270050D01*
X136219756Y-96288579D01*
X136132010Y-96324924D01*
X136053041Y-96377690D01*
X135985884Y-96444847D01*
X135933118Y-96523816D01*
X135896773Y-96611562D01*
X135878244Y-96704712D01*
X135878244Y-96799688D01*
X135896773Y-96892838D01*
X135933118Y-96980584D01*
X135964801Y-97028000D01*
X135933118Y-97075416D01*
X135896773Y-97163162D01*
X135878244Y-97256312D01*
X135878244Y-97351288D01*
X135881357Y-97366939D01*
X135848220Y-97373530D01*
X135760474Y-97409875D01*
X135681505Y-97462641D01*
X135614348Y-97529798D01*
X135561582Y-97608767D01*
X135525237Y-97696513D01*
X135506708Y-97789663D01*
X133666794Y-97789663D01*
X133614998Y-97779360D01*
X133520022Y-97779360D01*
X133426872Y-97797889D01*
X133339126Y-97834234D01*
X133260157Y-97887000D01*
X133221450Y-97925707D01*
X133221450Y-96253491D01*
X137867390Y-96253491D01*
X137867390Y-96348467D01*
X137885919Y-96441617D01*
X137922264Y-96529363D01*
X137975030Y-96608332D01*
X138042187Y-96675489D01*
X138121156Y-96728255D01*
X138208902Y-96764600D01*
X138302052Y-96783129D01*
X138397028Y-96783129D01*
X138490178Y-96764600D01*
X138577924Y-96728255D01*
X138656893Y-96675489D01*
X138724050Y-96608332D01*
X138776816Y-96529363D01*
X138813161Y-96441617D01*
X138824287Y-96385684D01*
X138880220Y-96374558D01*
X138967966Y-96338213D01*
X139046935Y-96285447D01*
X139113870Y-96218512D01*
X140106850Y-96218512D01*
X140106850Y-96313488D01*
X140125379Y-96406638D01*
X140161724Y-96494384D01*
X140214490Y-96573353D01*
X140281647Y-96640510D01*
X140360616Y-96693276D01*
X140448362Y-96729621D01*
X140541512Y-96748150D01*
X140636488Y-96748150D01*
X140729638Y-96729621D01*
X140737143Y-96726512D01*
X148695650Y-96726512D01*
X148695650Y-96821488D01*
X148714179Y-96914638D01*
X148750524Y-97002384D01*
X148803290Y-97081353D01*
X148870447Y-97148510D01*
X148949416Y-97201276D01*
X149037162Y-97237621D01*
X149130312Y-97256150D01*
X149225288Y-97256150D01*
X149318438Y-97237621D01*
X149406184Y-97201276D01*
X149453600Y-97169593D01*
X149501016Y-97201276D01*
X149588762Y-97237621D01*
X149681912Y-97256150D01*
X149776888Y-97256150D01*
X149870038Y-97237621D01*
X149957784Y-97201276D01*
X150036753Y-97148510D01*
X150103910Y-97081353D01*
X150156676Y-97002384D01*
X150193021Y-96914638D01*
X150211550Y-96821488D01*
X150211550Y-96726512D01*
X150193021Y-96633362D01*
X150156676Y-96545616D01*
X150103910Y-96466647D01*
X150036753Y-96399490D01*
X149957784Y-96346724D01*
X149870038Y-96310379D01*
X149776888Y-96291850D01*
X149681912Y-96291850D01*
X149588762Y-96310379D01*
X149501016Y-96346724D01*
X149453600Y-96378407D01*
X149406184Y-96346724D01*
X149318438Y-96310379D01*
X149225288Y-96291850D01*
X149130312Y-96291850D01*
X149037162Y-96310379D01*
X148949416Y-96346724D01*
X148870447Y-96399490D01*
X148803290Y-96466647D01*
X148750524Y-96545616D01*
X148714179Y-96633362D01*
X148695650Y-96726512D01*
X140737143Y-96726512D01*
X140817384Y-96693276D01*
X140896353Y-96640510D01*
X140963510Y-96573353D01*
X141016276Y-96494384D01*
X141052621Y-96406638D01*
X141071150Y-96313488D01*
X141071150Y-96218512D01*
X141052621Y-96125362D01*
X141016276Y-96037616D01*
X140963510Y-95958647D01*
X140896353Y-95891490D01*
X140817384Y-95838724D01*
X140729638Y-95802379D01*
X140636488Y-95783850D01*
X140541512Y-95783850D01*
X140448362Y-95802379D01*
X140360616Y-95838724D01*
X140281647Y-95891490D01*
X140214490Y-95958647D01*
X140161724Y-96037616D01*
X140125379Y-96125362D01*
X140106850Y-96218512D01*
X139113870Y-96218512D01*
X139114092Y-96218290D01*
X139166858Y-96139321D01*
X139182657Y-96101179D01*
X139187667Y-96104527D01*
X139275413Y-96140872D01*
X139368563Y-96159401D01*
X139463539Y-96159401D01*
X139556689Y-96140872D01*
X139644435Y-96104527D01*
X139723404Y-96051761D01*
X139790561Y-95984604D01*
X139843327Y-95905635D01*
X139879672Y-95817889D01*
X139898201Y-95724739D01*
X139898201Y-95629763D01*
X139879672Y-95536613D01*
X139843327Y-95448867D01*
X139790561Y-95369898D01*
X139723404Y-95302741D01*
X139644435Y-95249975D01*
X139556689Y-95213630D01*
X139463539Y-95195101D01*
X139368563Y-95195101D01*
X139275413Y-95213630D01*
X139187667Y-95249975D01*
X139108698Y-95302741D01*
X139041541Y-95369898D01*
X138988775Y-95448867D01*
X138972976Y-95487009D01*
X138967966Y-95483661D01*
X138880220Y-95447316D01*
X138787070Y-95428787D01*
X138692094Y-95428787D01*
X138598944Y-95447316D01*
X138511198Y-95483661D01*
X138432229Y-95536427D01*
X138365072Y-95603584D01*
X138312306Y-95682553D01*
X138275961Y-95770299D01*
X138264835Y-95826232D01*
X138208902Y-95837358D01*
X138121156Y-95873703D01*
X138042187Y-95926469D01*
X137975030Y-95993626D01*
X137922264Y-96072595D01*
X137885919Y-96160341D01*
X137867390Y-96253491D01*
X133221450Y-96253491D01*
X133221450Y-96038403D01*
X133222047Y-96039296D01*
X133289204Y-96106453D01*
X133368173Y-96159219D01*
X133455919Y-96195564D01*
X133549069Y-96214093D01*
X133644045Y-96214093D01*
X133737195Y-96195564D01*
X133824941Y-96159219D01*
X133903910Y-96106453D01*
X133971067Y-96039296D01*
X134023833Y-95960327D01*
X134060178Y-95872581D01*
X134078707Y-95779431D01*
X134078707Y-95707804D01*
X135515476Y-95707804D01*
X135515476Y-95802780D01*
X135534005Y-95895930D01*
X135570350Y-95983676D01*
X135623116Y-96062645D01*
X135690273Y-96129802D01*
X135769242Y-96182568D01*
X135856988Y-96218913D01*
X135950138Y-96237442D01*
X136045114Y-96237442D01*
X136138264Y-96218913D01*
X136226010Y-96182568D01*
X136304979Y-96129802D01*
X136372136Y-96062645D01*
X136424902Y-95983676D01*
X136461247Y-95895930D01*
X136479776Y-95802780D01*
X136479776Y-95707804D01*
X136461247Y-95614654D01*
X136424902Y-95526908D01*
X136372136Y-95447939D01*
X136304979Y-95380782D01*
X136226010Y-95328016D01*
X136138264Y-95291671D01*
X136045114Y-95273142D01*
X135950138Y-95273142D01*
X135856988Y-95291671D01*
X135769242Y-95328016D01*
X135690273Y-95380782D01*
X135623116Y-95447939D01*
X135570350Y-95526908D01*
X135534005Y-95614654D01*
X135515476Y-95707804D01*
X134078707Y-95707804D01*
X134078707Y-95684455D01*
X134060178Y-95591305D01*
X134023833Y-95503559D01*
X133971067Y-95424590D01*
X133903910Y-95357433D01*
X133824941Y-95304667D01*
X133737195Y-95268322D01*
X133644045Y-95249793D01*
X133549069Y-95249793D01*
X133455919Y-95268322D01*
X133368173Y-95304667D01*
X133289204Y-95357433D01*
X133222047Y-95424590D01*
X133221450Y-95425483D01*
X133221450Y-93737491D01*
X144991829Y-93737491D01*
X144991829Y-93832467D01*
X145010358Y-93925617D01*
X145046703Y-94013363D01*
X145099469Y-94092332D01*
X145166626Y-94159489D01*
X145245595Y-94212255D01*
X145333341Y-94248600D01*
X145389274Y-94259726D01*
X145400400Y-94315659D01*
X145436745Y-94403405D01*
X145489511Y-94482374D01*
X145556668Y-94549531D01*
X145635637Y-94602297D01*
X145723383Y-94638642D01*
X145816533Y-94657171D01*
X145911509Y-94657171D01*
X146004659Y-94638642D01*
X146092405Y-94602297D01*
X146171374Y-94549531D01*
X146238531Y-94482374D01*
X146291297Y-94403405D01*
X146327642Y-94315659D01*
X146346171Y-94222509D01*
X146346171Y-94127533D01*
X146327642Y-94034383D01*
X146291297Y-93946637D01*
X146238531Y-93867668D01*
X146171374Y-93800511D01*
X146092405Y-93747745D01*
X146004659Y-93711400D01*
X145948726Y-93700274D01*
X145937600Y-93644341D01*
X145901255Y-93556595D01*
X145848489Y-93477626D01*
X145817988Y-93447125D01*
X148667850Y-93447125D01*
X148667850Y-93556875D01*
X148689261Y-93664515D01*
X148731260Y-93765910D01*
X148788282Y-93851250D01*
X148731260Y-93936590D01*
X148689261Y-94037985D01*
X148667850Y-94145625D01*
X148667850Y-94255375D01*
X148689261Y-94363015D01*
X148731260Y-94464410D01*
X148792233Y-94555663D01*
X148869837Y-94633267D01*
X148961090Y-94694240D01*
X149062485Y-94736239D01*
X149170125Y-94757650D01*
X149279875Y-94757650D01*
X149387515Y-94736239D01*
X149488910Y-94694240D01*
X149580163Y-94633267D01*
X149657767Y-94555663D01*
X149718740Y-94464410D01*
X149760739Y-94363015D01*
X149782150Y-94255375D01*
X149782150Y-94145625D01*
X149760739Y-94037985D01*
X149718740Y-93936590D01*
X149661718Y-93851250D01*
X149718740Y-93765910D01*
X149760739Y-93664515D01*
X149782150Y-93556875D01*
X149782150Y-93447125D01*
X149760739Y-93339485D01*
X149718740Y-93238090D01*
X149657767Y-93146837D01*
X149580163Y-93069233D01*
X149488910Y-93008260D01*
X149387515Y-92966261D01*
X149279875Y-92944850D01*
X149170125Y-92944850D01*
X149062485Y-92966261D01*
X148961090Y-93008260D01*
X148869837Y-93069233D01*
X148792233Y-93146837D01*
X148731260Y-93238090D01*
X148689261Y-93339485D01*
X148667850Y-93447125D01*
X145817988Y-93447125D01*
X145781332Y-93410469D01*
X145702363Y-93357703D01*
X145614617Y-93321358D01*
X145521467Y-93302829D01*
X145426491Y-93302829D01*
X145333341Y-93321358D01*
X145245595Y-93357703D01*
X145166626Y-93410469D01*
X145099469Y-93477626D01*
X145046703Y-93556595D01*
X145010358Y-93644341D01*
X144991829Y-93737491D01*
X133221450Y-93737491D01*
X133221450Y-90976942D01*
X144454850Y-90976942D01*
X144454850Y-91141058D01*
X144486868Y-91302021D01*
X144549672Y-91453644D01*
X144640850Y-91590102D01*
X144756898Y-91706150D01*
X144893356Y-91797328D01*
X145044979Y-91860132D01*
X145205942Y-91892150D01*
X145370058Y-91892150D01*
X145531021Y-91860132D01*
X145682644Y-91797328D01*
X145819102Y-91706150D01*
X145935150Y-91590102D01*
X146026328Y-91453644D01*
X146089132Y-91302021D01*
X146121150Y-91141058D01*
X146121150Y-90976942D01*
X146111756Y-90929713D01*
X146752780Y-90929713D01*
X146816044Y-91099147D01*
X146929066Y-91241823D01*
X147067751Y-91359708D01*
X147226769Y-91448271D01*
X147400010Y-91504110D01*
X148349970Y-91504110D01*
X148349970Y-90793570D01*
X148743670Y-90793570D01*
X148743670Y-91504110D01*
X149693630Y-91504110D01*
X149866871Y-91448271D01*
X150025889Y-91359708D01*
X150164574Y-91241823D01*
X150277596Y-91099147D01*
X150340860Y-90929713D01*
X150316580Y-90793570D01*
X148743670Y-90793570D01*
X148349970Y-90793570D01*
X146777060Y-90793570D01*
X146752780Y-90929713D01*
X146111756Y-90929713D01*
X146089132Y-90815979D01*
X146026328Y-90664356D01*
X145935150Y-90527898D01*
X145819102Y-90411850D01*
X145682644Y-90320672D01*
X145531021Y-90257868D01*
X145370058Y-90225850D01*
X145205942Y-90225850D01*
X145044979Y-90257868D01*
X144893356Y-90320672D01*
X144756898Y-90411850D01*
X144640850Y-90527898D01*
X144549672Y-90664356D01*
X144486868Y-90815979D01*
X144454850Y-90976942D01*
X133221450Y-90976942D01*
X133221450Y-90221450D01*
X146768566Y-90221450D01*
X146752780Y-90263727D01*
G37*
%TD.AperFunction*%
%TD*%
M02*
