M48
; DRILL file {KiCad (5.1.10)-1} date 01/31/22 11:01:01
; FORMAT={-:-/ absolute / inch / decimal}
; #@! TF.CreationDate,2022-01-31T11:01:01+08:00
; #@! TF.GenerationSoftware,Kicad,Pcbnew,(5.1.10)-1
; #@! TF.FileFunction,Plated,1,4,PTH
FMAT,2
INCH
T1C0.0079
T2C0.0118
T3C0.0157
T4C0.0197
T5C0.0276
%
G90
G05
T1
X5.3703Y-3.8345
X5.3709Y-3.7955
X5.3983Y-3.8492
X5.405Y-3.615
X5.405Y-3.635
X5.405Y-3.6563
X5.405Y-3.965
X5.41Y-3.705
X5.4201Y-3.8492
X5.425Y-3.69
X5.4671Y-3.8496
X5.4671Y-3.8713
X5.505Y-3.79
X5.5354Y-3.7934
X5.555Y-3.84
X5.555Y-3.865
X5.555Y-3.89
X5.555Y-3.915
X5.575Y-3.84
X5.575Y-3.865
X5.575Y-3.89
X5.575Y-3.915
X5.595Y-3.84
X5.595Y-3.865
X5.595Y-3.89
X5.595Y-3.915
X5.7273Y-3.6923
X5.735Y-3.9241
X5.735Y-3.9459
X5.7427Y-3.7077
X5.8641Y-3.8
X5.8859Y-3.8
X6.13Y-3.675
X6.13Y-3.695
X6.13Y-3.715
X6.13Y-3.735
X6.13Y-3.755
X6.13Y-3.775
T2
X5.875Y-3.6812
X5.875Y-3.7087
T3
X5.2685Y-3.7305
X5.2685Y-3.762
X5.2685Y-3.7935
X5.2685Y-3.8565
X5.2685Y-3.888
X5.2685Y-3.9195
X5.2961Y-3.7148
X5.2961Y-3.7778
X5.2961Y-3.8093
X5.2961Y-3.8407
X5.2961Y-3.8722
X5.2961Y-3.9352
T4
G00X5.05Y-3.6482
M15
G01X5.0264Y-3.6482
M16
G05
G00X5.05Y-4.0018
M15
G01X5.0264Y-4.0018
M16
G05
G00X5.2843Y-3.6624
M15
G01X5.2606Y-3.6624
M16
G05
G00X5.2843Y-3.9876
M15
G01X5.2606Y-3.9876
M16
G05
T5
G00X5.8109Y-3.5668
M15
G01X5.8857Y-3.5668
M16
G05
G00X5.8109Y-4.0708
M15
G01X5.8857Y-4.0708
M16
G05
T0
M30
