M48
; DRILL file {KiCad (5.1.10)-1} date 01/11/22 16:22:34
; FORMAT={-:-/ absolute / inch / decimal}
; #@! TF.CreationDate,2022-01-11T16:22:34+08:00
; #@! TF.GenerationSoftware,Kicad,Pcbnew,(5.1.10)-1
; #@! TF.FileFunction,Plated,1,4,PTH
FMAT,2
INCH
T1C0.0079
T2C0.0118
T3C0.0276
%
G90
G05
T1
X5.2586Y-3.8686
X5.2597Y-3.769
X5.3137Y-4.045
X5.335Y-4.045
X5.3539Y-3.8519
X5.3542Y-3.7699
X5.355Y-4.045
X5.3619Y-3.8762
X5.3685Y-3.8091
X5.3685Y-3.8309
X5.3772Y-3.8915
X5.4Y-3.625
X5.4Y-3.645
X5.4Y-3.6663
X5.411Y-3.9126
X5.411Y-3.9343
X5.4415Y-3.8446
X5.4415Y-3.8663
X5.4468Y-3.7914
X5.4622Y-3.776
X5.4888Y-3.7668
X5.535Y-3.79
X5.555Y-3.84
X5.555Y-3.865
X5.555Y-3.89
X5.555Y-3.915
X5.575Y-3.84
X5.575Y-3.865
X5.575Y-3.89
X5.575Y-3.915
X5.595Y-3.84
X5.595Y-3.865
X5.595Y-3.89
X5.595Y-3.915
X5.7273Y-3.6923
X5.735Y-3.9241
X5.735Y-3.9459
X5.7427Y-3.7077
X5.8731Y-3.81
X5.8949Y-3.81
X6.13Y-3.675
X6.13Y-3.695
X6.13Y-3.715
X6.13Y-3.735
X6.13Y-3.755
X6.13Y-3.775
T2
X5.875Y-3.6812
X5.875Y-3.7087
T3
G00X5.8109Y-3.5668
M15
G01X5.8857Y-3.5668
M16
G05
G00X5.8109Y-4.0708
M15
G01X5.8857Y-4.0708
M16
G05
T0
M30
