%TF.GenerationSoftware,KiCad,Pcbnew,(5.1.10)-1*%
%TF.CreationDate,2022-01-11T16:22:32+08:00*%
%TF.ProjectId,VL160,564c3136-302e-46b6-9963-61645f706362,rev?*%
%TF.SameCoordinates,Original*%
%TF.FileFunction,Copper,L4,Bot*%
%TF.FilePolarity,Positive*%
%FSLAX46Y46*%
G04 Gerber Fmt 4.6, Leading zero omitted, Abs format (unit mm)*
G04 Created by KiCad (PCBNEW (5.1.10)-1) date 2022-01-11 16:22:32*
%MOMM*%
%LPD*%
G01*
G04 APERTURE LIST*
%TA.AperFunction,SMDPad,CuDef*%
%ADD10R,1.600200X0.248920*%
%TD*%
%TA.AperFunction,SMDPad,CuDef*%
%ADD11R,2.600960X0.449580*%
%TD*%
%TA.AperFunction,SMDPad,CuDef*%
%ADD12R,1.600200X0.701040*%
%TD*%
%TA.AperFunction,ComponentPad*%
%ADD13O,3.200400X1.300480*%
%TD*%
%TA.AperFunction,ViaPad*%
%ADD14C,0.450000*%
%TD*%
%TA.AperFunction,ViaPad*%
%ADD15C,0.600000*%
%TD*%
%TA.AperFunction,Conductor*%
%ADD16C,0.635000*%
%TD*%
%TA.AperFunction,Conductor*%
%ADD17C,0.254000*%
%TD*%
%TA.AperFunction,Conductor*%
%ADD18C,0.175006*%
%TD*%
%TA.AperFunction,Conductor*%
%ADD19C,0.152400*%
%TD*%
%TA.AperFunction,Conductor*%
%ADD20C,0.114300*%
%TD*%
%TA.AperFunction,Conductor*%
%ADD21C,0.100000*%
%TD*%
G04 APERTURE END LIST*
D10*
%TO.P,J1,A1*%
%TO.N,GND*%
X134744460Y-94238280D03*
%TO.P,J1,A2*%
%TO.N,/TX1+*%
X134744460Y-94738660D03*
%TO.P,J1,A3*%
%TO.N,/TX1-*%
X134744460Y-95239040D03*
%TO.P,J1,A4*%
%TO.N,VBUS*%
X134744460Y-95739420D03*
%TO.P,J1,A5*%
%TO.N,/CC1*%
X134744460Y-96239800D03*
%TO.P,J1,A6*%
%TO.N,/D+*%
X134744460Y-96740180D03*
%TO.P,J1,A7*%
%TO.N,/D-*%
X134744460Y-97238020D03*
%TO.P,J1,A8*%
%TO.N,N/C*%
X134744460Y-97738400D03*
%TO.P,J1,A9*%
%TO.N,VBUS*%
X134744460Y-98238780D03*
%TO.P,J1,A10*%
%TO.N,/RX2-*%
X134744460Y-98739160D03*
%TO.P,J1,A11*%
%TO.N,/RX2+*%
X134744460Y-99239540D03*
%TO.P,J1,A12*%
%TO.N,GND*%
X134744460Y-99739920D03*
D11*
%TO.P,J1,S1*%
X135242300Y-93664240D03*
%TD*%
D12*
%TO.P,J2,9*%
%TO.N,/TX+*%
X147398740Y-92997020D03*
%TO.P,J2,1*%
%TO.N,VBUS*%
X147398740Y-93997780D03*
%TO.P,J2,8*%
%TO.N,/TX-*%
X147398740Y-94998540D03*
%TO.P,J2,2*%
%TO.N,/D-*%
X147398740Y-95996760D03*
%TO.P,J2,7*%
%TO.N,GND*%
X147398740Y-96997520D03*
%TO.P,J2,3*%
%TO.N,/D+*%
X147398740Y-97998280D03*
%TO.P,J2,6*%
%TO.N,/RX+*%
X147398740Y-98996500D03*
%TO.P,J2,4*%
%TO.N,GND*%
X147398740Y-99997260D03*
%TO.P,J2,5*%
%TO.N,/RX-*%
X147398740Y-100998020D03*
D13*
%TO.P,J2,10*%
%TO.N,GND*%
X148546820Y-90596720D03*
X148546820Y-103398320D03*
%TD*%
D14*
%TO.N,GND*%
X137160000Y-93124500D03*
X137160000Y-92075000D03*
X137160000Y-92583000D03*
X135509000Y-102743000D03*
X136017000Y-102743000D03*
X134967500Y-102743000D03*
X155702000Y-93345000D03*
X155702000Y-94361000D03*
X155702000Y-93853000D03*
X155702000Y-94869000D03*
X155702000Y-95885000D03*
X155702000Y-95377000D03*
X141097000Y-97536000D03*
X141605000Y-97536000D03*
X142113000Y-97536000D03*
X142113000Y-98171000D03*
X141605000Y-98171000D03*
X141097000Y-98171000D03*
X141097000Y-98806000D03*
X141605000Y-98806000D03*
X142113000Y-98806000D03*
X142113000Y-99441000D03*
X141605000Y-99441000D03*
X141097000Y-99441000D03*
D15*
%TO.N,VBUS*%
X149225000Y-94200500D03*
X149225000Y-93502000D03*
D14*
X133567510Y-98261510D03*
X133596557Y-95731943D03*
X135997626Y-95755292D03*
%TO.N,/TX1+*%
X138739582Y-95910937D03*
%TO.N,/TX1-*%
X138349540Y-96300979D03*
%TO.N,/CC1*%
X139416051Y-95677251D03*
%TO.N,/D+*%
X136360394Y-96752200D03*
X149729400Y-96774000D03*
%TO.N,/D-*%
X136360394Y-97303800D03*
X149177800Y-96774000D03*
%TO.N,/RX2-*%
X137439412Y-99379350D03*
%TO.N,/RX2+*%
X137439412Y-99930950D03*
%TO.N,/TX2+*%
X138213606Y-98204244D03*
X136581474Y-98844821D03*
%TO.N,/TX2-*%
X138213606Y-97652644D03*
X136191432Y-98454779D03*
%TO.N,/CC2*%
X135988858Y-97837151D03*
X140589000Y-96266000D03*
%TO.N,/TX+*%
X145473979Y-93784979D03*
%TO.N,/TX-*%
X145864021Y-94175021D03*
%TO.N,/RX+*%
X145669000Y-99673200D03*
%TO.N,/RX-*%
X145669000Y-100224800D03*
%TD*%
D16*
%TO.N,VBUS*%
X149024760Y-94000260D02*
X149225000Y-94200500D01*
X147425960Y-94000260D02*
X149024760Y-94000260D01*
D17*
X135981754Y-95739420D02*
X135997626Y-95755292D01*
X134744460Y-95739420D02*
X135981754Y-95739420D01*
X133604034Y-95739420D02*
X133596557Y-95731943D01*
X134744460Y-95739420D02*
X133604034Y-95739420D01*
X133590240Y-98238780D02*
X133567510Y-98261510D01*
X134744460Y-98238780D02*
X133590240Y-98238780D01*
D16*
X149225000Y-93502000D02*
X149225000Y-94200500D01*
D18*
%TO.N,/TX1+*%
X136056498Y-94850547D02*
X135944611Y-94738660D01*
X137484740Y-94850547D02*
X136056498Y-94850547D01*
X138545130Y-95910937D02*
X137484740Y-94850547D01*
X135944611Y-94738660D02*
X134744460Y-94738660D01*
X138739582Y-95910937D02*
X138545130Y-95910937D01*
%TO.N,/TX1-*%
X135944611Y-95239040D02*
X134744460Y-95239040D01*
X137370166Y-95127153D02*
X136056498Y-95127153D01*
X138349540Y-96300979D02*
X138349540Y-96106527D01*
X138349540Y-96106527D02*
X137370166Y-95127153D01*
X136056498Y-95127153D02*
X135944611Y-95239040D01*
D19*
%TO.N,/CC1*%
X137557782Y-96250999D02*
X138131583Y-96824800D01*
X136119817Y-96250999D02*
X137557782Y-96250999D01*
X135757049Y-96256493D02*
X136114323Y-96256493D01*
X135740356Y-96239800D02*
X135757049Y-96256493D01*
X136114323Y-96256493D02*
X136119817Y-96250999D01*
X134744460Y-96239800D02*
X135740356Y-96239800D01*
X138131583Y-96824800D02*
X138709400Y-96824800D01*
X139416051Y-96118149D02*
X138709400Y-96824800D01*
X139416051Y-95677251D02*
X139416051Y-96118149D01*
D18*
%TO.N,/D+*%
X136348374Y-96740180D02*
X136360394Y-96752200D01*
X134744460Y-96740180D02*
X136348374Y-96740180D01*
X147398740Y-97998280D02*
X149143720Y-97998280D01*
X149729400Y-97412600D02*
X149729400Y-96774000D01*
X149143720Y-97998280D02*
X149729400Y-97412600D01*
%TO.N,/D-*%
X136294614Y-97238020D02*
X136360394Y-97303800D01*
X134744460Y-97238020D02*
X136294614Y-97238020D01*
X148400560Y-95996760D02*
X149177800Y-96774000D01*
X147398740Y-95996760D02*
X148400560Y-95996760D01*
%TO.N,/RX2-*%
X134744460Y-98739160D02*
X135420100Y-98739160D01*
X135531987Y-98851047D02*
X135703005Y-98851047D01*
X135420100Y-98739160D02*
X135531987Y-98851047D01*
X137301915Y-99516847D02*
X137439412Y-99379350D01*
X136368805Y-99516847D02*
X137301915Y-99516847D01*
X135703005Y-98851047D02*
X136368805Y-99516847D01*
%TO.N,/RX2+*%
X135531987Y-99127653D02*
X135588431Y-99127653D01*
X135420100Y-99239540D02*
X135531987Y-99127653D01*
X134744460Y-99239540D02*
X135420100Y-99239540D01*
X137301915Y-99793453D02*
X137439412Y-99930950D01*
X136254231Y-99793453D02*
X137301915Y-99793453D01*
X135588431Y-99127653D02*
X136254231Y-99793453D01*
%TO.N,/TX2+*%
X138076109Y-98066747D02*
X138213606Y-98204244D01*
X137165096Y-98066747D02*
X138076109Y-98066747D01*
X136581474Y-98650369D02*
X137165096Y-98066747D01*
X136581474Y-98844821D02*
X136581474Y-98650369D01*
%TO.N,/TX2-*%
X137050522Y-97790141D02*
X138076109Y-97790141D01*
X136385884Y-98454779D02*
X137050522Y-97790141D01*
X136191432Y-98454779D02*
X136385884Y-98454779D01*
X138076109Y-97790141D02*
X138213606Y-97652644D01*
%TO.N,/TX+*%
X146261938Y-92997020D02*
X147398740Y-92997020D01*
X145473979Y-93784979D02*
X146261938Y-92997020D01*
%TO.N,/TX-*%
X146687540Y-94998540D02*
X147398740Y-94998540D01*
X145864021Y-94175021D02*
X146687540Y-94998540D01*
%TO.N,/RX+*%
X146345700Y-98996500D02*
X147398740Y-98996500D01*
X145669000Y-99673200D02*
X146345700Y-98996500D01*
%TO.N,/RX-*%
X146442220Y-100998020D02*
X147398740Y-100998020D01*
X145669000Y-100224800D02*
X146442220Y-100998020D01*
%TD*%
D20*
%TO.N,GND*%
X146752780Y-90263727D02*
X146777060Y-90399870D01*
X148349970Y-90399870D01*
X148349970Y-90221450D01*
X148743670Y-90221450D01*
X148743670Y-90399870D01*
X150316580Y-90399870D01*
X150340860Y-90263727D01*
X150325074Y-90221450D01*
X156778551Y-90221450D01*
X156778550Y-103778550D01*
X150323222Y-103778550D01*
X150340860Y-103731313D01*
X150316580Y-103595170D01*
X148743670Y-103595170D01*
X148743670Y-103778550D01*
X148349970Y-103778550D01*
X148349970Y-103595170D01*
X146777060Y-103595170D01*
X146752780Y-103731313D01*
X146770418Y-103778550D01*
X133221450Y-103778550D01*
X133221450Y-102533942D01*
X136580850Y-102533942D01*
X136580850Y-102698058D01*
X136612868Y-102859021D01*
X136675672Y-103010644D01*
X136766850Y-103147102D01*
X136882898Y-103263150D01*
X137019356Y-103354328D01*
X137170979Y-103417132D01*
X137331942Y-103449150D01*
X137496058Y-103449150D01*
X137657021Y-103417132D01*
X137808644Y-103354328D01*
X137945102Y-103263150D01*
X138061150Y-103147102D01*
X138115790Y-103065327D01*
X146752780Y-103065327D01*
X146777060Y-103201470D01*
X148349970Y-103201470D01*
X148349970Y-102490930D01*
X148743670Y-102490930D01*
X148743670Y-103201470D01*
X150316580Y-103201470D01*
X150340860Y-103065327D01*
X150277596Y-102895893D01*
X150164574Y-102753217D01*
X150025889Y-102635332D01*
X149866871Y-102546769D01*
X149693630Y-102490930D01*
X148743670Y-102490930D01*
X148349970Y-102490930D01*
X147400010Y-102490930D01*
X147226769Y-102546769D01*
X147067751Y-102635332D01*
X146929066Y-102753217D01*
X146816044Y-102895893D01*
X146752780Y-103065327D01*
X138115790Y-103065327D01*
X138152328Y-103010644D01*
X138215132Y-102859021D01*
X138247150Y-102698058D01*
X138247150Y-102533942D01*
X138215132Y-102372979D01*
X138152328Y-102221356D01*
X138061150Y-102084898D01*
X137945102Y-101968850D01*
X137808644Y-101877672D01*
X137657021Y-101814868D01*
X137496058Y-101782850D01*
X137331942Y-101782850D01*
X137170979Y-101814868D01*
X137019356Y-101877672D01*
X136882898Y-101968850D01*
X136766850Y-102084898D01*
X136675672Y-102221356D01*
X136612868Y-102372979D01*
X136580850Y-102533942D01*
X133221450Y-102533942D01*
X133221450Y-98597313D01*
X133260157Y-98636020D01*
X133339126Y-98688786D01*
X133426872Y-98725131D01*
X133520022Y-98743660D01*
X133614998Y-98743660D01*
X133685966Y-98729543D01*
X133685966Y-98863620D01*
X133690931Y-98914030D01*
X133705635Y-98962503D01*
X133719985Y-98989350D01*
X133705635Y-99016197D01*
X133690931Y-99064670D01*
X133685966Y-99115080D01*
X133685966Y-99364000D01*
X133690931Y-99414410D01*
X133705635Y-99462883D01*
X133729513Y-99507556D01*
X133761648Y-99546712D01*
X133800804Y-99578847D01*
X133845477Y-99602725D01*
X133893950Y-99617429D01*
X133944360Y-99622394D01*
X135544560Y-99622394D01*
X135591169Y-99617803D01*
X135998558Y-100025193D01*
X136009346Y-100038338D01*
X136061826Y-100081408D01*
X136121700Y-100113411D01*
X136186667Y-100133119D01*
X136237304Y-100138106D01*
X136237314Y-100138106D01*
X136254230Y-100139772D01*
X136271146Y-100138106D01*
X137003343Y-100138106D01*
X137012136Y-100159334D01*
X137064902Y-100238303D01*
X137132059Y-100305460D01*
X137211028Y-100358226D01*
X137298774Y-100394571D01*
X137391924Y-100413100D01*
X137486900Y-100413100D01*
X137580050Y-100394571D01*
X137667796Y-100358226D01*
X137746765Y-100305460D01*
X137813922Y-100238303D01*
X137866688Y-100159334D01*
X137903033Y-100071588D01*
X137921562Y-99978438D01*
X137921562Y-99883462D01*
X137903033Y-99790312D01*
X137866688Y-99702566D01*
X137835005Y-99655150D01*
X137866688Y-99607734D01*
X137903033Y-99519988D01*
X137921562Y-99426838D01*
X137921562Y-99331862D01*
X137903033Y-99238712D01*
X137866688Y-99150966D01*
X137813922Y-99071997D01*
X137746765Y-99004840D01*
X137667796Y-98952074D01*
X137580050Y-98915729D01*
X137486900Y-98897200D01*
X137391924Y-98897200D01*
X137298774Y-98915729D01*
X137211028Y-98952074D01*
X137132059Y-99004840D01*
X137064902Y-99071997D01*
X137012136Y-99150966D01*
X137003343Y-99172194D01*
X136935964Y-99172194D01*
X136955984Y-99152174D01*
X137008750Y-99073205D01*
X137045095Y-98985459D01*
X137063624Y-98892309D01*
X137063624Y-98797333D01*
X137045095Y-98704183D01*
X137036302Y-98682954D01*
X137307856Y-98411400D01*
X137777537Y-98411400D01*
X137786330Y-98432628D01*
X137839096Y-98511597D01*
X137906253Y-98578754D01*
X137985222Y-98631520D01*
X138072968Y-98667865D01*
X138166118Y-98686394D01*
X138261094Y-98686394D01*
X138354244Y-98667865D01*
X138441990Y-98631520D01*
X138520959Y-98578754D01*
X138588116Y-98511597D01*
X138640882Y-98432628D01*
X138677227Y-98344882D01*
X138695756Y-98251732D01*
X138695756Y-98156756D01*
X138677227Y-98063606D01*
X138640882Y-97975860D01*
X138609199Y-97928444D01*
X138640882Y-97881028D01*
X138677227Y-97793282D01*
X138695756Y-97700132D01*
X138695756Y-97605156D01*
X138677227Y-97512006D01*
X138640882Y-97424260D01*
X138588116Y-97345291D01*
X138520959Y-97278134D01*
X138441990Y-97225368D01*
X138354244Y-97189023D01*
X138261094Y-97170494D01*
X138166118Y-97170494D01*
X138072968Y-97189023D01*
X137985222Y-97225368D01*
X137906253Y-97278134D01*
X137839096Y-97345291D01*
X137786330Y-97424260D01*
X137777537Y-97445488D01*
X137067438Y-97445488D01*
X137050521Y-97443822D01*
X137033605Y-97445488D01*
X137033595Y-97445488D01*
X136982958Y-97450475D01*
X136917991Y-97470183D01*
X136894190Y-97482905D01*
X136858116Y-97502186D01*
X136824472Y-97529798D01*
X136805637Y-97545256D01*
X136794849Y-97558401D01*
X136471008Y-97882243D01*
X136471008Y-97789663D01*
X136467895Y-97774012D01*
X136501032Y-97767421D01*
X136588778Y-97731076D01*
X136667747Y-97678310D01*
X136734904Y-97611153D01*
X136787670Y-97532184D01*
X136824015Y-97444438D01*
X136842544Y-97351288D01*
X136842544Y-97256312D01*
X136824015Y-97163162D01*
X136787670Y-97075416D01*
X136755987Y-97028000D01*
X136787670Y-96980584D01*
X136824015Y-96892838D01*
X136842544Y-96799688D01*
X136842544Y-96704712D01*
X136824015Y-96611562D01*
X136812743Y-96584349D01*
X137419705Y-96584349D01*
X137884294Y-97048939D01*
X137894729Y-97061654D01*
X137945488Y-97103311D01*
X138003399Y-97134265D01*
X138066235Y-97153326D01*
X138115216Y-97158150D01*
X138115217Y-97158150D01*
X138131582Y-97159762D01*
X138147947Y-97158150D01*
X138693033Y-97158150D01*
X138709400Y-97159762D01*
X138725767Y-97158150D01*
X138774748Y-97153326D01*
X138837584Y-97134265D01*
X138895495Y-97103311D01*
X138946254Y-97061654D01*
X138956693Y-97048934D01*
X139640190Y-96365438D01*
X139652905Y-96355003D01*
X139694562Y-96304244D01*
X139725516Y-96246333D01*
X139733955Y-96218512D01*
X140106850Y-96218512D01*
X140106850Y-96313488D01*
X140125379Y-96406638D01*
X140161724Y-96494384D01*
X140214490Y-96573353D01*
X140281647Y-96640510D01*
X140360616Y-96693276D01*
X140448362Y-96729621D01*
X140541512Y-96748150D01*
X140636488Y-96748150D01*
X140729638Y-96729621D01*
X140817384Y-96693276D01*
X140896353Y-96640510D01*
X140963510Y-96573353D01*
X141016276Y-96494384D01*
X141052621Y-96406638D01*
X141071150Y-96313488D01*
X141071150Y-96218512D01*
X141052621Y-96125362D01*
X141016276Y-96037616D01*
X140963510Y-95958647D01*
X140896353Y-95891490D01*
X140817384Y-95838724D01*
X140729638Y-95802379D01*
X140636488Y-95783850D01*
X140541512Y-95783850D01*
X140448362Y-95802379D01*
X140360616Y-95838724D01*
X140281647Y-95891490D01*
X140214490Y-95958647D01*
X140161724Y-96037616D01*
X140125379Y-96125362D01*
X140106850Y-96218512D01*
X139733955Y-96218512D01*
X139744577Y-96183497D01*
X139749401Y-96134516D01*
X139749401Y-96134507D01*
X139751012Y-96118150D01*
X139749401Y-96101793D01*
X139749401Y-96025764D01*
X139790561Y-95984604D01*
X139843327Y-95905635D01*
X139879672Y-95817889D01*
X139898201Y-95724739D01*
X139898201Y-95629763D01*
X139879672Y-95536613D01*
X139843327Y-95448867D01*
X139790561Y-95369898D01*
X139723404Y-95302741D01*
X139644435Y-95249975D01*
X139556689Y-95213630D01*
X139463539Y-95195101D01*
X139368563Y-95195101D01*
X139275413Y-95213630D01*
X139187667Y-95249975D01*
X139108698Y-95302741D01*
X139041541Y-95369898D01*
X138988775Y-95448867D01*
X138972976Y-95487009D01*
X138967966Y-95483661D01*
X138880220Y-95447316D01*
X138787070Y-95428787D01*
X138692094Y-95428787D01*
X138598944Y-95447316D01*
X138577715Y-95456109D01*
X137740415Y-94618810D01*
X137729625Y-94605662D01*
X137677145Y-94562592D01*
X137617271Y-94530589D01*
X137552304Y-94510881D01*
X137501667Y-94505894D01*
X137501656Y-94505894D01*
X137484740Y-94504228D01*
X137467824Y-94505894D01*
X136199442Y-94505894D01*
X136189496Y-94493775D01*
X136137016Y-94450705D01*
X136077142Y-94418702D01*
X136012175Y-94398994D01*
X135961538Y-94394007D01*
X135961527Y-94394007D01*
X135944611Y-94392341D01*
X135927695Y-94394007D01*
X135678114Y-94394007D01*
X135643443Y-94375475D01*
X135594970Y-94360771D01*
X135544560Y-94355806D01*
X133944360Y-94355806D01*
X133893950Y-94360771D01*
X133845477Y-94375475D01*
X133800804Y-94399353D01*
X133761648Y-94431488D01*
X133729513Y-94470644D01*
X133705635Y-94515317D01*
X133690931Y-94563790D01*
X133685966Y-94614200D01*
X133685966Y-94863120D01*
X133690931Y-94913530D01*
X133705635Y-94962003D01*
X133719985Y-94988850D01*
X133705635Y-95015697D01*
X133690931Y-95064170D01*
X133685966Y-95114580D01*
X133685966Y-95258132D01*
X133644045Y-95249793D01*
X133549069Y-95249793D01*
X133455919Y-95268322D01*
X133368173Y-95304667D01*
X133289204Y-95357433D01*
X133222047Y-95424590D01*
X133221450Y-95425483D01*
X133221450Y-93737491D01*
X144991829Y-93737491D01*
X144991829Y-93832467D01*
X145010358Y-93925617D01*
X145046703Y-94013363D01*
X145099469Y-94092332D01*
X145166626Y-94159489D01*
X145245595Y-94212255D01*
X145333341Y-94248600D01*
X145389274Y-94259726D01*
X145400400Y-94315659D01*
X145436745Y-94403405D01*
X145489511Y-94482374D01*
X145556668Y-94549531D01*
X145635637Y-94602297D01*
X145723383Y-94638642D01*
X145816533Y-94657171D01*
X145858759Y-94657171D01*
X146340246Y-95138659D01*
X146340246Y-95349060D01*
X146345211Y-95399470D01*
X146359915Y-95447943D01*
X146383793Y-95492616D01*
X146387924Y-95497650D01*
X146383793Y-95502684D01*
X146359915Y-95547357D01*
X146345211Y-95595830D01*
X146340246Y-95646240D01*
X146340246Y-96347280D01*
X146345211Y-96397690D01*
X146359915Y-96446163D01*
X146383793Y-96490836D01*
X146415928Y-96529992D01*
X146455084Y-96562127D01*
X146499757Y-96586005D01*
X146548230Y-96600709D01*
X146598640Y-96605674D01*
X148198840Y-96605674D01*
X148249250Y-96600709D01*
X148297723Y-96586005D01*
X148342396Y-96562127D01*
X148381552Y-96529992D01*
X148410774Y-96494386D01*
X148695650Y-96779263D01*
X148695650Y-96821488D01*
X148714179Y-96914638D01*
X148750524Y-97002384D01*
X148803290Y-97081353D01*
X148870447Y-97148510D01*
X148949416Y-97201276D01*
X149037162Y-97237621D01*
X149130312Y-97256150D01*
X149225288Y-97256150D01*
X149318438Y-97237621D01*
X149384747Y-97210155D01*
X149384747Y-97269841D01*
X149000961Y-97653627D01*
X148457234Y-97653627D01*
X148457234Y-97647760D01*
X148452269Y-97597350D01*
X148437565Y-97548877D01*
X148413687Y-97504204D01*
X148381552Y-97465048D01*
X148342396Y-97432913D01*
X148297723Y-97409035D01*
X148249250Y-97394331D01*
X148198840Y-97389366D01*
X146598640Y-97389366D01*
X146548230Y-97394331D01*
X146499757Y-97409035D01*
X146455084Y-97432913D01*
X146415928Y-97465048D01*
X146383793Y-97504204D01*
X146359915Y-97548877D01*
X146345211Y-97597350D01*
X146340246Y-97647760D01*
X146340246Y-98348800D01*
X146345211Y-98399210D01*
X146359915Y-98447683D01*
X146383793Y-98492356D01*
X146387924Y-98497390D01*
X146383793Y-98502424D01*
X146359915Y-98547097D01*
X146345211Y-98595570D01*
X146340246Y-98645980D01*
X146340246Y-98650718D01*
X146328783Y-98651847D01*
X146328773Y-98651847D01*
X146278136Y-98656834D01*
X146213169Y-98676542D01*
X146153295Y-98708545D01*
X146100815Y-98751615D01*
X146090027Y-98764760D01*
X145663738Y-99191050D01*
X145621512Y-99191050D01*
X145528362Y-99209579D01*
X145440616Y-99245924D01*
X145361647Y-99298690D01*
X145294490Y-99365847D01*
X145241724Y-99444816D01*
X145205379Y-99532562D01*
X145186850Y-99625712D01*
X145186850Y-99720688D01*
X145205379Y-99813838D01*
X145241724Y-99901584D01*
X145273407Y-99949000D01*
X145241724Y-99996416D01*
X145205379Y-100084162D01*
X145186850Y-100177312D01*
X145186850Y-100272288D01*
X145205379Y-100365438D01*
X145241724Y-100453184D01*
X145294490Y-100532153D01*
X145361647Y-100599310D01*
X145440616Y-100652076D01*
X145528362Y-100688421D01*
X145621512Y-100706950D01*
X145663738Y-100706950D01*
X146186547Y-101229760D01*
X146197335Y-101242905D01*
X146249815Y-101285975D01*
X146309689Y-101317978D01*
X146340246Y-101327248D01*
X146340246Y-101348540D01*
X146345211Y-101398950D01*
X146359915Y-101447423D01*
X146383793Y-101492096D01*
X146415928Y-101531252D01*
X146455084Y-101563387D01*
X146499757Y-101587265D01*
X146548230Y-101601969D01*
X146598640Y-101606934D01*
X148198840Y-101606934D01*
X148249250Y-101601969D01*
X148297723Y-101587265D01*
X148342396Y-101563387D01*
X148381552Y-101531252D01*
X148413687Y-101492096D01*
X148437565Y-101447423D01*
X148452269Y-101398950D01*
X148457234Y-101348540D01*
X148457234Y-100647500D01*
X148452269Y-100597090D01*
X148437565Y-100548617D01*
X148413687Y-100503944D01*
X148381552Y-100464788D01*
X148342396Y-100432653D01*
X148297723Y-100408775D01*
X148249250Y-100394071D01*
X148198840Y-100389106D01*
X146598640Y-100389106D01*
X146548230Y-100394071D01*
X146499757Y-100408775D01*
X146455084Y-100432653D01*
X146415928Y-100464788D01*
X146407126Y-100475513D01*
X146151150Y-100219538D01*
X146151150Y-100177312D01*
X146132621Y-100084162D01*
X146096276Y-99996416D01*
X146064593Y-99949000D01*
X146096276Y-99901584D01*
X146132621Y-99813838D01*
X146147320Y-99739942D01*
X154487850Y-99739942D01*
X154487850Y-99904058D01*
X154519868Y-100065021D01*
X154582672Y-100216644D01*
X154673850Y-100353102D01*
X154789898Y-100469150D01*
X154926356Y-100560328D01*
X155077979Y-100623132D01*
X155238942Y-100655150D01*
X155403058Y-100655150D01*
X155564021Y-100623132D01*
X155715644Y-100560328D01*
X155852102Y-100469150D01*
X155968150Y-100353102D01*
X156059328Y-100216644D01*
X156122132Y-100065021D01*
X156154150Y-99904058D01*
X156154150Y-99739942D01*
X156122132Y-99578979D01*
X156059328Y-99427356D01*
X155968150Y-99290898D01*
X155852102Y-99174850D01*
X155715644Y-99083672D01*
X155564021Y-99020868D01*
X155403058Y-98988850D01*
X155238942Y-98988850D01*
X155077979Y-99020868D01*
X154926356Y-99083672D01*
X154789898Y-99174850D01*
X154673850Y-99290898D01*
X154582672Y-99427356D01*
X154519868Y-99578979D01*
X154487850Y-99739942D01*
X146147320Y-99739942D01*
X146151150Y-99720688D01*
X146151150Y-99678462D01*
X146368203Y-99461409D01*
X146383793Y-99490576D01*
X146415928Y-99529732D01*
X146455084Y-99561867D01*
X146499757Y-99585745D01*
X146548230Y-99600449D01*
X146598640Y-99605414D01*
X148198840Y-99605414D01*
X148249250Y-99600449D01*
X148297723Y-99585745D01*
X148342396Y-99561867D01*
X148381552Y-99529732D01*
X148413687Y-99490576D01*
X148437565Y-99445903D01*
X148452269Y-99397430D01*
X148457234Y-99347020D01*
X148457234Y-98645980D01*
X148452269Y-98595570D01*
X148437565Y-98547097D01*
X148413687Y-98502424D01*
X148409556Y-98497390D01*
X148413687Y-98492356D01*
X148437565Y-98447683D01*
X148452269Y-98399210D01*
X148457234Y-98348800D01*
X148457234Y-98342933D01*
X149126804Y-98342933D01*
X149143720Y-98344599D01*
X149160636Y-98342933D01*
X149160647Y-98342933D01*
X149211284Y-98337946D01*
X149276251Y-98318238D01*
X149336125Y-98286235D01*
X149388605Y-98243165D01*
X149399398Y-98230014D01*
X149961139Y-97668273D01*
X149974284Y-97657485D01*
X149985791Y-97643465D01*
X150017355Y-97605005D01*
X150049358Y-97545131D01*
X150069066Y-97480164D01*
X150070091Y-97469757D01*
X150074053Y-97429527D01*
X150074053Y-97429519D01*
X150075719Y-97412600D01*
X150074053Y-97395681D01*
X150074053Y-97111210D01*
X150103910Y-97081353D01*
X150156676Y-97002384D01*
X150193021Y-96914638D01*
X150211550Y-96821488D01*
X150211550Y-96726512D01*
X150193021Y-96633362D01*
X150156676Y-96545616D01*
X150103910Y-96466647D01*
X150036753Y-96399490D01*
X149957784Y-96346724D01*
X149870038Y-96310379D01*
X149776888Y-96291850D01*
X149681912Y-96291850D01*
X149588762Y-96310379D01*
X149501016Y-96346724D01*
X149453600Y-96378407D01*
X149406184Y-96346724D01*
X149318438Y-96310379D01*
X149225288Y-96291850D01*
X149183063Y-96291850D01*
X148656238Y-95765026D01*
X148645445Y-95751875D01*
X148592965Y-95708805D01*
X148533091Y-95676802D01*
X148468124Y-95657094D01*
X148457234Y-95656021D01*
X148457234Y-95646240D01*
X148452269Y-95595830D01*
X148437565Y-95547357D01*
X148413687Y-95502684D01*
X148409556Y-95497650D01*
X148413687Y-95492616D01*
X148437565Y-95447943D01*
X148452269Y-95399470D01*
X148457234Y-95349060D01*
X148457234Y-94648020D01*
X148452269Y-94597610D01*
X148445383Y-94574910D01*
X148786733Y-94574910D01*
X148798702Y-94586879D01*
X148816696Y-94608805D01*
X148853053Y-94638642D01*
X148904197Y-94680615D01*
X148929688Y-94694240D01*
X149004028Y-94733976D01*
X149112350Y-94766835D01*
X149213904Y-94776837D01*
X149224999Y-94777930D01*
X149225000Y-94777930D01*
X149337651Y-94766835D01*
X149445973Y-94733976D01*
X149545803Y-94680615D01*
X149633305Y-94608805D01*
X149705115Y-94521303D01*
X149758476Y-94421473D01*
X149791335Y-94313151D01*
X149799650Y-94228726D01*
X149799650Y-94228723D01*
X149802430Y-94200499D01*
X149799650Y-94172276D01*
X149799650Y-93473774D01*
X149791335Y-93389349D01*
X149758476Y-93281027D01*
X149705115Y-93181197D01*
X149633305Y-93093695D01*
X149545802Y-93021885D01*
X149445972Y-92968524D01*
X149337650Y-92935665D01*
X149225000Y-92924570D01*
X149112349Y-92935665D01*
X149004027Y-92968524D01*
X148904197Y-93021885D01*
X148816695Y-93093695D01*
X148744885Y-93181198D01*
X148691524Y-93281028D01*
X148658665Y-93389350D01*
X148655094Y-93425610D01*
X148443879Y-93425610D01*
X148452269Y-93397950D01*
X148457234Y-93347540D01*
X148457234Y-92646500D01*
X148452269Y-92596090D01*
X148437565Y-92547617D01*
X148413687Y-92502944D01*
X148381552Y-92463788D01*
X148342396Y-92431653D01*
X148297723Y-92407775D01*
X148249250Y-92393071D01*
X148198840Y-92388106D01*
X146598640Y-92388106D01*
X146548230Y-92393071D01*
X146499757Y-92407775D01*
X146455084Y-92431653D01*
X146415928Y-92463788D01*
X146383793Y-92502944D01*
X146359915Y-92547617D01*
X146345211Y-92596090D01*
X146340246Y-92646500D01*
X146340246Y-92652367D01*
X146278853Y-92652367D01*
X146261937Y-92650701D01*
X146245021Y-92652367D01*
X146245011Y-92652367D01*
X146194374Y-92657354D01*
X146129407Y-92677062D01*
X146069533Y-92709065D01*
X146017053Y-92752135D01*
X146006265Y-92765280D01*
X145468717Y-93302829D01*
X145426491Y-93302829D01*
X145333341Y-93321358D01*
X145245595Y-93357703D01*
X145166626Y-93410469D01*
X145099469Y-93477626D01*
X145046703Y-93556595D01*
X145010358Y-93644341D01*
X144991829Y-93737491D01*
X133221450Y-93737491D01*
X133221450Y-90976942D01*
X144454850Y-90976942D01*
X144454850Y-91141058D01*
X144486868Y-91302021D01*
X144549672Y-91453644D01*
X144640850Y-91590102D01*
X144756898Y-91706150D01*
X144893356Y-91797328D01*
X145044979Y-91860132D01*
X145205942Y-91892150D01*
X145370058Y-91892150D01*
X145531021Y-91860132D01*
X145682644Y-91797328D01*
X145819102Y-91706150D01*
X145935150Y-91590102D01*
X146026328Y-91453644D01*
X146089132Y-91302021D01*
X146121150Y-91141058D01*
X146121150Y-90976942D01*
X146111756Y-90929713D01*
X146752780Y-90929713D01*
X146816044Y-91099147D01*
X146929066Y-91241823D01*
X147067751Y-91359708D01*
X147226769Y-91448271D01*
X147400010Y-91504110D01*
X148349970Y-91504110D01*
X148349970Y-90793570D01*
X148743670Y-90793570D01*
X148743670Y-91504110D01*
X149693630Y-91504110D01*
X149866871Y-91448271D01*
X150025889Y-91359708D01*
X150164574Y-91241823D01*
X150277596Y-91099147D01*
X150340860Y-90929713D01*
X150316580Y-90793570D01*
X148743670Y-90793570D01*
X148349970Y-90793570D01*
X146777060Y-90793570D01*
X146752780Y-90929713D01*
X146111756Y-90929713D01*
X146089132Y-90815979D01*
X146026328Y-90664356D01*
X145935150Y-90527898D01*
X145819102Y-90411850D01*
X145682644Y-90320672D01*
X145531021Y-90257868D01*
X145370058Y-90225850D01*
X145205942Y-90225850D01*
X145044979Y-90257868D01*
X144893356Y-90320672D01*
X144756898Y-90411850D01*
X144640850Y-90527898D01*
X144549672Y-90664356D01*
X144486868Y-90815979D01*
X144454850Y-90976942D01*
X133221450Y-90976942D01*
X133221450Y-90221450D01*
X146768566Y-90221450D01*
X146752780Y-90263727D01*
%TA.AperFunction,Conductor*%
D21*
G36*
X146752780Y-90263727D02*
G01*
X146777060Y-90399870D01*
X148349970Y-90399870D01*
X148349970Y-90221450D01*
X148743670Y-90221450D01*
X148743670Y-90399870D01*
X150316580Y-90399870D01*
X150340860Y-90263727D01*
X150325074Y-90221450D01*
X156778551Y-90221450D01*
X156778550Y-103778550D01*
X150323222Y-103778550D01*
X150340860Y-103731313D01*
X150316580Y-103595170D01*
X148743670Y-103595170D01*
X148743670Y-103778550D01*
X148349970Y-103778550D01*
X148349970Y-103595170D01*
X146777060Y-103595170D01*
X146752780Y-103731313D01*
X146770418Y-103778550D01*
X133221450Y-103778550D01*
X133221450Y-102533942D01*
X136580850Y-102533942D01*
X136580850Y-102698058D01*
X136612868Y-102859021D01*
X136675672Y-103010644D01*
X136766850Y-103147102D01*
X136882898Y-103263150D01*
X137019356Y-103354328D01*
X137170979Y-103417132D01*
X137331942Y-103449150D01*
X137496058Y-103449150D01*
X137657021Y-103417132D01*
X137808644Y-103354328D01*
X137945102Y-103263150D01*
X138061150Y-103147102D01*
X138115790Y-103065327D01*
X146752780Y-103065327D01*
X146777060Y-103201470D01*
X148349970Y-103201470D01*
X148349970Y-102490930D01*
X148743670Y-102490930D01*
X148743670Y-103201470D01*
X150316580Y-103201470D01*
X150340860Y-103065327D01*
X150277596Y-102895893D01*
X150164574Y-102753217D01*
X150025889Y-102635332D01*
X149866871Y-102546769D01*
X149693630Y-102490930D01*
X148743670Y-102490930D01*
X148349970Y-102490930D01*
X147400010Y-102490930D01*
X147226769Y-102546769D01*
X147067751Y-102635332D01*
X146929066Y-102753217D01*
X146816044Y-102895893D01*
X146752780Y-103065327D01*
X138115790Y-103065327D01*
X138152328Y-103010644D01*
X138215132Y-102859021D01*
X138247150Y-102698058D01*
X138247150Y-102533942D01*
X138215132Y-102372979D01*
X138152328Y-102221356D01*
X138061150Y-102084898D01*
X137945102Y-101968850D01*
X137808644Y-101877672D01*
X137657021Y-101814868D01*
X137496058Y-101782850D01*
X137331942Y-101782850D01*
X137170979Y-101814868D01*
X137019356Y-101877672D01*
X136882898Y-101968850D01*
X136766850Y-102084898D01*
X136675672Y-102221356D01*
X136612868Y-102372979D01*
X136580850Y-102533942D01*
X133221450Y-102533942D01*
X133221450Y-98597313D01*
X133260157Y-98636020D01*
X133339126Y-98688786D01*
X133426872Y-98725131D01*
X133520022Y-98743660D01*
X133614998Y-98743660D01*
X133685966Y-98729543D01*
X133685966Y-98863620D01*
X133690931Y-98914030D01*
X133705635Y-98962503D01*
X133719985Y-98989350D01*
X133705635Y-99016197D01*
X133690931Y-99064670D01*
X133685966Y-99115080D01*
X133685966Y-99364000D01*
X133690931Y-99414410D01*
X133705635Y-99462883D01*
X133729513Y-99507556D01*
X133761648Y-99546712D01*
X133800804Y-99578847D01*
X133845477Y-99602725D01*
X133893950Y-99617429D01*
X133944360Y-99622394D01*
X135544560Y-99622394D01*
X135591169Y-99617803D01*
X135998558Y-100025193D01*
X136009346Y-100038338D01*
X136061826Y-100081408D01*
X136121700Y-100113411D01*
X136186667Y-100133119D01*
X136237304Y-100138106D01*
X136237314Y-100138106D01*
X136254230Y-100139772D01*
X136271146Y-100138106D01*
X137003343Y-100138106D01*
X137012136Y-100159334D01*
X137064902Y-100238303D01*
X137132059Y-100305460D01*
X137211028Y-100358226D01*
X137298774Y-100394571D01*
X137391924Y-100413100D01*
X137486900Y-100413100D01*
X137580050Y-100394571D01*
X137667796Y-100358226D01*
X137746765Y-100305460D01*
X137813922Y-100238303D01*
X137866688Y-100159334D01*
X137903033Y-100071588D01*
X137921562Y-99978438D01*
X137921562Y-99883462D01*
X137903033Y-99790312D01*
X137866688Y-99702566D01*
X137835005Y-99655150D01*
X137866688Y-99607734D01*
X137903033Y-99519988D01*
X137921562Y-99426838D01*
X137921562Y-99331862D01*
X137903033Y-99238712D01*
X137866688Y-99150966D01*
X137813922Y-99071997D01*
X137746765Y-99004840D01*
X137667796Y-98952074D01*
X137580050Y-98915729D01*
X137486900Y-98897200D01*
X137391924Y-98897200D01*
X137298774Y-98915729D01*
X137211028Y-98952074D01*
X137132059Y-99004840D01*
X137064902Y-99071997D01*
X137012136Y-99150966D01*
X137003343Y-99172194D01*
X136935964Y-99172194D01*
X136955984Y-99152174D01*
X137008750Y-99073205D01*
X137045095Y-98985459D01*
X137063624Y-98892309D01*
X137063624Y-98797333D01*
X137045095Y-98704183D01*
X137036302Y-98682954D01*
X137307856Y-98411400D01*
X137777537Y-98411400D01*
X137786330Y-98432628D01*
X137839096Y-98511597D01*
X137906253Y-98578754D01*
X137985222Y-98631520D01*
X138072968Y-98667865D01*
X138166118Y-98686394D01*
X138261094Y-98686394D01*
X138354244Y-98667865D01*
X138441990Y-98631520D01*
X138520959Y-98578754D01*
X138588116Y-98511597D01*
X138640882Y-98432628D01*
X138677227Y-98344882D01*
X138695756Y-98251732D01*
X138695756Y-98156756D01*
X138677227Y-98063606D01*
X138640882Y-97975860D01*
X138609199Y-97928444D01*
X138640882Y-97881028D01*
X138677227Y-97793282D01*
X138695756Y-97700132D01*
X138695756Y-97605156D01*
X138677227Y-97512006D01*
X138640882Y-97424260D01*
X138588116Y-97345291D01*
X138520959Y-97278134D01*
X138441990Y-97225368D01*
X138354244Y-97189023D01*
X138261094Y-97170494D01*
X138166118Y-97170494D01*
X138072968Y-97189023D01*
X137985222Y-97225368D01*
X137906253Y-97278134D01*
X137839096Y-97345291D01*
X137786330Y-97424260D01*
X137777537Y-97445488D01*
X137067438Y-97445488D01*
X137050521Y-97443822D01*
X137033605Y-97445488D01*
X137033595Y-97445488D01*
X136982958Y-97450475D01*
X136917991Y-97470183D01*
X136894190Y-97482905D01*
X136858116Y-97502186D01*
X136824472Y-97529798D01*
X136805637Y-97545256D01*
X136794849Y-97558401D01*
X136471008Y-97882243D01*
X136471008Y-97789663D01*
X136467895Y-97774012D01*
X136501032Y-97767421D01*
X136588778Y-97731076D01*
X136667747Y-97678310D01*
X136734904Y-97611153D01*
X136787670Y-97532184D01*
X136824015Y-97444438D01*
X136842544Y-97351288D01*
X136842544Y-97256312D01*
X136824015Y-97163162D01*
X136787670Y-97075416D01*
X136755987Y-97028000D01*
X136787670Y-96980584D01*
X136824015Y-96892838D01*
X136842544Y-96799688D01*
X136842544Y-96704712D01*
X136824015Y-96611562D01*
X136812743Y-96584349D01*
X137419705Y-96584349D01*
X137884294Y-97048939D01*
X137894729Y-97061654D01*
X137945488Y-97103311D01*
X138003399Y-97134265D01*
X138066235Y-97153326D01*
X138115216Y-97158150D01*
X138115217Y-97158150D01*
X138131582Y-97159762D01*
X138147947Y-97158150D01*
X138693033Y-97158150D01*
X138709400Y-97159762D01*
X138725767Y-97158150D01*
X138774748Y-97153326D01*
X138837584Y-97134265D01*
X138895495Y-97103311D01*
X138946254Y-97061654D01*
X138956693Y-97048934D01*
X139640190Y-96365438D01*
X139652905Y-96355003D01*
X139694562Y-96304244D01*
X139725516Y-96246333D01*
X139733955Y-96218512D01*
X140106850Y-96218512D01*
X140106850Y-96313488D01*
X140125379Y-96406638D01*
X140161724Y-96494384D01*
X140214490Y-96573353D01*
X140281647Y-96640510D01*
X140360616Y-96693276D01*
X140448362Y-96729621D01*
X140541512Y-96748150D01*
X140636488Y-96748150D01*
X140729638Y-96729621D01*
X140817384Y-96693276D01*
X140896353Y-96640510D01*
X140963510Y-96573353D01*
X141016276Y-96494384D01*
X141052621Y-96406638D01*
X141071150Y-96313488D01*
X141071150Y-96218512D01*
X141052621Y-96125362D01*
X141016276Y-96037616D01*
X140963510Y-95958647D01*
X140896353Y-95891490D01*
X140817384Y-95838724D01*
X140729638Y-95802379D01*
X140636488Y-95783850D01*
X140541512Y-95783850D01*
X140448362Y-95802379D01*
X140360616Y-95838724D01*
X140281647Y-95891490D01*
X140214490Y-95958647D01*
X140161724Y-96037616D01*
X140125379Y-96125362D01*
X140106850Y-96218512D01*
X139733955Y-96218512D01*
X139744577Y-96183497D01*
X139749401Y-96134516D01*
X139749401Y-96134507D01*
X139751012Y-96118150D01*
X139749401Y-96101793D01*
X139749401Y-96025764D01*
X139790561Y-95984604D01*
X139843327Y-95905635D01*
X139879672Y-95817889D01*
X139898201Y-95724739D01*
X139898201Y-95629763D01*
X139879672Y-95536613D01*
X139843327Y-95448867D01*
X139790561Y-95369898D01*
X139723404Y-95302741D01*
X139644435Y-95249975D01*
X139556689Y-95213630D01*
X139463539Y-95195101D01*
X139368563Y-95195101D01*
X139275413Y-95213630D01*
X139187667Y-95249975D01*
X139108698Y-95302741D01*
X139041541Y-95369898D01*
X138988775Y-95448867D01*
X138972976Y-95487009D01*
X138967966Y-95483661D01*
X138880220Y-95447316D01*
X138787070Y-95428787D01*
X138692094Y-95428787D01*
X138598944Y-95447316D01*
X138577715Y-95456109D01*
X137740415Y-94618810D01*
X137729625Y-94605662D01*
X137677145Y-94562592D01*
X137617271Y-94530589D01*
X137552304Y-94510881D01*
X137501667Y-94505894D01*
X137501656Y-94505894D01*
X137484740Y-94504228D01*
X137467824Y-94505894D01*
X136199442Y-94505894D01*
X136189496Y-94493775D01*
X136137016Y-94450705D01*
X136077142Y-94418702D01*
X136012175Y-94398994D01*
X135961538Y-94394007D01*
X135961527Y-94394007D01*
X135944611Y-94392341D01*
X135927695Y-94394007D01*
X135678114Y-94394007D01*
X135643443Y-94375475D01*
X135594970Y-94360771D01*
X135544560Y-94355806D01*
X133944360Y-94355806D01*
X133893950Y-94360771D01*
X133845477Y-94375475D01*
X133800804Y-94399353D01*
X133761648Y-94431488D01*
X133729513Y-94470644D01*
X133705635Y-94515317D01*
X133690931Y-94563790D01*
X133685966Y-94614200D01*
X133685966Y-94863120D01*
X133690931Y-94913530D01*
X133705635Y-94962003D01*
X133719985Y-94988850D01*
X133705635Y-95015697D01*
X133690931Y-95064170D01*
X133685966Y-95114580D01*
X133685966Y-95258132D01*
X133644045Y-95249793D01*
X133549069Y-95249793D01*
X133455919Y-95268322D01*
X133368173Y-95304667D01*
X133289204Y-95357433D01*
X133222047Y-95424590D01*
X133221450Y-95425483D01*
X133221450Y-93737491D01*
X144991829Y-93737491D01*
X144991829Y-93832467D01*
X145010358Y-93925617D01*
X145046703Y-94013363D01*
X145099469Y-94092332D01*
X145166626Y-94159489D01*
X145245595Y-94212255D01*
X145333341Y-94248600D01*
X145389274Y-94259726D01*
X145400400Y-94315659D01*
X145436745Y-94403405D01*
X145489511Y-94482374D01*
X145556668Y-94549531D01*
X145635637Y-94602297D01*
X145723383Y-94638642D01*
X145816533Y-94657171D01*
X145858759Y-94657171D01*
X146340246Y-95138659D01*
X146340246Y-95349060D01*
X146345211Y-95399470D01*
X146359915Y-95447943D01*
X146383793Y-95492616D01*
X146387924Y-95497650D01*
X146383793Y-95502684D01*
X146359915Y-95547357D01*
X146345211Y-95595830D01*
X146340246Y-95646240D01*
X146340246Y-96347280D01*
X146345211Y-96397690D01*
X146359915Y-96446163D01*
X146383793Y-96490836D01*
X146415928Y-96529992D01*
X146455084Y-96562127D01*
X146499757Y-96586005D01*
X146548230Y-96600709D01*
X146598640Y-96605674D01*
X148198840Y-96605674D01*
X148249250Y-96600709D01*
X148297723Y-96586005D01*
X148342396Y-96562127D01*
X148381552Y-96529992D01*
X148410774Y-96494386D01*
X148695650Y-96779263D01*
X148695650Y-96821488D01*
X148714179Y-96914638D01*
X148750524Y-97002384D01*
X148803290Y-97081353D01*
X148870447Y-97148510D01*
X148949416Y-97201276D01*
X149037162Y-97237621D01*
X149130312Y-97256150D01*
X149225288Y-97256150D01*
X149318438Y-97237621D01*
X149384747Y-97210155D01*
X149384747Y-97269841D01*
X149000961Y-97653627D01*
X148457234Y-97653627D01*
X148457234Y-97647760D01*
X148452269Y-97597350D01*
X148437565Y-97548877D01*
X148413687Y-97504204D01*
X148381552Y-97465048D01*
X148342396Y-97432913D01*
X148297723Y-97409035D01*
X148249250Y-97394331D01*
X148198840Y-97389366D01*
X146598640Y-97389366D01*
X146548230Y-97394331D01*
X146499757Y-97409035D01*
X146455084Y-97432913D01*
X146415928Y-97465048D01*
X146383793Y-97504204D01*
X146359915Y-97548877D01*
X146345211Y-97597350D01*
X146340246Y-97647760D01*
X146340246Y-98348800D01*
X146345211Y-98399210D01*
X146359915Y-98447683D01*
X146383793Y-98492356D01*
X146387924Y-98497390D01*
X146383793Y-98502424D01*
X146359915Y-98547097D01*
X146345211Y-98595570D01*
X146340246Y-98645980D01*
X146340246Y-98650718D01*
X146328783Y-98651847D01*
X146328773Y-98651847D01*
X146278136Y-98656834D01*
X146213169Y-98676542D01*
X146153295Y-98708545D01*
X146100815Y-98751615D01*
X146090027Y-98764760D01*
X145663738Y-99191050D01*
X145621512Y-99191050D01*
X145528362Y-99209579D01*
X145440616Y-99245924D01*
X145361647Y-99298690D01*
X145294490Y-99365847D01*
X145241724Y-99444816D01*
X145205379Y-99532562D01*
X145186850Y-99625712D01*
X145186850Y-99720688D01*
X145205379Y-99813838D01*
X145241724Y-99901584D01*
X145273407Y-99949000D01*
X145241724Y-99996416D01*
X145205379Y-100084162D01*
X145186850Y-100177312D01*
X145186850Y-100272288D01*
X145205379Y-100365438D01*
X145241724Y-100453184D01*
X145294490Y-100532153D01*
X145361647Y-100599310D01*
X145440616Y-100652076D01*
X145528362Y-100688421D01*
X145621512Y-100706950D01*
X145663738Y-100706950D01*
X146186547Y-101229760D01*
X146197335Y-101242905D01*
X146249815Y-101285975D01*
X146309689Y-101317978D01*
X146340246Y-101327248D01*
X146340246Y-101348540D01*
X146345211Y-101398950D01*
X146359915Y-101447423D01*
X146383793Y-101492096D01*
X146415928Y-101531252D01*
X146455084Y-101563387D01*
X146499757Y-101587265D01*
X146548230Y-101601969D01*
X146598640Y-101606934D01*
X148198840Y-101606934D01*
X148249250Y-101601969D01*
X148297723Y-101587265D01*
X148342396Y-101563387D01*
X148381552Y-101531252D01*
X148413687Y-101492096D01*
X148437565Y-101447423D01*
X148452269Y-101398950D01*
X148457234Y-101348540D01*
X148457234Y-100647500D01*
X148452269Y-100597090D01*
X148437565Y-100548617D01*
X148413687Y-100503944D01*
X148381552Y-100464788D01*
X148342396Y-100432653D01*
X148297723Y-100408775D01*
X148249250Y-100394071D01*
X148198840Y-100389106D01*
X146598640Y-100389106D01*
X146548230Y-100394071D01*
X146499757Y-100408775D01*
X146455084Y-100432653D01*
X146415928Y-100464788D01*
X146407126Y-100475513D01*
X146151150Y-100219538D01*
X146151150Y-100177312D01*
X146132621Y-100084162D01*
X146096276Y-99996416D01*
X146064593Y-99949000D01*
X146096276Y-99901584D01*
X146132621Y-99813838D01*
X146147320Y-99739942D01*
X154487850Y-99739942D01*
X154487850Y-99904058D01*
X154519868Y-100065021D01*
X154582672Y-100216644D01*
X154673850Y-100353102D01*
X154789898Y-100469150D01*
X154926356Y-100560328D01*
X155077979Y-100623132D01*
X155238942Y-100655150D01*
X155403058Y-100655150D01*
X155564021Y-100623132D01*
X155715644Y-100560328D01*
X155852102Y-100469150D01*
X155968150Y-100353102D01*
X156059328Y-100216644D01*
X156122132Y-100065021D01*
X156154150Y-99904058D01*
X156154150Y-99739942D01*
X156122132Y-99578979D01*
X156059328Y-99427356D01*
X155968150Y-99290898D01*
X155852102Y-99174850D01*
X155715644Y-99083672D01*
X155564021Y-99020868D01*
X155403058Y-98988850D01*
X155238942Y-98988850D01*
X155077979Y-99020868D01*
X154926356Y-99083672D01*
X154789898Y-99174850D01*
X154673850Y-99290898D01*
X154582672Y-99427356D01*
X154519868Y-99578979D01*
X154487850Y-99739942D01*
X146147320Y-99739942D01*
X146151150Y-99720688D01*
X146151150Y-99678462D01*
X146368203Y-99461409D01*
X146383793Y-99490576D01*
X146415928Y-99529732D01*
X146455084Y-99561867D01*
X146499757Y-99585745D01*
X146548230Y-99600449D01*
X146598640Y-99605414D01*
X148198840Y-99605414D01*
X148249250Y-99600449D01*
X148297723Y-99585745D01*
X148342396Y-99561867D01*
X148381552Y-99529732D01*
X148413687Y-99490576D01*
X148437565Y-99445903D01*
X148452269Y-99397430D01*
X148457234Y-99347020D01*
X148457234Y-98645980D01*
X148452269Y-98595570D01*
X148437565Y-98547097D01*
X148413687Y-98502424D01*
X148409556Y-98497390D01*
X148413687Y-98492356D01*
X148437565Y-98447683D01*
X148452269Y-98399210D01*
X148457234Y-98348800D01*
X148457234Y-98342933D01*
X149126804Y-98342933D01*
X149143720Y-98344599D01*
X149160636Y-98342933D01*
X149160647Y-98342933D01*
X149211284Y-98337946D01*
X149276251Y-98318238D01*
X149336125Y-98286235D01*
X149388605Y-98243165D01*
X149399398Y-98230014D01*
X149961139Y-97668273D01*
X149974284Y-97657485D01*
X149985791Y-97643465D01*
X150017355Y-97605005D01*
X150049358Y-97545131D01*
X150069066Y-97480164D01*
X150070091Y-97469757D01*
X150074053Y-97429527D01*
X150074053Y-97429519D01*
X150075719Y-97412600D01*
X150074053Y-97395681D01*
X150074053Y-97111210D01*
X150103910Y-97081353D01*
X150156676Y-97002384D01*
X150193021Y-96914638D01*
X150211550Y-96821488D01*
X150211550Y-96726512D01*
X150193021Y-96633362D01*
X150156676Y-96545616D01*
X150103910Y-96466647D01*
X150036753Y-96399490D01*
X149957784Y-96346724D01*
X149870038Y-96310379D01*
X149776888Y-96291850D01*
X149681912Y-96291850D01*
X149588762Y-96310379D01*
X149501016Y-96346724D01*
X149453600Y-96378407D01*
X149406184Y-96346724D01*
X149318438Y-96310379D01*
X149225288Y-96291850D01*
X149183063Y-96291850D01*
X148656238Y-95765026D01*
X148645445Y-95751875D01*
X148592965Y-95708805D01*
X148533091Y-95676802D01*
X148468124Y-95657094D01*
X148457234Y-95656021D01*
X148457234Y-95646240D01*
X148452269Y-95595830D01*
X148437565Y-95547357D01*
X148413687Y-95502684D01*
X148409556Y-95497650D01*
X148413687Y-95492616D01*
X148437565Y-95447943D01*
X148452269Y-95399470D01*
X148457234Y-95349060D01*
X148457234Y-94648020D01*
X148452269Y-94597610D01*
X148445383Y-94574910D01*
X148786733Y-94574910D01*
X148798702Y-94586879D01*
X148816696Y-94608805D01*
X148853053Y-94638642D01*
X148904197Y-94680615D01*
X148929688Y-94694240D01*
X149004028Y-94733976D01*
X149112350Y-94766835D01*
X149213904Y-94776837D01*
X149224999Y-94777930D01*
X149225000Y-94777930D01*
X149337651Y-94766835D01*
X149445973Y-94733976D01*
X149545803Y-94680615D01*
X149633305Y-94608805D01*
X149705115Y-94521303D01*
X149758476Y-94421473D01*
X149791335Y-94313151D01*
X149799650Y-94228726D01*
X149799650Y-94228723D01*
X149802430Y-94200499D01*
X149799650Y-94172276D01*
X149799650Y-93473774D01*
X149791335Y-93389349D01*
X149758476Y-93281027D01*
X149705115Y-93181197D01*
X149633305Y-93093695D01*
X149545802Y-93021885D01*
X149445972Y-92968524D01*
X149337650Y-92935665D01*
X149225000Y-92924570D01*
X149112349Y-92935665D01*
X149004027Y-92968524D01*
X148904197Y-93021885D01*
X148816695Y-93093695D01*
X148744885Y-93181198D01*
X148691524Y-93281028D01*
X148658665Y-93389350D01*
X148655094Y-93425610D01*
X148443879Y-93425610D01*
X148452269Y-93397950D01*
X148457234Y-93347540D01*
X148457234Y-92646500D01*
X148452269Y-92596090D01*
X148437565Y-92547617D01*
X148413687Y-92502944D01*
X148381552Y-92463788D01*
X148342396Y-92431653D01*
X148297723Y-92407775D01*
X148249250Y-92393071D01*
X148198840Y-92388106D01*
X146598640Y-92388106D01*
X146548230Y-92393071D01*
X146499757Y-92407775D01*
X146455084Y-92431653D01*
X146415928Y-92463788D01*
X146383793Y-92502944D01*
X146359915Y-92547617D01*
X146345211Y-92596090D01*
X146340246Y-92646500D01*
X146340246Y-92652367D01*
X146278853Y-92652367D01*
X146261937Y-92650701D01*
X146245021Y-92652367D01*
X146245011Y-92652367D01*
X146194374Y-92657354D01*
X146129407Y-92677062D01*
X146069533Y-92709065D01*
X146017053Y-92752135D01*
X146006265Y-92765280D01*
X145468717Y-93302829D01*
X145426491Y-93302829D01*
X145333341Y-93321358D01*
X145245595Y-93357703D01*
X145166626Y-93410469D01*
X145099469Y-93477626D01*
X145046703Y-93556595D01*
X145010358Y-93644341D01*
X144991829Y-93737491D01*
X133221450Y-93737491D01*
X133221450Y-90976942D01*
X144454850Y-90976942D01*
X144454850Y-91141058D01*
X144486868Y-91302021D01*
X144549672Y-91453644D01*
X144640850Y-91590102D01*
X144756898Y-91706150D01*
X144893356Y-91797328D01*
X145044979Y-91860132D01*
X145205942Y-91892150D01*
X145370058Y-91892150D01*
X145531021Y-91860132D01*
X145682644Y-91797328D01*
X145819102Y-91706150D01*
X145935150Y-91590102D01*
X146026328Y-91453644D01*
X146089132Y-91302021D01*
X146121150Y-91141058D01*
X146121150Y-90976942D01*
X146111756Y-90929713D01*
X146752780Y-90929713D01*
X146816044Y-91099147D01*
X146929066Y-91241823D01*
X147067751Y-91359708D01*
X147226769Y-91448271D01*
X147400010Y-91504110D01*
X148349970Y-91504110D01*
X148349970Y-90793570D01*
X148743670Y-90793570D01*
X148743670Y-91504110D01*
X149693630Y-91504110D01*
X149866871Y-91448271D01*
X150025889Y-91359708D01*
X150164574Y-91241823D01*
X150277596Y-91099147D01*
X150340860Y-90929713D01*
X150316580Y-90793570D01*
X148743670Y-90793570D01*
X148349970Y-90793570D01*
X146777060Y-90793570D01*
X146752780Y-90929713D01*
X146111756Y-90929713D01*
X146089132Y-90815979D01*
X146026328Y-90664356D01*
X145935150Y-90527898D01*
X145819102Y-90411850D01*
X145682644Y-90320672D01*
X145531021Y-90257868D01*
X145370058Y-90225850D01*
X145205942Y-90225850D01*
X145044979Y-90257868D01*
X144893356Y-90320672D01*
X144756898Y-90411850D01*
X144640850Y-90527898D01*
X144549672Y-90664356D01*
X144486868Y-90815979D01*
X144454850Y-90976942D01*
X133221450Y-90976942D01*
X133221450Y-90221450D01*
X146768566Y-90221450D01*
X146752780Y-90263727D01*
G37*
%TD.AperFunction*%
%TD*%
M02*
