%TF.GenerationSoftware,KiCad,Pcbnew,(5.1.10)-1*%
%TF.CreationDate,2022-01-31T11:01:00+08:00*%
%TF.ProjectId,VL160,564c3136-302e-46b6-9963-61645f706362,rev?*%
%TF.SameCoordinates,Original*%
%TF.FileFunction,Paste,Top*%
%TF.FilePolarity,Positive*%
%FSLAX46Y46*%
G04 Gerber Fmt 4.6, Leading zero omitted, Abs format (unit mm)*
G04 Created by KiCad (PCBNEW (5.1.10)-1) date 2022-01-31 11:01:00*
%MOMM*%
%LPD*%
G01*
G04 APERTURE LIST*
%ADD10R,0.700000X0.300000*%
%ADD11O,0.701040X0.200660*%
%ADD12R,1.998980X2.999740*%
%ADD13O,0.200660X0.701040*%
%ADD14R,0.900000X0.800000*%
G04 APERTURE END LIST*
D10*
%TO.C,J1*%
X135830000Y-99405000D03*
X135830000Y-97905000D03*
X135830000Y-98405000D03*
X135830000Y-98905000D03*
X135830000Y-99905000D03*
X135830000Y-97405000D03*
X135830000Y-96905000D03*
X135830000Y-96405000D03*
X135830000Y-95905000D03*
X135830000Y-95405000D03*
X135830000Y-94905000D03*
X135830000Y-94405000D03*
%TD*%
%TO.C,C1*%
G36*
G01*
X134041000Y-90936000D02*
X134041000Y-91436000D01*
G75*
G02*
X133816000Y-91661000I-225000J0D01*
G01*
X133366000Y-91661000D01*
G75*
G02*
X133141000Y-91436000I0J225000D01*
G01*
X133141000Y-90936000D01*
G75*
G02*
X133366000Y-90711000I225000J0D01*
G01*
X133816000Y-90711000D01*
G75*
G02*
X134041000Y-90936000I0J-225000D01*
G01*
G37*
G36*
G01*
X135591000Y-90936000D02*
X135591000Y-91436000D01*
G75*
G02*
X135366000Y-91661000I-225000J0D01*
G01*
X134916000Y-91661000D01*
G75*
G02*
X134691000Y-91436000I0J225000D01*
G01*
X134691000Y-90936000D01*
G75*
G02*
X134916000Y-90711000I225000J0D01*
G01*
X135366000Y-90711000D01*
G75*
G02*
X135591000Y-90936000I0J-225000D01*
G01*
G37*
%TD*%
%TO.C,C2*%
G36*
G01*
X139756000Y-92871000D02*
X139756000Y-93371000D01*
G75*
G02*
X139531000Y-93596000I-225000J0D01*
G01*
X139081000Y-93596000D01*
G75*
G02*
X138856000Y-93371000I0J225000D01*
G01*
X138856000Y-92871000D01*
G75*
G02*
X139081000Y-92646000I225000J0D01*
G01*
X139531000Y-92646000D01*
G75*
G02*
X139756000Y-92871000I0J-225000D01*
G01*
G37*
G36*
G01*
X141306000Y-92871000D02*
X141306000Y-93371000D01*
G75*
G02*
X141081000Y-93596000I-225000J0D01*
G01*
X140631000Y-93596000D01*
G75*
G02*
X140406000Y-93371000I0J225000D01*
G01*
X140406000Y-92871000D01*
G75*
G02*
X140631000Y-92646000I225000J0D01*
G01*
X141081000Y-92646000D01*
G75*
G02*
X141306000Y-92871000I0J-225000D01*
G01*
G37*
%TD*%
%TO.C,C3*%
G36*
G01*
X139756000Y-94268000D02*
X139756000Y-94768000D01*
G75*
G02*
X139531000Y-94993000I-225000J0D01*
G01*
X139081000Y-94993000D01*
G75*
G02*
X138856000Y-94768000I0J225000D01*
G01*
X138856000Y-94268000D01*
G75*
G02*
X139081000Y-94043000I225000J0D01*
G01*
X139531000Y-94043000D01*
G75*
G02*
X139756000Y-94268000I0J-225000D01*
G01*
G37*
G36*
G01*
X141306000Y-94268000D02*
X141306000Y-94768000D01*
G75*
G02*
X141081000Y-94993000I-225000J0D01*
G01*
X140631000Y-94993000D01*
G75*
G02*
X140406000Y-94768000I0J225000D01*
G01*
X140406000Y-94268000D01*
G75*
G02*
X140631000Y-94043000I225000J0D01*
G01*
X141081000Y-94043000D01*
G75*
G02*
X141306000Y-94268000I0J-225000D01*
G01*
G37*
%TD*%
%TO.C,R1*%
G36*
G01*
X138028000Y-102787000D02*
X138578000Y-102787000D01*
G75*
G02*
X138778000Y-102987000I0J-200000D01*
G01*
X138778000Y-103387000D01*
G75*
G02*
X138578000Y-103587000I-200000J0D01*
G01*
X138028000Y-103587000D01*
G75*
G02*
X137828000Y-103387000I0J200000D01*
G01*
X137828000Y-102987000D01*
G75*
G02*
X138028000Y-102787000I200000J0D01*
G01*
G37*
G36*
G01*
X138028000Y-101137000D02*
X138578000Y-101137000D01*
G75*
G02*
X138778000Y-101337000I0J-200000D01*
G01*
X138778000Y-101737000D01*
G75*
G02*
X138578000Y-101937000I-200000J0D01*
G01*
X138028000Y-101937000D01*
G75*
G02*
X137828000Y-101737000I0J200000D01*
G01*
X137828000Y-101337000D01*
G75*
G02*
X138028000Y-101137000I200000J0D01*
G01*
G37*
%TD*%
%TO.C,R2*%
G36*
G01*
X139425000Y-102787000D02*
X139975000Y-102787000D01*
G75*
G02*
X140175000Y-102987000I0J-200000D01*
G01*
X140175000Y-103387000D01*
G75*
G02*
X139975000Y-103587000I-200000J0D01*
G01*
X139425000Y-103587000D01*
G75*
G02*
X139225000Y-103387000I0J200000D01*
G01*
X139225000Y-102987000D01*
G75*
G02*
X139425000Y-102787000I200000J0D01*
G01*
G37*
G36*
G01*
X139425000Y-101137000D02*
X139975000Y-101137000D01*
G75*
G02*
X140175000Y-101337000I0J-200000D01*
G01*
X140175000Y-101737000D01*
G75*
G02*
X139975000Y-101937000I-200000J0D01*
G01*
X139425000Y-101937000D01*
G75*
G02*
X139225000Y-101737000I0J200000D01*
G01*
X139225000Y-101337000D01*
G75*
G02*
X139425000Y-101137000I200000J0D01*
G01*
G37*
%TD*%
%TO.C,R3*%
G36*
G01*
X143300000Y-94729500D02*
X143300000Y-94179500D01*
G75*
G02*
X143500000Y-93979500I200000J0D01*
G01*
X143900000Y-93979500D01*
G75*
G02*
X144100000Y-94179500I0J-200000D01*
G01*
X144100000Y-94729500D01*
G75*
G02*
X143900000Y-94929500I-200000J0D01*
G01*
X143500000Y-94929500D01*
G75*
G02*
X143300000Y-94729500I0J200000D01*
G01*
G37*
G36*
G01*
X141650000Y-94729500D02*
X141650000Y-94179500D01*
G75*
G02*
X141850000Y-93979500I200000J0D01*
G01*
X142250000Y-93979500D01*
G75*
G02*
X142450000Y-94179500I0J-200000D01*
G01*
X142450000Y-94729500D01*
G75*
G02*
X142250000Y-94929500I-200000J0D01*
G01*
X141850000Y-94929500D01*
G75*
G02*
X141650000Y-94729500I0J200000D01*
G01*
G37*
%TD*%
%TO.C,R4*%
G36*
G01*
X143300000Y-93396000D02*
X143300000Y-92846000D01*
G75*
G02*
X143500000Y-92646000I200000J0D01*
G01*
X143900000Y-92646000D01*
G75*
G02*
X144100000Y-92846000I0J-200000D01*
G01*
X144100000Y-93396000D01*
G75*
G02*
X143900000Y-93596000I-200000J0D01*
G01*
X143500000Y-93596000D01*
G75*
G02*
X143300000Y-93396000I0J200000D01*
G01*
G37*
G36*
G01*
X141650000Y-93396000D02*
X141650000Y-92846000D01*
G75*
G02*
X141850000Y-92646000I200000J0D01*
G01*
X142250000Y-92646000D01*
G75*
G02*
X142450000Y-92846000I0J-200000D01*
G01*
X142450000Y-93396000D01*
G75*
G02*
X142250000Y-93596000I-200000J0D01*
G01*
X141850000Y-93596000D01*
G75*
G02*
X141650000Y-93396000I0J200000D01*
G01*
G37*
%TD*%
%TO.C,R5*%
G36*
G01*
X143300000Y-92062500D02*
X143300000Y-91512500D01*
G75*
G02*
X143500000Y-91312500I200000J0D01*
G01*
X143900000Y-91312500D01*
G75*
G02*
X144100000Y-91512500I0J-200000D01*
G01*
X144100000Y-92062500D01*
G75*
G02*
X143900000Y-92262500I-200000J0D01*
G01*
X143500000Y-92262500D01*
G75*
G02*
X143300000Y-92062500I0J200000D01*
G01*
G37*
G36*
G01*
X141650000Y-92062500D02*
X141650000Y-91512500D01*
G75*
G02*
X141850000Y-91312500I200000J0D01*
G01*
X142250000Y-91312500D01*
G75*
G02*
X142450000Y-91512500I0J-200000D01*
G01*
X142450000Y-92062500D01*
G75*
G02*
X142250000Y-92262500I-200000J0D01*
G01*
X141850000Y-92262500D01*
G75*
G02*
X141650000Y-92062500I0J200000D01*
G01*
G37*
%TD*%
D11*
%TO.C,U1*%
X139905740Y-96654140D03*
X139905740Y-97055460D03*
X139905740Y-97454240D03*
X139905740Y-97855560D03*
X139905740Y-98254340D03*
X139905740Y-98655660D03*
X139905740Y-99054440D03*
X139905740Y-99455760D03*
X139905740Y-99854540D03*
X139905740Y-100255860D03*
D12*
X141605000Y-98455000D03*
D11*
X143304260Y-96654140D03*
X143304260Y-97055460D03*
X143304260Y-97454240D03*
X143304260Y-97855560D03*
X143304260Y-98254340D03*
X143304260Y-98655660D03*
X143304260Y-99054440D03*
X143304260Y-99455760D03*
X143304260Y-99854540D03*
X143304260Y-100255860D03*
D13*
X141005560Y-96255360D03*
X141404340Y-96255360D03*
X141808200Y-96255360D03*
X142204440Y-96255360D03*
X141005560Y-100654640D03*
X141404340Y-100654640D03*
X141808200Y-100654640D03*
X142204440Y-100654640D03*
%TD*%
D14*
%TO.C,U2*%
X136287000Y-91694000D03*
X138287000Y-90744000D03*
X138287000Y-92644000D03*
%TD*%
M02*
