%TF.GenerationSoftware,KiCad,Pcbnew,(5.1.10)-1*%
%TF.CreationDate,2022-01-11T16:22:32+08:00*%
%TF.ProjectId,VL160,564c3136-302e-46b6-9963-61645f706362,rev?*%
%TF.SameCoordinates,Original*%
%TF.FileFunction,Legend,Bot*%
%TF.FilePolarity,Positive*%
%FSLAX46Y46*%
G04 Gerber Fmt 4.6, Leading zero omitted, Abs format (unit mm)*
G04 Created by KiCad (PCBNEW (5.1.10)-1) date 2022-01-11 16:22:32*
%MOMM*%
%LPD*%
G01*
G04 APERTURE LIST*
%ADD10C,0.254000*%
%ADD11C,0.120000*%
G04 APERTURE END LIST*
D10*
%TO.C,J1*%
X135252380Y-92745700D02*
X135252380Y-93171700D01*
X135252380Y-101254700D02*
X135252380Y-100825300D01*
X132953380Y-101254700D02*
X132953380Y-92745700D01*
X124653380Y-101254700D02*
X124653380Y-92745700D01*
X135252380Y-101254700D02*
X124653380Y-101254700D01*
X124653380Y-92745700D02*
X135252380Y-92745700D01*
D11*
X136431300Y-92102842D02*
X136431300Y-92745700D01*
X136474157Y-92874271D01*
X136559871Y-92959985D01*
X136688442Y-93002842D01*
X136774157Y-93002842D01*
X135531300Y-93002842D02*
X136045585Y-93002842D01*
X135788442Y-93002842D02*
X135788442Y-92102842D01*
X135874157Y-92231414D01*
X135959871Y-92317128D01*
X136045585Y-92359985D01*
%TO.C,J2*%
X145842000Y-92090142D02*
X145842000Y-92733000D01*
X145884857Y-92861571D01*
X145970571Y-92947285D01*
X146099142Y-92990142D01*
X146184857Y-92990142D01*
X145456285Y-92175857D02*
X145413428Y-92133000D01*
X145327714Y-92090142D01*
X145113428Y-92090142D01*
X145027714Y-92133000D01*
X144984857Y-92175857D01*
X144942000Y-92261571D01*
X144942000Y-92347285D01*
X144984857Y-92475857D01*
X145499142Y-92990142D01*
X144942000Y-92990142D01*
%TD*%
M02*
