%TF.GenerationSoftware,KiCad,Pcbnew,(5.1.10)-1*%
%TF.CreationDate,2022-01-11T16:22:32+08:00*%
%TF.ProjectId,VL160,564c3136-302e-46b6-9963-61645f706362,rev?*%
%TF.SameCoordinates,Original*%
%TF.FileFunction,Copper,L1,Top*%
%TF.FilePolarity,Positive*%
%FSLAX46Y46*%
G04 Gerber Fmt 4.6, Leading zero omitted, Abs format (unit mm)*
G04 Created by KiCad (PCBNEW (5.1.10)-1) date 2022-01-11 16:22:32*
%MOMM*%
%LPD*%
G01*
G04 APERTURE LIST*
%TA.AperFunction,SMDPad,CuDef*%
%ADD10R,2.600960X0.449580*%
%TD*%
%TA.AperFunction,SMDPad,CuDef*%
%ADD11R,1.600200X0.248920*%
%TD*%
%TA.AperFunction,SMDPad,CuDef*%
%ADD12O,0.701040X0.200660*%
%TD*%
%TA.AperFunction,SMDPad,CuDef*%
%ADD13R,1.998980X2.999740*%
%TD*%
%TA.AperFunction,SMDPad,CuDef*%
%ADD14O,0.200660X0.701040*%
%TD*%
%TA.AperFunction,ComponentPad*%
%ADD15O,3.200400X1.300480*%
%TD*%
%TA.AperFunction,SMDPad,CuDef*%
%ADD16R,0.900000X0.800000*%
%TD*%
%TA.AperFunction,ViaPad*%
%ADD17C,0.450000*%
%TD*%
%TA.AperFunction,ViaPad*%
%ADD18C,0.600000*%
%TD*%
%TA.AperFunction,Conductor*%
%ADD19C,0.508000*%
%TD*%
%TA.AperFunction,Conductor*%
%ADD20C,0.254000*%
%TD*%
%TA.AperFunction,Conductor*%
%ADD21C,0.175006*%
%TD*%
%TA.AperFunction,Conductor*%
%ADD22C,0.152400*%
%TD*%
%TA.AperFunction,Conductor*%
%ADD23C,0.114300*%
%TD*%
%TA.AperFunction,Conductor*%
%ADD24C,0.100000*%
%TD*%
G04 APERTURE END LIST*
D10*
%TO.P,J1,S1*%
%TO.N,GND*%
X135242300Y-100313960D03*
D11*
%TO.P,J1,B1*%
X134744460Y-99739920D03*
%TO.P,J1,B2*%
%TO.N,/TX2+*%
X134744460Y-99239540D03*
%TO.P,J1,B3*%
%TO.N,/TX2-*%
X134744460Y-98739160D03*
%TO.P,J1,B4*%
%TO.N,VBUS*%
X134744460Y-98238780D03*
%TO.P,J1,B5*%
%TO.N,/CC2*%
X134744460Y-97738400D03*
%TO.P,J1,B6*%
%TO.N,/D+*%
X134744460Y-97238020D03*
%TO.P,J1,B7*%
%TO.N,/D-*%
X134744460Y-96740180D03*
%TO.P,J1,B8*%
%TO.N,N/C*%
X134744460Y-96239800D03*
%TO.P,J1,B9*%
%TO.N,VBUS*%
X134744460Y-95739420D03*
%TO.P,J1,B10*%
%TO.N,/RX1-*%
X134744460Y-95239040D03*
%TO.P,J1,B11*%
%TO.N,/RX1+*%
X134744460Y-94738660D03*
%TO.P,J1,B12*%
%TO.N,GND*%
X134744460Y-94238280D03*
%TD*%
%TO.P,C1,2*%
%TO.N,GND*%
%TA.AperFunction,SMDPad,CuDef*%
G36*
G01*
X134743000Y-91272000D02*
X134243000Y-91272000D01*
G75*
G02*
X134018000Y-91047000I0J225000D01*
G01*
X134018000Y-90597000D01*
G75*
G02*
X134243000Y-90372000I225000J0D01*
G01*
X134743000Y-90372000D01*
G75*
G02*
X134968000Y-90597000I0J-225000D01*
G01*
X134968000Y-91047000D01*
G75*
G02*
X134743000Y-91272000I-225000J0D01*
G01*
G37*
%TD.AperFunction*%
%TO.P,C1,1*%
%TO.N,VBUS*%
%TA.AperFunction,SMDPad,CuDef*%
G36*
G01*
X134743000Y-92822000D02*
X134243000Y-92822000D01*
G75*
G02*
X134018000Y-92597000I0J225000D01*
G01*
X134018000Y-92147000D01*
G75*
G02*
X134243000Y-91922000I225000J0D01*
G01*
X134743000Y-91922000D01*
G75*
G02*
X134968000Y-92147000I0J-225000D01*
G01*
X134968000Y-92597000D01*
G75*
G02*
X134743000Y-92822000I-225000J0D01*
G01*
G37*
%TD.AperFunction*%
%TD*%
%TO.P,C2,2*%
%TO.N,GND*%
%TA.AperFunction,SMDPad,CuDef*%
G36*
G01*
X139756000Y-92871000D02*
X139756000Y-93371000D01*
G75*
G02*
X139531000Y-93596000I-225000J0D01*
G01*
X139081000Y-93596000D01*
G75*
G02*
X138856000Y-93371000I0J225000D01*
G01*
X138856000Y-92871000D01*
G75*
G02*
X139081000Y-92646000I225000J0D01*
G01*
X139531000Y-92646000D01*
G75*
G02*
X139756000Y-92871000I0J-225000D01*
G01*
G37*
%TD.AperFunction*%
%TO.P,C2,1*%
%TO.N,VCC*%
%TA.AperFunction,SMDPad,CuDef*%
G36*
G01*
X141306000Y-92871000D02*
X141306000Y-93371000D01*
G75*
G02*
X141081000Y-93596000I-225000J0D01*
G01*
X140631000Y-93596000D01*
G75*
G02*
X140406000Y-93371000I0J225000D01*
G01*
X140406000Y-92871000D01*
G75*
G02*
X140631000Y-92646000I225000J0D01*
G01*
X141081000Y-92646000D01*
G75*
G02*
X141306000Y-92871000I0J-225000D01*
G01*
G37*
%TD.AperFunction*%
%TD*%
%TO.P,C3,2*%
%TO.N,GND*%
%TA.AperFunction,SMDPad,CuDef*%
G36*
G01*
X139756000Y-94268000D02*
X139756000Y-94768000D01*
G75*
G02*
X139531000Y-94993000I-225000J0D01*
G01*
X139081000Y-94993000D01*
G75*
G02*
X138856000Y-94768000I0J225000D01*
G01*
X138856000Y-94268000D01*
G75*
G02*
X139081000Y-94043000I225000J0D01*
G01*
X139531000Y-94043000D01*
G75*
G02*
X139756000Y-94268000I0J-225000D01*
G01*
G37*
%TD.AperFunction*%
%TO.P,C3,1*%
%TO.N,VCC*%
%TA.AperFunction,SMDPad,CuDef*%
G36*
G01*
X141306000Y-94268000D02*
X141306000Y-94768000D01*
G75*
G02*
X141081000Y-94993000I-225000J0D01*
G01*
X140631000Y-94993000D01*
G75*
G02*
X140406000Y-94768000I0J225000D01*
G01*
X140406000Y-94268000D01*
G75*
G02*
X140631000Y-94043000I225000J0D01*
G01*
X141081000Y-94043000D01*
G75*
G02*
X141306000Y-94268000I0J-225000D01*
G01*
G37*
%TD.AperFunction*%
%TD*%
%TO.P,R1,2*%
%TO.N,GND*%
%TA.AperFunction,SMDPad,CuDef*%
G36*
G01*
X139488500Y-102563000D02*
X140038500Y-102563000D01*
G75*
G02*
X140238500Y-102763000I0J-200000D01*
G01*
X140238500Y-103163000D01*
G75*
G02*
X140038500Y-103363000I-200000J0D01*
G01*
X139488500Y-103363000D01*
G75*
G02*
X139288500Y-103163000I0J200000D01*
G01*
X139288500Y-102763000D01*
G75*
G02*
X139488500Y-102563000I200000J0D01*
G01*
G37*
%TD.AperFunction*%
%TO.P,R1,1*%
%TO.N,Net-(R1-Pad1)*%
%TA.AperFunction,SMDPad,CuDef*%
G36*
G01*
X139488500Y-100913000D02*
X140038500Y-100913000D01*
G75*
G02*
X140238500Y-101113000I0J-200000D01*
G01*
X140238500Y-101513000D01*
G75*
G02*
X140038500Y-101713000I-200000J0D01*
G01*
X139488500Y-101713000D01*
G75*
G02*
X139288500Y-101513000I0J200000D01*
G01*
X139288500Y-101113000D01*
G75*
G02*
X139488500Y-100913000I200000J0D01*
G01*
G37*
%TD.AperFunction*%
%TD*%
%TO.P,R2,2*%
%TO.N,GND*%
%TA.AperFunction,SMDPad,CuDef*%
G36*
G01*
X142982500Y-102222500D02*
X142982500Y-101672500D01*
G75*
G02*
X143182500Y-101472500I200000J0D01*
G01*
X143582500Y-101472500D01*
G75*
G02*
X143782500Y-101672500I0J-200000D01*
G01*
X143782500Y-102222500D01*
G75*
G02*
X143582500Y-102422500I-200000J0D01*
G01*
X143182500Y-102422500D01*
G75*
G02*
X142982500Y-102222500I0J200000D01*
G01*
G37*
%TD.AperFunction*%
%TO.P,R2,1*%
%TO.N,Net-(R2-Pad1)*%
%TA.AperFunction,SMDPad,CuDef*%
G36*
G01*
X141332500Y-102222500D02*
X141332500Y-101672500D01*
G75*
G02*
X141532500Y-101472500I200000J0D01*
G01*
X141932500Y-101472500D01*
G75*
G02*
X142132500Y-101672500I0J-200000D01*
G01*
X142132500Y-102222500D01*
G75*
G02*
X141932500Y-102422500I-200000J0D01*
G01*
X141532500Y-102422500D01*
G75*
G02*
X141332500Y-102222500I0J200000D01*
G01*
G37*
%TD.AperFunction*%
%TD*%
%TO.P,R3,2*%
%TO.N,Net-(R3-Pad2)*%
%TA.AperFunction,SMDPad,CuDef*%
G36*
G01*
X143300000Y-94729500D02*
X143300000Y-94179500D01*
G75*
G02*
X143500000Y-93979500I200000J0D01*
G01*
X143900000Y-93979500D01*
G75*
G02*
X144100000Y-94179500I0J-200000D01*
G01*
X144100000Y-94729500D01*
G75*
G02*
X143900000Y-94929500I-200000J0D01*
G01*
X143500000Y-94929500D01*
G75*
G02*
X143300000Y-94729500I0J200000D01*
G01*
G37*
%TD.AperFunction*%
%TO.P,R3,1*%
%TO.N,VCC*%
%TA.AperFunction,SMDPad,CuDef*%
G36*
G01*
X141650000Y-94729500D02*
X141650000Y-94179500D01*
G75*
G02*
X141850000Y-93979500I200000J0D01*
G01*
X142250000Y-93979500D01*
G75*
G02*
X142450000Y-94179500I0J-200000D01*
G01*
X142450000Y-94729500D01*
G75*
G02*
X142250000Y-94929500I-200000J0D01*
G01*
X141850000Y-94929500D01*
G75*
G02*
X141650000Y-94729500I0J200000D01*
G01*
G37*
%TD.AperFunction*%
%TD*%
%TO.P,R4,2*%
%TO.N,Net-(R4-Pad2)*%
%TA.AperFunction,SMDPad,CuDef*%
G36*
G01*
X143300000Y-93396000D02*
X143300000Y-92846000D01*
G75*
G02*
X143500000Y-92646000I200000J0D01*
G01*
X143900000Y-92646000D01*
G75*
G02*
X144100000Y-92846000I0J-200000D01*
G01*
X144100000Y-93396000D01*
G75*
G02*
X143900000Y-93596000I-200000J0D01*
G01*
X143500000Y-93596000D01*
G75*
G02*
X143300000Y-93396000I0J200000D01*
G01*
G37*
%TD.AperFunction*%
%TO.P,R4,1*%
%TO.N,VCC*%
%TA.AperFunction,SMDPad,CuDef*%
G36*
G01*
X141650000Y-93396000D02*
X141650000Y-92846000D01*
G75*
G02*
X141850000Y-92646000I200000J0D01*
G01*
X142250000Y-92646000D01*
G75*
G02*
X142450000Y-92846000I0J-200000D01*
G01*
X142450000Y-93396000D01*
G75*
G02*
X142250000Y-93596000I-200000J0D01*
G01*
X141850000Y-93596000D01*
G75*
G02*
X141650000Y-93396000I0J200000D01*
G01*
G37*
%TD.AperFunction*%
%TD*%
%TO.P,R5,2*%
%TO.N,Net-(R5-Pad2)*%
%TA.AperFunction,SMDPad,CuDef*%
G36*
G01*
X143300000Y-92062500D02*
X143300000Y-91512500D01*
G75*
G02*
X143500000Y-91312500I200000J0D01*
G01*
X143900000Y-91312500D01*
G75*
G02*
X144100000Y-91512500I0J-200000D01*
G01*
X144100000Y-92062500D01*
G75*
G02*
X143900000Y-92262500I-200000J0D01*
G01*
X143500000Y-92262500D01*
G75*
G02*
X143300000Y-92062500I0J200000D01*
G01*
G37*
%TD.AperFunction*%
%TO.P,R5,1*%
%TO.N,VCC*%
%TA.AperFunction,SMDPad,CuDef*%
G36*
G01*
X141650000Y-92062500D02*
X141650000Y-91512500D01*
G75*
G02*
X141850000Y-91312500I200000J0D01*
G01*
X142250000Y-91312500D01*
G75*
G02*
X142450000Y-91512500I0J-200000D01*
G01*
X142450000Y-92062500D01*
G75*
G02*
X142250000Y-92262500I-200000J0D01*
G01*
X141850000Y-92262500D01*
G75*
G02*
X141650000Y-92062500I0J200000D01*
G01*
G37*
%TD.AperFunction*%
%TD*%
D12*
%TO.P,U1,1*%
%TO.N,/CC1*%
X139905740Y-96654140D03*
%TO.P,U1,2*%
%TO.N,/TX1+*%
X139905740Y-97055460D03*
%TO.P,U1,3*%
%TO.N,/TX1-*%
X139905740Y-97454240D03*
%TO.P,U1,4*%
%TO.N,/TX2-*%
X139905740Y-97855560D03*
%TO.P,U1,5*%
%TO.N,/TX2+*%
X139905740Y-98254340D03*
%TO.P,U1,6*%
%TO.N,/RX1+*%
X139905740Y-98655660D03*
%TO.P,U1,7*%
%TO.N,/RX1-*%
X139905740Y-99054440D03*
%TO.P,U1,8*%
%TO.N,/RX2-*%
X139905740Y-99455760D03*
%TO.P,U1,9*%
%TO.N,/RX2+*%
X139905740Y-99854540D03*
%TO.P,U1,10*%
%TO.N,Net-(R1-Pad1)*%
X139905740Y-100255860D03*
D13*
%TO.P,U1,29*%
%TO.N,GND*%
X141605000Y-98455000D03*
D12*
%TO.P,U1,24*%
%TO.N,Net-(R4-Pad2)*%
X143304260Y-96654140D03*
%TO.P,U1,23*%
%TO.N,Net-(R5-Pad2)*%
X143304260Y-97055460D03*
%TO.P,U1,22*%
%TO.N,N/C*%
X143304260Y-97454240D03*
%TO.P,U1,21*%
%TO.N,/TX+*%
X143304260Y-97855560D03*
%TO.P,U1,20*%
%TO.N,/TX-*%
X143304260Y-98254340D03*
%TO.P,U1,19*%
%TO.N,GND*%
X143304260Y-98655660D03*
%TO.P,U1,18*%
%TO.N,/RX+*%
X143304260Y-99054440D03*
%TO.P,U1,17*%
%TO.N,/RX-*%
X143304260Y-99455760D03*
%TO.P,U1,16*%
%TO.N,N/C*%
X143304260Y-99854540D03*
%TO.P,U1,15*%
X143304260Y-100255860D03*
D14*
%TO.P,U1,28*%
%TO.N,/CC2*%
X141005560Y-96255360D03*
%TO.P,U1,27*%
%TO.N,VCC*%
X141404340Y-96255360D03*
%TO.P,U1,26*%
X141808200Y-96255360D03*
%TO.P,U1,25*%
%TO.N,Net-(R3-Pad2)*%
X142204440Y-96255360D03*
%TO.P,U1,11*%
%TO.N,N/C*%
X141005560Y-100654640D03*
%TO.P,U1,12*%
X141404340Y-100654640D03*
%TO.P,U1,13*%
%TO.N,Net-(R2-Pad1)*%
X141808200Y-100654640D03*
%TO.P,U1,14*%
%TO.N,N/C*%
X142204440Y-100654640D03*
%TD*%
D15*
%TO.P,J2,10*%
%TO.N,GND*%
X148546820Y-90596720D03*
X148546820Y-103398320D03*
%TD*%
D16*
%TO.P,U2,3*%
%TO.N,VBUS*%
X135906000Y-91978000D03*
%TO.P,U2,2*%
%TO.N,VCC*%
X137906000Y-91028000D03*
%TO.P,U2,1*%
%TO.N,GND*%
X137906000Y-92928000D03*
%TD*%
D17*
%TO.N,GND*%
X137160000Y-93124500D03*
X137160000Y-92075000D03*
X137160000Y-92583000D03*
X135509000Y-102743000D03*
X136017000Y-102743000D03*
X134967500Y-102743000D03*
X155702000Y-93345000D03*
X155702000Y-94361000D03*
X155702000Y-93853000D03*
X155702000Y-94869000D03*
X155702000Y-95885000D03*
X155702000Y-95377000D03*
X141097000Y-97536000D03*
X141605000Y-97536000D03*
X142113000Y-97536000D03*
X142113000Y-98171000D03*
X141605000Y-98171000D03*
X141097000Y-98171000D03*
X141097000Y-98806000D03*
X141605000Y-98806000D03*
X142113000Y-98806000D03*
X142113000Y-99441000D03*
X141605000Y-99441000D03*
X141097000Y-99441000D03*
D18*
%TO.N,VBUS*%
X149225000Y-94200500D03*
X149225000Y-93502000D03*
D17*
X133567510Y-98261510D03*
X133596557Y-95731943D03*
X135997626Y-95755292D03*
%TO.N,/TX1+*%
X138739582Y-95910937D03*
%TO.N,/TX1-*%
X138349540Y-96300979D03*
%TO.N,/CC1*%
X139416051Y-95677251D03*
%TO.N,/D+*%
X136360394Y-96752200D03*
X149729400Y-96774000D03*
%TO.N,/D-*%
X136360394Y-97303800D03*
X149177800Y-96774000D03*
%TO.N,/RX2-*%
X137439412Y-99379350D03*
%TO.N,/RX2+*%
X137439412Y-99930950D03*
%TO.N,/TX2+*%
X138213606Y-98204244D03*
X136581474Y-98844821D03*
%TO.N,/TX2-*%
X138213606Y-97652644D03*
X136191432Y-98454779D03*
%TO.N,/CC2*%
X135988858Y-97837151D03*
X140589000Y-96266000D03*
%TO.N,/TX+*%
X145473979Y-93784979D03*
%TO.N,/TX-*%
X145864021Y-94175021D03*
%TO.N,/RX+*%
X145669000Y-99673200D03*
%TO.N,/RX-*%
X145669000Y-100224800D03*
%TD*%
D19*
%TO.N,VBUS*%
X135512000Y-92372000D02*
X135906000Y-91978000D01*
X134493000Y-92372000D02*
X135512000Y-92372000D01*
D20*
X134493000Y-92372000D02*
X133942000Y-92372000D01*
X133942000Y-92372000D02*
X133377010Y-92936990D01*
X133377010Y-92936990D02*
X133377010Y-95276006D01*
X133590240Y-98238780D02*
X133567510Y-98261510D01*
X134744460Y-98238780D02*
X133590240Y-98238780D01*
X133604034Y-95739420D02*
X133596557Y-95731943D01*
X134744460Y-95739420D02*
X133604034Y-95739420D01*
X133377010Y-95512396D02*
X133596557Y-95731943D01*
X133377010Y-95276006D02*
X133377010Y-95512396D01*
X135981754Y-95739420D02*
X135997626Y-95755292D01*
X134744460Y-95739420D02*
X135981754Y-95739420D01*
D19*
%TO.N,VCC*%
X141290500Y-91028000D02*
X142050000Y-91787500D01*
X137906000Y-91028000D02*
X141290500Y-91028000D01*
X142050000Y-91787500D02*
X142050000Y-93121000D01*
X142050000Y-93121000D02*
X142050000Y-94454500D01*
X142050000Y-93121000D02*
X140856000Y-93121000D01*
X140856000Y-93121000D02*
X140856000Y-94518000D01*
X141605000Y-94615000D02*
X141605000Y-96393000D01*
X141986500Y-94518000D02*
X142050000Y-94454500D01*
X140856000Y-94518000D02*
X141986500Y-94518000D01*
D21*
%TO.N,/TX1+*%
X139555220Y-97055460D02*
X139494133Y-97116547D01*
X139905740Y-97055460D02*
X139555220Y-97055460D01*
X139494133Y-97116547D02*
X139095137Y-97116547D01*
X139095137Y-97116547D02*
X138822303Y-96843713D01*
X138822303Y-96188110D02*
X138739582Y-96105389D01*
X138822303Y-96843713D02*
X138822303Y-96188110D01*
X138739582Y-96105389D02*
X138739582Y-95910937D01*
%TO.N,/TX1-*%
X139555220Y-97454240D02*
X139494133Y-97393153D01*
X139905740Y-97454240D02*
X139555220Y-97454240D01*
X139494133Y-97393153D02*
X138980563Y-97393153D01*
X138980563Y-97393153D02*
X138545697Y-96958287D01*
X138543992Y-96300979D02*
X138349540Y-96300979D01*
X138545697Y-96302684D02*
X138543992Y-96300979D01*
X138545697Y-96958287D02*
X138545697Y-96302684D01*
D22*
%TO.N,/CC1*%
X139905740Y-96166940D02*
X139416051Y-95677251D01*
X139905740Y-96654140D02*
X139905740Y-96166940D01*
D21*
%TO.N,/D+*%
X136299119Y-96752200D02*
X136360394Y-96752200D01*
X135813299Y-97238020D02*
X136299119Y-96752200D01*
X134744460Y-97238020D02*
X135813299Y-97238020D01*
%TO.N,/D-*%
X135759539Y-96740180D02*
X136161623Y-96338096D01*
X134744460Y-96740180D02*
X135759539Y-96740180D01*
X136559165Y-96338096D02*
X136774498Y-96553429D01*
X136161623Y-96338096D02*
X136559165Y-96338096D01*
X136678592Y-97303800D02*
X136360394Y-97303800D01*
X136774498Y-97207894D02*
X136678592Y-97303800D01*
X136774498Y-96553429D02*
X136774498Y-97207894D01*
%TO.N,/RX2-*%
X137576909Y-99516847D02*
X137439412Y-99379350D01*
X139555220Y-99455760D02*
X139494133Y-99516847D01*
X139905740Y-99455760D02*
X139555220Y-99455760D01*
X139494133Y-99516847D02*
X137576909Y-99516847D01*
%TO.N,/RX2+*%
X137576909Y-99793453D02*
X137439412Y-99930950D01*
X139494133Y-99793453D02*
X137576909Y-99793453D01*
X139555220Y-99854540D02*
X139494133Y-99793453D01*
X139905740Y-99854540D02*
X139555220Y-99854540D01*
%TO.N,/TX2+*%
X139555220Y-98254340D02*
X139494133Y-98193253D01*
X139905740Y-98254340D02*
X139555220Y-98254340D01*
X139494133Y-98193253D02*
X139016155Y-98193253D01*
X138351103Y-98066747D02*
X138213606Y-98204244D01*
X138889649Y-98066747D02*
X138351103Y-98066747D01*
X139016155Y-98193253D02*
X138889649Y-98066747D01*
X136387022Y-98844821D02*
X136581474Y-98844821D01*
X136104190Y-99127653D02*
X136387022Y-98844821D01*
X135531987Y-99127653D02*
X136104190Y-99127653D01*
X135420100Y-99239540D02*
X135531987Y-99127653D01*
X134744460Y-99239540D02*
X135420100Y-99239540D01*
%TO.N,/TX2-*%
X139004223Y-97790141D02*
X138351103Y-97790141D01*
X139130729Y-97916647D02*
X139004223Y-97790141D01*
X138351103Y-97790141D02*
X138213606Y-97652644D01*
X139555220Y-97855560D02*
X139494133Y-97916647D01*
X139494133Y-97916647D02*
X139130729Y-97916647D01*
X139905740Y-97855560D02*
X139555220Y-97855560D01*
X134744460Y-98739160D02*
X135420100Y-98739160D01*
X136191432Y-98649231D02*
X136191432Y-98454779D01*
X135420100Y-98739160D02*
X135531987Y-98851047D01*
X135989616Y-98851047D02*
X136191432Y-98649231D01*
X135531987Y-98851047D02*
X135989616Y-98851047D01*
D22*
%TO.N,/CC2*%
X135990800Y-97738400D02*
X136093200Y-97840800D01*
X134744460Y-97738400D02*
X135990800Y-97738400D01*
X140994920Y-96266000D02*
X141005560Y-96255360D01*
X140589000Y-96266000D02*
X140994920Y-96266000D01*
D21*
%TO.N,/RX1-*%
X136064118Y-95132553D02*
X136562963Y-95132553D01*
X135952231Y-95244440D02*
X136064118Y-95132553D01*
X134752080Y-95244440D02*
X135952231Y-95244440D01*
X136562963Y-95132553D02*
X137148697Y-95718287D01*
X137148697Y-95718287D02*
X137148697Y-98448787D01*
X139555220Y-99054440D02*
X139905740Y-99054440D01*
X137693263Y-98993353D02*
X139494133Y-98993353D01*
X137148697Y-98448787D02*
X137693263Y-98993353D01*
X139494133Y-98993353D02*
X139555220Y-99054440D01*
%TO.N,/RX1+*%
X136064118Y-94855947D02*
X136677537Y-94855947D01*
X135952231Y-94744060D02*
X136064118Y-94855947D01*
X134752080Y-94744060D02*
X135952231Y-94744060D01*
X136677537Y-94855947D02*
X137425303Y-95603713D01*
X137425303Y-95603713D02*
X137425303Y-98334213D01*
X139555220Y-98655660D02*
X139905740Y-98655660D01*
X139494133Y-98716747D02*
X139555220Y-98655660D01*
X137807837Y-98716747D02*
X139494133Y-98716747D01*
X137425303Y-98334213D02*
X137807837Y-98716747D01*
%TO.N,/TX+*%
X143715867Y-97916647D02*
X144330763Y-97916647D01*
X143654780Y-97855560D02*
X143715867Y-97916647D01*
X143304260Y-97855560D02*
X143654780Y-97855560D01*
X144330763Y-97916647D02*
X145276697Y-96970713D01*
X145473979Y-93979431D02*
X145473979Y-93784979D01*
X145276697Y-96970713D02*
X145276697Y-94176713D01*
X145276697Y-94176713D02*
X145473979Y-93979431D01*
%TO.N,/TX-*%
X143715867Y-98193253D02*
X144445337Y-98193253D01*
X143654780Y-98254340D02*
X143715867Y-98193253D01*
X143304260Y-98254340D02*
X143654780Y-98254340D01*
X144445337Y-98193253D02*
X145553303Y-97085287D01*
X145553303Y-97085287D02*
X145553303Y-94291287D01*
X145553303Y-94291287D02*
X145669569Y-94175021D01*
X145669569Y-94175021D02*
X145864021Y-94175021D01*
%TO.N,/RX+*%
X143654780Y-99054440D02*
X143717137Y-99116797D01*
X143304260Y-99054440D02*
X143654780Y-99054440D01*
X143717137Y-99116797D02*
X144651387Y-99116797D01*
X145531503Y-99810697D02*
X145669000Y-99673200D01*
X145345287Y-99810697D02*
X145531503Y-99810697D01*
X144651387Y-99116797D02*
X145345287Y-99810697D01*
%TO.N,/RX-*%
X143654780Y-99455760D02*
X143717137Y-99393403D01*
X143304260Y-99455760D02*
X143654780Y-99455760D01*
X143717137Y-99393403D02*
X144536813Y-99393403D01*
X145531503Y-100087303D02*
X145669000Y-100224800D01*
X144536813Y-99393403D02*
X145230713Y-100087303D01*
X145230713Y-100087303D02*
X145531503Y-100087303D01*
%TO.N,Net-(R1-Pad1)*%
X139763500Y-100398100D02*
X139905740Y-100255860D01*
X139763500Y-101313000D02*
X139763500Y-100398100D01*
%TO.N,Net-(R2-Pad1)*%
X141808200Y-101871800D02*
X141732500Y-101947500D01*
X141808200Y-100654640D02*
X141808200Y-101871800D01*
D22*
%TO.N,Net-(R3-Pad2)*%
X142204440Y-96255360D02*
X142811500Y-95648300D01*
X142811500Y-95648300D02*
X142811500Y-94708500D01*
X143065500Y-94454500D02*
X143700000Y-94454500D01*
X142811500Y-94708500D02*
X143065500Y-94454500D01*
%TO.N,Net-(R4-Pad2)*%
X144376210Y-93797210D02*
X144376210Y-96191790D01*
X143700000Y-93121000D02*
X144376210Y-93797210D01*
X143913860Y-96654140D02*
X143304260Y-96654140D01*
X144376210Y-96191790D02*
X143913860Y-96654140D01*
%TO.N,Net-(R5-Pad2)*%
X144728620Y-92816120D02*
X144728620Y-96474380D01*
X143700000Y-91787500D02*
X144728620Y-92816120D01*
X143326500Y-97077700D02*
X143304260Y-97055460D01*
X144147540Y-97055460D02*
X143304260Y-97055460D01*
X144728620Y-96474380D02*
X144147540Y-97055460D01*
%TD*%
D23*
%TO.N,GND*%
X146752780Y-90263727D02*
X146777060Y-90399870D01*
X148349970Y-90399870D01*
X148349970Y-90221450D01*
X148743670Y-90221450D01*
X148743670Y-90399870D01*
X150316580Y-90399870D01*
X150340860Y-90263727D01*
X150325074Y-90221450D01*
X156778551Y-90221450D01*
X156778550Y-103778550D01*
X150323222Y-103778550D01*
X150340860Y-103731313D01*
X150316580Y-103595170D01*
X148743670Y-103595170D01*
X148743670Y-103778550D01*
X148349970Y-103778550D01*
X148349970Y-103595170D01*
X146777060Y-103595170D01*
X146752780Y-103731313D01*
X146770418Y-103778550D01*
X133221450Y-103778550D01*
X133221450Y-102533942D01*
X136580850Y-102533942D01*
X136580850Y-102698058D01*
X136612868Y-102859021D01*
X136675672Y-103010644D01*
X136766850Y-103147102D01*
X136882898Y-103263150D01*
X137019356Y-103354328D01*
X137170979Y-103417132D01*
X137331942Y-103449150D01*
X137496058Y-103449150D01*
X137657021Y-103417132D01*
X137808644Y-103354328D01*
X137945102Y-103263150D01*
X138061150Y-103147102D01*
X138115790Y-103065327D01*
X146752780Y-103065327D01*
X146777060Y-103201470D01*
X148349970Y-103201470D01*
X148349970Y-102490930D01*
X148743670Y-102490930D01*
X148743670Y-103201470D01*
X150316580Y-103201470D01*
X150340860Y-103065327D01*
X150277596Y-102895893D01*
X150164574Y-102753217D01*
X150025889Y-102635332D01*
X149866871Y-102546769D01*
X149693630Y-102490930D01*
X148743670Y-102490930D01*
X148349970Y-102490930D01*
X147400010Y-102490930D01*
X147226769Y-102546769D01*
X147067751Y-102635332D01*
X146929066Y-102753217D01*
X146816044Y-102895893D01*
X146752780Y-103065327D01*
X138115790Y-103065327D01*
X138152328Y-103010644D01*
X138215132Y-102859021D01*
X138247150Y-102698058D01*
X138247150Y-102533942D01*
X138215132Y-102372979D01*
X138152328Y-102221356D01*
X138061150Y-102084898D01*
X137945102Y-101968850D01*
X137808644Y-101877672D01*
X137657021Y-101814868D01*
X137496058Y-101782850D01*
X137331942Y-101782850D01*
X137170979Y-101814868D01*
X137019356Y-101877672D01*
X136882898Y-101968850D01*
X136766850Y-102084898D01*
X136675672Y-102221356D01*
X136612868Y-102372979D01*
X136580850Y-102533942D01*
X133221450Y-102533942D01*
X133221450Y-98597313D01*
X133260157Y-98636020D01*
X133339126Y-98688786D01*
X133426872Y-98725131D01*
X133520022Y-98743660D01*
X133614998Y-98743660D01*
X133685966Y-98729543D01*
X133685966Y-98863620D01*
X133690931Y-98914030D01*
X133705635Y-98962503D01*
X133719985Y-98989350D01*
X133705635Y-99016197D01*
X133690931Y-99064670D01*
X133685966Y-99115080D01*
X133685966Y-99364000D01*
X133690931Y-99414410D01*
X133705635Y-99462883D01*
X133729513Y-99507556D01*
X133761648Y-99546712D01*
X133800804Y-99578847D01*
X133845477Y-99602725D01*
X133893950Y-99617429D01*
X133944360Y-99622394D01*
X135544560Y-99622394D01*
X135594970Y-99617429D01*
X135643443Y-99602725D01*
X135688116Y-99578847D01*
X135727272Y-99546712D01*
X135759407Y-99507556D01*
X135778248Y-99472306D01*
X136087274Y-99472306D01*
X136104190Y-99473972D01*
X136121106Y-99472306D01*
X136121117Y-99472306D01*
X136171754Y-99467319D01*
X136236721Y-99447611D01*
X136296595Y-99415608D01*
X136349075Y-99372538D01*
X136359867Y-99359388D01*
X136419607Y-99299649D01*
X136440836Y-99308442D01*
X136533986Y-99326971D01*
X136628962Y-99326971D01*
X136722112Y-99308442D01*
X136809858Y-99272097D01*
X136888827Y-99219331D01*
X136955984Y-99152174D01*
X137008750Y-99073205D01*
X137045095Y-98985459D01*
X137063624Y-98892309D01*
X137063624Y-98851126D01*
X137183179Y-98970682D01*
X137132059Y-99004840D01*
X137064902Y-99071997D01*
X137012136Y-99150966D01*
X136975791Y-99238712D01*
X136957262Y-99331862D01*
X136957262Y-99426838D01*
X136975791Y-99519988D01*
X137012136Y-99607734D01*
X137043819Y-99655150D01*
X137012136Y-99702566D01*
X136975791Y-99790312D01*
X136957262Y-99883462D01*
X136957262Y-99978438D01*
X136975791Y-100071588D01*
X137012136Y-100159334D01*
X137064902Y-100238303D01*
X137132059Y-100305460D01*
X137211028Y-100358226D01*
X137298774Y-100394571D01*
X137391924Y-100413100D01*
X137486900Y-100413100D01*
X137580050Y-100394571D01*
X137667796Y-100358226D01*
X137746765Y-100305460D01*
X137813922Y-100238303D01*
X137866688Y-100159334D01*
X137875481Y-100138106D01*
X139317705Y-100138106D01*
X139303243Y-100185782D01*
X139296341Y-100255860D01*
X139303243Y-100325938D01*
X139323684Y-100393323D01*
X139356879Y-100455426D01*
X139401551Y-100509859D01*
X139418848Y-100524054D01*
X139418848Y-100661466D01*
X139399072Y-100663414D01*
X139313080Y-100689499D01*
X139233830Y-100731859D01*
X139164366Y-100788866D01*
X139107359Y-100858330D01*
X139064999Y-100937580D01*
X139038914Y-101023572D01*
X139030106Y-101113000D01*
X139030106Y-101513000D01*
X139038914Y-101602428D01*
X139064999Y-101688420D01*
X139107359Y-101767670D01*
X139164366Y-101837134D01*
X139233830Y-101894141D01*
X139313080Y-101936501D01*
X139399072Y-101962586D01*
X139488500Y-101971394D01*
X140038500Y-101971394D01*
X140127928Y-101962586D01*
X140213920Y-101936501D01*
X140293170Y-101894141D01*
X140362634Y-101837134D01*
X140419641Y-101767670D01*
X140462001Y-101688420D01*
X140488086Y-101602428D01*
X140496894Y-101513000D01*
X140496894Y-101113000D01*
X140488086Y-101023572D01*
X140462001Y-100937580D01*
X140419641Y-100858330D01*
X140362634Y-100788866D01*
X140293170Y-100731859D01*
X140213920Y-100689499D01*
X140127928Y-100663414D01*
X140108153Y-100661466D01*
X140108153Y-100613340D01*
X140173485Y-100613340D01*
X140226008Y-100608167D01*
X140293393Y-100587726D01*
X140355496Y-100554531D01*
X140409929Y-100509859D01*
X140454601Y-100455426D01*
X140487796Y-100393323D01*
X140489745Y-100386896D01*
X140648080Y-100386896D01*
X140648081Y-100922385D01*
X140653254Y-100974908D01*
X140673695Y-101042293D01*
X140706890Y-101104396D01*
X140751562Y-101158829D01*
X140805995Y-101203501D01*
X140868098Y-101236696D01*
X140935483Y-101257137D01*
X141005560Y-101264039D01*
X141075638Y-101257137D01*
X141143023Y-101236696D01*
X141204951Y-101203595D01*
X141266878Y-101236696D01*
X141334263Y-101257137D01*
X141340674Y-101257768D01*
X141277830Y-101291359D01*
X141208366Y-101348366D01*
X141151359Y-101417830D01*
X141108999Y-101497080D01*
X141082914Y-101583072D01*
X141074106Y-101672500D01*
X141074106Y-102222500D01*
X141082914Y-102311928D01*
X141108999Y-102397920D01*
X141151359Y-102477170D01*
X141208366Y-102546634D01*
X141277830Y-102603641D01*
X141357080Y-102646001D01*
X141443072Y-102672086D01*
X141532500Y-102680894D01*
X141932500Y-102680894D01*
X142021928Y-102672086D01*
X142107920Y-102646001D01*
X142187170Y-102603641D01*
X142256634Y-102546634D01*
X142313641Y-102477170D01*
X142356001Y-102397920D01*
X142382086Y-102311928D01*
X142390894Y-102222500D01*
X142390894Y-101672500D01*
X142382086Y-101583072D01*
X142356001Y-101497080D01*
X142313641Y-101417830D01*
X142256634Y-101348366D01*
X142187170Y-101291359D01*
X142152853Y-101273016D01*
X142152853Y-101258958D01*
X142204440Y-101264039D01*
X142274518Y-101257137D01*
X142341903Y-101236696D01*
X142404006Y-101203501D01*
X142458439Y-101158829D01*
X142503111Y-101104396D01*
X142536306Y-101042293D01*
X142556747Y-100974908D01*
X142561920Y-100922385D01*
X142561920Y-100386895D01*
X142556747Y-100334372D01*
X142536306Y-100266987D01*
X142503111Y-100204884D01*
X142458438Y-100150451D01*
X142404005Y-100105779D01*
X142341902Y-100072584D01*
X142274517Y-100052143D01*
X142204440Y-100045241D01*
X142134362Y-100052143D01*
X142066977Y-100072584D01*
X142006320Y-100105006D01*
X141945662Y-100072584D01*
X141878277Y-100052143D01*
X141808200Y-100045241D01*
X141738122Y-100052143D01*
X141670737Y-100072584D01*
X141608634Y-100105779D01*
X141606270Y-100107720D01*
X141603905Y-100105779D01*
X141541802Y-100072584D01*
X141474417Y-100052143D01*
X141404340Y-100045241D01*
X141334262Y-100052143D01*
X141266877Y-100072584D01*
X141204950Y-100105685D01*
X141143022Y-100072584D01*
X141075637Y-100052143D01*
X141005560Y-100045241D01*
X140935482Y-100052143D01*
X140868097Y-100072584D01*
X140805994Y-100105779D01*
X140751561Y-100150452D01*
X140706889Y-100204885D01*
X140673694Y-100266988D01*
X140653253Y-100334373D01*
X140648080Y-100386896D01*
X140489745Y-100386896D01*
X140508237Y-100325938D01*
X140515139Y-100255860D01*
X140508237Y-100185782D01*
X140487796Y-100118397D01*
X140454601Y-100056294D01*
X140453703Y-100055200D01*
X140454601Y-100054106D01*
X140487796Y-99992003D01*
X140508237Y-99924618D01*
X140515139Y-99854540D01*
X140508237Y-99784462D01*
X140487796Y-99717077D01*
X140454695Y-99655150D01*
X140487796Y-99593223D01*
X140508237Y-99525838D01*
X140515139Y-99455760D01*
X140508237Y-99385682D01*
X140487796Y-99318297D01*
X140454601Y-99256194D01*
X140453703Y-99255100D01*
X140454601Y-99254006D01*
X140487796Y-99191903D01*
X140508237Y-99124518D01*
X140515139Y-99054440D01*
X142694861Y-99054440D01*
X142701763Y-99124518D01*
X142722204Y-99191903D01*
X142755399Y-99254006D01*
X142756297Y-99255100D01*
X142755399Y-99256194D01*
X142722204Y-99318297D01*
X142701763Y-99385682D01*
X142694861Y-99455760D01*
X142701763Y-99525838D01*
X142722204Y-99593223D01*
X142755305Y-99655150D01*
X142722204Y-99717077D01*
X142701763Y-99784462D01*
X142694861Y-99854540D01*
X142701763Y-99924618D01*
X142722204Y-99992003D01*
X142755399Y-100054106D01*
X142756297Y-100055200D01*
X142755399Y-100056294D01*
X142722204Y-100118397D01*
X142701763Y-100185782D01*
X142694861Y-100255860D01*
X142701763Y-100325938D01*
X142722204Y-100393323D01*
X142755399Y-100455426D01*
X142800071Y-100509859D01*
X142854504Y-100554531D01*
X142916607Y-100587726D01*
X142983992Y-100608167D01*
X143036515Y-100613340D01*
X143572005Y-100613340D01*
X143624528Y-100608167D01*
X143691913Y-100587726D01*
X143754016Y-100554531D01*
X143808449Y-100509859D01*
X143853121Y-100455426D01*
X143886316Y-100393323D01*
X143906757Y-100325938D01*
X143913659Y-100255860D01*
X143906757Y-100185782D01*
X143886316Y-100118397D01*
X143853121Y-100056294D01*
X143852223Y-100055200D01*
X143853121Y-100054106D01*
X143886316Y-99992003D01*
X143906757Y-99924618D01*
X143913659Y-99854540D01*
X143906757Y-99784462D01*
X143892680Y-99738056D01*
X144394054Y-99738056D01*
X144975040Y-100319043D01*
X144985828Y-100332188D01*
X144998973Y-100342976D01*
X144998975Y-100342978D01*
X145038307Y-100375258D01*
X145074440Y-100394571D01*
X145098182Y-100407261D01*
X145163149Y-100426969D01*
X145213786Y-100431956D01*
X145213797Y-100431956D01*
X145230713Y-100433622D01*
X145233507Y-100433347D01*
X145241724Y-100453184D01*
X145294490Y-100532153D01*
X145361647Y-100599310D01*
X145440616Y-100652076D01*
X145528362Y-100688421D01*
X145621512Y-100706950D01*
X145716488Y-100706950D01*
X145809638Y-100688421D01*
X145897384Y-100652076D01*
X145976353Y-100599310D01*
X146043510Y-100532153D01*
X146096276Y-100453184D01*
X146132621Y-100365438D01*
X146151150Y-100272288D01*
X146151150Y-100177312D01*
X146132621Y-100084162D01*
X146096276Y-99996416D01*
X146064593Y-99949000D01*
X146096276Y-99901584D01*
X146132621Y-99813838D01*
X146147320Y-99739942D01*
X154487850Y-99739942D01*
X154487850Y-99904058D01*
X154519868Y-100065021D01*
X154582672Y-100216644D01*
X154673850Y-100353102D01*
X154789898Y-100469150D01*
X154926356Y-100560328D01*
X155077979Y-100623132D01*
X155238942Y-100655150D01*
X155403058Y-100655150D01*
X155564021Y-100623132D01*
X155715644Y-100560328D01*
X155852102Y-100469150D01*
X155968150Y-100353102D01*
X156059328Y-100216644D01*
X156122132Y-100065021D01*
X156154150Y-99904058D01*
X156154150Y-99739942D01*
X156122132Y-99578979D01*
X156059328Y-99427356D01*
X155968150Y-99290898D01*
X155852102Y-99174850D01*
X155715644Y-99083672D01*
X155564021Y-99020868D01*
X155403058Y-98988850D01*
X155238942Y-98988850D01*
X155077979Y-99020868D01*
X154926356Y-99083672D01*
X154789898Y-99174850D01*
X154673850Y-99290898D01*
X154582672Y-99427356D01*
X154519868Y-99578979D01*
X154487850Y-99739942D01*
X146147320Y-99739942D01*
X146151150Y-99720688D01*
X146151150Y-99625712D01*
X146132621Y-99532562D01*
X146096276Y-99444816D01*
X146043510Y-99365847D01*
X145976353Y-99298690D01*
X145897384Y-99245924D01*
X145809638Y-99209579D01*
X145716488Y-99191050D01*
X145621512Y-99191050D01*
X145528362Y-99209579D01*
X145440616Y-99245924D01*
X145361647Y-99298690D01*
X145341170Y-99319167D01*
X144907062Y-98885060D01*
X144896272Y-98871912D01*
X144843792Y-98828842D01*
X144783918Y-98796839D01*
X144718951Y-98777131D01*
X144668314Y-98772144D01*
X144668303Y-98772144D01*
X144651387Y-98770478D01*
X144634471Y-98772144D01*
X143854080Y-98772144D01*
X143847185Y-98766485D01*
X143787311Y-98734482D01*
X143722344Y-98714774D01*
X143671707Y-98709787D01*
X143671696Y-98709787D01*
X143654780Y-98708121D01*
X143646844Y-98708903D01*
X143624528Y-98702133D01*
X143572005Y-98696960D01*
X143036515Y-98696960D01*
X142983992Y-98702133D01*
X142916607Y-98722574D01*
X142854504Y-98755769D01*
X142800071Y-98800441D01*
X142755399Y-98854874D01*
X142722204Y-98916977D01*
X142701763Y-98984362D01*
X142694861Y-99054440D01*
X140515139Y-99054440D01*
X140508237Y-98984362D01*
X140487796Y-98916977D01*
X140454695Y-98855050D01*
X140487796Y-98793123D01*
X140508237Y-98725738D01*
X140515139Y-98655660D01*
X140508237Y-98585582D01*
X140487796Y-98518197D01*
X140454601Y-98456094D01*
X140453703Y-98455000D01*
X140454601Y-98453906D01*
X140487796Y-98391803D01*
X140508237Y-98324418D01*
X140515139Y-98254340D01*
X140508237Y-98184262D01*
X140487796Y-98116877D01*
X140454695Y-98054950D01*
X140487796Y-97993023D01*
X140508237Y-97925638D01*
X140515139Y-97855560D01*
X140508237Y-97785482D01*
X140487796Y-97718097D01*
X140454601Y-97655994D01*
X140453703Y-97654900D01*
X140454601Y-97653806D01*
X140487796Y-97591703D01*
X140508237Y-97524318D01*
X140515139Y-97454240D01*
X140508237Y-97384162D01*
X140487796Y-97316777D01*
X140454695Y-97254850D01*
X140487796Y-97192923D01*
X140508237Y-97125538D01*
X140515139Y-97055460D01*
X140508237Y-96985382D01*
X140487796Y-96917997D01*
X140454601Y-96855894D01*
X140453703Y-96854800D01*
X140454601Y-96853706D01*
X140487796Y-96791603D01*
X140503284Y-96740546D01*
X140541512Y-96748150D01*
X140636488Y-96748150D01*
X140727371Y-96730072D01*
X140751562Y-96759549D01*
X140805995Y-96804221D01*
X140868098Y-96837416D01*
X140935483Y-96857857D01*
X141005560Y-96864759D01*
X141075638Y-96857857D01*
X141143023Y-96837416D01*
X141204951Y-96804315D01*
X141266878Y-96837416D01*
X141334263Y-96857857D01*
X141403027Y-96864630D01*
X141408446Y-96867526D01*
X141504798Y-96896754D01*
X141605000Y-96906623D01*
X141705203Y-96896754D01*
X141801555Y-96867526D01*
X141806960Y-96864637D01*
X141808200Y-96864759D01*
X141878278Y-96857857D01*
X141945663Y-96837416D01*
X142006321Y-96804994D01*
X142066978Y-96837416D01*
X142134363Y-96857857D01*
X142204440Y-96864759D01*
X142274518Y-96857857D01*
X142341903Y-96837416D01*
X142404006Y-96804221D01*
X142458439Y-96759549D01*
X142503111Y-96705116D01*
X142536306Y-96643013D01*
X142556747Y-96575628D01*
X142561920Y-96523105D01*
X142561920Y-96369307D01*
X143035640Y-95895588D01*
X143048354Y-95885154D01*
X143090011Y-95834395D01*
X143120965Y-95776484D01*
X143140026Y-95713648D01*
X143144850Y-95664667D01*
X143144850Y-95664658D01*
X143146461Y-95648301D01*
X143144850Y-95631944D01*
X143144850Y-95015840D01*
X143175866Y-95053634D01*
X143245330Y-95110641D01*
X143324580Y-95153001D01*
X143410572Y-95179086D01*
X143500000Y-95187894D01*
X143900000Y-95187894D01*
X143989428Y-95179086D01*
X144042861Y-95162878D01*
X144042861Y-96053711D01*
X143775783Y-96320790D01*
X143687021Y-96320790D01*
X143624528Y-96301833D01*
X143572005Y-96296660D01*
X143036515Y-96296660D01*
X142983992Y-96301833D01*
X142916607Y-96322274D01*
X142854504Y-96355469D01*
X142800071Y-96400141D01*
X142755399Y-96454574D01*
X142722204Y-96516677D01*
X142701763Y-96584062D01*
X142694861Y-96654140D01*
X142701763Y-96724218D01*
X142722204Y-96791603D01*
X142755399Y-96853706D01*
X142756297Y-96854800D01*
X142755399Y-96855894D01*
X142722204Y-96917997D01*
X142701763Y-96985382D01*
X142694861Y-97055460D01*
X142701763Y-97125538D01*
X142722204Y-97192923D01*
X142755305Y-97254850D01*
X142722204Y-97316777D01*
X142701763Y-97384162D01*
X142694861Y-97454240D01*
X142701763Y-97524318D01*
X142722204Y-97591703D01*
X142755399Y-97653806D01*
X142756297Y-97654900D01*
X142755399Y-97655994D01*
X142722204Y-97718097D01*
X142701763Y-97785482D01*
X142694861Y-97855560D01*
X142701763Y-97925638D01*
X142722204Y-97993023D01*
X142755305Y-98054950D01*
X142722204Y-98116877D01*
X142701763Y-98184262D01*
X142694861Y-98254340D01*
X142701763Y-98324418D01*
X142722204Y-98391803D01*
X142755399Y-98453906D01*
X142800071Y-98508339D01*
X142854504Y-98553011D01*
X142916607Y-98586206D01*
X142983992Y-98606647D01*
X143036515Y-98611820D01*
X143572005Y-98611820D01*
X143624528Y-98606647D01*
X143646844Y-98599877D01*
X143654780Y-98600659D01*
X143671696Y-98598993D01*
X143671707Y-98598993D01*
X143722344Y-98594006D01*
X143787311Y-98574298D01*
X143847185Y-98542295D01*
X143852533Y-98537906D01*
X144428421Y-98537906D01*
X144445337Y-98539572D01*
X144462253Y-98537906D01*
X144462264Y-98537906D01*
X144512901Y-98532919D01*
X144577868Y-98513211D01*
X144637742Y-98481208D01*
X144690222Y-98438138D01*
X144701015Y-98424987D01*
X145785042Y-97340960D01*
X145798187Y-97330172D01*
X145809181Y-97316777D01*
X145841258Y-97277692D01*
X145873261Y-97217818D01*
X145892969Y-97152851D01*
X145895055Y-97131668D01*
X145897956Y-97102214D01*
X145897956Y-97102213D01*
X145899623Y-97085287D01*
X145897956Y-97068360D01*
X145897956Y-96726512D01*
X148695650Y-96726512D01*
X148695650Y-96821488D01*
X148714179Y-96914638D01*
X148750524Y-97002384D01*
X148803290Y-97081353D01*
X148870447Y-97148510D01*
X148949416Y-97201276D01*
X149037162Y-97237621D01*
X149130312Y-97256150D01*
X149225288Y-97256150D01*
X149318438Y-97237621D01*
X149406184Y-97201276D01*
X149453600Y-97169593D01*
X149501016Y-97201276D01*
X149588762Y-97237621D01*
X149681912Y-97256150D01*
X149776888Y-97256150D01*
X149870038Y-97237621D01*
X149957784Y-97201276D01*
X150036753Y-97148510D01*
X150103910Y-97081353D01*
X150156676Y-97002384D01*
X150193021Y-96914638D01*
X150211550Y-96821488D01*
X150211550Y-96726512D01*
X150193021Y-96633362D01*
X150156676Y-96545616D01*
X150103910Y-96466647D01*
X150036753Y-96399490D01*
X149957784Y-96346724D01*
X149870038Y-96310379D01*
X149776888Y-96291850D01*
X149681912Y-96291850D01*
X149588762Y-96310379D01*
X149501016Y-96346724D01*
X149453600Y-96378407D01*
X149406184Y-96346724D01*
X149318438Y-96310379D01*
X149225288Y-96291850D01*
X149130312Y-96291850D01*
X149037162Y-96310379D01*
X148949416Y-96346724D01*
X148870447Y-96399490D01*
X148803290Y-96466647D01*
X148750524Y-96545616D01*
X148714179Y-96633362D01*
X148695650Y-96726512D01*
X145897956Y-96726512D01*
X145897956Y-94657171D01*
X145911509Y-94657171D01*
X146004659Y-94638642D01*
X146092405Y-94602297D01*
X146171374Y-94549531D01*
X146238531Y-94482374D01*
X146291297Y-94403405D01*
X146327642Y-94315659D01*
X146346171Y-94222509D01*
X146346171Y-94127533D01*
X146327642Y-94034383D01*
X146291297Y-93946637D01*
X146238531Y-93867668D01*
X146171374Y-93800511D01*
X146092405Y-93747745D01*
X146004659Y-93711400D01*
X145948726Y-93700274D01*
X145937600Y-93644341D01*
X145901255Y-93556595D01*
X145848489Y-93477626D01*
X145817988Y-93447125D01*
X148667850Y-93447125D01*
X148667850Y-93556875D01*
X148689261Y-93664515D01*
X148731260Y-93765910D01*
X148788282Y-93851250D01*
X148731260Y-93936590D01*
X148689261Y-94037985D01*
X148667850Y-94145625D01*
X148667850Y-94255375D01*
X148689261Y-94363015D01*
X148731260Y-94464410D01*
X148792233Y-94555663D01*
X148869837Y-94633267D01*
X148961090Y-94694240D01*
X149062485Y-94736239D01*
X149170125Y-94757650D01*
X149279875Y-94757650D01*
X149387515Y-94736239D01*
X149488910Y-94694240D01*
X149580163Y-94633267D01*
X149657767Y-94555663D01*
X149718740Y-94464410D01*
X149760739Y-94363015D01*
X149782150Y-94255375D01*
X149782150Y-94145625D01*
X149760739Y-94037985D01*
X149718740Y-93936590D01*
X149661718Y-93851250D01*
X149718740Y-93765910D01*
X149760739Y-93664515D01*
X149782150Y-93556875D01*
X149782150Y-93447125D01*
X149760739Y-93339485D01*
X149718740Y-93238090D01*
X149657767Y-93146837D01*
X149580163Y-93069233D01*
X149488910Y-93008260D01*
X149387515Y-92966261D01*
X149279875Y-92944850D01*
X149170125Y-92944850D01*
X149062485Y-92966261D01*
X148961090Y-93008260D01*
X148869837Y-93069233D01*
X148792233Y-93146837D01*
X148731260Y-93238090D01*
X148689261Y-93339485D01*
X148667850Y-93447125D01*
X145817988Y-93447125D01*
X145781332Y-93410469D01*
X145702363Y-93357703D01*
X145614617Y-93321358D01*
X145521467Y-93302829D01*
X145426491Y-93302829D01*
X145333341Y-93321358D01*
X145245595Y-93357703D01*
X145166626Y-93410469D01*
X145099469Y-93477626D01*
X145061970Y-93533747D01*
X145061970Y-92832476D01*
X145063581Y-92816119D01*
X145061970Y-92799762D01*
X145061970Y-92799753D01*
X145057146Y-92750772D01*
X145038085Y-92687936D01*
X145007131Y-92630025D01*
X144996216Y-92616725D01*
X144975907Y-92591978D01*
X144975904Y-92591975D01*
X144965474Y-92579266D01*
X144952766Y-92568837D01*
X144358394Y-91974466D01*
X144358394Y-91512500D01*
X144349586Y-91423072D01*
X144323501Y-91337080D01*
X144281141Y-91257830D01*
X144224134Y-91188366D01*
X144154670Y-91131359D01*
X144075420Y-91088999D01*
X143989428Y-91062914D01*
X143900000Y-91054106D01*
X143500000Y-91054106D01*
X143410572Y-91062914D01*
X143324580Y-91088999D01*
X143245330Y-91131359D01*
X143175866Y-91188366D01*
X143118859Y-91257830D01*
X143076499Y-91337080D01*
X143050414Y-91423072D01*
X143041606Y-91512500D01*
X143041606Y-92062500D01*
X143050414Y-92151928D01*
X143076499Y-92237920D01*
X143118859Y-92317170D01*
X143175866Y-92386634D01*
X143245330Y-92443641D01*
X143265178Y-92454250D01*
X143245330Y-92464859D01*
X143175866Y-92521866D01*
X143118859Y-92591330D01*
X143076499Y-92670580D01*
X143050414Y-92756572D01*
X143041606Y-92846000D01*
X143041606Y-93396000D01*
X143050414Y-93485428D01*
X143076499Y-93571420D01*
X143118859Y-93650670D01*
X143175866Y-93720134D01*
X143245330Y-93777141D01*
X143265178Y-93787750D01*
X143245330Y-93798359D01*
X143175866Y-93855366D01*
X143118859Y-93924830D01*
X143076499Y-94004080D01*
X143050414Y-94090072D01*
X143047336Y-94121327D01*
X143000152Y-94125974D01*
X142937316Y-94145035D01*
X142879405Y-94175989D01*
X142879403Y-94175990D01*
X142879404Y-94175990D01*
X142841358Y-94207213D01*
X142841355Y-94207216D01*
X142828646Y-94217646D01*
X142818215Y-94230356D01*
X142708394Y-94340178D01*
X142708394Y-94179500D01*
X142699586Y-94090072D01*
X142673501Y-94004080D01*
X142631141Y-93924830D01*
X142574134Y-93855366D01*
X142561150Y-93844710D01*
X142561150Y-93730790D01*
X142574134Y-93720134D01*
X142631141Y-93650670D01*
X142673501Y-93571420D01*
X142699586Y-93485428D01*
X142708394Y-93396000D01*
X142708394Y-92846000D01*
X142699586Y-92756572D01*
X142673501Y-92670580D01*
X142631141Y-92591330D01*
X142574134Y-92521866D01*
X142561150Y-92511210D01*
X142561150Y-92397290D01*
X142574134Y-92386634D01*
X142631141Y-92317170D01*
X142673501Y-92237920D01*
X142699586Y-92151928D01*
X142708394Y-92062500D01*
X142708394Y-91512500D01*
X142699586Y-91423072D01*
X142673501Y-91337080D01*
X142631141Y-91257830D01*
X142574134Y-91188366D01*
X142504670Y-91131359D01*
X142425420Y-91088999D01*
X142339428Y-91062914D01*
X142250000Y-91054106D01*
X142039481Y-91054106D01*
X141962317Y-90976942D01*
X144454850Y-90976942D01*
X144454850Y-91141058D01*
X144486868Y-91302021D01*
X144549672Y-91453644D01*
X144640850Y-91590102D01*
X144756898Y-91706150D01*
X144893356Y-91797328D01*
X145044979Y-91860132D01*
X145205942Y-91892150D01*
X145370058Y-91892150D01*
X145531021Y-91860132D01*
X145682644Y-91797328D01*
X145819102Y-91706150D01*
X145935150Y-91590102D01*
X146026328Y-91453644D01*
X146089132Y-91302021D01*
X146121150Y-91141058D01*
X146121150Y-90976942D01*
X146111756Y-90929713D01*
X146752780Y-90929713D01*
X146816044Y-91099147D01*
X146929066Y-91241823D01*
X147067751Y-91359708D01*
X147226769Y-91448271D01*
X147400010Y-91504110D01*
X148349970Y-91504110D01*
X148349970Y-90793570D01*
X148743670Y-90793570D01*
X148743670Y-91504110D01*
X149693630Y-91504110D01*
X149866871Y-91448271D01*
X150025889Y-91359708D01*
X150164574Y-91241823D01*
X150277596Y-91099147D01*
X150340860Y-90929713D01*
X150316580Y-90793570D01*
X148743670Y-90793570D01*
X148349970Y-90793570D01*
X146777060Y-90793570D01*
X146752780Y-90929713D01*
X146111756Y-90929713D01*
X146089132Y-90815979D01*
X146026328Y-90664356D01*
X145935150Y-90527898D01*
X145819102Y-90411850D01*
X145682644Y-90320672D01*
X145531021Y-90257868D01*
X145370058Y-90225850D01*
X145205942Y-90225850D01*
X145044979Y-90257868D01*
X144893356Y-90320672D01*
X144756898Y-90411850D01*
X144640850Y-90527898D01*
X144549672Y-90664356D01*
X144486868Y-90815979D01*
X144454850Y-90976942D01*
X141962317Y-90976942D01*
X141669696Y-90684322D01*
X141653686Y-90664814D01*
X141575854Y-90600938D01*
X141487055Y-90553474D01*
X141390703Y-90524246D01*
X141315609Y-90516850D01*
X141315601Y-90516850D01*
X141290500Y-90514378D01*
X141265399Y-90516850D01*
X138588168Y-90516850D01*
X138570847Y-90484444D01*
X138538712Y-90445288D01*
X138499556Y-90413153D01*
X138454883Y-90389275D01*
X138406410Y-90374571D01*
X138356000Y-90369606D01*
X137456000Y-90369606D01*
X137405590Y-90374571D01*
X137357117Y-90389275D01*
X137312444Y-90413153D01*
X137273288Y-90445288D01*
X137241153Y-90484444D01*
X137217275Y-90529117D01*
X137202571Y-90577590D01*
X137197606Y-90628000D01*
X137197606Y-91428000D01*
X137202571Y-91478410D01*
X137217275Y-91526883D01*
X137241153Y-91571556D01*
X137273288Y-91610712D01*
X137312444Y-91642847D01*
X137357117Y-91666725D01*
X137405590Y-91681429D01*
X137456000Y-91686394D01*
X138356000Y-91686394D01*
X138406410Y-91681429D01*
X138454883Y-91666725D01*
X138499556Y-91642847D01*
X138538712Y-91610712D01*
X138570847Y-91571556D01*
X138588168Y-91539150D01*
X141078776Y-91539150D01*
X141391606Y-91851981D01*
X141391606Y-92062500D01*
X141400414Y-92151928D01*
X141426499Y-92237920D01*
X141468859Y-92317170D01*
X141525866Y-92386634D01*
X141538850Y-92397290D01*
X141538851Y-92511210D01*
X141525866Y-92521866D01*
X141471334Y-92588314D01*
X141422811Y-92529189D01*
X141349559Y-92469073D01*
X141265987Y-92424402D01*
X141175305Y-92396894D01*
X141081000Y-92387606D01*
X140631000Y-92387606D01*
X140536695Y-92396894D01*
X140446013Y-92424402D01*
X140362441Y-92469073D01*
X140289189Y-92529189D01*
X140229073Y-92602441D01*
X140184402Y-92686013D01*
X140156894Y-92776695D01*
X140147606Y-92871000D01*
X140147606Y-93371000D01*
X140156894Y-93465305D01*
X140184402Y-93555987D01*
X140229073Y-93639559D01*
X140289189Y-93712811D01*
X140344850Y-93758491D01*
X140344851Y-93880509D01*
X140289189Y-93926189D01*
X140229073Y-93999441D01*
X140184402Y-94083013D01*
X140156894Y-94173695D01*
X140147606Y-94268000D01*
X140147606Y-94768000D01*
X140156894Y-94862305D01*
X140184402Y-94952987D01*
X140229073Y-95036559D01*
X140289189Y-95109811D01*
X140362441Y-95169927D01*
X140446013Y-95214598D01*
X140536695Y-95242106D01*
X140631000Y-95251394D01*
X141081000Y-95251394D01*
X141093850Y-95250128D01*
X141093851Y-95658388D01*
X141075637Y-95652863D01*
X141005560Y-95645961D01*
X140935482Y-95652863D01*
X140868097Y-95673304D01*
X140805994Y-95706499D01*
X140751561Y-95751172D01*
X140712357Y-95798942D01*
X140636488Y-95783850D01*
X140541512Y-95783850D01*
X140448362Y-95802379D01*
X140360616Y-95838724D01*
X140281647Y-95891490D01*
X140214490Y-95958647D01*
X140191098Y-95993655D01*
X140184251Y-95980845D01*
X140142594Y-95930086D01*
X140129879Y-95919651D01*
X139898201Y-95687973D01*
X139898201Y-95629763D01*
X139879672Y-95536613D01*
X139843327Y-95448867D01*
X139790561Y-95369898D01*
X139723404Y-95302741D01*
X139644435Y-95249975D01*
X139556689Y-95213630D01*
X139463539Y-95195101D01*
X139368563Y-95195101D01*
X139275413Y-95213630D01*
X139187667Y-95249975D01*
X139108698Y-95302741D01*
X139041541Y-95369898D01*
X138988775Y-95448867D01*
X138972976Y-95487009D01*
X138967966Y-95483661D01*
X138880220Y-95447316D01*
X138787070Y-95428787D01*
X138692094Y-95428787D01*
X138598944Y-95447316D01*
X138511198Y-95483661D01*
X138432229Y-95536427D01*
X138365072Y-95603584D01*
X138312306Y-95682553D01*
X138275961Y-95770299D01*
X138264835Y-95826232D01*
X138208902Y-95837358D01*
X138121156Y-95873703D01*
X138042187Y-95926469D01*
X137975030Y-95993626D01*
X137922264Y-96072595D01*
X137885919Y-96160341D01*
X137867390Y-96253491D01*
X137867390Y-96348467D01*
X137885919Y-96441617D01*
X137922264Y-96529363D01*
X137975030Y-96608332D01*
X138042187Y-96675489D01*
X138121156Y-96728255D01*
X138201044Y-96761345D01*
X138201044Y-96941370D01*
X138199378Y-96958287D01*
X138201044Y-96975203D01*
X138201044Y-96975213D01*
X138206031Y-97025850D01*
X138224429Y-97086499D01*
X138225739Y-97090817D01*
X138257742Y-97150692D01*
X138276510Y-97173561D01*
X138261094Y-97170494D01*
X138166118Y-97170494D01*
X138072968Y-97189023D01*
X137985222Y-97225368D01*
X137906253Y-97278134D01*
X137839096Y-97345291D01*
X137786330Y-97424260D01*
X137769956Y-97463791D01*
X137769956Y-95620629D01*
X137771622Y-95603713D01*
X137769956Y-95586797D01*
X137769956Y-95586786D01*
X137764969Y-95536149D01*
X137745261Y-95471182D01*
X137713258Y-95411307D01*
X137680978Y-95371975D01*
X137680970Y-95371967D01*
X137670187Y-95358828D01*
X137657047Y-95348044D01*
X136933212Y-94624210D01*
X136922422Y-94611062D01*
X136869942Y-94567992D01*
X136810068Y-94535989D01*
X136745101Y-94516281D01*
X136694464Y-94511294D01*
X136694453Y-94511294D01*
X136677537Y-94509628D01*
X136660621Y-94511294D01*
X136207062Y-94511294D01*
X136197116Y-94499175D01*
X136144636Y-94456105D01*
X136084762Y-94424102D01*
X136019795Y-94404394D01*
X135969158Y-94399407D01*
X135969147Y-94399407D01*
X135952231Y-94397741D01*
X135935315Y-94399407D01*
X135688182Y-94399407D01*
X135688116Y-94399353D01*
X135643443Y-94375475D01*
X135594970Y-94360771D01*
X135544560Y-94355806D01*
X133944360Y-94355806D01*
X133893950Y-94360771D01*
X133845477Y-94375475D01*
X133800804Y-94399353D01*
X133761648Y-94431488D01*
X133761160Y-94432083D01*
X133761160Y-93096109D01*
X133910674Y-92946595D01*
X133974441Y-92998927D01*
X134058013Y-93043598D01*
X134148695Y-93071106D01*
X134243000Y-93080394D01*
X134743000Y-93080394D01*
X134837305Y-93071106D01*
X134927987Y-93043598D01*
X135011559Y-92998927D01*
X135084811Y-92938811D01*
X135130491Y-92883150D01*
X135486899Y-92883150D01*
X135512000Y-92885622D01*
X135537101Y-92883150D01*
X135537109Y-92883150D01*
X135612203Y-92875754D01*
X135708555Y-92846526D01*
X135797354Y-92799062D01*
X135875186Y-92735186D01*
X135891196Y-92715678D01*
X135970480Y-92636394D01*
X136356000Y-92636394D01*
X136406410Y-92631429D01*
X136454883Y-92616725D01*
X136499556Y-92592847D01*
X136538712Y-92560712D01*
X136570847Y-92521556D01*
X136594725Y-92476883D01*
X136609429Y-92428410D01*
X136614394Y-92378000D01*
X136614394Y-91578000D01*
X136609429Y-91527590D01*
X136594725Y-91479117D01*
X136570847Y-91434444D01*
X136538712Y-91395288D01*
X136499556Y-91363153D01*
X136454883Y-91339275D01*
X136406410Y-91324571D01*
X136356000Y-91319606D01*
X135456000Y-91319606D01*
X135405590Y-91324571D01*
X135357117Y-91339275D01*
X135312444Y-91363153D01*
X135273288Y-91395288D01*
X135241153Y-91434444D01*
X135217275Y-91479117D01*
X135202571Y-91527590D01*
X135197606Y-91578000D01*
X135197606Y-91860850D01*
X135130491Y-91860850D01*
X135084811Y-91805189D01*
X135011559Y-91745073D01*
X134927987Y-91700402D01*
X134837305Y-91672894D01*
X134743000Y-91663606D01*
X134243000Y-91663606D01*
X134148695Y-91672894D01*
X134058013Y-91700402D01*
X133974441Y-91745073D01*
X133901189Y-91805189D01*
X133841073Y-91878441D01*
X133796402Y-91962013D01*
X133777493Y-92024348D01*
X133727545Y-92051046D01*
X133669051Y-92099051D01*
X133657023Y-92113707D01*
X133221450Y-92549281D01*
X133221450Y-90221450D01*
X146768566Y-90221450D01*
X146752780Y-90263727D01*
%TA.AperFunction,Conductor*%
D24*
G36*
X146752780Y-90263727D02*
G01*
X146777060Y-90399870D01*
X148349970Y-90399870D01*
X148349970Y-90221450D01*
X148743670Y-90221450D01*
X148743670Y-90399870D01*
X150316580Y-90399870D01*
X150340860Y-90263727D01*
X150325074Y-90221450D01*
X156778551Y-90221450D01*
X156778550Y-103778550D01*
X150323222Y-103778550D01*
X150340860Y-103731313D01*
X150316580Y-103595170D01*
X148743670Y-103595170D01*
X148743670Y-103778550D01*
X148349970Y-103778550D01*
X148349970Y-103595170D01*
X146777060Y-103595170D01*
X146752780Y-103731313D01*
X146770418Y-103778550D01*
X133221450Y-103778550D01*
X133221450Y-102533942D01*
X136580850Y-102533942D01*
X136580850Y-102698058D01*
X136612868Y-102859021D01*
X136675672Y-103010644D01*
X136766850Y-103147102D01*
X136882898Y-103263150D01*
X137019356Y-103354328D01*
X137170979Y-103417132D01*
X137331942Y-103449150D01*
X137496058Y-103449150D01*
X137657021Y-103417132D01*
X137808644Y-103354328D01*
X137945102Y-103263150D01*
X138061150Y-103147102D01*
X138115790Y-103065327D01*
X146752780Y-103065327D01*
X146777060Y-103201470D01*
X148349970Y-103201470D01*
X148349970Y-102490930D01*
X148743670Y-102490930D01*
X148743670Y-103201470D01*
X150316580Y-103201470D01*
X150340860Y-103065327D01*
X150277596Y-102895893D01*
X150164574Y-102753217D01*
X150025889Y-102635332D01*
X149866871Y-102546769D01*
X149693630Y-102490930D01*
X148743670Y-102490930D01*
X148349970Y-102490930D01*
X147400010Y-102490930D01*
X147226769Y-102546769D01*
X147067751Y-102635332D01*
X146929066Y-102753217D01*
X146816044Y-102895893D01*
X146752780Y-103065327D01*
X138115790Y-103065327D01*
X138152328Y-103010644D01*
X138215132Y-102859021D01*
X138247150Y-102698058D01*
X138247150Y-102533942D01*
X138215132Y-102372979D01*
X138152328Y-102221356D01*
X138061150Y-102084898D01*
X137945102Y-101968850D01*
X137808644Y-101877672D01*
X137657021Y-101814868D01*
X137496058Y-101782850D01*
X137331942Y-101782850D01*
X137170979Y-101814868D01*
X137019356Y-101877672D01*
X136882898Y-101968850D01*
X136766850Y-102084898D01*
X136675672Y-102221356D01*
X136612868Y-102372979D01*
X136580850Y-102533942D01*
X133221450Y-102533942D01*
X133221450Y-98597313D01*
X133260157Y-98636020D01*
X133339126Y-98688786D01*
X133426872Y-98725131D01*
X133520022Y-98743660D01*
X133614998Y-98743660D01*
X133685966Y-98729543D01*
X133685966Y-98863620D01*
X133690931Y-98914030D01*
X133705635Y-98962503D01*
X133719985Y-98989350D01*
X133705635Y-99016197D01*
X133690931Y-99064670D01*
X133685966Y-99115080D01*
X133685966Y-99364000D01*
X133690931Y-99414410D01*
X133705635Y-99462883D01*
X133729513Y-99507556D01*
X133761648Y-99546712D01*
X133800804Y-99578847D01*
X133845477Y-99602725D01*
X133893950Y-99617429D01*
X133944360Y-99622394D01*
X135544560Y-99622394D01*
X135594970Y-99617429D01*
X135643443Y-99602725D01*
X135688116Y-99578847D01*
X135727272Y-99546712D01*
X135759407Y-99507556D01*
X135778248Y-99472306D01*
X136087274Y-99472306D01*
X136104190Y-99473972D01*
X136121106Y-99472306D01*
X136121117Y-99472306D01*
X136171754Y-99467319D01*
X136236721Y-99447611D01*
X136296595Y-99415608D01*
X136349075Y-99372538D01*
X136359867Y-99359388D01*
X136419607Y-99299649D01*
X136440836Y-99308442D01*
X136533986Y-99326971D01*
X136628962Y-99326971D01*
X136722112Y-99308442D01*
X136809858Y-99272097D01*
X136888827Y-99219331D01*
X136955984Y-99152174D01*
X137008750Y-99073205D01*
X137045095Y-98985459D01*
X137063624Y-98892309D01*
X137063624Y-98851126D01*
X137183179Y-98970682D01*
X137132059Y-99004840D01*
X137064902Y-99071997D01*
X137012136Y-99150966D01*
X136975791Y-99238712D01*
X136957262Y-99331862D01*
X136957262Y-99426838D01*
X136975791Y-99519988D01*
X137012136Y-99607734D01*
X137043819Y-99655150D01*
X137012136Y-99702566D01*
X136975791Y-99790312D01*
X136957262Y-99883462D01*
X136957262Y-99978438D01*
X136975791Y-100071588D01*
X137012136Y-100159334D01*
X137064902Y-100238303D01*
X137132059Y-100305460D01*
X137211028Y-100358226D01*
X137298774Y-100394571D01*
X137391924Y-100413100D01*
X137486900Y-100413100D01*
X137580050Y-100394571D01*
X137667796Y-100358226D01*
X137746765Y-100305460D01*
X137813922Y-100238303D01*
X137866688Y-100159334D01*
X137875481Y-100138106D01*
X139317705Y-100138106D01*
X139303243Y-100185782D01*
X139296341Y-100255860D01*
X139303243Y-100325938D01*
X139323684Y-100393323D01*
X139356879Y-100455426D01*
X139401551Y-100509859D01*
X139418848Y-100524054D01*
X139418848Y-100661466D01*
X139399072Y-100663414D01*
X139313080Y-100689499D01*
X139233830Y-100731859D01*
X139164366Y-100788866D01*
X139107359Y-100858330D01*
X139064999Y-100937580D01*
X139038914Y-101023572D01*
X139030106Y-101113000D01*
X139030106Y-101513000D01*
X139038914Y-101602428D01*
X139064999Y-101688420D01*
X139107359Y-101767670D01*
X139164366Y-101837134D01*
X139233830Y-101894141D01*
X139313080Y-101936501D01*
X139399072Y-101962586D01*
X139488500Y-101971394D01*
X140038500Y-101971394D01*
X140127928Y-101962586D01*
X140213920Y-101936501D01*
X140293170Y-101894141D01*
X140362634Y-101837134D01*
X140419641Y-101767670D01*
X140462001Y-101688420D01*
X140488086Y-101602428D01*
X140496894Y-101513000D01*
X140496894Y-101113000D01*
X140488086Y-101023572D01*
X140462001Y-100937580D01*
X140419641Y-100858330D01*
X140362634Y-100788866D01*
X140293170Y-100731859D01*
X140213920Y-100689499D01*
X140127928Y-100663414D01*
X140108153Y-100661466D01*
X140108153Y-100613340D01*
X140173485Y-100613340D01*
X140226008Y-100608167D01*
X140293393Y-100587726D01*
X140355496Y-100554531D01*
X140409929Y-100509859D01*
X140454601Y-100455426D01*
X140487796Y-100393323D01*
X140489745Y-100386896D01*
X140648080Y-100386896D01*
X140648081Y-100922385D01*
X140653254Y-100974908D01*
X140673695Y-101042293D01*
X140706890Y-101104396D01*
X140751562Y-101158829D01*
X140805995Y-101203501D01*
X140868098Y-101236696D01*
X140935483Y-101257137D01*
X141005560Y-101264039D01*
X141075638Y-101257137D01*
X141143023Y-101236696D01*
X141204951Y-101203595D01*
X141266878Y-101236696D01*
X141334263Y-101257137D01*
X141340674Y-101257768D01*
X141277830Y-101291359D01*
X141208366Y-101348366D01*
X141151359Y-101417830D01*
X141108999Y-101497080D01*
X141082914Y-101583072D01*
X141074106Y-101672500D01*
X141074106Y-102222500D01*
X141082914Y-102311928D01*
X141108999Y-102397920D01*
X141151359Y-102477170D01*
X141208366Y-102546634D01*
X141277830Y-102603641D01*
X141357080Y-102646001D01*
X141443072Y-102672086D01*
X141532500Y-102680894D01*
X141932500Y-102680894D01*
X142021928Y-102672086D01*
X142107920Y-102646001D01*
X142187170Y-102603641D01*
X142256634Y-102546634D01*
X142313641Y-102477170D01*
X142356001Y-102397920D01*
X142382086Y-102311928D01*
X142390894Y-102222500D01*
X142390894Y-101672500D01*
X142382086Y-101583072D01*
X142356001Y-101497080D01*
X142313641Y-101417830D01*
X142256634Y-101348366D01*
X142187170Y-101291359D01*
X142152853Y-101273016D01*
X142152853Y-101258958D01*
X142204440Y-101264039D01*
X142274518Y-101257137D01*
X142341903Y-101236696D01*
X142404006Y-101203501D01*
X142458439Y-101158829D01*
X142503111Y-101104396D01*
X142536306Y-101042293D01*
X142556747Y-100974908D01*
X142561920Y-100922385D01*
X142561920Y-100386895D01*
X142556747Y-100334372D01*
X142536306Y-100266987D01*
X142503111Y-100204884D01*
X142458438Y-100150451D01*
X142404005Y-100105779D01*
X142341902Y-100072584D01*
X142274517Y-100052143D01*
X142204440Y-100045241D01*
X142134362Y-100052143D01*
X142066977Y-100072584D01*
X142006320Y-100105006D01*
X141945662Y-100072584D01*
X141878277Y-100052143D01*
X141808200Y-100045241D01*
X141738122Y-100052143D01*
X141670737Y-100072584D01*
X141608634Y-100105779D01*
X141606270Y-100107720D01*
X141603905Y-100105779D01*
X141541802Y-100072584D01*
X141474417Y-100052143D01*
X141404340Y-100045241D01*
X141334262Y-100052143D01*
X141266877Y-100072584D01*
X141204950Y-100105685D01*
X141143022Y-100072584D01*
X141075637Y-100052143D01*
X141005560Y-100045241D01*
X140935482Y-100052143D01*
X140868097Y-100072584D01*
X140805994Y-100105779D01*
X140751561Y-100150452D01*
X140706889Y-100204885D01*
X140673694Y-100266988D01*
X140653253Y-100334373D01*
X140648080Y-100386896D01*
X140489745Y-100386896D01*
X140508237Y-100325938D01*
X140515139Y-100255860D01*
X140508237Y-100185782D01*
X140487796Y-100118397D01*
X140454601Y-100056294D01*
X140453703Y-100055200D01*
X140454601Y-100054106D01*
X140487796Y-99992003D01*
X140508237Y-99924618D01*
X140515139Y-99854540D01*
X140508237Y-99784462D01*
X140487796Y-99717077D01*
X140454695Y-99655150D01*
X140487796Y-99593223D01*
X140508237Y-99525838D01*
X140515139Y-99455760D01*
X140508237Y-99385682D01*
X140487796Y-99318297D01*
X140454601Y-99256194D01*
X140453703Y-99255100D01*
X140454601Y-99254006D01*
X140487796Y-99191903D01*
X140508237Y-99124518D01*
X140515139Y-99054440D01*
X142694861Y-99054440D01*
X142701763Y-99124518D01*
X142722204Y-99191903D01*
X142755399Y-99254006D01*
X142756297Y-99255100D01*
X142755399Y-99256194D01*
X142722204Y-99318297D01*
X142701763Y-99385682D01*
X142694861Y-99455760D01*
X142701763Y-99525838D01*
X142722204Y-99593223D01*
X142755305Y-99655150D01*
X142722204Y-99717077D01*
X142701763Y-99784462D01*
X142694861Y-99854540D01*
X142701763Y-99924618D01*
X142722204Y-99992003D01*
X142755399Y-100054106D01*
X142756297Y-100055200D01*
X142755399Y-100056294D01*
X142722204Y-100118397D01*
X142701763Y-100185782D01*
X142694861Y-100255860D01*
X142701763Y-100325938D01*
X142722204Y-100393323D01*
X142755399Y-100455426D01*
X142800071Y-100509859D01*
X142854504Y-100554531D01*
X142916607Y-100587726D01*
X142983992Y-100608167D01*
X143036515Y-100613340D01*
X143572005Y-100613340D01*
X143624528Y-100608167D01*
X143691913Y-100587726D01*
X143754016Y-100554531D01*
X143808449Y-100509859D01*
X143853121Y-100455426D01*
X143886316Y-100393323D01*
X143906757Y-100325938D01*
X143913659Y-100255860D01*
X143906757Y-100185782D01*
X143886316Y-100118397D01*
X143853121Y-100056294D01*
X143852223Y-100055200D01*
X143853121Y-100054106D01*
X143886316Y-99992003D01*
X143906757Y-99924618D01*
X143913659Y-99854540D01*
X143906757Y-99784462D01*
X143892680Y-99738056D01*
X144394054Y-99738056D01*
X144975040Y-100319043D01*
X144985828Y-100332188D01*
X144998973Y-100342976D01*
X144998975Y-100342978D01*
X145038307Y-100375258D01*
X145074440Y-100394571D01*
X145098182Y-100407261D01*
X145163149Y-100426969D01*
X145213786Y-100431956D01*
X145213797Y-100431956D01*
X145230713Y-100433622D01*
X145233507Y-100433347D01*
X145241724Y-100453184D01*
X145294490Y-100532153D01*
X145361647Y-100599310D01*
X145440616Y-100652076D01*
X145528362Y-100688421D01*
X145621512Y-100706950D01*
X145716488Y-100706950D01*
X145809638Y-100688421D01*
X145897384Y-100652076D01*
X145976353Y-100599310D01*
X146043510Y-100532153D01*
X146096276Y-100453184D01*
X146132621Y-100365438D01*
X146151150Y-100272288D01*
X146151150Y-100177312D01*
X146132621Y-100084162D01*
X146096276Y-99996416D01*
X146064593Y-99949000D01*
X146096276Y-99901584D01*
X146132621Y-99813838D01*
X146147320Y-99739942D01*
X154487850Y-99739942D01*
X154487850Y-99904058D01*
X154519868Y-100065021D01*
X154582672Y-100216644D01*
X154673850Y-100353102D01*
X154789898Y-100469150D01*
X154926356Y-100560328D01*
X155077979Y-100623132D01*
X155238942Y-100655150D01*
X155403058Y-100655150D01*
X155564021Y-100623132D01*
X155715644Y-100560328D01*
X155852102Y-100469150D01*
X155968150Y-100353102D01*
X156059328Y-100216644D01*
X156122132Y-100065021D01*
X156154150Y-99904058D01*
X156154150Y-99739942D01*
X156122132Y-99578979D01*
X156059328Y-99427356D01*
X155968150Y-99290898D01*
X155852102Y-99174850D01*
X155715644Y-99083672D01*
X155564021Y-99020868D01*
X155403058Y-98988850D01*
X155238942Y-98988850D01*
X155077979Y-99020868D01*
X154926356Y-99083672D01*
X154789898Y-99174850D01*
X154673850Y-99290898D01*
X154582672Y-99427356D01*
X154519868Y-99578979D01*
X154487850Y-99739942D01*
X146147320Y-99739942D01*
X146151150Y-99720688D01*
X146151150Y-99625712D01*
X146132621Y-99532562D01*
X146096276Y-99444816D01*
X146043510Y-99365847D01*
X145976353Y-99298690D01*
X145897384Y-99245924D01*
X145809638Y-99209579D01*
X145716488Y-99191050D01*
X145621512Y-99191050D01*
X145528362Y-99209579D01*
X145440616Y-99245924D01*
X145361647Y-99298690D01*
X145341170Y-99319167D01*
X144907062Y-98885060D01*
X144896272Y-98871912D01*
X144843792Y-98828842D01*
X144783918Y-98796839D01*
X144718951Y-98777131D01*
X144668314Y-98772144D01*
X144668303Y-98772144D01*
X144651387Y-98770478D01*
X144634471Y-98772144D01*
X143854080Y-98772144D01*
X143847185Y-98766485D01*
X143787311Y-98734482D01*
X143722344Y-98714774D01*
X143671707Y-98709787D01*
X143671696Y-98709787D01*
X143654780Y-98708121D01*
X143646844Y-98708903D01*
X143624528Y-98702133D01*
X143572005Y-98696960D01*
X143036515Y-98696960D01*
X142983992Y-98702133D01*
X142916607Y-98722574D01*
X142854504Y-98755769D01*
X142800071Y-98800441D01*
X142755399Y-98854874D01*
X142722204Y-98916977D01*
X142701763Y-98984362D01*
X142694861Y-99054440D01*
X140515139Y-99054440D01*
X140508237Y-98984362D01*
X140487796Y-98916977D01*
X140454695Y-98855050D01*
X140487796Y-98793123D01*
X140508237Y-98725738D01*
X140515139Y-98655660D01*
X140508237Y-98585582D01*
X140487796Y-98518197D01*
X140454601Y-98456094D01*
X140453703Y-98455000D01*
X140454601Y-98453906D01*
X140487796Y-98391803D01*
X140508237Y-98324418D01*
X140515139Y-98254340D01*
X140508237Y-98184262D01*
X140487796Y-98116877D01*
X140454695Y-98054950D01*
X140487796Y-97993023D01*
X140508237Y-97925638D01*
X140515139Y-97855560D01*
X140508237Y-97785482D01*
X140487796Y-97718097D01*
X140454601Y-97655994D01*
X140453703Y-97654900D01*
X140454601Y-97653806D01*
X140487796Y-97591703D01*
X140508237Y-97524318D01*
X140515139Y-97454240D01*
X140508237Y-97384162D01*
X140487796Y-97316777D01*
X140454695Y-97254850D01*
X140487796Y-97192923D01*
X140508237Y-97125538D01*
X140515139Y-97055460D01*
X140508237Y-96985382D01*
X140487796Y-96917997D01*
X140454601Y-96855894D01*
X140453703Y-96854800D01*
X140454601Y-96853706D01*
X140487796Y-96791603D01*
X140503284Y-96740546D01*
X140541512Y-96748150D01*
X140636488Y-96748150D01*
X140727371Y-96730072D01*
X140751562Y-96759549D01*
X140805995Y-96804221D01*
X140868098Y-96837416D01*
X140935483Y-96857857D01*
X141005560Y-96864759D01*
X141075638Y-96857857D01*
X141143023Y-96837416D01*
X141204951Y-96804315D01*
X141266878Y-96837416D01*
X141334263Y-96857857D01*
X141403027Y-96864630D01*
X141408446Y-96867526D01*
X141504798Y-96896754D01*
X141605000Y-96906623D01*
X141705203Y-96896754D01*
X141801555Y-96867526D01*
X141806960Y-96864637D01*
X141808200Y-96864759D01*
X141878278Y-96857857D01*
X141945663Y-96837416D01*
X142006321Y-96804994D01*
X142066978Y-96837416D01*
X142134363Y-96857857D01*
X142204440Y-96864759D01*
X142274518Y-96857857D01*
X142341903Y-96837416D01*
X142404006Y-96804221D01*
X142458439Y-96759549D01*
X142503111Y-96705116D01*
X142536306Y-96643013D01*
X142556747Y-96575628D01*
X142561920Y-96523105D01*
X142561920Y-96369307D01*
X143035640Y-95895588D01*
X143048354Y-95885154D01*
X143090011Y-95834395D01*
X143120965Y-95776484D01*
X143140026Y-95713648D01*
X143144850Y-95664667D01*
X143144850Y-95664658D01*
X143146461Y-95648301D01*
X143144850Y-95631944D01*
X143144850Y-95015840D01*
X143175866Y-95053634D01*
X143245330Y-95110641D01*
X143324580Y-95153001D01*
X143410572Y-95179086D01*
X143500000Y-95187894D01*
X143900000Y-95187894D01*
X143989428Y-95179086D01*
X144042861Y-95162878D01*
X144042861Y-96053711D01*
X143775783Y-96320790D01*
X143687021Y-96320790D01*
X143624528Y-96301833D01*
X143572005Y-96296660D01*
X143036515Y-96296660D01*
X142983992Y-96301833D01*
X142916607Y-96322274D01*
X142854504Y-96355469D01*
X142800071Y-96400141D01*
X142755399Y-96454574D01*
X142722204Y-96516677D01*
X142701763Y-96584062D01*
X142694861Y-96654140D01*
X142701763Y-96724218D01*
X142722204Y-96791603D01*
X142755399Y-96853706D01*
X142756297Y-96854800D01*
X142755399Y-96855894D01*
X142722204Y-96917997D01*
X142701763Y-96985382D01*
X142694861Y-97055460D01*
X142701763Y-97125538D01*
X142722204Y-97192923D01*
X142755305Y-97254850D01*
X142722204Y-97316777D01*
X142701763Y-97384162D01*
X142694861Y-97454240D01*
X142701763Y-97524318D01*
X142722204Y-97591703D01*
X142755399Y-97653806D01*
X142756297Y-97654900D01*
X142755399Y-97655994D01*
X142722204Y-97718097D01*
X142701763Y-97785482D01*
X142694861Y-97855560D01*
X142701763Y-97925638D01*
X142722204Y-97993023D01*
X142755305Y-98054950D01*
X142722204Y-98116877D01*
X142701763Y-98184262D01*
X142694861Y-98254340D01*
X142701763Y-98324418D01*
X142722204Y-98391803D01*
X142755399Y-98453906D01*
X142800071Y-98508339D01*
X142854504Y-98553011D01*
X142916607Y-98586206D01*
X142983992Y-98606647D01*
X143036515Y-98611820D01*
X143572005Y-98611820D01*
X143624528Y-98606647D01*
X143646844Y-98599877D01*
X143654780Y-98600659D01*
X143671696Y-98598993D01*
X143671707Y-98598993D01*
X143722344Y-98594006D01*
X143787311Y-98574298D01*
X143847185Y-98542295D01*
X143852533Y-98537906D01*
X144428421Y-98537906D01*
X144445337Y-98539572D01*
X144462253Y-98537906D01*
X144462264Y-98537906D01*
X144512901Y-98532919D01*
X144577868Y-98513211D01*
X144637742Y-98481208D01*
X144690222Y-98438138D01*
X144701015Y-98424987D01*
X145785042Y-97340960D01*
X145798187Y-97330172D01*
X145809181Y-97316777D01*
X145841258Y-97277692D01*
X145873261Y-97217818D01*
X145892969Y-97152851D01*
X145895055Y-97131668D01*
X145897956Y-97102214D01*
X145897956Y-97102213D01*
X145899623Y-97085287D01*
X145897956Y-97068360D01*
X145897956Y-96726512D01*
X148695650Y-96726512D01*
X148695650Y-96821488D01*
X148714179Y-96914638D01*
X148750524Y-97002384D01*
X148803290Y-97081353D01*
X148870447Y-97148510D01*
X148949416Y-97201276D01*
X149037162Y-97237621D01*
X149130312Y-97256150D01*
X149225288Y-97256150D01*
X149318438Y-97237621D01*
X149406184Y-97201276D01*
X149453600Y-97169593D01*
X149501016Y-97201276D01*
X149588762Y-97237621D01*
X149681912Y-97256150D01*
X149776888Y-97256150D01*
X149870038Y-97237621D01*
X149957784Y-97201276D01*
X150036753Y-97148510D01*
X150103910Y-97081353D01*
X150156676Y-97002384D01*
X150193021Y-96914638D01*
X150211550Y-96821488D01*
X150211550Y-96726512D01*
X150193021Y-96633362D01*
X150156676Y-96545616D01*
X150103910Y-96466647D01*
X150036753Y-96399490D01*
X149957784Y-96346724D01*
X149870038Y-96310379D01*
X149776888Y-96291850D01*
X149681912Y-96291850D01*
X149588762Y-96310379D01*
X149501016Y-96346724D01*
X149453600Y-96378407D01*
X149406184Y-96346724D01*
X149318438Y-96310379D01*
X149225288Y-96291850D01*
X149130312Y-96291850D01*
X149037162Y-96310379D01*
X148949416Y-96346724D01*
X148870447Y-96399490D01*
X148803290Y-96466647D01*
X148750524Y-96545616D01*
X148714179Y-96633362D01*
X148695650Y-96726512D01*
X145897956Y-96726512D01*
X145897956Y-94657171D01*
X145911509Y-94657171D01*
X146004659Y-94638642D01*
X146092405Y-94602297D01*
X146171374Y-94549531D01*
X146238531Y-94482374D01*
X146291297Y-94403405D01*
X146327642Y-94315659D01*
X146346171Y-94222509D01*
X146346171Y-94127533D01*
X146327642Y-94034383D01*
X146291297Y-93946637D01*
X146238531Y-93867668D01*
X146171374Y-93800511D01*
X146092405Y-93747745D01*
X146004659Y-93711400D01*
X145948726Y-93700274D01*
X145937600Y-93644341D01*
X145901255Y-93556595D01*
X145848489Y-93477626D01*
X145817988Y-93447125D01*
X148667850Y-93447125D01*
X148667850Y-93556875D01*
X148689261Y-93664515D01*
X148731260Y-93765910D01*
X148788282Y-93851250D01*
X148731260Y-93936590D01*
X148689261Y-94037985D01*
X148667850Y-94145625D01*
X148667850Y-94255375D01*
X148689261Y-94363015D01*
X148731260Y-94464410D01*
X148792233Y-94555663D01*
X148869837Y-94633267D01*
X148961090Y-94694240D01*
X149062485Y-94736239D01*
X149170125Y-94757650D01*
X149279875Y-94757650D01*
X149387515Y-94736239D01*
X149488910Y-94694240D01*
X149580163Y-94633267D01*
X149657767Y-94555663D01*
X149718740Y-94464410D01*
X149760739Y-94363015D01*
X149782150Y-94255375D01*
X149782150Y-94145625D01*
X149760739Y-94037985D01*
X149718740Y-93936590D01*
X149661718Y-93851250D01*
X149718740Y-93765910D01*
X149760739Y-93664515D01*
X149782150Y-93556875D01*
X149782150Y-93447125D01*
X149760739Y-93339485D01*
X149718740Y-93238090D01*
X149657767Y-93146837D01*
X149580163Y-93069233D01*
X149488910Y-93008260D01*
X149387515Y-92966261D01*
X149279875Y-92944850D01*
X149170125Y-92944850D01*
X149062485Y-92966261D01*
X148961090Y-93008260D01*
X148869837Y-93069233D01*
X148792233Y-93146837D01*
X148731260Y-93238090D01*
X148689261Y-93339485D01*
X148667850Y-93447125D01*
X145817988Y-93447125D01*
X145781332Y-93410469D01*
X145702363Y-93357703D01*
X145614617Y-93321358D01*
X145521467Y-93302829D01*
X145426491Y-93302829D01*
X145333341Y-93321358D01*
X145245595Y-93357703D01*
X145166626Y-93410469D01*
X145099469Y-93477626D01*
X145061970Y-93533747D01*
X145061970Y-92832476D01*
X145063581Y-92816119D01*
X145061970Y-92799762D01*
X145061970Y-92799753D01*
X145057146Y-92750772D01*
X145038085Y-92687936D01*
X145007131Y-92630025D01*
X144996216Y-92616725D01*
X144975907Y-92591978D01*
X144975904Y-92591975D01*
X144965474Y-92579266D01*
X144952766Y-92568837D01*
X144358394Y-91974466D01*
X144358394Y-91512500D01*
X144349586Y-91423072D01*
X144323501Y-91337080D01*
X144281141Y-91257830D01*
X144224134Y-91188366D01*
X144154670Y-91131359D01*
X144075420Y-91088999D01*
X143989428Y-91062914D01*
X143900000Y-91054106D01*
X143500000Y-91054106D01*
X143410572Y-91062914D01*
X143324580Y-91088999D01*
X143245330Y-91131359D01*
X143175866Y-91188366D01*
X143118859Y-91257830D01*
X143076499Y-91337080D01*
X143050414Y-91423072D01*
X143041606Y-91512500D01*
X143041606Y-92062500D01*
X143050414Y-92151928D01*
X143076499Y-92237920D01*
X143118859Y-92317170D01*
X143175866Y-92386634D01*
X143245330Y-92443641D01*
X143265178Y-92454250D01*
X143245330Y-92464859D01*
X143175866Y-92521866D01*
X143118859Y-92591330D01*
X143076499Y-92670580D01*
X143050414Y-92756572D01*
X143041606Y-92846000D01*
X143041606Y-93396000D01*
X143050414Y-93485428D01*
X143076499Y-93571420D01*
X143118859Y-93650670D01*
X143175866Y-93720134D01*
X143245330Y-93777141D01*
X143265178Y-93787750D01*
X143245330Y-93798359D01*
X143175866Y-93855366D01*
X143118859Y-93924830D01*
X143076499Y-94004080D01*
X143050414Y-94090072D01*
X143047336Y-94121327D01*
X143000152Y-94125974D01*
X142937316Y-94145035D01*
X142879405Y-94175989D01*
X142879403Y-94175990D01*
X142879404Y-94175990D01*
X142841358Y-94207213D01*
X142841355Y-94207216D01*
X142828646Y-94217646D01*
X142818215Y-94230356D01*
X142708394Y-94340178D01*
X142708394Y-94179500D01*
X142699586Y-94090072D01*
X142673501Y-94004080D01*
X142631141Y-93924830D01*
X142574134Y-93855366D01*
X142561150Y-93844710D01*
X142561150Y-93730790D01*
X142574134Y-93720134D01*
X142631141Y-93650670D01*
X142673501Y-93571420D01*
X142699586Y-93485428D01*
X142708394Y-93396000D01*
X142708394Y-92846000D01*
X142699586Y-92756572D01*
X142673501Y-92670580D01*
X142631141Y-92591330D01*
X142574134Y-92521866D01*
X142561150Y-92511210D01*
X142561150Y-92397290D01*
X142574134Y-92386634D01*
X142631141Y-92317170D01*
X142673501Y-92237920D01*
X142699586Y-92151928D01*
X142708394Y-92062500D01*
X142708394Y-91512500D01*
X142699586Y-91423072D01*
X142673501Y-91337080D01*
X142631141Y-91257830D01*
X142574134Y-91188366D01*
X142504670Y-91131359D01*
X142425420Y-91088999D01*
X142339428Y-91062914D01*
X142250000Y-91054106D01*
X142039481Y-91054106D01*
X141962317Y-90976942D01*
X144454850Y-90976942D01*
X144454850Y-91141058D01*
X144486868Y-91302021D01*
X144549672Y-91453644D01*
X144640850Y-91590102D01*
X144756898Y-91706150D01*
X144893356Y-91797328D01*
X145044979Y-91860132D01*
X145205942Y-91892150D01*
X145370058Y-91892150D01*
X145531021Y-91860132D01*
X145682644Y-91797328D01*
X145819102Y-91706150D01*
X145935150Y-91590102D01*
X146026328Y-91453644D01*
X146089132Y-91302021D01*
X146121150Y-91141058D01*
X146121150Y-90976942D01*
X146111756Y-90929713D01*
X146752780Y-90929713D01*
X146816044Y-91099147D01*
X146929066Y-91241823D01*
X147067751Y-91359708D01*
X147226769Y-91448271D01*
X147400010Y-91504110D01*
X148349970Y-91504110D01*
X148349970Y-90793570D01*
X148743670Y-90793570D01*
X148743670Y-91504110D01*
X149693630Y-91504110D01*
X149866871Y-91448271D01*
X150025889Y-91359708D01*
X150164574Y-91241823D01*
X150277596Y-91099147D01*
X150340860Y-90929713D01*
X150316580Y-90793570D01*
X148743670Y-90793570D01*
X148349970Y-90793570D01*
X146777060Y-90793570D01*
X146752780Y-90929713D01*
X146111756Y-90929713D01*
X146089132Y-90815979D01*
X146026328Y-90664356D01*
X145935150Y-90527898D01*
X145819102Y-90411850D01*
X145682644Y-90320672D01*
X145531021Y-90257868D01*
X145370058Y-90225850D01*
X145205942Y-90225850D01*
X145044979Y-90257868D01*
X144893356Y-90320672D01*
X144756898Y-90411850D01*
X144640850Y-90527898D01*
X144549672Y-90664356D01*
X144486868Y-90815979D01*
X144454850Y-90976942D01*
X141962317Y-90976942D01*
X141669696Y-90684322D01*
X141653686Y-90664814D01*
X141575854Y-90600938D01*
X141487055Y-90553474D01*
X141390703Y-90524246D01*
X141315609Y-90516850D01*
X141315601Y-90516850D01*
X141290500Y-90514378D01*
X141265399Y-90516850D01*
X138588168Y-90516850D01*
X138570847Y-90484444D01*
X138538712Y-90445288D01*
X138499556Y-90413153D01*
X138454883Y-90389275D01*
X138406410Y-90374571D01*
X138356000Y-90369606D01*
X137456000Y-90369606D01*
X137405590Y-90374571D01*
X137357117Y-90389275D01*
X137312444Y-90413153D01*
X137273288Y-90445288D01*
X137241153Y-90484444D01*
X137217275Y-90529117D01*
X137202571Y-90577590D01*
X137197606Y-90628000D01*
X137197606Y-91428000D01*
X137202571Y-91478410D01*
X137217275Y-91526883D01*
X137241153Y-91571556D01*
X137273288Y-91610712D01*
X137312444Y-91642847D01*
X137357117Y-91666725D01*
X137405590Y-91681429D01*
X137456000Y-91686394D01*
X138356000Y-91686394D01*
X138406410Y-91681429D01*
X138454883Y-91666725D01*
X138499556Y-91642847D01*
X138538712Y-91610712D01*
X138570847Y-91571556D01*
X138588168Y-91539150D01*
X141078776Y-91539150D01*
X141391606Y-91851981D01*
X141391606Y-92062500D01*
X141400414Y-92151928D01*
X141426499Y-92237920D01*
X141468859Y-92317170D01*
X141525866Y-92386634D01*
X141538850Y-92397290D01*
X141538851Y-92511210D01*
X141525866Y-92521866D01*
X141471334Y-92588314D01*
X141422811Y-92529189D01*
X141349559Y-92469073D01*
X141265987Y-92424402D01*
X141175305Y-92396894D01*
X141081000Y-92387606D01*
X140631000Y-92387606D01*
X140536695Y-92396894D01*
X140446013Y-92424402D01*
X140362441Y-92469073D01*
X140289189Y-92529189D01*
X140229073Y-92602441D01*
X140184402Y-92686013D01*
X140156894Y-92776695D01*
X140147606Y-92871000D01*
X140147606Y-93371000D01*
X140156894Y-93465305D01*
X140184402Y-93555987D01*
X140229073Y-93639559D01*
X140289189Y-93712811D01*
X140344850Y-93758491D01*
X140344851Y-93880509D01*
X140289189Y-93926189D01*
X140229073Y-93999441D01*
X140184402Y-94083013D01*
X140156894Y-94173695D01*
X140147606Y-94268000D01*
X140147606Y-94768000D01*
X140156894Y-94862305D01*
X140184402Y-94952987D01*
X140229073Y-95036559D01*
X140289189Y-95109811D01*
X140362441Y-95169927D01*
X140446013Y-95214598D01*
X140536695Y-95242106D01*
X140631000Y-95251394D01*
X141081000Y-95251394D01*
X141093850Y-95250128D01*
X141093851Y-95658388D01*
X141075637Y-95652863D01*
X141005560Y-95645961D01*
X140935482Y-95652863D01*
X140868097Y-95673304D01*
X140805994Y-95706499D01*
X140751561Y-95751172D01*
X140712357Y-95798942D01*
X140636488Y-95783850D01*
X140541512Y-95783850D01*
X140448362Y-95802379D01*
X140360616Y-95838724D01*
X140281647Y-95891490D01*
X140214490Y-95958647D01*
X140191098Y-95993655D01*
X140184251Y-95980845D01*
X140142594Y-95930086D01*
X140129879Y-95919651D01*
X139898201Y-95687973D01*
X139898201Y-95629763D01*
X139879672Y-95536613D01*
X139843327Y-95448867D01*
X139790561Y-95369898D01*
X139723404Y-95302741D01*
X139644435Y-95249975D01*
X139556689Y-95213630D01*
X139463539Y-95195101D01*
X139368563Y-95195101D01*
X139275413Y-95213630D01*
X139187667Y-95249975D01*
X139108698Y-95302741D01*
X139041541Y-95369898D01*
X138988775Y-95448867D01*
X138972976Y-95487009D01*
X138967966Y-95483661D01*
X138880220Y-95447316D01*
X138787070Y-95428787D01*
X138692094Y-95428787D01*
X138598944Y-95447316D01*
X138511198Y-95483661D01*
X138432229Y-95536427D01*
X138365072Y-95603584D01*
X138312306Y-95682553D01*
X138275961Y-95770299D01*
X138264835Y-95826232D01*
X138208902Y-95837358D01*
X138121156Y-95873703D01*
X138042187Y-95926469D01*
X137975030Y-95993626D01*
X137922264Y-96072595D01*
X137885919Y-96160341D01*
X137867390Y-96253491D01*
X137867390Y-96348467D01*
X137885919Y-96441617D01*
X137922264Y-96529363D01*
X137975030Y-96608332D01*
X138042187Y-96675489D01*
X138121156Y-96728255D01*
X138201044Y-96761345D01*
X138201044Y-96941370D01*
X138199378Y-96958287D01*
X138201044Y-96975203D01*
X138201044Y-96975213D01*
X138206031Y-97025850D01*
X138224429Y-97086499D01*
X138225739Y-97090817D01*
X138257742Y-97150692D01*
X138276510Y-97173561D01*
X138261094Y-97170494D01*
X138166118Y-97170494D01*
X138072968Y-97189023D01*
X137985222Y-97225368D01*
X137906253Y-97278134D01*
X137839096Y-97345291D01*
X137786330Y-97424260D01*
X137769956Y-97463791D01*
X137769956Y-95620629D01*
X137771622Y-95603713D01*
X137769956Y-95586797D01*
X137769956Y-95586786D01*
X137764969Y-95536149D01*
X137745261Y-95471182D01*
X137713258Y-95411307D01*
X137680978Y-95371975D01*
X137680970Y-95371967D01*
X137670187Y-95358828D01*
X137657047Y-95348044D01*
X136933212Y-94624210D01*
X136922422Y-94611062D01*
X136869942Y-94567992D01*
X136810068Y-94535989D01*
X136745101Y-94516281D01*
X136694464Y-94511294D01*
X136694453Y-94511294D01*
X136677537Y-94509628D01*
X136660621Y-94511294D01*
X136207062Y-94511294D01*
X136197116Y-94499175D01*
X136144636Y-94456105D01*
X136084762Y-94424102D01*
X136019795Y-94404394D01*
X135969158Y-94399407D01*
X135969147Y-94399407D01*
X135952231Y-94397741D01*
X135935315Y-94399407D01*
X135688182Y-94399407D01*
X135688116Y-94399353D01*
X135643443Y-94375475D01*
X135594970Y-94360771D01*
X135544560Y-94355806D01*
X133944360Y-94355806D01*
X133893950Y-94360771D01*
X133845477Y-94375475D01*
X133800804Y-94399353D01*
X133761648Y-94431488D01*
X133761160Y-94432083D01*
X133761160Y-93096109D01*
X133910674Y-92946595D01*
X133974441Y-92998927D01*
X134058013Y-93043598D01*
X134148695Y-93071106D01*
X134243000Y-93080394D01*
X134743000Y-93080394D01*
X134837305Y-93071106D01*
X134927987Y-93043598D01*
X135011559Y-92998927D01*
X135084811Y-92938811D01*
X135130491Y-92883150D01*
X135486899Y-92883150D01*
X135512000Y-92885622D01*
X135537101Y-92883150D01*
X135537109Y-92883150D01*
X135612203Y-92875754D01*
X135708555Y-92846526D01*
X135797354Y-92799062D01*
X135875186Y-92735186D01*
X135891196Y-92715678D01*
X135970480Y-92636394D01*
X136356000Y-92636394D01*
X136406410Y-92631429D01*
X136454883Y-92616725D01*
X136499556Y-92592847D01*
X136538712Y-92560712D01*
X136570847Y-92521556D01*
X136594725Y-92476883D01*
X136609429Y-92428410D01*
X136614394Y-92378000D01*
X136614394Y-91578000D01*
X136609429Y-91527590D01*
X136594725Y-91479117D01*
X136570847Y-91434444D01*
X136538712Y-91395288D01*
X136499556Y-91363153D01*
X136454883Y-91339275D01*
X136406410Y-91324571D01*
X136356000Y-91319606D01*
X135456000Y-91319606D01*
X135405590Y-91324571D01*
X135357117Y-91339275D01*
X135312444Y-91363153D01*
X135273288Y-91395288D01*
X135241153Y-91434444D01*
X135217275Y-91479117D01*
X135202571Y-91527590D01*
X135197606Y-91578000D01*
X135197606Y-91860850D01*
X135130491Y-91860850D01*
X135084811Y-91805189D01*
X135011559Y-91745073D01*
X134927987Y-91700402D01*
X134837305Y-91672894D01*
X134743000Y-91663606D01*
X134243000Y-91663606D01*
X134148695Y-91672894D01*
X134058013Y-91700402D01*
X133974441Y-91745073D01*
X133901189Y-91805189D01*
X133841073Y-91878441D01*
X133796402Y-91962013D01*
X133777493Y-92024348D01*
X133727545Y-92051046D01*
X133669051Y-92099051D01*
X133657023Y-92113707D01*
X133221450Y-92549281D01*
X133221450Y-90221450D01*
X146768566Y-90221450D01*
X146752780Y-90263727D01*
G37*
%TD.AperFunction*%
%TD*%
M02*
